<?xml version="1.0" encoding="utf-8"?>
<!-- Generator: Adobe Illustrator 22.1.0, SVG Export Plug-In . SVG Version: 6.00 Build 0)  -->
<svg version="1.1" xmlns="http://www.w3.org/2000/svg" xmlns:xlink="http://www.w3.org/1999/xlink" x="0px" y="0px"
	 viewBox="0 0 585.3 730.5" style="enable-background:new 0 0 585.3 730.5;" xml:space="preserve">
<style type="text/css">
	.st0{fill:#333333;}
</style>
<g id="Background">
</g>
<g id="Objects">
	<g>
		<g>
			<path class="st0" d="M509.4,95.7c-4.9-1.8-9.4-3.2-13.9-5c-6.1-2.4-12-5.2-18.2-7.4c-11.9-4.3-23.7-8.9-35.8-12.5
				c-11.5-3.5-23.3-6-35.1-8.7c-6.3-1.5-12.6-2.7-18.9-3.8c-8.2-1.4-16.3-2.6-24.5-3.7c-13.7-1.9-27.3-3.7-41-5.5
				c-2.7-0.4-5.4-0.6-7.8-0.8c-0.7-6.1-1.6-12.7-2.4-20.4c-0.7-7.1-1.9-14.2-1.5-21.4c0.3-4-1.3-5.6-5.4-5.7
				C293.3,0.4,281.8,0,270.3,0c-12.4,0-24.7,0.2-37.1,0.5c-9.8,0.2-19.6,0.8-29.4,1.1c-5.7,0.2-11.5,0.2-17.2,0.4
				c-6.5,0.3-13.1,0.7-19.6,1.1c-2,0.1-2.4,0.7-2.5,2.7c0,1.6,0,3.3-0.3,4.9c-1.5,9.8-1.8,19.7-2,29.7c0,3.9-0.3,7.7-0.5,12
				c-3.3,0.5-6.5,0.9-9.6,1.4c-10.1,1.7-20.2,3.1-30.2,5.2c-12.6,2.6-25.1,5.7-37.6,8.9C71.3,71.2,58.6,75.6,46,80.5
				c-10.3,4-20.6,7.8-30.9,11.9c-4.4,1.7-8.5,3.9-12.7,6c-1.2,0.6-1.7,1.5-1.7,3c-0.2,7.1-0.4,14.3-0.6,21.4c-0.1,1.8,0,3.7,0.1,5.5
				c0,1.3,1.1,2.1,2.8,2.2c2.2,0.1,4.5,0,6.7,0c5.4-0.1,10.8-0.4,16.2-0.5c11.2-0.3,22.5-0.7,33.7-0.9c4.9-0.1,9.8,0,14.7-0.1
				c9-0.2,18-0.6,27-0.8c4.1-0.1,8.2,0.1,12.2,0.1c5,0,10,0,15,0c7.5,0,14.9,0.1,22.4,0.1c4.4,0,4.4,0,4.7,4.4
				c0.1,1.3,0.2,2.7,0.4,4c0.8,5.5,3.9,8.9,9.5,9.7c3.7,0.5,7.5,0.7,11.3,0.7c12.5,0.1,24.9,0.3,37.4,0.2
				c11.5-0.1,23.1-0.3,34.6-0.7c6.8-0.2,13.7-1,20.5-1.4c9.1-0.5,18.2-0.8,27.3-1.2c6.9-0.3,13.9-0.4,20.8-0.6c2.1,0,3.4-1,4.4-2.7
				c1.4-2.5,2-5.1,2.1-7.9c0.1-1.9,0.4-3.8,0.6-5.7c3.3-0.2,6.4-0.4,9.4-0.5c8.8-0.2,17.6-0.5,26.4-0.5c13.6-0.1,27.2,0.1,40.8,0.1
				c8.2,0,16.3-0.1,24.5-0.1c9.9,0.1,19.8,0.4,29.7,0.4c6.8,0,13.7-0.2,20.5-0.2c4,0,8,0.2,11.9,0.2c5.6,0,11.2,0,16.8-0.2
				c1.8,0,3.6-0.5,5.7-0.8C510,115.2,510.7,105.2,509.4,95.7z M306.9,8.9c0.4,1.9,0.4,3.7,0.6,5.6c1,8.1,2,16.2,3.1,24.3
				c0.4,2.9,0.4,5.8,0,9.1c-3.6-0.3-7-0.6-10.6-0.9c1.2-6.7,2.2-13,3.4-19.3C304.5,21.4,305.7,15.2,306.9,8.9z M186.2,5.7
				c6.7-0.1,13.5-0.3,20.2-0.6c10.8-0.4,21.6-1,32.5-1.4c7.5-0.2,14.9,0,22.4-0.3c13.9-0.6,27.8-0.4,41.7,0.7
				c0.7,0.1,1.3,0.3,1.9,0.4c-2.6,14.1-5.1,28-7.8,42.3c-2.2-0.2-4.4-0.4-6.6-0.5c-2.2-0.1-4.5-0.2-6.7-0.3
				c-2.2-0.1-4.5-0.1-6.7-0.1c-2.2,0-4.5,0-6.7,0c-2.2,0-4.5,0-6.8,0.1c-2.2,0-4.5,0-6.7,0.1c-2.2,0-4.7,0.8-6.7,0
				c-2.2-0.8-4.2,0.8-6.3,0.1c0.5-0.8,0.8-1.3,1.1-1.9c-2.5-0.1-3.8,2.9-6.5,2c0.2-0.6,0.4-1,0.7-1.7c-2.5,0.8-4.1,2.9-6.7,2.1
				c0.2-0.5,0.3-1.1,0.5-1.8c-2.3,0.5-3.8,2.9-6.5,1.7c1-1.1,1.8-2.1,2.7-3.1c-0.1-0.1-0.1-0.3-0.2-0.4c-2.1,1.5-4.3,2.9-6.4,4.4
				c-0.1-0.2-0.3-0.3-0.4-0.5l1-1.9c-1.3,0.4-2.1,1.2-3.2,1.7c-1,0.4-2.1,0.5-3.2,0.7c0-0.2-0.1-0.4-0.1-0.6
				c1.6-1.4,3.2-2.7,4.8-4.1c-0.2-0.2-0.3-0.4-0.5-0.6c-2.2,1.5-4.4,2.9-6.5,4.4c-1.2,0.9-2.3,1.5-4.1,0.8c1.3-1.3,2.5-2.4,3.6-3.5
				c-1.7,0.5-3,1.4-4.2,2.4c-1.4,1.1-2.7,2-5.2,1.2c1.9-1.8,3.5-3.3,5.2-5c-1.3-0.3-2,0.5-2.7,1.2c-1.3,1.1-2.6,2.3-3.9,3.5
				c-1.1,1-2.3,1.4-4.2,1c1.9-2,3.6-3.8,5.3-5.5c-2,0.8-3.6,2.1-5.3,3.2c-1.5,1.1-2.5,3.3-5.6,2.5c2.5-2.8,4.8-5.2,7-7.7
				c-1.1,0.4-2,1-2.8,1.7c-1.8,1.7-3.6,3.3-5.3,5.1c-1.4,1.4-2.9,2.1-5.2,1.8c1.6-2.2,3-4.1,4.4-6.1c-0.2-0.1-0.4-0.3-0.5-0.4
				c-1.4,1.7-2.9,3.4-4.3,5.1c-1.3,1.6-2.8,2.2-5,1.7c2.6-5.2,7-8.6,10.8-12.6c-0.7,0.1-1.4,0.4-1.9,0.8c-2.7,2.6-5.4,5.3-8,8
				c-1.1,1.2-2,2.6-3.1,3.8c-1.2,1.2-2.8,0.8-3.1-0.7c-0.5-2.5-0.7-5-1-7c4.9-5.6,9.6-10.9,14.2-16.1c-5.5,3.5-9.7,8.4-13.9,13.9
				c-1.1-3-1.3-5.2,0.8-7.3c5.3-5.1,10.5-10.2,15.7-15.3c0.1-0.1-0.1-0.3-0.2-0.9c-3.5,2-6,5-8.8,7.5c-2.9,2.7-5.7,5.4-8.6,8.2
				c-0.9-1.1-0.5-1.9,0.3-2.7c3.6-4,7.2-8.1,10.8-12.2c1.4-1.5,2.7-3.1,4.1-4.6c-0.2-0.2-0.3-0.3-0.5-0.5c-5.4,4.5-9.9,10-14.8,15.1
				c-1.8-2.7-1.9-2.8-0.3-4.5c4.8-5.2,9.6-10.3,14.4-15.5c0.2-0.2,0.3-0.5,0.4-0.8c-6.3,4.2-10.9,10-16.5,15
				c-0.9-1.7-0.2-2.7,0.6-3.7c2.9-3.3,5.8-6.6,8.6-10C182.7,6.3,184.2,5.7,186.2,5.7z M181.1,6.5c-3.5,3.1-5.8,7-9.7,9.8
				c-0.2-2.3,0.8-3.9,5-8.1C177.6,7.1,178.6,5.6,181.1,6.5z M175.1,7c-1.4,1.4-2.8,2.8-4.5,4.5C170.2,8.8,171.8,7.1,175.1,7z
				 M167.5,12.3c1.1,6.4,2.5,12.6,3.1,19.1c0.6,6.5,1.7,12.9,2.6,19.6c-2.7,0.3-5.3,0.7-8.1,1C165.2,40.8,164.5,18.6,167.5,12.3z
				 M16.8,95.2c5.9-2.5,11.9-4.9,17.9-7.2c12.4-4.6,24.7-9.1,37.2-13.4c15.1-5.2,30.6-8.8,46.2-12.1c13.8-2.9,27.6-5.7,41.7-6.9
				c10-0.9,19.9-2.3,29.9-3.1c10.8-0.9,21.6-1.7,32.4-2.3c9.3-0.5,18.6-0.8,27.9-1.1c8.3-0.2,16.6-0.4,24.8-0.3
				c12.6,0.2,25.1,0.7,37.6,2.3c8.8,1.1,17.7,1.9,26.5,3c10.3,1.3,20.7,2.7,31,4.4c12.6,2.1,25.2,4.2,37.7,6.8
				c10.5,2.2,20.8,5,31.2,7.8c4.3,1.1,8.6,2.6,12.8,4.1c4.7,1.6,9.4,3.4,14.1,5.2c10.3,3.9,20.6,7.8,30.9,11.8
				c0,0.2-0.1,0.4-0.1,0.7c-1.3,0.2-2.5,0.4-3.8,0.5c-7.7,0.2-15.3,0.3-23,0.4c-13.7,0.1-27.4,0.1-41.1,0.1
				c-13.6,0-27.2-0.2-40.8-0.3c-16.5,0-32.9,0-49.4,0.1c-11.9,0.1-23.7,0.3-35.6,0.4c-12.1,0.1-24.1,0-36.2,0.1
				c-11.5,0.1-22.9,0.2-34.4,0.2c-12,0.1-23.9,0.2-35.9,0.3c-9,0.1-18,0.2-27,0.3c-14.2,0.2-28.4,0.4-42.6,0.6
				c-8.1,0.1-16.2,0.5-24.2,0.5c-9.9,0.1-19.8-0.1-29.7-0.1c-6.3,0-12.7,0-19,0.1c-6.6,0.1-13.3,0.4-19.9,0.6
				c-7.6,0.2-15.2,0.4-22.9,0.6c-0.1-0.3-0.1-0.6-0.2-1C12.9,97.2,14.8,96,16.8,95.2z M3.8,102.1c1.2,0.1,2.2,0.2,3.3,0.2
				c0,0.2,0.1,0.4,0.1,0.6c-1.1,0.6-2.1,1.2-3.4,2L3.8,102.1z M4.4,106.8c2.3-1.6,4.7-3.1,7.2-4.5c1.7-0.9,1.8-0.8,4.5,0
				c-4.2,2.6-8.1,5-12,7.4c-0.3-0.1-0.5-0.3-0.8-0.4C3.7,108.4,3.8,107.2,4.4,106.8z M5.3,111c4.4-2.9,8.9-5.7,13.3-8.6
				c2.6-1.7,5.5-1.7,8.6-1.7c-2.1,2.1-21.3,13.9-23.7,14.6C2.5,113.2,3.8,112,5.3,111z M322,133.7c-0.3,3.1-2.4,6.3-6.5,6.4
				c-9,0.2-18,0.7-26.9,1.2c-6.9,0.3-13.9,0.6-20.8,1c-7.7,0.4-15.4,0.8-23.2,1.2c-0.4,0-0.9-0.2-1.4-0.3c0.4-0.9,0.6-1.5,1.1-2.6
				c-3,1.2-4.8,4.4-8.4,2.6c0.8-0.9,1.4-1.6,2-2.3c-3.4,0.8-5.8,4.3-9.9,2.6c1-1.2,1.9-2.4,2.9-3.6c-1.8,0.7-3.4,1.6-4.7,2.8
				c-1.9,1.8-4,1.6-6.6,1.2c0.9-1.1,1.7-2,2.9-3.5c-3.7,0.8-5.4,4.9-9.4,3.5c0.9-1.2,1.7-2.1,2.5-3.1c-0.1-0.2-0.3-0.3-0.4-0.5
				c-1.3,0.9-2.6,1.7-3.8,2.7c-1.5,1.2-3,1.5-5,0.8c1.1-1.3,2-2.5,3-3.7c-0.2-0.2-0.3-0.4-0.5-0.5c-1.6,1.2-3.2,2.3-4.8,3.6
				c-1.6,1.2-3.2,1.3-5.4,0.5c1.5-1.9,2.8-3.5,4.1-5.1c-0.2-0.2-0.3-0.3-0.5-0.5c-0.7,0.6-1.5,1.2-2.2,1.9c-0.9,0.8-1.8,1.7-2.6,2.6
				c-1.4,1.7-3.1,1.9-5.2,1.2c1-2.3,3.7-3.1,4.1-5.6c-1.9,1.4-3.6,3-5.3,4.6c-1.2,1.2-2.4,1.7-4.4,0.9c1.4-1.5,2.6-2.9,4.3-4.7
				c-1.1,0.3-1.7,0.4-2.1,0.7c-1,0.7-2,1.5-2.7,2.4c-1.7,2.2-3.7,2.4-6.4,1.5c1.3-1.5,2.4-2.8,3.4-4c-0.2-0.2-0.4-0.4-0.6-0.5
				c-1.2,1-2.4,2-3.7,3c-1.2,1-2.1,2.4-4.4,1.7c1.2-1.4,2.1-2.6,3.4-4.2c-3.8,0.6-5,5.3-8.9,4c-0.3-2.9,3.3-3.3,3.6-5.8
				c-1.1,0.4-2,1-2.8,1.7c-1,0.9-1.9,1.8-2.9,2.7c-1,0.9-2.1,1.3-3.3,0c1.4-1.6,2.7-3.1,4.4-5.1c-3.4,0.3-4.1,3.5-6.5,4.3
				c-2.9-1.9-4.1-6.3-3.3-12.7c1-0.1,1.9-0.2,2.9-0.1c8.8,0.2,17.6,0.6,26.4,0.6c16,0.1,31.9,0,47.9-0.2c11.6-0.1,23.3-0.7,34.9-1
				c6.2-0.2,12.5-0.2,18.7-0.3c10.3-0.2,20.6-0.5,31-0.7c0.9,0,1.8,0.1,2.7,0.2C322.3,129.5,322.2,131.6,322,133.7z M506.5,123.5
				c0,0.1-6.2,0.4-6.4,0.4c-0.3,0.2-0.7,0.2-1-0.1c-1.9-0.2-3.7-0.2-5.6-0.2c-0.2,0-0.4-0.1-0.5-0.2c-4-0.1-7.9-0.2-11.9-0.3
				c-3.8,0-7.6,0.1-11.3,0.1c-7.9,0-15.7-0.1-23.6-0.2c-8.9-0.1-17.8-0.3-26.7-0.3c-13.1,0-26.2,0.1-39.3,0.1
				c-9.6,0-19.2-0.1-28.8,0c-10.2,0.2-20.4,0.6-30.7,0.9c-12.3,0.3-24.5,0.4-36.8,0.7c-16,0.4-32.1,0.9-48.1,1.2
				c-13.4,0.3-26.8,0.5-40.2,0.4c-12.9-0.1-25.8-0.5-38.6-0.8c-2.8-0.1-5.7,0-8.6-0.1l0-1.8c-3,1.9-5.9,2-9.1,1.6
				c0.3-0.6,0.5-1,1.1-2.1c-5.3,2.1-10.2,2.7-15.5,1.8c1.2-0.9,2.1-1.6,3-2.2c-0.1-0.2-0.2-0.4-0.3-0.5c-1.9,0.7-3.8,1.4-5.6,2.2
				c-2,1-4,1-6.6,0.6c1.8-1,3-1.7,4.3-2.4l-0.3-0.7c-2.3,0.9-4.7,1.7-7,2.6c-1.6,0.6-3.2,0.9-5.2,0.4c1.9-1,3.5-1.9,5-2.7
				c-0.7-0.4-1.2-0.4-1.6-0.3c-2.2,0.8-4.4,1.7-6.6,2.6c-2,0.8-4,0.9-6.5,0.4c1.5-0.9,2.6-1.6,3.7-2.3c-5.3,0.8-10,4.3-16.1,2.4
				c1.1-0.7,1.8-1.2,2.6-1.7c0.7-0.5,1.5-0.9,2.3-1.3c-4.8,1-8.8,4.7-14.8,3.4c3.1-1.8,5.7-3.3,8.2-4.7c-0.1-0.2-0.3-0.5-0.4-0.7
				c-3.2,1.6-6.5,2.9-9.5,4.8c-2.8,1.7-5.6,1.3-8.7,0.5c2.5-1.6,5-3.2,7.6-4.7c-1,0.1-2,0.3-2.9,0.8c-2.5,1.2-4.9,2.5-7.4,3.7
				c-1.6,0.8-3.2,1.6-5.6,0.8c3.6-2.1,6.8-3.9,10-5.8c-0.1-0.2-0.2-0.4-0.3-0.6c-0.7,0.2-1.5,0.3-2.1,0.6c-3.2,1.7-6.5,3.5-9.7,5.3
				c-2.2,1.3-4.3,1.5-7.3,0.7c4.2-2.9,7.9-5.5,11.6-8c-0.1-0.2-0.3-0.4-0.4-0.6c-1.3,0.7-2.7,1.3-4,2c-3,1.9-6.1,3.8-9,5.9
				c-2.4,1.7-4.8,1.6-7.6,0.5l17.6-11c-0.1-0.2-0.2-0.4-0.3-0.6c-1.2,0.5-2.4,0.9-3.5,1.6c-5.2,3.1-10.4,6.2-15.4,9.5
				c-2.3,1.5-4.5,1.9-7.6,1.5c6.4-4.4,12.3-8.5,18.3-12.6c-0.7-0.3-1.2-0.3-1.6,0c-5.8,3.7-11.6,7.2-17.2,11.2
				c-2.2,1.6-4.3,1.7-7.4,1.4c7.3-5.2,14-9.9,20.7-14.6c-2.3-0.2-3.8,1.2-5.4,2.3c-5.5,3.7-11.1,7.3-16.5,11.1
				c-2.4,1.6-4.8,2.1-8,1.1c8.7-6.8,17.6-12.5,26.2-18.8c-1,0.2-1.9,0.6-2.7,1.1c-6.9,4.6-13.8,9.2-20.7,13.8
				c-1.9,1.2-3.7,2.6-5.6,3.7c-1.7,1-3.6,1.2-5.9-0.3c9.9-7.7,20.1-14.3,29.8-21.6c-1.4,0.4-2.7,0.9-3.9,1.6c-2.2,1.4-4.4,3-6.6,4.5
				c-5.5,3.8-11.1,7.7-16.7,11.5c-0.7,0.5-1.5,0.7-2.4,1.2l0-5.1c7.1-4.7,14.1-9.2,20.9-13.9c4.1-2.8,8.3-4.7,13.3-4.2
				c0.6,0.1,1.2,0,1.8,0c9,0,18,0.2,27,0.1c7.1,0,14.3-0.4,21.4-0.4c5.5,0,11,0.6,16.5,0.6c15.1-0.1,30.2-0.4,45.4-0.6
				c14.2-0.2,28.4-0.4,42.6-0.5c9.7-0.1,19.4-0.1,29.1-0.2c12.5-0.1,24.9-0.1,37.4-0.2c13.6-0.1,27.2-0.2,40.8-0.3
				c7-0.1,14.1-0.4,21.1-0.4c8.2,0,16.3,0.1,24.5,0.1c12.6,0,25.1-0.1,37.7-0.1c4,0,8,0.1,11.9,0.1c10,0,20-0.1,30-0.1
				c9.9,0,19.8,0.3,29.7,0.3c7.3,0,14.5-0.1,21.8-0.3c8-0.2,29-0.8,29.1-0.7c0.7,0,1.4,0.1,2,0.4c0.3,0.1,0.4,0.3,0.4,0.6
				c0,0.5-0.2,1-0.3,1.4c0.5,1.4,0.4,18.7,0.4,22.9C507.8,123.7,507,123.8,506.5,123.5z"/>
			<path class="st0" d="M59,553.3c-0.1,22.1,0.6,42.8,0.9,64.5c0.2,14.2-0.1,28.4,1.7,42.6c0.3,2.6,1,5.2,2,7.6
				c1.6,3.7,5.2,5.2,8.8,6.1c3,0.8,6.2,1.2,9.4,1.2c9.9,0.2,19.8,0.2,29.8,0.4c6.4,0.1,12.9,0.5,19.3,0.4c8.2-0.1,16.3-0.7,24.5-1.1
				c3.7-0.2,7.3-0.5,11-0.7c1.1-0.1,2.2,0.2,3.3,0.2c9.3-0.1,18.6-0.2,27.9-0.4c8.2-0.2,16.3-0.8,24.5-0.9
				c12.3-0.3,24.5-0.4,36.8-0.5c6-0.1,12.1,0.1,18.1,0.1c17.2,0,34.3,0,51.5-0.1c5.3,0,10.6,0.2,15.9-0.4c5.6-0.6,11.2-0.8,16.8-0.9
				c6.6-0.2,11.4-5.5,12.3-11.2c0.9-6.4,0.6-12.9,0.5-19.3c0-14.8,0.2-29.6,1.7-44.4c0.8-7.6,1-15.3,1.2-23
				c0.3-13.3,0.8-26.6,0.6-39.9c-0.2-11.7-1.1-23.5-1.8-35.2c-0.4-6.1-1.2-12.2-1.3-18.3c-0.1-7.8-5.6-10.5-11.4-11.2
				c-3.8-0.5-7.7-0.6-11.6-0.6c-11.8-0.3-23.5-1-35.3-0.6c-14.2,0.4-28.4-0.4-42.6-0.6c-15-0.2-30.1-0.5-45.1-0.8
				c-11.1-0.2-22.3-0.8-33.4-0.8c-16.3,0-31.7-0.6-48.3-0.4c-6,0.1-12.1,0.2-18.1,0.3c-15.5,0.2-31.1,0.5-46.6,0.6
				c-4.2,0-8.3,0.7-12.2,2.1c-2.7,0.9-5.1,2.8-7.5,4.4c-1.2,0.8-1.7,2-1.8,3.5c0,1.5-0.3,2.9-0.3,4.4c-0.2,24.3-0.3,48.6-0.5,72.9
				C59.5,553.3,59.2,553.3,59,553.3z M325.9,486.5c0,1.6,0,2.7,0,3.8c0,5.3-0.1,10.6,0,16c0.3,18.4,0.9,36.8,1.1,55.2
				c0.2,11.5,0,23.1,0.1,34.7c0,8.5,0.2,17,0.3,25.4c0,4.7,0,4.8-4.8,4.8c-8.1-0.1-16.1-0.4-24.2-0.5c-10.9-0.1-21.9,0-32.8,0.2
				c-10.1,0.2-20.2,0.8-30.3,1c-8.2,0.2-16.4,0.2-24.5,0.3c-12.1,0.1-24.1,0.2-36.2,0.1c-11.2-0.1-22.5-0.6-33.7-0.8
				c-10.5-0.2-21.1-0.2-31.6-0.3c-0.9,0-1.7-0.2-2.7-0.3c-0.3-2.1-0.6-3.9-0.8-5.7c-0.7-8.9-1.7-16.2-2.3-25.2
				c-0.4-5.6-0.7-11.2-0.9-16.9c-0.3-6.6-0.7-13.1-0.8-19.7c-0.1-5.2,0.4-10.4,0.5-15.6c0.2-8.2,0.3-16.5,0.4-24.7
				c0.1-9.1,0.1-18.1,0.2-27.2c0-2.2,0.5-2.8,2.8-2.9c4.4-0.2,8.7-0.4,13.1-0.4c13.7,0,26.9,0.8,40.3,0.7c5.4,0,10.8-0.6,16.2-0.8
				c5.8-0.1,11.6,0,17.5-0.1c16.6-0.2,33.1-0.7,49.7-0.8c25.2-0.2,50.3-0.3,75.5-0.4C320.3,486.4,322.9,486.4,325.9,486.5z
				 M98.3,571c0.3,0.9,0.6,1.3,0.5,1.7c-0.4,1.5-0.7,3-1.3,4.4c-0.9,1.9-2,3.8-1.8,6.1c0.9-1.5,1.7-3.1,2.8-5c1.2,2.5,0.4,4.3,0,6.2
				c-0.4,1.9-2.1,3.4-1.6,6.3c0.9-1.4,1.5-2.3,2.4-3.7c0.8,3.9-1.1,6.9-1,10.3c0.7-0.4,1.1-0.6,1.5-0.9c0.1,0.1,0.2,0.2,0.2,0.3
				c0.9,10.4,2.3,18.9,3.2,29.1c0.2,2.8,1.1,3.6,3.8,3.7c1.8,0,3.7-0.1,5.5-0.2c4.7,0,9.4,0.1,14.1,0.1c4.9,0,9.8-0.3,14.7-0.2
				c7.8,0.2,15.5,1,23.3,1.1c15.5,0.1,31.1,0,46.6-0.1c12.8-0.1,25.6-0.4,38.3-0.6c1.3,0,2.6-0.2,4-0.3c5.4-0.2,10.8-0.3,16.2-0.5
				c1.3,0,2.7,0,4,0c7.3,0,14.5,0.1,21.7,0.1c0.2,0.6,0.4,1.2,0.5,1.7c2.7-0.4,5.2-1.8,8.1-0.8c-0.6,0.9-1.2,1.6-1.7,2.4
				c1.8,0.7,2.9-0.1,4-1.2c1.1-1.2,2.4-1.8,4.3-1.2c-0.6,0.9-1.1,1.7-1.6,2.4c0.1,0.2,0.3,0.3,0.4,0.5c0.9-0.4,1.9-0.7,2.5-1.3
				c1.8-1.8,3.8-2.1,6.3-1.4c-0.3,0.8-0.6,1.5-0.9,2.2c2,0.7,3.5,0.2,4.8-1.2c0.8-0.9,1.7-1.8,3.3-1.2c-0.4,0.8-0.8,1.6-1.2,2.4
				c2.1,0.8,3.5,0.1,4.8-1.6c1.8-2.4,3.7-4.6,5.5-6.9c0.3-0.4,0.5-1,0.8-1.7c-0.8,0.2-1.2,0.3-1.7,0.4c-0.2-1.7,1.8-2.5,1.2-4.6
				c-1.4,2.1-2.7,3.8-4.3,6.1c-0.2-1.2-0.3-1.7-0.4-2.1c-0.4-4,1-7.4,3.1-10.7c0.6-1,1.5-2,1.6-3.5c-2.1,1.5-2.5,4.1-5,5.4
				c-0.2-6.3,3.7-11,5.4-16.9c-2.8,2.1-2.7,5.5-5.2,7.4c-0.8-5.9,1.7-10.8,3.8-15.7c-0.2-0.1-0.4-0.1-0.6-0.2
				c-0.8,1.4-1.6,2.8-2.4,4.2c-1.1-4-0.4-7.5,1.1-11.1c-0.7-0.1-1.2-0.1-1.7-0.1c-0.2-8.5-0.4-16.9-0.6-25.3
				c-0.1-7.8-0.1-15.5-0.2-23.3c-0.2-11.9-0.6-23.7-0.8-35.6c-0.1-2.9,0.2-5.7,0.1-8.6c-0.1-3.7-1-4.5-4.6-4.5
				c-3.4,0-6.7,0.1-10.1,0.1c-14.6,0-29.3-0.1-43.9-0.1c-8.2,0-16.4-0.1-24.5-0.1c-5.4,0-10.8,0-16.2,0.1c-4,0.1-7.9,0.5-11.9,0.6
				c-4,0.1-8,0-11.9,0.1c-10.5,0.3-21,0.7-31.6,0.9c-12.7,0.3-24.8-0.4-37.8-0.2c-0.7,0-1.5-0.2-2.4-0.3c1-1.4,1.7-2.4,2.4-3.5
				c-1.5,0.7-2.6,1.8-3.8,2.8c-1.3,1.2-2.8,1.4-4.8,0.7c1.2-1.4,2.1-2.5,3-3.6c-0.2-0.2-0.3-0.3-0.5-0.5c-1.6,1.2-3.3,2.4-4.8,3.7
				c-1.3,1-2.5,1.1-4.2,0.4c1.4-1.4,2.6-2.6,4.1-4.1c-4.1,0.6-5.8,5.4-10.6,4.5c2.1-1.9,4-3.6,5.8-5.3c-0.1-0.2-0.3-0.4-0.4-0.5
				c-2.3,1.5-4.7,2.9-6.9,4.6c-2.1,1.6-4.2,1.9-7,1.1c3.6-3,6.9-5.7,10.2-8.4c-0.1-0.2-0.3-0.3-0.4-0.5c-0.8,0.5-1.6,0.9-2.3,1.4
				c-3.1,2.3-6.2,4.6-9.3,6.9c-1.3,1-2.7,1.3-4.4,0.2c3.5-3.2,6.8-6.3,10.1-9.3c-0.1-0.2-0.3-0.3-0.4-0.5
				c-5.6,3.8-10.1,8.9-15.7,12.9c-0.9-2.6-0.9-2.6,0.4-3.8c2.5-2.2,5-4.4,7.5-6.6c2-1.8,4.1-3.5,6.1-5.3c-0.9,0-1.5,0.3-2.1,0.7
				c-4.4,3.5-8.8,7-13,10.7c-2,1.8-4,2.2-6.8,1.5c4.8-4.4,9.5-8.6,14.1-12.8c-0.1-0.2-0.3-0.3-0.4-0.5c-0.7,0.5-1.5,1-2.1,1.5
				c-4.5,3.7-9.1,7.3-13.4,11.2c-1.7,1.5-3.4,1.4-5.4,1.2c0.1-0.4,0.1-0.7,0.2-0.8c5.8-4.9,11.7-9.8,17.5-14.7
				c1.1-1,2.4-1.2,3.8-1.2c7.2,0,14.4-0.1,21.5-0.2c14.8-0.1,29.1,0.8,43.6,0.7c9.3,0,18.6,0,27.9,0.1c9.2,0.1,18.4,0.1,27.6,0.3
				c11.2,0.2,22.5,0.5,33.7,0.7c10.1,0.2,20.2,0.3,30.3,0.6c8.2,0.2,16.3,0.8,24.5,0.9c16.8,0.2,33.5,0.2,50.3,0.4
				c1.7,0,3.5,0.2,5.2,0.6c4.6,1,5.9,2.6,6.3,7.3c0.3,4.3,0.7,8.6,1,12.8c0.4,5.6,1.1,11.2,1.2,16.8c0.3,9.3,0.1,18.6,0.4,27.9
				c0.5,17.7-0.5,35.4-1.1,53.1c-0.3,9.4-0.8,18.8-0.9,28.2c-0.2,11.4-0.3,22.7-0.3,34.1c0,3.2-0.7,6-2.4,8.7
				c-2.1,3.3-4.8,6.1-8.7,6.7c-5.1,0.7-10.4,1.1-15.6,1.1c-16.9,0.2-33.7,0.3-50.6,0.3c-18.2,0.1-36.4,0.1-54.6,0.3
				c-6.7,0-13.5,0.2-20.2,0.4c-10.2,0.3-20.4,0.8-30.7,1.1c-12.6,0.3-25.2,0.4-37.7,0.7c-10.1,0.3-20.2,0.9-30.3,1
				c-6.8,0.1-13.7-0.7-20.5-0.9c-6.7-0.2-13.5-0.1-20.3-0.2c-3.4,0-6.7-0.7-9.7-2.3c-1.4-0.7-2.8-1.9-3.5-3.3
				c-1-1.8-1.6-3.8-1.8-5.8c-0.7-9.4-1.6-18.8-1.8-28.2c-0.3-12.2-1-22.7-1.3-35.1c-0.3-13.9,0.7-27.7,1.1-41.6
				c0-0.7,0.4-1.6,0.9-2.2c6-6.2,12.2-12.3,18.1-18.6c2.2-2.3,4.4-3.7,7.6-3.3c1.7,0.2,2.9-0.6,3.4-2.1c1-3,3.5-4.5,6.2-6.8
				c0.1,3-0.1,5.5,0.2,7.9c0.3,3-0.3,5.3-2.9,7.1c-0.6,0.4-1.1,1-1.6,1.5c-2.2,2.5-4.3,5.1-6,8.1c3.7-2.6,5.6-7.1,10-9.1
				c0.7,3.7-0.1,6.5-2.7,9c-2,1.8-3.6,4-5.3,6.1c-0.8,1-1.5,2-2.2,3c0.2,0.1,0.4,0.3,0.6,0.4c1.4-1.6,2.7-3.3,4.3-4.8
				c1.6-1.5,2.5-3.8,5-4.5c0.6,3.3,0.1,5.9-2.3,8.2c-1.5,1.4-2.7,3.2-4,4.8c-0.3,0.4-0.3,1-0.5,1.5c2.5-1.6,3.8-4.4,6.5-5.7
				c0.4,3.7,0.3,3.6-1.7,6.2c-1.2,1.6-2.4,3.2-3.5,4.8c-0.3,0.4-0.3,1-0.6,2.1c2.1-2.3,3.7-4.1,5.6-6.3c0.6,2.2,0.7,3.5-0.2,5
				c-1.1,1.7-2.1,3.6-3.1,5.4c-0.2,0.3-0.2,0.8-0.3,1.1c0.2,0.1,0.3,0.2,0.5,0.3C95.9,574,97,572.7,98.3,571z M82.9,501
				c0,9.4,1,18.4,0.3,27.4c-2.5,0.5-4.5,0.4-6.7-0.4c-0.1-4.6-0.4-9.2-0.4-13.7c0-4.5-0.9-9.1-0.1-13.9
				C78.3,500.6,80.5,500.8,82.9,501z M85.6,528.8c0.8-9.3-1.1-18.4-0.2-27.4c2.4,0,4.4,0,6.7,0c0,2.7,0.1,5-0.1,7.4
				c-0.3,5.9-0.7,11.8-1,17.7c-0.1,1.7-1,2.4-2.6,2.5C87.7,529,86.8,528.9,85.6,528.8z M91.6,487.9c0.8,3.5,0.6,6.7,0.1,9.9
				c-4.5,0-8.7,0-12.9-0.1c-0.5,0-1-0.2-1.5-0.4c-1-0.3-1.6-0.9-1.6-2c0-2.7,0-5.3,0.1-8.1C81.1,487.5,86.3,487.7,91.6,487.9z
				 M83.3,532.1c-6.9,6.8-13.3,13-20,19.6c-0.5-2.6-0.3-4.5,1.2-6.2c2.3-2.6,4.5-5.2,6.7-7.9c1-1.3,2-2.6,2.9-3.9
				c-0.2-0.1-0.3-0.3-0.5-0.4c-3.3,3.6-6.6,7.2-10.1,11c-0.9-2.8-0.5-4.8,1.3-6.7c2.1-2.1,4-4.5,6.1-6.7c0.9-0.9,1.9-1.8,3-2.8
				c0.9,3.4,0.9,3.3,4.1,3.5C79.5,531.6,81,531.8,83.3,532.1z M62.7,497c-0.9-2.2-0.7-3.9,1.2-5.4c3.1-2.5,6-5.2,9-7.7
				c5.2-4.4,10.5-8.8,15.8-13.3c2-1.7,4.2-2,6.6-1.7c0,0.2,0.1,0.4,0,0.4c-6.7,5.4-13.5,10.8-20.2,16.2c-0.4,0.3-1.1,0.9-1,1.3
				c0.3,1.6-0.9,2.3-1.8,3c-2.5,2.1-5,4.1-7.5,6.1C64.1,496.3,63.4,496.6,62.7,497z M62.7,490.7c-0.7-2.8-0.1-4.5,1.6-5.9
				c5.2-4.5,10.4-9,15.5-13.6c2.4-2.2,5.1-2,8.4-1.8C79.6,476.5,71.3,483.5,62.7,490.7z M73.8,489.6c0,2.2,0.1,3.7-0.1,5.1
				c-0.1,0.7-0.6,1.6-1.1,2c-2.5,2.1-5.1,4.2-7.7,6.3c-0.5,0.4-1.1,0.6-1.8,1c-1-4-1-4,1.8-6.3c0.6-0.5,1.1-1,1.6-1.4
				C68.8,494.2,71,492.1,73.8,489.6z M73.5,503.9c0.2,1.2,0.5,2.2,0.5,3.2c0,0.6-0.4,1.4-0.9,1.8c-2.3,2.1-4.6,4.2-6.9,6.3
				c-0.9,0.8-1.8,1.5-2.7,2.3c-0.2-0.1-0.4-0.3-0.6-0.4c0.2-1.4-0.1-3.2,0.7-4.1C66.3,509.6,69.4,506.4,73.5,503.9z M63.2,530
				c0-2-0.7-3.6,0.5-4.8c2.8-2.9,5.7-5.7,8.6-8.5c0.4-0.4,1.1-0.7,1.9-1.1c-0.1,2,0.8,3.7-0.7,5.1C70.2,523.6,66.9,526.6,63.2,530z
				 M63.5,536.9c-0.9-2.3-0.5-4,0.9-5.5c2.2-2.3,4.4-4.7,6.7-6.9c0.8-0.9,1.8-1.6,2.9-2.5c0.6,4,0.6,4-1.8,6.2
				c-0.9,0.8-1.8,1.7-2.7,2.6C67.5,532.8,65.6,534.7,63.5,536.9z M63.4,510.8c-0.8-2.4-0.6-3.9,1-5.3c2.5-2.2,4.9-4.5,7.3-6.7
				c0.5-0.4,1.1-0.7,2-1.3c0,1.9,0,3.5,0,4.8c-1.8,1.3-3.6,2.5-5.2,3.8C66.8,507.5,65.3,509,63.4,510.8z M73.6,510.1
				c1,2.1,0.5,3.3-0.7,4.4c-2.7,2.6-5.3,5.2-7.9,7.8c-0.5,0.5-1.1,0.8-1.7,1.2c-0.7-2-0.2-3.4,1.2-4.7c2-1.9,3.9-4,5.8-6
				C71.2,511.9,72.3,511.1,73.6,510.1z M79,470.2c-5.3,4.4-10.3,8.6-15.5,12.8c-0.7-2,0.2-3,1.2-3.9c3-2.7,6.1-5.3,9.2-7.9
				C75.2,470.2,76.8,469.7,79,470.2z M98.7,508.6c0.8,4.2-0.8,6.9-5.1,8.9c0.2-1.7-0.1-3.5,0.6-4.6C95.3,511.3,97,510.2,98.7,508.6z
				 M93.8,524.4c-0.5-3.7,1-6.1,4.9-7.9C99.6,520.7,98.6,522.4,93.8,524.4z M93.7,495.2c2-1.2,3.5-2.1,5-3c1,3.1,0.5,3.8-4.3,6.3
				C94.1,497.3,93.9,496.2,93.7,495.2z M98.8,497.4c0.7,3.6-0.4,5.3-4.6,7.4C93,500.7,96.9,500,98.8,497.4z M98.3,486.7
				c1.4,3.6,1,2.9-3.9,6.1C93.5,489.6,94.4,488.2,98.3,486.7z M99,503.5c0,3.1-1.6,5.1-4.9,6.1C94.4,507.3,95.3,506.1,99,503.5z
				 M71.5,471.3c-2.5,2.1-4.6,4-7,6.1C64.9,473.9,67.3,471.8,71.5,471.3z"/>
			<g>
				<path class="st0" d="M382.1,414.7c-0.2-5-0.2-9.6-0.5-14.2c-0.5-10.1-1.3-20.2-1.7-30.3c-0.5-10.8-0.7-21.7-1.2-32.5
					c-0.2-3.8-0.8-7.5-1.2-11.3c0-0.4-0.2-0.8-0.4-1.1c-2.2-4.8-4.4-9.7-6.6-14.5c-0.4-0.8-0.8-1.6-1.5-2.7c-0.7,0.7-1.4,1-1.7,1.5
					c-2.5,4.5-5,9.1-7.5,13.7c-0.4,0.7-0.5,1.5-0.4,2.3c0.4,6.3,1,12.6,1.3,18.9c0.2,4.2,0.2,8.3,0.3,12.5c0.1,2.7,0.4,5.3,0.6,7.9
					c0.3,4.4,0.6,8.8,0.9,13.1c0.5,5.6,1.1,11.2,1.7,16.7c0.6,5.4,1.1,10.8,1.6,16.2c0.3,2.9,0.9,3.8,3.8,4.3
					C373.7,415.9,377.8,415.5,382.1,414.7z M379.7,409.8c-0.9-0.9-1.5-1.3-1.7-1.9c-0.3-1-0.4-2-0.5-3c-0.4-5.9-0.8-11.8-1.2-17.7
					c-0.7-9.6-1.3-19.1-2-28.7c-0.4-5.6-0.7-11.2-1-16.8c-0.2-4.5-0.2-9-0.3-13.5c0-0.6,0.3-1.2,0.6-2.1c2.1,1.2,1.9,3.2,2.1,4.8
					c1.1,8.7,1.9,17.4,1.5,26.2c0,1,0,2,0.1,3c0.6,6.7,1.2,13.4,1.6,20.2c0.3,4.5,0.2,9,0.4,13.5c0.2,4.7,0.5,9.4,0.7,14.1
					C380.1,408.2,379.9,408.6,379.7,409.8z M375.7,408.3c-1.2,0.3-2.1,0.2-2.3-1c-0.1-0.8-0.2-1.6-0.3-2.4c-0.5-5.4-1-10.8-1.4-16.2
					c-0.3-3-0.5-6.1-0.7-9.2c-0.1-2.2,0-2.2,3-2.5C374.5,387.3,375.1,397.7,375.7,408.3z M368,409.3c-0.7-7.7-1.4-14.9-2.1-21.9
					c1.4-0.5,2.4-0.9,3.8-1.5c0.6,7.7,1.3,15.1,1.9,22.8C370.4,408.8,369.4,409,368,409.3z M373.5,323.7c-3.8,0-6.9,0.6-10.4-0.1
					c1-1.9,1.6-3.5,2.5-5c1.5-2.6,4.3-2.6,5.7,0C372.1,319.9,372.6,321.5,373.5,323.7z M367,348.1c0.9,3.9,0.5,4.7-2.9,4.9
					c-0.1-1.2-0.3-2.4-0.3-3.6c-0.1-1.2,0-2.4-0.1-3.7c-0.2-2.6,0-2.8,2.9-3.4c2.2,2.8-1.2,3.4-2.2,5.2
					C365.3,347.8,366.2,348,367,348.1z M370.5,333c-1.1,0.1-2,0.1-3.2,0.2c0.1-2.3-1-4.4,0-6.6c1,0,2,0,3.3,0
					C370.5,328.6,370.5,330.6,370.5,333z M361.9,327c2-0.6,2.9-0.1,3.1,1.3c0.2,1.3,0.5,2.6,0.6,3.9c0.2,2,0,2.2-2.8,3.2
					C362.6,332.6,362.2,329.8,361.9,327z M365.6,378.8c-1.2-3.8-0.4-5.3,2.9-6C369.5,377.2,369.4,377.2,365.6,378.8z M365.5,371.6
					c-1.5-3.5-0.8-4.7,2.9-5.1C369.4,369.3,368.9,370.9,365.5,371.6z M365.8,385.2c-0.1-1.6-0.2-2.8-0.3-4c1.3-0.7,2.4-1.3,3.6-2
					C369.7,383.8,369.7,383.9,365.8,385.2z M371,375.3c-0.9-4.1-0.7-4.4,2.3-5.2c0.2,1.7,0.4,3.3,0.6,5.1
					C372.7,375.2,371.8,375.2,371,375.3z M373.2,368.5c-1,0.2-1.8,0.3-2.5,0.4c-0.9-3.8-0.8-5.3,2.2-5.1
					C373,365.3,373.1,366.8,373.2,368.5z M371.3,345.4c1.3,4,1.1,4.5-2,5C368.2,346.9,368.4,346.4,371.3,345.4z M372.1,351.6
					c0.1,1.6,0.2,3.2,0.3,4.8c-1.1,0-2,0-2.8,0C368.9,352.4,368.9,352.4,372.1,351.6z M367.4,360.4c1.3,3.6,1.1,3.9-2.5,4.7
					C364.1,362.1,364.2,362,367.4,360.4z M368.7,344.2c-1.1-3.6-0.8-4.3,2.3-4.6C371.8,343.3,371.7,343.6,368.7,344.2z M364.5,359.4
					c-0.7-3.5-0.5-3.7,2.9-4.8C368.1,358,367.9,358.3,364.5,359.4z M368.1,338.3c-0.8-3.4-0.7-3.5,2.4-4
					C371.2,337.8,371.2,337.9,368.1,338.3z M372.2,357.7c0.4,4.1,0.4,4.1-2,4.5C369.5,358.6,369.5,358.6,372.2,357.7z M363.8,340.7
					c-0.7-3.2-0.7-3.2,1.7-3.8C366.4,339.6,366.4,339.6,363.8,340.7z"/>
				<path class="st0" d="M347.6,358.3c2.7-1.7,2.8-1.7,2.8-4.6c0.1-10.6-0.8-21-3.7-31.2c-0.4-1.5-0.7-3-1.1-4.5
					c-1-4.5-4.8-5.5-8.2-5.2c-0.7,0.1-1.4,0.2-2.1,0.4c-2.5,0.8-4.5,1.8-4.7,5c-0.2,3.6-0.3,7.1,0.2,10.6c0.9,6.2,1.8,12.5,2.1,18.8
					c0.5,10.1,1.4,20.1,2.2,30.2c0.3,4.7,0.6,9.4,1.1,14c0.6,5.6,1.4,11.1,2,16.7c0.2,1.7,0,3.5,0.4,5.1c0.8,3.5,4.2,5.5,8,5
					c3.6-0.5,5.4-3.7,5.4-6.8c0.1-13.2-1.7-26.3-3.3-39.3C348,367.8,347.9,362.9,347.6,358.3z M338.8,346c0.1,0,0.1,0,0.2,0
					c0-0.9,0.1-1.8,0.2-2.7c0.1-0.9,0.1-2,1.3-2.1c1.4-0.1,1.3,1.1,1.4,1.9c0.2,0.9,0.2,1.8,0.3,2.7c1.1,10.7,2.1,21.5,3.1,32.2
					c0.8,9.3,1.3,18.7,1.9,28.1c0.1,1.2,0.3,2.4,0.4,3.6c0.1,0.9,0.2,2-1.1,2.1c-1.1,0.1-1.2-0.8-1.3-1.7c0-0.3-0.1-0.6-0.1-0.9
					c-0.7-5-1.3-10.1-2-15.1c-0.5-3.4-1.1-6.8-1.4-10.3c-0.4-4.2-0.4-8.3-0.7-12.5C340.3,362.9,339.5,354.5,338.8,346z M343,318.3
					c3.4,6.5,6.6,30.5,4.5,35.3c-0.4-0.6-0.8-1.1-0.9-1.6c-1-4-2-7.9-2.7-11.9c-0.3-1.6-0.8-2.5-2.5-2.4c-0.4,0-0.9-0.1-1.7-0.1
					c1.1-0.9,1.9-1.5,2.7-2.1c-0.1-0.2-0.2-0.4-0.3-0.6c-1.8,0.7-3.5,1.5-5.3,2.2c-1,0.4-2.1,0.8-2.6-0.5c-0.5-1.2,0.3-1.9,1.3-2.4
					c1.3-0.7,2.5-1.4,3.8-2c0.7-0.4,1.4-0.8,2.6-1.5c-3.4-0.7-5.3,1.7-8,2.1c-0.2-1-0.3-1.9-0.5-2.7c1.5-0.8,2.8-1.5,4-2.1
					c1.1-0.6,2.5-0.9,3.6-2.9c-3,1.1-5.5,2-8.4,3c0.8-4.5,5.4-3.6,7.2-6.2c-2.7-1.1-4.5,1.7-6.9,1c0-1.2,0-2.3,0-3.1
					C336.3,319.3,339.5,318.8,343,318.3z M343.1,412.1c-2.2-0.2-2.3-0.2-2.6-2c-0.5-3.3-1-6.7-1.4-10c-0.5-5.3-0.8-10.6-1.3-15.9
					c-0.5-5.1-1.1-10.1-1.5-15.2c-0.6-8-0.9-16.1-1.4-24.1c-0.1-1.2,0-2.4,0-3.6c2.1-0.4,2.3,0.7,2.3,2.1c0.4,7,0.8,14,1.4,21.1
					c0.3,3.1,0.9,6.2,1.2,9.4c0.3,2.3,0.3,4.7,0.5,7c0.8,7.7,1.8,15.4,2.5,23.1C343.4,406.7,343.1,409.4,343.1,412.1z M344,352.6
					c0.2-0.1,0.4-0.1,0.7-0.2c0.8,1.5,1,3.2,1.1,4.9c0.3,4,0.4,7.9,0.8,11.9c0.8,8.4,1.8,16.9,2.6,25.3c0.4,4.4,1.1,8.9-0.1,13.3
					c-1-9.2-1.7-18.4-2.5-27.6C345.7,371,344.8,361.8,344,352.6z M339.5,314.9c0,0.2,0,0.5,0,0.7c-2.7,1.3-2.7,1.3-4.8,0.2
					C336.6,315.4,338,315.2,339.5,314.9z M347.2,415.2c-1.3,1.3-2.2,1.1-3.2,0.2C344.9,415.4,345.8,415.3,347.2,415.2z"/>
			</g>
			<g>
				<path class="st0" d="M482.8,632.4c-0.5,0.5-1.2,1-1.6,1.7c-7.2,10.9-14,22.1-20.2,33.7c-0.9,1.8-1.5,3.7-2.3,5.9
					c0.7-0.1,1-0.1,1-0.2c1.9-5.8,5-10.9,8.2-16c4.6-7.3,9.4-14.5,14.1-21.7c0.6-0.9,0.9-1.9,1.4-2.9
					C483.3,632.7,483,632.6,482.8,632.4z"/>
				<path class="st0" d="M460.8,685.8c1.9-5.1,4.9-9.7,7.4-14.6c4.5-8.6,10.1-16.4,15.3-24.6c1-1.6,1.9-3.3,2.3-5.1
					C481.3,645.2,461.1,681,460.8,685.8z"/>
				<path class="st0" d="M468.7,682.4c0.4-0.4,0.9-0.7,1.2-1.2c4.3-8.8,9.7-16.9,15.3-24.8c0.9-1.3,2.1-2.5,1.8-4.8
					c-0.8,0.9-1.4,1.4-1.8,2.1c-5.3,8.4-11,16.6-15.2,25.6C469.5,680.3,469.2,681.4,468.7,682.4L468.7,682.4z"/>
				<path class="st0" d="M463.9,652.9c0.5-0.5,1.1-1,1.4-1.6c4.5-8.6,9.5-16.8,15.2-24.6c0.6-0.9,1.1-1.9,1.6-2.8
					c-0.2-0.2-0.5-0.3-0.7-0.5c-0.6,0.6-1.3,1.1-1.7,1.8c-4.7,7.7-9.4,15.4-13.9,23.2C465,649.8,464.6,651.5,463.9,652.9
					L463.9,652.9z"/>
				<path class="st0" d="M478.1,615.3c-4.3,6.5-8.2,13.1-12.1,19.8c-1.3,2.2-1.8,4.8-2.6,7.2c0.2,0.1,0.4,0.2,0.6,0.3
					c0.2-0.2,0.7-0.4,0.7-0.7c0.9-5.2,3.9-9.3,6.6-13.7c2.3-3.6,4.6-7.2,6.8-10.8c0.3-0.5,0.4-1.2,0.6-1.8
					C478.5,615.5,478.3,615.4,478.1,615.3z"/>
				<path class="st0" d="M469.8,697.2c5.5-9.1,11.1-18.1,16.6-27.2c-0.1-0.1-0.2-0.2-0.3-0.4c-0.5,0.5-1.1,0.9-1.5,1.5
					c-3.8,6.1-7.5,12.2-11.2,18.3c-1.5,2.5-2.6,5.1-3.9,7.6C469.7,697.1,469.8,697.2,469.8,697.2z"/>
				<path class="st0" d="M476.6,608.6c-5.5,7.2-9,14.9-13,22.3c-0.2,0.3,0,0.9,0,1.5c4.5-7.7,8.9-15.1,13.3-22.5
					C477.1,609.7,476.9,609.5,476.6,608.6z"/>
				<path class="st0" d="M475.2,603.5c-3.5,1.7-10.5,14.6-10.3,18.6C467.3,615.4,471.8,609.8,475.2,603.5z"/>
				<path class="st0" d="M473.6,597.1c-0.5,0.4-1,0.6-1.4,1.1c-3,4.2-6.2,8.4-8,13.3c-0.4,0.9-0.8,1.8,0.6,2.1
					c0.2-0.1,0.5-0.3,0.5-0.4c0.1-3.6,2.4-6.1,4.1-8.8c1.1-1.7,2.5-3.3,3.7-5c0.4-0.6,0.7-1.2,1-1.8
					C474,597.4,473.8,597.3,473.6,597.1z"/>
				<path class="st0" d="M470.6,713.2c3.2-6.7,7.4-12.8,10.1-19.7C476.6,699.7,473,706.2,470.6,713.2z"/>
				<path class="st0" d="M505,532.6c2.6-4.5,5.2-8.9,7.8-13.5c-1.4,0.4-3.2,2.7-4.9,6.1c-1.2,2.4-2.2,4.8-3.4,7.2
					C504.7,532.5,504.9,532.5,505,532.6z"/>
				<path class="st0" d="M510.5,530.9c-2.4,3.7-4,7.8-4.8,12.2c1.8-3.9,3.7-7.9,5.5-11.8C510.9,531.1,510.7,531,510.5,530.9z"/>
				<path class="st0" d="M479.2,708.3c-2.1,3.6-3.2,7.6-3.5,11.9c1.4-3.8,2.8-7.7,4.2-11.5C479.6,708.5,479.4,708.4,479.2,708.3z"/>
				<path class="st0" d="M469.2,570.3c-0.7,3-1.4,6-2.1,9c0.3,0.1,0.5,0.1,0.8,0.2c0.8-3,1.5-6.1,2.3-9.1
					C469.9,570.4,469.6,570.3,469.2,570.3z"/>
				<path class="st0" d="M465.8,574.1c0.9-3,1.7-6,2.6-9.4C466.4,566.3,465.4,570.3,465.8,574.1z"/>
				<path class="st0" d="M479.3,727.1c0.5-2.1,1-4.3,1.5-6.7C479.1,722.1,478.6,724.2,479.3,727.1z"/>
				<path class="st0" d="M468.8,682.5c-1.3,2.4-2.7,4.7-4,7.1c0.2,0.1,0.4,0.2,0.6,0.3C466.4,687.4,468.4,685.3,468.8,682.5
					C468.7,682.4,468.8,682.5,468.8,682.5z"/>
				<path class="st0" d="M464,653c-1.5,1.2-2.1,2.8-2.6,5C462.7,656.8,463,656.1,464,653C463.9,652.9,464,653,464,653z"/>
				<g>
					<path class="st0" d="M584.3,98.4c-1-5.9-2.9-11.7-4.4-17.5c-0.7-2.6-9.9-20.7-14.5-26.6c-17.2-22.6-41.1-29.6-47.5-31.2
						c-5.2-1.3-10.6-2.2-15.9-2.8c-6.3-0.7-12.7-1.4-19-1.2c-10.6,0.4-68,0.2-72.4-0.1c-4.1-0.3-18.8-0.9-32.5-1.5
						c-0.1-0.1-18.5-2.9-22.9,4.1c-2.2,3.5-2,8.6-2.2,12.5c-0.3,6.6-0.2,13.2,0.1,19.8c0.1,1.5,2.6,1.4,2.6-0.1
						c0-8.7,0.1-17.4,0.8-26.1c0.9-10.7,18.5-8,18.5-7.8c12.3,0.5,25.6,1.1,31.4,1.5c10.9,0.7,56.3,0.5,68.2,0.9
						c4.4,0.1,8.7,0.1,13.1,0c7.5-0.3,15,0.5,22.3,1.8c8.7,1.6,25.4,7.5,34.2,14c14.4,9.6,25.7,29,29.8,37.1
						c5.4,10.9,8.7,22.4,8.7,34.8c0,15.5-2.9,30.3-8.5,44.7c-1.1,2.9-2,5.9-3.1,8.8c-2.6,7-6,13.7-9.6,20.2c-3.7,6.8-8.1,13.1-13,19
						c-2.8,3.3-6,6.4-9,9.5c-1.9,2-3.9,4-5.9,5.9c-6.9,6.6-13.8,13.2-20.8,19.7c-3.9,3.7-8,7.3-11.9,11c-1.1,1.1-2.1,2.3-3.2,3.4
						c-5.7,5.9-11.6,11.5-16.2,18.5c-3.4,5.2-7.6,9.9-10.8,15.2c-6.3,10.1-11.5,20.7-13.8,32.5c-0.8,4.2-2.3,8.2-2.9,12.4
						c-1.9,13.8-2.6,27.6,0.3,41.3c1.1,5.4,2.9,10.6,4.3,15.9c0.2,0.6,0.7,1.3,0.5,1.8c-1.2,3.7,0.2,7.4,0.1,11.1
						c0,0.6-0.1,1.2-0.2,1.8c-5.3,2.1-9.4,5.4-12.6,10c-1.1,1.6-2.5,3.1-3.4,4.8c-1.3,2.5-2.5,5.1-3.2,7.7c-1,3.8-1.7,7.7-2.2,11.6
						c-0.6,4.6-0.8,9.3-1.2,14.4c-1.2-0.1-2.4-0.3-3.6-0.3c-2.8-0.1-5.5,0.2-7.7,2.4c-1.9,2-2.5,4.1-1.8,6.8
						c1.2,4.3,2.6,8.6,3.4,12.9c1.5,8.1,0.5,16.1-1,24.1c-0.9,4.7-1.6,9.4-2.1,14.2c-0.5,4.4,0.5,8.8,2.4,12.7
						c1.2,2.5,3.3,4.7,5.4,6.7c4,3.8,8.2,7.4,12.4,10.9c3.3,2.8,5.3,6.2,6.8,10.3c1.8,5.2,3.7,10.3,7.4,14.6
						c1.5,1.8,2.3,4.4,2.9,6.7c1.3,4.8,1.3,9.7,1.1,14.6c-0.3,7.8-0.7,15.6-1.3,23.3c-0.6,7.8-1.6,15.5-2.4,23.2
						c-1.1,11.1-2.3,22.1-3.3,33.2c-0.9,9.7-1.8,19.5-2.2,29.2c-0.4,9.3-0.2,18.7,0,28.1c0,1.7,1,3.3,1.7,4.9
						c0.1,0.2,0.7,0.2,1.5,0.5c0.1-1.5,0.4-2.8,0.2-4.1c-1.6-8.8-1.3-17.6-1-26.4c0.3-7.7,0.8-15.4,1.5-23c0.9-10.3,2-20.7,3-31
						c1-9.5,1.9-19,3-28.5c0.3-3.1,0.8-6.2,1.2-9.3c0.1-0.5,0.1-1.2,0.4-1.4c2-1.3,2.1-3.8,3.3-5.5c1.5-2.2,3-4.4,4.5-6.7
						c0.4-0.6,0.6-1.4,0.5-2.3c-3.9,3.2-5.6,7.8-8.1,12.1c-0.1-1-0.2-1.9-0.2-2.9c0.2-5,0.4-10,0.6-15c0.2-5.4,0-10.8-1.4-16.1
						c-0.6-2.4-1.8-4.5-3.4-6.2c-2.9-3-4.4-6.7-6-10.4c-1.5-3.6-3-7.3-5.1-10.6c-1.3-2.1-1.7-3.9-1.1-6.1c0.1-0.5,0.2-1,0.3-1.8
						c-1.9,0.8-1,2.8-2.1,3.8c-3.1-1.1-2-3.8-2.5-6.2c-0.4,1-0.8,1.9-1.2,2.9c-3.6-1.5-4.4-2.9-3.7-6.6c0.2-1.2,0.5-2.5,0.4-3.8
						c-2.2,1.5-0.9,4-1.9,5.9c-4.4-1.8-4.4-3.5-3.2-7.3c0.6-1.9,1.8-3.5,2.7-5.3c0.3-0.5,0.5-1.1,0.8-1.8c-1.8,0.9-2.3,1.3-3.6,4
						c-0.8,1.7-1.5,3.4-2.3,5.1c-2.6-1.8-2.3-1.8-2-4.6c0.3-3.5,2.3-5.9,4.3-8.4c0.6-0.8,1.2-1.6,1.9-2.7c-2.8,0.8-4.9,3.7-7.7,10
						c-1.1-1.8-1.6-3.4-0.8-5.5c1.2-3,3.3-5.3,5.3-7.6c0.5-0.6,1.4-0.9,1.9-1.5c-2-0.5-2.3-0.3-4.1,2.2c-1,1.3-2,2.6-3.2,4.2
						c-1.3-3.4,0.8-5.3,2.2-7.2c1.4-2,3.2-3.6,4.9-5.6c-2.4,0.2-2.4,0.2-6.7,4.8c0.3-2.2,0.4-3.9,0.8-5.6c2.6-9.4,2.3-18.9,0.7-28.4
						c0-0.2-0.1-0.3-0.1-0.5c1.5,0,3.4-0.5,3.9-0.6c0.9-0.3,4.1-1.3,4.3-2.3c0.4-1.5,0.2-2.8-0.5-4.2c-1.7-3.3-6-3.9-9.3-4.1
						c-0.3,0-0.6,0.3-0.4,0.6c-0.1-0.3-0.7,0.2-0.8,0.2c-0.1,0.1-0.1,0.2-0.1,0.3c-0.1-1.3,0.2-2.5,1.4-3.5c2-1.7,4.6-1.8,7.1-1.1
						c2.3,0.7,4,2.1,5.1,4.2c1.8,3.5,2.9,7.1,3.1,11c0.3,4.8,0.4,9.5,0.8,14.3c0.3,3.9,0.8,7.9,1.2,11.8c0.1,1.2,0.7,1.9,2.4,1.6
						c1.3-6.1,4.3-11.8,4.1-18.3c-0.1-1.8,0.3-3.5,1.5-5.2c1.4-2.1,1.9-4.7,3-7.8c-2.6,1.7-2.6,4.2-4.4,6.6c-0.4-3.7-0.7-6.7-1-9.6
						c3.1-2.2,3.2-5.8,5.7-8.6c-2.2,0.8-2.2,0.8-5.4,5.8c-0.2-0.5-0.4-0.9-0.4-1.2c-1.1-8.2-1.6-16.4-1.2-24.6
						c0.3-5.1,1.1-10.1,3.6-14.7c1.4-2.6,3.3-3.6,6.1-3.1c2.3,0.4,3.6,1.4,4,3.6c-0.3-0.1-0.5-0.2-0.9-0.3c-2.1-0.6-4.3-0.8-6.2,0.2
						c-2.6,1.2-5.3,7.4-1.6,8.6c2.4,0.8,5.2,0.4,7.6-0.1c0.3-0.1,1-0.2,1.6-0.4c0,0.4,0,0.8-0.1,1.1c-0.7,8.4-0.3,16.8,0.6,25.2
						c0.3,3.4,0.7,6.8,1,10.2c0.2,1.5,0.3,3.2,0.8,4.6c1.1,3,1.7,6,1.4,9.1c0,0.1,0.2,0.3,0.6,0.6c1-2.1,1.8-4.1,1.9-6.3
						c0.1-1.5,0.2-3.1,0.6-4.5c2-7.1,4-14.2,6.2-21.2c2.5-8,5.1-16,7.8-24c0.7-1.9,1.7-3.8,3.9-4.6c3-1.1,7.4,0.7,8.6,3.8
						c0.6,1.6,0.8,3.4,1,5.2c0.2,2.2,0.3,2.4,2.2,2.6c5.2,0.5,7.6,3,7.7,8.2c0,0.3,0.1,0.6,0,0.9c-0.5,3.2,0.1,5.4,3.2,7.6
						c2.7,1.9,4.2,5.5,4.2,9.1c0.1,8.9,0.1,17.9,0,26.8c0,4.8-0.5,9.5-0.5,14.3c0,3.6,0.8,7.2,0.9,10.9c0.4,7.9-0.5,15.8-2.3,23.5
						c-1.9,8-3.1,16.1-3.4,24.3c-0.3,7.3,0.8,14.5,2.4,21.6c2.1,9.3,4.3,18.6,6.2,28c3.9,18.7,9.2,36.9,14.5,55.2
						c3.4,11.7,6.7,23.4,10.3,35c2.4,7.8,5.1,15.6,7.6,23.4c1,3.2,1.9,6.5,2.8,9.8c2.6,0.1,3.1-0.3,2.6-2.2
						c-2-7.3-3.8-14.6-5.9-21.9c-2.3-7.8-4.9-15.4-7.4-23.2c-3.1-10-6.2-20-9.3-30c-2.3-7.3-4.8-14.6-6.8-22
						c-2.9-11.1-5.5-22.2-7.9-33.4c-2-9.6-3.6-19.4-5.2-29.1c-1.2-7-1-14.1,0-21.1c1.2-8.8,2.9-17.6,4.1-26.5
						c0.5-3.7,0.5-7.5,0.4-11.2c-0.1-7-0.7-13.9-0.7-20.9c0-9.5,0.4-18.9,0.6-28.4c0.1-3.9-0.5-7.7-2.7-11c-1-1.5-1.1-3.2-1.1-5
						c-0.3-9.6-2.1-18.7-9.6-25.5c-4.2-3.8-9-6.6-14.4-8.5c-6.7-2.3-13.4-4.5-20.4-5.8c-0.7-0.1-1.4-0.5-2.2-0.8
						c-0.2-2.7-0.5-5.4-0.6-8.1c0-1.6-0.7-2.6-2.1-3.1c-2.4-0.8-3.4-2.8-4.3-5c-3.5-8.5-4.6-17.4-5.3-26.5
						c-0.6-8.6-0.3-17.2,0.6-25.8c0.2-2.2,0.5-4.4,1.1-6.5c2-7.4,3.7-14.9,6.6-22.1c4-9.9,9.4-18.9,15.6-27.6
						c8.3-11.8,18.3-22,28.7-31.9c9.5-9,19.2-17.8,28.7-26.9c5.2-5,10.2-10.1,14.8-15.6c3.8-4.5,7.2-9.4,10.3-14.4
						c8.3-13.3,14.1-27.8,18.9-42.6c2.3-7.2,3.6-14.7,4.1-22.3C585.4,115.6,585.8,106.9,584.3,98.4z M434.4,466.7
						c-1.1,0.5-2.2,0.9-3.4,1.2c-0.5,0.1-1,0.2-1.5,0.3c-0.6-1.2-0.2-1.8,1.1-1.8c1.4-0.3,2.9-0.1,4.4-0.1
						C434.8,466.5,434.6,466.6,434.4,466.7z M426.4,459.8c0.3,0,0.5-0.2,0.4-0.5c0,0.3,0.8-0.3,0.8-0.4c0,0,0,0,0,0
						c2,0.3,4,0.6,5.8,1.6c1.1,0.6,1.8,1.5,2.4,2.6c0.4,0.8,0.4,1.4,0.1,1.9c-2.2,0.1-6.1-0.7-8,1c-0.5-1.3-1-2.7-1.4-4
						c-0.2-0.7-0.4-1.5-0.6-2.2C426.2,459.9,426.3,459.9,426.4,459.8z M448,483.6c-0.2,1.3-0.6,2.5-1,3.7l-0.8-0.1
						c-0.2-0.8-0.4-1.6-0.5-2.4c-0.2-3.6-0.4-7.2-0.5-10.9c-0.1-5.1-0.6-10.1-2.4-15c-0.3-0.9-0.3-2-0.2-3
						c0.8-6.4,1.7-12.7,2.6-19.1c0.1-0.4,0.3-0.9,0.5-1.3c0.5,0.7,0.5,1.3,0.5,1.8c0.6,9.8,1.1,19.7,1.8,29.5
						C448.5,472.4,448.8,478,448,483.6z M460.8,427.8c-0.7,0.1-1.5,0.2-2.2,0.3c-0.9,0.1-1.8,0-2.8-0.1c-0.4,0-0.7-0.1-1.1-0.3
						c2.2-1.5,4.9-1.8,7.5-0.9C463.3,427.3,460.7,427.9,460.8,427.8z M459,425.2c-1.9,0-3.7,0.7-5.2,1.8c-0.1-0.1-0.2-0.2-0.2-0.3
						c0.1-0.5,0.2-1,0.3-1.5c1.1-3.9,4-4.7,7.6-3.8c1.5,0.4,0.7,1,1.2,2c0.1,0.3,0.3,0.5,0.5,0.7c0,0.6,0.1,1.3,0.1,1.9
						C462,425.3,460.3,425.1,459,425.2z M465.2,447.9c0-5.8,0.1-11.4,0-17c0-3.9-0.2-7.9-0.4-11.8c-0.2-2.4-1.6-4-3.8-5
						c-0.6-0.3-1.3-0.6-2-0.8c5.4-2.4,10.4,0.1,15.4,0.8c1.2,4.7-2.7,29-5.7,34.9C467.7,448.7,466.6,448.3,465.2,447.9z
						 M468.2,466.2c-0.3,0-0.5,0-0.8,0c-0.9-4.8-1.5-9.6-1.5-14.9c2.2,0.7,4,1.3,6,2C470.6,457.7,469.4,462,468.2,466.2z M472.6,450
						c-0.4-0.1-0.9-0.2-1.3-0.3c1.6-11.5,5.7-22.6,6.2-34.9c2.4,1,4.2,1.8,6.1,2.5C479.2,428.2,476.9,439.4,472.6,450z M463.8,395.7
						c0.3,2,0.4,4.1,0.6,6c-2.6,0.9-2.9,0.9-3.1-1.2c-0.3-2-0.3-4.1-0.4-6.4C463.6,394.7,463.7,394.7,463.8,395.7z M468.5,406.3
						c8.1,1.9,16.2,3.7,23.8,7.1c6.2,2.7,11.8,6.2,15.3,12.2c1.3,2.2,2.7,4.3,2.5,7.5c-3.1-3.2-5.4-6.8-10-6.9
						c-0.4-1.7-0.5-3.3-1.1-4.7c-0.6-1.4-1.2-3-2.3-3.9c-2.1-1.7-4.6-2.6-7.4-3c-2.2-0.3-4.5-0.8-6.6-1.4c-2.5-0.7-4.9-1.8-7.4-2.5
						c-2.5-0.7-5.1-1.1-7.6-1.7c-6.4-1.6-11.8,0-15.8,5.2c-3.5,4.5-6.1,9.7-7.3,15.3c-1.1,4.9-1.5,10-2.3,15.1
						c-0.5,3.3-0.9,6.5-1.3,9.9c-2.6-1-2.7-2.7-2.4-4.7c0.8-6,1.6-11.9,2.4-17.9c1.1-7.7,4.4-14.5,9.9-20c1.7-1.7,3.6-3.2,5.6-4.4
						C460.2,405.6,464.2,405.3,468.5,406.3z"/>
					<path class="st0" d="M493.4,451.7c-1.3-1.9,0-3.7,0.3-5.7c1,0,1.8-0.1,3-0.1c-0.9-1.2-1.6-2.1-2.5-3.2
						c-0.5,0.1-1.3,0.3-2.4,0.5c1.4,2.2,0.9,4.2,0,6.4c-0.6-0.1-1.2-0.3-1.8-0.3c-0.5,0-1.1,0.1-2.2,0.3c1.2,1,2,1.6,3,2.4
						c-0.5,1.4-1,2.9-1.6,4.7c-1.3-0.6-2.4-1.1-3.9-1.7c0.3,2.2,2,2.7,3.1,4.1c-0.9,3.7-1.7,7.6-2.7,11.5c-0.2,0.8-1.1,1.4-1.8,2
						c-0.6,0.5-1.2,0.9-2.3,1.6c2.8,1,4.8,1.9,5.6,4.6c0.7,2.5-1.3,4.5-0.7,7.5c0.5-0.8,0.9-1.2,1.1-1.6c0.8-2.9,1.2-5.8,0.1-8.8
						c-0.5-1.4,0-3.2,0.4-4.8c0.5-2.9,1.2-5.7,1.9-8.5c0.3-1,0.9-1.9,1.7-3.3C490.8,456.6,490.6,453.9,493.4,451.7z"/>
					<path class="st0" d="M505.2,470.1c-1.9-2.7-1.7-4.3,0.5-6.5c-1.2-1-1.2-2.4-0.8-3.9c0.5-2.4,0.8-4.8,0.8-7.3
						c-2.3,5.2-3,10.8-5.1,16.6c0.8,1.6,0.1,3.8-0.7,5.9c-0.6,1.6-0.3,2.6,1.9,3c0.3-1.3,0.8-2.5,1-3.8
						C502.9,472.5,503.1,470.7,505.2,470.1z"/>
					<path class="st0" d="M505.6,522.9c2.5-3.7,5-7.4,7.5-11.3c-1.5,0.2-1.5,0.2-4.6,5c-1.2,1.9-2.4,4-3.5,5.9
						C505.2,522.7,505.4,522.8,505.6,522.9z"/>
					<path class="st0" d="M499.6,488c1.7-1.7,1.8-2.9,0.9-6.5C499.5,483.4,499.3,485.1,499.6,488z"/>
					<path class="st0" d="M452.7,466.5c1-2.1,2.1-4.1,3.1-6.3C453.4,461,452.4,462.8,452.7,466.5z"/>
					<path class="st0" d="M509.3,508.9c-3,1.6-3.6,4.7-4.4,7.6C506.4,514,507.8,511.4,509.3,508.9L509.3,508.9z"/>
					<path class="st0" d="M509.8,499c-1.2,2.3-2.4,4.5-3.6,6.8c2-1.9,3.6-3.9,4.3-6.5C510.3,499.2,510.1,499.1,509.8,499z"/>
					<path class="st0" d="M509.2,508.8c1.1-1.3,2.1-2.5,3.2-3.8c-0.2-0.1-0.3-0.2-0.5-0.4C510.5,505.7,509.3,506.9,509.2,508.8
						C509.3,508.9,509.2,508.8,509.2,508.8z"/>
					<path class="st0" d="M454.3,449.9c-0.6,0.8-1.2,1.6-1.8,2.4c0.2,0.2,0.4,0.3,0.6,0.5c0.6-0.8,1.3-1.5,1.9-2.3
						C454.8,450.3,454.5,450.1,454.3,449.9z"/>
				</g>
				<path class="st0" d="M468.4,700.3c-0.2,0.4-0.5,0.8-0.7,1.2c0.1,0.1,0.2,0.1,0.3,0.2c0.3-0.4,0.5-0.8,0.8-1.3
					C468.7,700.4,468.6,700.3,468.4,700.3z"/>
			</g>
			<g>
				<path class="st0" d="M5.1,181.5c-1.6,4.3-0.9,8.3-0.7,12.2c0.1,2.4,0.2,4.9,0.3,7.3c0.3,7,0.6,14.1,0.9,21.1
					c0.3,7.4,0.6,14.7,1,22.1c0.3,6.3,0.7,12.6,1.1,19c0.1,1.5,0.3,3,0.4,4.6c0.2,2.1,0.7,2.7,2.8,2.7c1.9,0,3.9,0,5.8-0.2
					c10.6-0.8,21.2-0.3,31.9,0c9.4,0.2,18.8-0.1,28.2-0.3c5.5-0.1,11-0.3,16.6-0.5c13.7-0.4,27.4-0.8,41.1-1.3
					c10.6-0.4,21.2-0.8,31.9-1.3c11.8-0.6,23.7-1.3,35.5-1.9c7.3-0.3,14.7-0.5,22.1-0.7c12.8-0.4,25.5-0.8,38.3-1.1
					c10-0.2,20-0.1,30-0.3c6.6-0.1,13.3-0.4,19.9-0.7c0.5,0,1-0.3,1.6-0.4c0.4-3.3,0.5-6.4,0.3-9.7c-0.3-4-0.5-8-0.6-11.9
					c-0.1-12.5-1-24.9-2.3-37.3c-0.8-7.8-1.7-15.6-2.5-23.5c-0.1-1-0.1-2,0-3c0.1-2.1-0.3-2.6-2.4-2.5c-3.6,0.1-7.1,0.5-10.7,0.5
					c-9.6,0.2-19.2,0.4-28.8,0.6c-12.8,0.3-25.6,0.6-38.3,0.9c-11,0.3-22.1,0.7-33.1,1c-12.6,0.4-25.1,0.8-37.7,1.2
					c-11.4,0.3-22.9,0.6-34.3,1c-13.6,0.5-27.2,1-40.8,1.6c-11.4,0.5-22.9,0.8-34.3,0.6c-13.1-0.3-26.2,0-39.2,0
					C7.7,181.3,6.4,181.4,5.1,181.5z M269.7,257c-2.2-0.7-3.7,0.5-5.2,1.5c-2,1.4-4.1,2.1-6.7,1.4c0.5-0.7,0.9-1.3,1.3-1.9
					c-1.4,0-2.6,0.3-3.5,0.9c-1.4,0.9-2.9,1.4-4.6,1.4c-11.6,0.4-23.3,0.9-34.9,1.3c-10.9,0.4-21.9,0.7-32.8,1.2
					c-8.8,0.4-17.5,1-26.3,1.5c-7,0.4-14.1,0.8-21.1,1.1c-5.6,0.2-11.2,0.3-16.8,0.5c-4.3,0.1-8.6,0.1-12.8,0.3
					c-7.8,0.2-15.5,0.5-23.3,0.7c-6.4,0.2-12.9,0.3-19.3,0.3c-5.3,0.1-10.6,0-15.9,0c-10.5,0-21.1-0.1-31.6-0.1
					c-1.2,0-2.5-0.1-3.7-0.1c-1.1,0-1.7-0.6-1.8-1.7c-0.4-3.6-1.1-7.3-1.2-10.9c-0.7-12.8-1.2-25.5-1.8-38.3c-0.4-8-0.6-15.9-1-23.9
					c-0.1-1.3,0.2-2.4,1.4-3.1c1.7-1.1,3.6-2.1,5.1-3.4c1.7-1.4,3.4-1.4,5.5-0.5c-2.7,1.7-5.4,3.3-8.4,5.1c0,1.9-0.1,4,0,6.1
					c0.3,9.6,0.4,19.2,0.9,28.8c0.6,10.8,1.5,21.6,2.2,32.4c0.2,3.6,1.2,5.1,4.2,5.3c5.6,0.3,11.2,0.6,16.8,0.6
					c7.2,0,14.3-0.4,21.5-0.4c6.5-0.1,13.1,0.2,19.6,0c13.8-0.4,27.6-0.9,41.4-1.4c8.3-0.3,16.5-0.7,24.8-1
					c6.9-0.2,13.9-0.1,20.8-0.3c8.1-0.2,16.1-0.5,24.2-0.7c1.7-0.1,3.5-0.3,5.2-0.5c3.5-0.5,4.4-1.5,4.9-4.9
					c0.1-1.1,0.2-2.2,0.1-3.3c-0.3-10.3-0.8-20.6-1.1-30.9c-0.2-9.6,0.3-19.2-0.7-28.8c-0.3-3.1-1-3.9-4.2-3.9
					c-4.6,0.1-9.2,0.3-13.8,0.4c-8.2,0.2-16.4,0.3-24.5,0.4c-7.5,0.1-14.9,0.4-22.4,0.5c-9.7,0.2-19.4,0.2-29.1,0.4
					c-12.1,0.2-24.1,0.4-36.2,0.6c-0.8,0-1.5-0.1-2.4-0.2c2.6-4.3,4.7-5.5,7.8-4.6c-0.7,1.1-1.4,2.1-2.5,3.7
					c1.1-0.3,1.7-0.3,2.1-0.7c0.8-0.8,1.5-1.7,2.3-2.5c1.6-1.6,1.7-1.5,4.2-0.9c0,1.2-2,1.8-1.1,3.6c2.4-2.1,3.8-5.6,8-4
					c-0.2,0.4-0.4,0.7-0.6,1c-0.1,0.3-0.2,0.6-0.4,1.2c1.8,0.1,2.2-1.4,3.1-2c1.2-0.8,2.4-0.8,4-0.5c-0.8,1.2-1.4,2.2-2,3.2
					c2.9-0.7,3.9-4.6,7.4-3.3c0,1.8-3,2.3-1.9,5c1.3-1.5,2.3-2.7,3.3-3.8c1.6-1.8,2.7-2,5.1-1.2c-1,1.2-1.9,2.3-3.3,3.9
					c1-0.1,1.5,0.1,1.8-0.1c0.9-0.8,1.9-1.6,2.7-2.5c1.8-2.3,4-2.2,7.1-1.8c-1.1,1-1.8,1.6-2.5,2.4c-0.6,0.6-1.6,1.1-1.1,2.6
					c1.5-1.3,2.8-2.4,4.1-3.5c1.3-1.1,2.5-2.4,4.7-1.7c-1.3,1.5-2.4,2.9-3.5,4.2c0.8,0.2,1.4,0,1.8-0.3c1-0.9,2-1.8,2.9-2.7
					c1.5-1.5,3.2-2,5.3-1.3c-0.6,0.9-1.2,1.7-2,3.1c2.5-0.4,3.3-2.2,4.7-2.9c1.7-0.9,3.4-0.9,5.2-0.7c0,1.7-2.4,1.9-1.9,3.9
					c3.2-1.7,5.4-5.5,9.7-3.9c-0.1,0.5-0.2,0.9-0.3,1.4c0.2,0.1,0.4,0.2,0.6,0.2c0.2,0,0.4,0,0.6-0.1c2.5-2.2,5.6-2.2,8.7-2.2
					c10.1-0.2,20.2-0.5,30.3-0.8c9.2-0.3,18.4-0.5,27.6-0.8c14.8-0.5,29.6-0.9,44.4-1.4c10.8-0.3,21.7-0.5,32.5-0.7
					c7.8-0.2,15.5-0.5,23.3-0.7c0.5,0,1,0.1,1.7,0.2c1.7,15.9,2.7,31.8,3.9,47.6c-1.6,0.8-2.9,1.3-4.5,2.1c-0.2-2.3-0.5-4.2-0.6-6.1
					c-0.6-11.7-1.2-23.5-1.8-35.2c-0.2-2.9-1.4-4-4.3-4c-5,0.1-10,0.3-15,0.4c-14.9,0.5-29.8,1-44.7,1.6c-0.8,0-1.6,0.1-2.3,0.2
					c0.6,20.9,5.3,65.9,7.5,71.4c14.4-0.1,28.8-0.2,43.2-0.4c-1.7,1.5-3.6,2.5-5.3,3.7c-1.4,1-2.9,1.2-4.6,0.7
					c0.8-1.4,2.6-1.4,3.3-3.7c-1.5,0.7-2.5,1-3.4,1.6c-3.3,2.1-6.8,3-11,1.9C267.6,258.5,268.6,257.7,269.7,257z M284.5,251.6
					c-3.8,0.9-7.3,0.6-10.8,0.5c-1.2,0-1.7-1-1.8-2.1c-0.4-2.3-0.9-4.6-1.2-6.9c-0.3-1.8-0.6-3.6,0-5.4c4.2,0,8.2,0,12.4,0.1
					C283.8,242.4,284.3,246.9,284.5,251.6z M245.9,253.4c-0.6-5.1-1.2-9.7-1.9-14.8c3.9-0.3,7.3-0.5,11-0.7c0.6,5,1.2,9.5,1.8,14.6
					C253,252.8,249.5,253.1,245.9,253.4z M259.2,252c-0.4-4.8-1.4-9.4-1.4-14.4c3.6,0,6.8,0,10.3,0.1c0.8,4.8,1.8,9.4,1.5,14.4
					C266,252,262.8,252,259.2,252z M26.1,231.6c-4.1-0.1-8.1,1-12.4,0.4c-0.7-3.9-0.5-7.4-0.4-11.2c3.9-0.4,7.6-0.8,11.2-1
					c1.1-0.1,1.7,0.6,1.7,1.7C26.2,224.6,26.2,227.8,26.1,231.6z M124.8,229.9c0.3,3.5,0.8,7,0.4,10.7c-4.6,0.5-8.8,0.7-13.3,0.5
					c0.2-3.9-0.6-7.4,0.2-11.3C116.3,229.8,120.3,229.9,124.8,229.9z M295.3,237.8c1,3,1.4,10.9,0.7,13.7c-3.2,0-6.4,0-9.9-0.1
					c-0.5-4.6-0.7-9-0.4-13.7C289.1,237.8,292.1,237.8,295.3,237.8z M13.4,218.3c-0.3-4.3-0.8-7.9,0-11.4c4-0.5,7.8-1,11.5-1.5
					c0.9,3,1.2,9.5,0.4,11.9C21.5,217.6,17.6,217.9,13.4,218.3z M15.1,245.8c-0.9-3.9-1.7-7.3-1.2-11.2c4.2-0.3,8.4-1.2,12.8-0.7
					c0,3.8,0,7.3-0.1,11.1C22.8,245.3,19.1,245.6,15.1,245.8z M280.7,210.2c0.8,3.8,0.7,7.3,0.8,11.1c-4.4,0-8.4-0.1-12.9-0.1
					c-0.3-3.4-0.5-6.8-0.8-10.4C272.3,210.6,276.4,210.4,280.7,210.2z M281.8,224.1c0.3,3.8,1.3,7.2,0.6,11.1c-2.1,0-4.2,0-6.2,0
					c-2,0-4,0-5.8,0c-1-3.3-1.4-8.4-0.8-11.1C273.5,224,277.5,224,281.8,224.1z M123.7,213.6c-4,1-8.9,1.2-12,0.5
					c-0.1-2.4-0.2-4.9-0.2-7.5c0-2.6,0.3-2.9,3-3.1c2-0.1,4.1-0.2,6.1-0.3c1.1,0,2.1,0.1,3.1,0.1
					C124.4,206.7,124.4,211.5,123.7,213.6z M111.9,216.9c4.3-0.2,8.3-0.4,12.5-0.6c0.3,3.8,0.4,7.1,0.2,10.6
					c-4.4,0.2-8.4,0.4-12.8,0.5C111.8,223.8,111.9,220.5,111.9,216.9z M136.9,228.9c2.4-0.1,4.3-0.2,6.2-0.3c1.9-0.1,3.8-0.8,5.6,0
					c0.9,3.6,1.2,7.8,0.7,10.6c-3.8,0.2-7.7,0.4-12,0.6C137.2,235.9,137,232.5,136.9,228.9z M267.1,195.9c-0.3-3.7-0.6-6.9-0.9-10.3
					c4.5-0.2,8.6-0.3,12.7-0.2c1,3.4,1.3,7.8,0.7,9.8C275.6,195.5,271.6,195.7,267.1,195.9z M13.3,203.4c0-3.7,0-7.1,0.1-10.8
					c3.9,0,7.4,0,10.8,0.1c1,2.5,1.3,6.9,0.7,10.2C21.2,203.6,17.3,203.6,13.3,203.4z M27.8,219.7c3.8-0.3,7.2-0.6,10.9-0.9
					c0.2,4.1,0.2,7.9,0.2,12c-3.8,0.2-7.1,0.3-10.8,0.5C28.1,227.3,27.9,223.7,27.8,219.7z M136.9,226.2c-0.6-3.8-0.4-7.2,0.1-10.9
					c3.7-0.2,7.1-0.3,10.7-0.5c0.6,3.7,1.2,7.1,1,10.8C144.7,225.8,141,226,136.9,226.2z M280.8,207.8c-4.6,0.1-8.7,0.3-13.1,0.4
					c-0.3-3.3-0.5-6.2-0.7-9.4c4.7-0.1,9-0.7,13.5-0.3C280.5,201.7,280.6,204.5,280.8,207.8z M38.8,216.4c-3.9,0.2-7.4,1.1-11.2,0.4
					c0-3.7,0-7.4,0.1-11.2c3.5-0.4,7-0.3,10.7-0.2C38.5,209.2,38.7,212.6,38.8,216.4z M52.7,219c4.6-0.9,8.2-0.9,10.4,0
					c-0.2,3.5-0.5,7.1-0.7,10.9c-3.6,0.2-6.9,0.5-10.6,0.7C52.1,226.5,52.4,222.8,52.7,219z M50.9,215.9c-3.5,0.8-6.7,0.5-10.1,0.5
					c-0.5-3.9-0.7-7.6,0-11.2c3.7,0,7,0,10.2,0.1C50.9,208.9,50.9,212.3,50.9,215.9z M285.2,235c-0.3-3.9-1.3-7.5-0.7-11.2
					c3.4-0.3,6.5-0.5,9.9-0.7c0.7,4,1,7.9,0.9,12C291.8,235.1,288.7,235,285.2,235z M254,211.6c4-0.3,7.5-0.5,11.2-0.7
					c0.7,3.7,1.2,7,0.8,10.8c-2,0-3.7-0.1-5.4,0c-1.8,0-3.6,0.1-5.7,0.2C254.6,218.4,254.3,215.3,254,211.6z M257,235.1
					c-0.5-3.6-1-7.1-1.6-10.9c3.9,0,7.4,0,10.8,0.1c1.2,4.9,1.4,8.4,0.6,10.9C263.9,235.1,260.7,235.1,257,235.1z M26.7,192.4
					c3.4,0,6.6,0,9.8,0.1c0.9,0,1.6,0.5,1.7,1.4c0.1,2.9,0.6,5.8,0,8.9c-3.7,0-7.2,0-11-0.1C26.6,199.4,26.4,196.1,26.7,192.4z
					 M62.6,243.2c-3.8,0.2-7.3,0.3-11,0.4c0-3.6,0-6.9,0.1-10.4c3.6-0.4,6.9-0.7,10.5-1C62.8,235.8,62.8,239.2,62.6,243.2z
					 M99.9,242c0-4,0-7.4,0.1-11c1.8-0.2,3.4-0.4,5-0.5c1.6-0.1,3.8-0.6,4.5,0.2c0.9,0.9,0.5,3,0.6,4.6c0.1,2,0,4,0,6.2
					C106.7,241.7,103.5,241.8,99.9,242z M161.1,228c3.5-0.2,6.6-0.3,9.7-0.4c0.8,3.6,2.7,6.7,1.9,10.5c-3.7,0.5-7.3,0.8-11.2,0.5
					C161.4,235,161.2,231.7,161.1,228z M252.3,186.3c3.3-0.2,6.3-0.4,9.2-0.4c0.6,0,1.7,0.6,1.8,1.1c0.8,2.8,1.2,5.7,1,8.7
					c-4,0.9-7.7,0.7-11.5,0.6C252.6,192.8,252.5,189.8,252.3,186.3z M74.6,229.4c-3.7,0.1-6.9,0.7-10.3-0.1
					c0.2-3.7,0.4-7.2,0.6-11.1c3.4,0,6.5,0,9.8,0.1C74.6,221.9,74.6,225.5,74.6,229.4z M50.9,218.9c-0.3,4-0.6,7.7-0.9,11.6
					c-3.2,0-6.1,0-9.2-0.1c0-4,0-7.7,0.1-11.7C44.1,218.8,47.3,218.8,50.9,218.9z M86.7,242.4c-3.6-0.2-7.1,0.6-10.4,0
					c0-3.6,0-6.9,0.1-10.3c3.7-0.6,6.9-0.7,10.4-0.4C86.8,235.3,86.8,238.7,86.7,242.4z M38.8,233.2c0,3.9,0,7.4-0.1,10.8
					c-3.4,0.9-6.5,0.8-10,0.7c0-3.8,0-7.3,0.1-11C32.1,233.5,35.3,233.3,38.8,233.2z M52.6,215.7c0.1-3.7-0.4-7.2,0.9-10.7
					c3.3-0.1,6.3-0.2,9.4,0.2c0,3.6,0,7-0.1,10.6C59.4,215.7,56.2,215.7,52.6,215.7z M253,199.4c4-0.6,7.6-0.6,11.4-0.3
					c0.2,3.2,0.4,6.1,0.6,9.3c-3.9,0.2-7.4,0.5-11.3,0.7C253.5,205.6,253.2,202.6,253,199.4z M293.7,210.3c-0.1,3.5,1,6.6,0.4,9.9
					c-3.4,0.7-6.6,1.2-10.2,0.6c-0.2-3.1-0.4-6.1-0.4-9.1c0-0.5,0.7-1.5,1.1-1.5C287.5,210.1,290.4,209.5,293.7,210.3z M76.1,229.5
					c0.7-4.1-0.3-7.8,0.9-11.5c3.3,0,6.2,0,9.5,0.1c0,3.7,0,7.2-0.1,10.8C83.1,229.1,79.9,229.2,76.1,229.5z M254.5,235.4
					c-3.6,0.2-6.9,0.4-10.3,0.6c-1.2-3.6-1-6.9-0.9-10.6c3.2-0.4,6.1-0.7,9.5-1.1C253.3,228.2,253.9,231.6,254.5,235.4z M64.8,215.4
					c0.2-3.4-0.4-6.8,0.4-10.3c2.9-0.1,5.5-0.3,8-0.4c1.1,0,2.2,0.2,2.2,1.6c-0.1,3,0.2,6.1-0.8,9.1c-2.8,0.1-5.4,0.3-8.1,0.4
					C66,215.8,65.5,215.6,64.8,215.4z M74.2,242.6c-3.3,0.5-6.5,0.7-9.8,0.3c0.1-3.7-0.7-7.1,0.1-10.8c3.4,0,6.5,0,9.8,0.1
					C74.3,235.7,74.3,239,74.2,242.6z M64.1,192.3c3.9,0.2,7.3-0.5,11.1,0.1c0,3.2,0,6.3-0.1,9.4c-3.4,0.8-6.7,0.7-10.3,0.4
					C64.6,198.9,64.3,195.8,64.1,192.3z M40.4,192.6c3.2,0,6.2,0,9.1,0.1c1.1,0,2.1,0.3,2.1,1.7c0,2.6-0.1,5.2-0.1,8.1
					c-3.9,0.1-7.4,0.7-11.1-0.1C40.3,199.2,40.3,196.1,40.4,192.6z M124.1,200.5c-4.4-0.3-8.2,0.7-12.4,0.1c0.2-3.1,0.4-6,0.6-9.1
					c3.9,0,7.4,0,11.1,0.1C123.6,194.5,123.8,197.2,124.1,200.5z M98.1,204.7c0.4,3.6,0.5,7-0.4,10.5c-3.3,0.3-6.3,0.6-9.5-0.1
					c0-3,0-5.9,0.1-8.7c0-1.1,0.6-1.7,1.7-1.7C92.6,204.6,95.3,204.7,98.1,204.7z M161.2,225.1c0-3.7,0-7,0.1-10.6
					c3.2,0,6.1,0,9.3,0.1c0.2,3.4,0.8,6.9,0.5,10.6C167.7,225.2,164.6,225.2,161.2,225.1z M110.1,217.5c-0.1,3.5,0.3,6.7-0.4,10.1
					c-3.3,0.2-6.4,0.4-9.8,0.6c-0.5-3.3-0.4-6.3,0-9.3c0-0.4,0.7-1.1,1.2-1.2C103.9,217.5,106.8,216.6,110.1,217.5z M109.8,204.3
					c0.1,3.1,0.3,6.1,0.2,9.1c0,0.5-0.8,1.4-1.2,1.4c-2.9,0.1-5.8,0.6-8.5,0.2c0-3.7,0-7.1,0.1-10.8
					C103.7,204.2,106.6,204.3,109.8,204.3z M97.6,228.2c-2.7,0.2-5.3,0.5-7.9,0.7c-1,0.1-1.5-0.6-1.5-1.5c-0.1-2.7-0.1-5.5,0-8.2
					c0-0.5,1-1.4,1.5-1.5c2.6-0.1,5.2,0,8,0C97.7,221.4,97.7,224.7,97.6,228.2z M137.6,250c-0.1-1.8-0.3-3.5-0.3-5.2
					c0-1.9,0.3-2.2,2.3-2.4c2.7-0.3,5.5-0.4,8.2-0.5c0.7,0,1.3,0.2,2.3,0.3c0.2,2.6,0.5,5.1,0.7,7.9C146.3,250,142.2,250,137.6,250z
					 M50.9,254.5c0-1.4,0-2.6,0-3.8c0.1-5.1,0.1-5.1,5.1-5.1c1.2,0,2.4,0,3.7,0c1,0,1.9,0.1,2.8,0.1c0,3.1,0,5.8-0.1,8.9
					C58.6,254.5,55,254.5,50.9,254.5z M125.3,251c-4.3,0.3-8.5,0.6-13,1c0-2.8,0-5.1,0-7.7c4.4-0.4,8.6-1,13-0.7
					C125.3,246,125.3,248.3,125.3,251z M147.6,212.5c-3.6,0.4-7,0.5-10.6,0.3c-0.7-3.4-0.2-6.4,0.2-9.4c3.5,0,6.6,0,9.8,0.1
					C147.2,206.5,147.4,209.3,147.6,212.5z M86.3,215.4c-3.4,0-6.3,0-9.3-0.1c0-3.3,0-6.3,0.1-9.3c0-0.5,0.9-1.3,1.4-1.3
					c2.6-0.1,5.2,0,7.9,0C86.3,208.5,86.3,211.8,86.3,215.4z M241.6,210.3c-0.7-3.7-1.1-7-0.4-10.7c3,0,5.9,0,9,0.1
					c0.3,3.2,0.6,6.2,0.9,9.7C247.7,209.7,244.8,210,241.6,210.3z M158.9,200.2c-3.6,0.6-6.7,0.4-10.2-0.2c-0.2-3.1-0.4-5.9-0.7-9
					c3.6,0,6.8,0,10.4,0.1C158.6,194,158.7,196.8,158.9,200.2z M150.9,225.7c-1.2-4.5-1.4-8.5-0.6-10.8c2.8,0,5.6,0,8.7,0.1
					c0,3.5,0,6.8-0.1,10.4C156.2,225.4,153.6,225.6,150.9,225.7z M240.6,196.5c-0.3-3.5-0.6-6.8-0.8-10.1c3.4,0,6.5,0,9.9,0.1
					c0,3.5,0,6.6-0.1,10.1C246.6,196.5,243.9,196.5,240.6,196.5z M88.8,231.6c3.2-0.2,6-0.4,9-0.7c0,3.9,0,7.3-0.1,11
					c-3.1,0-5.9,0-9-0.1C88.8,238.5,88.8,235.2,88.8,231.6z M49.6,243.4c-3.2,0.5-5.9,1.1-8.8,0.3c0-3.6,0-7,0.1-10.6
					c3.1-0.2,5.9-0.1,8.8,0.3C49.6,236.9,49.6,240,49.6,243.4z M99.8,192.1c3.4-0.7,8.5-0.6,10.1-0.1c0,3,0,5.9-0.1,9
					c-3.3,0.1-6.3,0.3-9.6,0.4C100,198.1,99.9,195.2,99.8,192.1z M86.9,244.5c0,2.9,0,5.3-0.1,7.6c0,0.5-0.8,1.3-1.3,1.3
					c-3.1,0.1-6.2,0-9.5,0c0-2.7,0-5.3,0.1-8.3C79.6,244.8,83,244.7,86.9,244.5z M98.4,201.6c-3.7-0.3-6.8,0.7-10.1-0.1
					c-0.2-3.3-0.4-6.4,0.1-9.7c3.2,0,6.1,0,9.4,0.1C98,195.1,98.2,198.1,98.4,201.6z M135.7,239.6c-3.3,0.9-6.3,1-8.6,0.3
					c-0.2-3.3-0.9-6.7-0.3-10.3c2.7-0.2,5.3-1.2,8.3-0.3C135.3,232.7,135.5,236.1,135.7,239.6z M192.2,190.5
					c0.4,2.9,0.6,5.8,0.6,8.8c-3.5,0.1-6.8,0.3-10.3,0.4c-0.3-3.2-0.5-6.1-0.7-9.3C185.4,190.5,188.5,190.5,192.2,190.5z
					 M182.8,224.7c-2.8,0.2-5,0.4-7.3,0.5c-1.5,0.1-2.2-0.6-2.3-2.1c0-2.1-0.2-4.3-0.2-6.4c0-0.7,0.4-1.5,0.6-2.4c2.8,0,5.4,0,8.2,0
					C182.1,217.8,182.4,221,182.8,224.7z M192.7,201.3c0,3.6,0,6.8-0.1,10.3c-3,0-5.8,0-8.5-0.1c-0.9-3.2-1-6.2-0.3-8.7
					C186.7,202.3,189.6,201.8,192.7,201.3z M281.8,185.3c2.9-0.1,5.3-0.2,7.7-0.2c1,0,1.9,0.3,2.1,1.4c0.4,2.7,0.7,5.4,0.2,8.3
					c-3.1,0.1-5.9,0.3-8.9,0.4C282.5,191.8,282.2,188.8,281.8,185.3z M192.8,214c0,3.4,0,6.7-0.1,9.9c-2.7,0.7-5.2,1.1-8.1,0.5
					c-0.2-3.5-0.4-6.8-0.7-10.5C187.1,214,189.7,214,192.8,214z M252.3,221.9c-3.6,0.2-6.5,0.4-9.7,0.5c-0.3-3.2-0.5-6-0.8-9
					c3.3-0.8,6.2-1.7,9.5-1.2C251.7,215.5,252,218.5,252.3,221.9z M162.1,249.7c0-2.8,0-5.4,0-8.2c3.6-0.2,7-0.4,10.7-0.7
					c0,3,0,5.8-0.1,8.7c-0.6,0.1-1.1,0.2-1.6,0.2C168.4,249.7,165.5,249.7,162.1,249.7z M173.5,227.7c2.7-0.1,5-0.3,7.3-0.3
					c0.6,0,1.6,0.7,1.7,1.3c0.8,2.9,1,5.8,0.4,9.2c-2.7,0.1-5.4,0.2-8.4,0.3C174.2,234.6,173.9,231.3,173.5,227.7z M15.7,256.2
					c-0.1-2.8-0.2-5.2-0.3-7.7c4-0.5,7.7-0.9,11.7-1.3c0,3,0,5.6-0.1,8.5C23.3,255.9,19.8,256,15.7,256.2z M134.9,203.3
					c0,3.1,0,6.2-0.1,9.7c-2.9,0.2-5.7,0.4-8.8,0.6c0-3.6,0-6.8,0.1-10.3C129,203.3,131.8,203.3,134.9,203.3z M310.3,249.6
					c1.2,4.9,1.1,5.2-2.5,7.6c-0.8,0.5-1.5,1-2.3,1.5c-1.4,1-2.9,1.3-4.7,0.8c1.8-2.6,5.1-2.9,6.7-5.4c-1.1,0-2,0.3-2.9,0.7
					c-2.4,1.3-4.8,2.7-7.2,4.1c-1.5,0.9-3,1.5-4.8,0.6c1.8-1.9,4.8-1.9,6.3-4.7c-1,0.2-1.6,0.2-2.1,0.5c-2.5,1.2-4.9,2.5-7.3,3.8
					c-1.4,0.8-2.8,1.1-4.8,0.3c1.6-1.1,3-1.9,4.1-3c1.2-1.3,2.5-1.4,4.1-1.5c2.9-0.2,5.9-0.4,8.8-0.8c1.1-0.2,2.2-0.9,3.3-1.4
					C306.8,251.6,308.5,250.6,310.3,249.6z M134.7,226.2c-2.8,0.2-5.4,0.4-8.3,0.6c0-3.8,0-7.2,0.1-10.9c2.8,0,5.4-0.9,8.3-0.3
					C134.7,219.2,134.7,222.5,134.7,226.2z M293.5,206.9c-3.8,0.3-6.9,0.5-10.3,0.7c0-3.3,0-6.2,0.1-9.3c2.5-0.2,4.8-0.4,7.1-0.6
					c1.3-0.1,2.2,0.4,2.4,1.8C293,202,293.2,204.3,293.5,206.9z M77.3,201.9c0-3.5,0-6.6,0.1-9.8c2.5-0.1,4.8-0.3,7-0.4
					c1.2-0.1,1.9,0.4,2,1.7c0.1,2.2,0.2,4.5,0.3,6.7c0,1.1-0.5,1.8-1.6,1.8C82.5,202,80,201.9,77.3,201.9z M53.5,192.8
					c2.8-0.1,5.4-0.2,8.1-0.3c0.9,3.3,1.6,6.3,1.1,9.8c-3.1,0-6.1,0-9.2-0.1C53.5,199.1,53.5,196.1,53.5,192.8z M151.6,238.5
					c-0.2-3.5-0.9-6.7-0.6-10.2c2.9,0.1,5.5-1,8.2,0.3c0.2,3.4,0.4,6.7,0.6,10.2C156.9,238.8,154.4,239.7,151.6,238.5z M161,212
					c0-2.9,0-5.6,0.1-8.6c3,0,5.9,0,8.8,0.1c0.3,1.5,0.7,2.9,0.9,4.3c0.2,1.4,0.2,2.7,0.2,4.3C167.4,212,164.4,212,161,212z
					 M135.3,191.6c0,2.9,0,5.6-0.1,8.6c-3.2,0.3-6.2,0.4-9.4,0c-0.1-2.9-0.3-5.6-0.4-8.6C128.9,191.5,132,191.5,135.3,191.6z
					 M38.7,255.5c-3.3,0-6.3,0-9.6-0.1c0-2.8,0-5.4,0-8.2c3.1-0.7,6.3-0.7,9.6-0.8C38.7,249.6,38.7,252.3,38.7,255.5z M159.1,212.2
					c-3.5,0-6.4,0-9.6-0.1c-0.3-3-0.9-5.8-0.3-8.9c3.2-0.2,6.2-0.3,9.4,0.4C158.8,206.5,159,209.1,159.1,212.2z M169.6,191
					c0,3.1,0,6-0.1,9.3c-2.9,0.1-5.9,0.5-9.1-0.2c0.4-3.1-0.5-6.1,0.1-9.1C163.6,190.9,166.4,190.9,169.6,191z M183.3,240
					c0.2,2.9,0.4,5.4,0.4,7.8c0,1.1-0.5,2-1.8,2c-2.2,0-4.4-0.1-6.9-0.1c-0.1-3.2-0.3-5.9-0.4-9.1
					C177.6,240.4,180.2,240.2,183.3,240z M73.9,245.1c0.4,3.3,0.5,6.1-0.5,9c-3,0-5.9,0-8.7-0.1c0-2.9,0-5.6,0.1-8.5
					C68,245.3,70.8,245.2,73.9,245.1z M146.8,200.1c-3.3,0-6.3,0-9.4-0.1c-0.4-3.1-0.4-5.9,0.8-8.6c1.9-0.2,3.7-0.4,5.5-0.5
					c1.4-0.1,2.4,0.5,2.5,2C146.4,195.3,146.6,197.6,146.8,200.1z M185,237.8c0-3.8,0-6.9,0.1-10.3c2.5,0,5.1,0,7.9,0
					c0.1,3.2,0.3,6.2,0.4,9.5C190.6,237.3,188.1,237.5,185,237.8z M88.8,253c0-3.1,0-5.6,0.1-8.4c3.2,0,6.1,0,9.2,0.1
					c0,2.7,0,5.2,0,7.9C95,253.3,92,253,88.8,253z M110.1,251.5c-3.6,1-7.5,1.2-10,0.5c0-2.5,0-5,0-7.8c3.5,0,6.7,0,10,0.1
					C110.1,246.9,110.1,249.3,110.1,251.5z M181,202.6c0.3,2.9,0.7,5.4,0.9,7.9c0,0.5-0.8,1.4-1.2,1.4c-2.5,0.2-5,0.6-7.6,0
					c0-2.9-0.8-5.7-0.4-8.6C175.4,203,177.9,202.8,181,202.6z M185.5,240.2c1.6-0.2,2.8-0.4,4-0.4c1.3-0.1,2.5,0,4,0
					c0.2,3.3,0.4,6.3,0.6,9.6c-3.1,0-5.8,0-8.6-0.1C185.5,246.3,185.5,243.4,185.5,240.2z M172.2,200c0-3.2,0-6,0.1-9.2
					c2.5-0.2,4.9-0.4,7.6-0.6c0.4,3.4,0.7,6.5,1,9.8C177.9,200,175.3,200,172.2,200z M49.1,246.2c0,2.9,0,5.7-0.1,8.8
					c-3,0-5.6,0-8.3-0.1c0-2.9,0-5.7,0.1-8.8C43.7,246.2,46.2,246.2,49.1,246.2z M303.4,237.3c0.2,4.1,0.5,7.7,0.6,11.3
					c0,0.6-0.6,1.6-1.2,1.8c-1.1,0.5-2.5,0.5-3.9,0.8c-1.1-4.7-0.7-9.1-0.8-13.6C299.9,237.6,301.4,237.5,303.4,237.3z M302.5,221.7
					c0.2,4.6,1,8.7,0.7,13.2c-1.9,0.1-3.5,0.1-5.3,0.2c-0.3-4.4-0.7-8.3-0.6-12.5C299.1,222.3,300.5,222.1,302.5,221.7z
					 M135.5,242.6c0,2.9,0,5.2,0,7.8c-2.7,0.6-5.4,0.6-8.2,0.3c0-2.7,0-5,0-7.6C130.1,243,132.6,242.8,135.5,242.6z M160.3,249.6
					c-2.8,0.4-5.1,1.1-7.6,0c-0.2-2.5-0.4-4.9-0.6-7.4c2.7-1.1,5.1-0.5,7.8-0.2C160,244.5,160.1,246.9,160.3,249.6z M150.6,257.5
					c-3.7,0.2-7.4,0.3-11,0.5c-1,0-1.6-0.5-1.7-1.4c-0.1-1.2,0-2.3,0-3.7c4.4-0.2,8.5-0.3,12.7-0.4
					C150.6,254.4,150.6,255.9,150.6,257.5z M124.4,258.9c-4.2,0-8.1,0-12-0.1c-0.1-0.2-0.4-0.4-0.4-0.7c-0.6-3.1-0.1-3.9,3-4.1
					c2.6-0.2,5.3-0.4,7.9-0.5c0.6,0,1.1,0.2,1.9,0.3C124.7,255.4,124.6,256.9,124.4,258.9z M300.1,185.3c0.5,3.3,0.8,6.6,0.5,9.8
					c-1.7,0-3,0-4.3,0c-0.9,0-1.6-0.4-1.6-1.5c0-2.7,0-5.4,0-8.3C296.3,185.3,298.1,185.3,300.1,185.3z M301.8,209.2
					c0.2,3.5,0.4,6.8,0.6,10.5c-2,0.2-3.5,0.3-5.3,0.5c-0.3-3.7-1.1-7-0.7-10.5C298.2,209.5,299.8,209.4,301.8,209.2z M173.1,257
					c-3.5,0-6.9,0-10.6-0.1c-0.1-1.4-0.3-2.9-0.4-4.7c3.9,0,7.4,0,11.1,0.1C173.1,253.7,173.1,255.2,173.1,257z M295.4,198.4
					c2-0.2,3.7-0.3,5.6-0.4c0.2,3,0.5,5.6,0.7,8.5c-1.5,0.2-2.6,0.3-3.7,0.4c-1.5,0.2-2.3-0.5-2.3-2
					C295.7,202.8,295.5,200.8,295.4,198.4z M86.4,260.1c-3.7,0-7.2,0-10.7-0.1c0-1.1,0-2.2,0-3.6c3.7-0.3,7.1-0.6,11-0.9
					C86.6,257.3,86.5,258.4,86.4,260.1z M109.9,254.4c0.2,1.8,0.3,3.1,0.4,4.6c-3.6,0.3-6.8,0.7-10.3,0.1c0.2-1.5,0.3-2.7,0.4-4.2
					C103.7,254.7,106.6,254.6,109.9,254.4z M126.3,258.1c0.4-1.8,0.8-3.2,1.1-4.7c2.9-0.1,5.5-0.3,8.2-0.4c0.1,1.9,0.2,3.4,0.4,5.1
					C132.8,258.1,129.9,258.1,126.3,258.1z M48.7,184.8c-1.4,1.8-2.7,3.5-4,5.1c-2.9,0-5.7,0-8.7-0.6
					C39.7,185.5,43.3,183.1,48.7,184.8z M97.8,255c0,1.9,0,3.2,0,4.7c-3.2,0.1-6.1,0.3-9.2,0.1c0-1.1-0.2-2,0.1-2.7
					c0.2-0.6,0.8-1.3,1.3-1.4C92.4,255.3,95,255.2,97.8,255z M160.6,257.3c-2.7,0-5,0-7.7,0c0-1.6,0-3.2,0-4.8c2.5,0,4.7,0,7.2,0
					C160.3,254.1,160.4,255.5,160.6,257.3z M61.9,257.4c0.2,0.9,0.3,1.8,0.5,3c-4,0-7.8,0-11.8-0.1c0.2-1,0.4-1.9,0.6-3
					C54.7,257.4,58.1,257.4,61.9,257.4z M175.5,252.2c2.9-0.3,5.4-0.5,8.1,0.2c0,1.2,0,2.1,0,3c0,1-0.6,1.5-1.6,1.5
					c-2,0-4,0-6.2-0.1C175.7,255,175.6,253.8,175.5,252.2z M185.7,252.3c1.7-0.1,3.1-0.2,4.5-0.2c3.3-0.1,3.3-0.1,4.5,3.6
					c-2.8,0.5-5.5,0.9-8.7,1.4C185.9,255.3,185.8,253.9,185.7,252.3z M26.5,189.2c4.2-4.7,8.1-6.3,12.1-4.3
					C32.6,189.9,32.5,189.9,26.5,189.2z M16.1,189.1c4.9-4.8,6.8-5.4,12.4-4.1C23.1,189.7,21.8,190.1,16.1,189.1z M60.1,189.8
					c-2.1,0-4.1,0.6-6.1-0.1c2.4-4.7,4.9-6.2,9.4-4.5C62.3,186.7,61.3,188.1,60.1,189.8z M73.1,256.6c0,1.4,0,2.5,0,3.7
					c-2.9,0.2-5.6,0.2-8.3-0.1c0-1.1,0-1.9,0-3.1C67.7,256.9,70.3,256.7,73.1,256.6z M55.4,184.8c-1.3,1.7-2.5,3.3-3.7,5
					c-1.5,0-3.1,0-5.3,0c1.1-1.3,2-2.2,2.6-3.2C50.5,184.3,52.6,184,55.4,184.8z M49,260.5c-3.1,0-5.7,0-8.5-0.1
					c0.1-1,0.2-1.7,0.3-2.7c2.6-0.2,5-0.3,7.5-0.5C48.6,258.4,48.8,259.2,49,260.5z M16.2,259.5c0-0.3,0.1-0.5,0.1-0.8
					c3.1-0.6,6.3-0.7,9.5-0.5c0.4,0,0.8,0.7,1.2,1.1c-0.5,0.4-0.9,1.2-1.4,1.2c-2.7,0-5.5-0.2-8.2-0.4C17,260,16.6,259.7,16.2,259.5
					z M37.6,258c0.2,0.2,0.3,0.4,0.5,0.6c-0.6,0.7-1.1,1.9-1.7,2c-2.3,0.3-4.6,0.6-6.8-0.2c0.3-2.2,0.3-2.3,1.7-2.4
					C33.3,257.8,35.5,258,37.6,258z M309.7,227.1c0.8,3.5,0.2,4.5-3.6,5.6C305.2,229.2,305.7,228.3,309.7,227.1z M307.3,248.9
					c-1.1-3.5-0.4-4.7,3.1-5.4C311.1,247.4,310.9,247.8,307.3,248.9z M310,233c0.6,2.9,0,3.6-3.4,4.7
					C306.1,234.8,306.2,234.7,310,233z M5.8,184.6c1.9-0.2,3.5-0.5,5.4,0.5c-1.7,1.2-3.1,2.1-4.9,3.3C6.1,186.8,6,185.7,5.8,184.6z
					 M307,242.7c-0.4-2.8-0.2-3.1,2.9-4.3C310.7,240.7,310.7,240.7,307,242.7z M309.3,259.3c-0.1-0.3-0.2-0.5-0.2-0.8
					c0.5-0.2,1.1-0.4,1.6-0.6c0.1,0.2,0.2,0.4,0.3,0.7C310.4,258.7,309.8,259,309.3,259.3z"/>
				<path class="st0" d="M215.8,185.7c-5.7,0.2-10.5,0.3-15.3,0.5c-1.8,0.1-2.1,0.4-2,2.3c0.6,9.2,0.2,18.6,1.6,27.8
					c0.8,4.9,0.6,4.8,5.6,4.5c5.4-0.3,10.8-0.4,16.2-0.7c3.1-0.1,6.1-0.3,9.2-0.5c2.3-0.1,2.9-0.6,3.1-2.9c0.2-2,0.1-4.1,0-6.1
					c-0.3-5.2-0.7-10.4-1.1-15.6c-0.2-2-0.4-4.1-0.8-6.1c-0.6-2.9-0.9-3.1-3.9-3.1C223.8,185.8,219.4,185.8,215.8,185.7z M201.2,189
					c3.5-0.2,6.8-0.3,10.4-0.5c0,3,0,5.6-0.1,8.5c-3.3,0-6.5,0-10-0.1C201.5,194.5,201.4,192.1,201.2,189z M201.4,199.3
					c3.4,0,6.2,0,9,0.1c0.6,0,1.5,0.8,1.6,1.4c0.3,2,0.8,4-0.2,6.2c-3.1,0.3-6.2,0.5-9.7,0.8C201.9,204.9,201.7,202.4,201.4,199.3z
					 M203.3,217.8c-0.5-2.7-1.7-4.9-0.7-7.5c3.3-0.2,6.4-1.3,9.9-0.5c0,2.5,0,4.9,0,7.6C209.5,217.5,206.6,217.6,203.3,217.8z
					 M231.5,216.5c-2.5,0.4-5,0.8-7.7,0c0.1-1.2,0.2-2.3,0.2-3.4c0.1-1.4-0.3-3.4,0.4-4c1-0.8,2.8-0.6,4.3-0.7
					c0.9-0.1,1.7,0.1,2.9,0.2C231.6,211.3,231.6,213.7,231.5,216.5z M221.5,196.5c-2.5,0-4.7,0-7.2,0c-0.2-2.6-0.4-5.2-0.6-7.9
					c2.7,0,5.2,0,7.9,0C221.6,191.3,221.5,193.7,221.5,196.5z M222.2,216.8c-2.8,0.5-5.1,1.2-7.6,0.1c-0.1-2.6-0.8-5.1,0-7.7
					c2.5,0,4.8,0,7.3,0C222,211.8,222.1,214.2,222.2,216.8z M214.3,206.6c-0.3-2.8-0.6-5,0.2-7.4c2.4-0.2,4.7-0.4,7.3-0.6
					c0,2.7,0,4.9,0,7.5C219.2,206.3,216.9,206.4,214.3,206.6z M231.1,205.8c-2.5,0-4.7,0-7.2,0c-0.1-2.5-0.7-4.8,0.3-7.6
					c2.3,0.3,4.6,0.5,7,0.8C231.2,201.3,231.2,203.4,231.1,205.8z M223.7,188.7c1.6-0.1,3.2-0.3,4.8-0.3c1,0,1.8,0.4,1.9,1.6
					c0.2,1.9,0.3,3.8,0.4,6c-2.6,0-4.8,0-7.2,0C223.6,193.6,223.6,191.3,223.7,188.7z"/>
				<path class="st0" d="M226.6,242.1c0-2.1,0.1-3.9,0-5.6c-0.1-1.7-0.4-3.4-0.4-5.2c0-1.9-1.1-2.8-2.8-3.1c-4-0.6-8.1-0.3-12.5-0.1
					c0,4.9-0.1,9.5-0.1,14.3c-3.6,0.2-6.9,0.4-10.3,0.6c-0.3,3.4-0.6,6.4-0.9,9.4c-0.1,0.6,0,1.2,0.1,1.8c0.6,3.2,1.3,3.7,4.5,3.5
					c9.9-0.6,19.8-1.2,29.7-1.7c2.8-0.2,3.3-0.9,2.7-3.7c-0.5-2.5-0.8-5-1.2-7.5c-0.3-2.4-0.7-2.8-3.1-2.8
					C230.6,242.1,228.9,242.1,226.6,242.1z M223.6,230.7c0.2,3.9,0.4,7.5,0.5,11.5c-3.7,0.4-7.1,0.7-10.7,0.3c0-4.1,0-7.9,0.1-11.9
					C216.9,230.7,220,230.7,223.6,230.7z M224,245.7c0,2.2,0.1,4.3-0.1,6.4c0,0.5-0.8,1.3-1.3,1.4c-2.7,0.4-5.4,0.6-8.2,0.8
					c-0.8-3-0.8-5.6-0.6-8.7C217.2,245.6,220.3,245.6,224,245.7z M210.7,245.8c0.3,3,0.6,5.7,0.9,8.6c-2.7,0.2-5.1,0.4-7.5,0.5
					c-1.2,0.1-2-0.4-1.9-1.7c0-1.7,0.1-3.5,0.2-5.2c0.1-1,0.4-1.8,1.6-1.9C206,245.9,208.2,245.9,210.7,245.8z M235.1,253.1
					c-2.8,0-5.5,0-8.3-0.1c0-2.7,0-5.2,0-7.8c2.4-0.1,4.6-0.2,7-0.4C234.3,247.7,234.7,250.3,235.1,253.1z"/>
			</g>
			<path class="st0" d="M222.6,32.6c9.8-0.4,17.5-0.8,25-2.5c2.4-0.6,4.7-1.4,7-2.3c2.6-1,4.3-3.1,5.6-5.5c1.5-2.9,0-7.6-3.3-9.2
				c-2.5-1.2-5.3-2.1-8.1-2.5c-11.2-1.8-22.2-0.4-33,2.7c-0.9,0.3-1.7,0.6-2.6,1c-6.1,2.8-8,7.4-5.6,13.6c0.6,1.6,2,2.2,3.5,2.7
				C215.4,31.9,219.9,32.9,222.6,32.6z M211.7,27.6c0.2-2,1.2-3,2.5-3.9c2.1-1.5,4.5-1.7,6.9-2.2c9.8-2,19.6-2.4,29.5-0.6
				c1.7,0.3,3.7,0.2,5.1,2c-0.5,0.5-0.9,0.9-1.4,1.2c-2.6,2-5.8,2.6-8.9,3.3c-7.5,1.6-15.2,2-22.8,2.3
				C218.9,29.9,215.3,29.3,211.7,27.6z M223.8,17.9c2.3-4.5,3.1-5,6.7-4.3C228.6,15.7,227.7,18.9,223.8,17.9z M235.5,16.8
				c1.6-4.2,3.1-5.1,5.8-3.4C240.2,15.9,238.9,17.9,235.5,16.8z M235.7,12.9c-2.1,4.4-2.6,4.7-5.6,4.2
				C231.5,13.1,232.3,12.4,235.7,12.9z M246.5,13.5c-1.7,4-2,4.2-5.1,3.1C243.1,12.8,243.5,12.5,246.5,13.5z M217.7,18.7
				c1.3-2.6,2.9-4.3,6.1-4.1C222.6,17.2,221.3,19.3,217.7,18.7z M255.8,15.7c-2.2,2.5-2.2,2.5-4.8,1.5
				C252.4,14.2,252.7,14.1,255.8,15.7z M217,16.2c-1.8,3.9-2.8,4.8-5.8,5.7C213.1,20,213.5,16.9,217,16.2z M246.8,16.9
				c1.5-3.5,1.6-3.6,4.1-2.8C249.3,17.2,249.3,17.2,246.8,16.9z M257.5,16.8c0,1.5,0,2.3,0,3.8c-1-1-1.6-1.5-2.2-2.2
				C256,17.8,256.5,17.5,257.5,16.8z M209.3,22.7c0-2.2,0-2.2,1.8-2.9C210.4,20.9,209.8,21.8,209.3,22.7z"/>
			<path class="st0" d="M176.7,47.2c3-1.7,4.6-4.9,7-7.3c2.3-2.4,4.6-4.8,6.9-7.3C186.8,34.2,177.7,43.5,176.7,47.2z"/>
			<path class="st0" d="M194.2,40.8c0.6-0.5,1.2-1,2.1-1.7c-1.7-0.2-1.9,0.7-2.5,1.2C193.9,40.5,194,40.7,194.2,40.8z"/>
			<path class="st0" d="M357.3,481.9c-3.9,0.3-7.9,0.6-11.8,0.9c-1.6,0.1-3.3,0.1-4.9,0.3c-1.9,0.2-3.2,1.7-3.2,3.3
				c0,12.1,1.2,24.1,2.3,36.1c0,0.1,0,0.2,0,0.3c0.7,5.9,0.9,6.2,7,6.2c3,0,6.1-0.3,9.1-0.7c2.7-0.4,3.3-1.3,3.3-3.9
				c0.1-6.3,0.3-12.7,0.1-19c-0.2-7.5-0.9-15.1-1.4-22.6C357.9,482.7,357.7,482.5,357.3,481.9z M347.9,500.5
				c0.4,8.6,1.4,16.9,1.7,25.8c-2.6-0.2-4.6-0.3-6.5-0.4c-1.5-3.9-3.1-23-2.1-25.9C343.1,500.1,345.3,500.3,347.9,500.5z
				 M340.1,486.4c5.2-0.4,10.3-0.8,15.6-1.3c0.2,3.9,0.4,7.6,0.6,11.4c-5.4,1.1-10.7,1.3-16.3,0.2
				C340.1,493.4,340.1,490.1,340.1,486.4z M356.4,500.1c0.1,0.7,0.3,1.1,0.3,1.5c0.1,6.9,0.2,13.8,0.2,20.8c0,3.2-1.1,3.9-4.6,3.1
				c-0.3-8.3-2.3-16.6-2-25.4C352.4,500.1,354.3,500.1,356.4,500.1z"/>
			<path class="st0" d="M201.6,651.3c-1.3-2.8-2.4-4.9-3.4-7.1c-1.3,2.6,0,6.2,3.3,9.4c1.3-1.5,2.6-2.9,4.2-4.6
				c1.8,1.7,3.6,3.4,5.4,5.2c2.8-1.5,3.7-4.2,5.1-6.7c0.7-1.4,0.7-1.4,0.1-3.6c-2.6,1.6-2.2,5.1-4.8,6.8c-1.2-1.2-2.4-2.6-3.7-3.8
				c-1.4-1.4-2-1.3-3.1,0.3C203.8,648.3,202.9,649.5,201.6,651.3z"/>
			<path class="st0" d="M63.7,560.6c0.7-0.1,1.1-0.1,1.3-0.3c8.6-8.3,17.1-16.6,25.5-25.2c-0.4,0.2-0.9,0.3-1.2,0.6
				c-4.6,4.2-9.2,8.5-13.8,12.7c-3,2.7-6.1,5.3-9.1,8c-0.8,0.7-1.6,1.4-2.2,2.2C63.8,559,63.8,559.7,63.7,560.6z"/>
			<path class="st0" d="M332.6,631.6c1.1-0.2,1.7-0.2,2.3-0.3c0.1-0.7,0.2-1.4,0.3-2.1c0-0.2-0.1-0.3-0.3-0.9
				C334.2,629.4,333.6,630.3,332.6,631.6z"/>
			<g>
				<path class="st0" d="M300.6,414.5c0.4-3.2,0.7-6.5,0.4-9.9c-0.2-2.7-1-5.5,0.4-8.2c0.4-0.1,0.9-0.3,1.4-0.4c4.2-1,5-2.2,4.3-6.5
					c-1-6.6-2.7-13-5.3-19.3c0.3-0.4,0.7-0.7,1-1.1c2.4-2.5,2.2-3.2,0.7-6.4c-2.8-5.8-7.2-10.4-10.9-15.5c-0.4-0.5-0.7-1-1-1.5
					c0.4-0.7,0.8-1.3,1.2-1.8c0.9-1.2,0.6-2.2,0-3.6c-2.8-6.1-6.9-11.3-11.1-16.5c-2.7-3.4-6-6.4-9.1-9.5c-1.5-1.4-2.2-1.4-4,0.2
					c-4.4,3.7-8.6,7.5-13,11.2c-2.5,2.1-5,4.2-7.5,6.3c-0.3-0.4-0.6-0.5-0.5-0.6c1.5-4.8,3-9.5,4.5-14.3c0.5-1.5,1-3,0.4-4.7
					c-0.5-1.5-1.3-2.5-2.7-3c-9.2-3.4-18.3-6.9-27.5-10.3c-3-1.1-3.2-1-4.5,2.1c-2.7,6.3-5.2,12.7-7.8,19c-1,2.5-2.4,5-3.2,7.6
					c-4.6,14.6-9,29.3-13.6,43.9c-2.9,9.2-4.5,18.7-5.7,28.2c-0.2,1.8,0.3,2.9,1.7,3.9c7.5,4.8,14.6,10.1,22.5,14.2
					c0.1,0,0.2,0.1,0.3,0.1c4.3,3.5,9.4,2.4,14.3,2.2c1.3,0,2.6-0.4,3.9-0.4c4.7-0.1,9.4,0.1,14.1-0.1c5.2-0.2,10.4-0.9,15.6-1.2
					c6.7-0.4,13.5-0.6,20.2-1c4.6-0.3,9.2-0.6,13.7-1.1C296.1,416.2,298.2,415.3,300.6,414.5z M287.2,383.9
					c-0.4-0.6-0.8-1.3-1.2-1.9c0.2-0.1,0.4-0.2,0.6-0.2C286.8,382.5,287,383.2,287.2,383.9c0.2,1.2,0.5,2.4,0.9,3.5
					c0.8,1.1,1.9,2.1,2.3,3.4c0.7,1.7,1.7,2.7,2.8,2.9c3.4-0.8,6.1-1.5,9.3-2.3c-0.4-2.1-0.5-4.3-1.1-6.4c-0.9-3.1-2.1-6.2-3.1-9.3
					c-0.3-1.1-1.2-2.2-0.2-3.5c1.5,0.4,1.9,1.6,2.3,2.7c1.9,4.9,3.1,9.9,3.8,15.1c0.3,2.4,0.1,2.8-2.3,3.5c-2.4,0.8-4.9,1.3-7.4,2
					c-12.3,3.4-24.6,6.8-36.9,10.2c-0.9,0.3-1.9,0.4-3,0.6c-0.5-2.5-0.9-4.7-1.4-7.2c2.1,1.2,1.8,3.2,2.7,5c0.8,0,1.9,0.4,2.5,0
					c2.3-1.5,5.6-1.1,7.3-3.9c2.3,1.1,3.7-1.2,5.6-1.5c1.9-0.3,3.8-1.1,5.8-1.7c-0.9-1.8-1.8-3.3-2.4-5c-0.5-1.5-2.1-2.8-1.3-5.3
					c2.4,3.6,2.4,8,6.2,10.2c3.4-1.2,6.8-2.4,10.4-3.6c-0.6-2-1.2-4-1.8-5.9C287.8,386.2,287.5,385,287.2,383.9z M198.2,363.3
					c2,0.7,3.8,1.2,5.6,1.9c7.8,3,15.5,6.1,23.3,9.2c2.7,1.1,2.4,2.1,1.8,4.3c-3.8,11.8-7.6,23.5-12.3,34.9
					c-0.4,0.9-0.9,1.7-1.3,2.6c-9.2-4.6-17.3-10.2-25.2-16C190.4,391.6,194.1,375.1,198.2,363.3z M198.5,361.3
					c3.7-11.2,6.2-22.2,10.6-32.7c3.2-7.7,6.2-15.5,9.2-23.3c0.3-0.7,0.6-1.3,1-1.9c0.7-1.2,1.8-1.6,3.1-1.1
					c6.7,2.5,13.4,4.9,20.1,7.4c2.3,0.9,4.6,2.1,6.7,3.2c-1.9,10.5-16.6,56.2-19.3,59.9C219.8,368.6,209.6,364.3,198.5,361.3z
					 M265.2,360.9c-1-1-1.7-1.7-2.4-2.4c-4.2-4.3-8.4-8.6-12.7-12.9c-1.8-1.8-3.7-3.6-5.9-5.7c1.3-1.3,2.8-3,4.4-4.5
					c4.4-4,8.9-7.9,13.3-11.8c2.1-1.8,4.2-3.6,6.3-5.4c1.2-1,2.2-1.2,3.5,0c1.9,1.9,4.2,3.4,5.8,5.4c3.8,4.9,7.3,10.1,10.8,15.2
					c1.5,2.2,1.4,2.5-0.5,4.4c-2.1,2.1-4.2,4.1-6.3,6.3c-3.9,4-7.8,8.1-11.7,12.1c-3.9,4-7.9,8-11.9,11.9c-1,0.9-2.2,1.6-3.7,2.6
					c-0.2,0.4-0.3,1.4-0.9,2c-2.2,2.4-4.6,4.7-6.8,7c-1,1.1-2.1,1.1-3.3,0.3c-1.4-0.9-2.7-1.8-4.1-2.7c-2.5-1.6-4.9-3.2-7.5-4.8
					c0.6-1.4,1.1-2.7,1.6-4.2c4.1,2.8,6.8,7,11.4,8.5c3.6-3.3,7.1-6.2,10.3-10c-3.5-3.8-6.7-7.4-10.1-10.9c-1.5-1.5-3.2-2.9-4.8-4.3
					c-1-0.9-1-1.7,0.3-2.6c0.8,0.6,1.6,1.2,2.3,1.9c1.8,1.9,3.6,3.9,5.4,5.8c2.3,2.4,4.1,5.3,7.7,6.6
					C258.9,366,262,363.5,265.2,360.9z M260.7,384.7c2.4,0.3,4.3-0.6,6.1-1.8c1.1-0.8,2.6-1.2,3.8-1.8c0.6-0.3,1.2-0.6,2.1-1
					c-0.6-1.1-1.1-2-1.7-2.7c-1.6-2-3.3-3.9-4.9-5.9c-0.3-0.4-0.5-1-0.8-1.6c1.6-0.2,2.1,0.8,2.7,1.5c1.2,1.6,2.4,3.3,3.6,4.9
					c1,1.3,2.6,2.2,3.6,1.5c3.5-2.1,6.8-4.3,10.4-6.5c-0.7-0.8-1.1-1.3-1.5-1.8c-2.3-2.8-4.7-5.7-6.9-8.6c-0.3-0.4-0.3-1.1-0.5-1.7
					c0.2-0.1,0.4-0.2,0.6-0.3c0.5,0.6,0.9,1.2,1.4,1.8c2.5,2.9,4.9,6,7.7,8.7c2,2,3,1.8,5.4,0.2c0.8-0.6,1.8-1.1,2.6-1.6
					c4.2-2.6,4.4-3.4,1.4-7.3c-2.8-3.7-5.6-7.3-8.6-11.2c0.6-0.5,1.2-1.1,2.1-1.9c4.4,6.5,10.5,11.4,12.5,19.2c-1,0.7-2,1.5-3,2.1
					c-4.1,2.5-8.2,5-12.3,7.4c-2.7,1.6-5.6,3-8.3,4.6c-2.7,1.6-5.6,2.6-8.2,4.3c-3.6,2.4-7.5,4.4-11.4,6.6c-1.5,0.8-3.1,1.4-4.9,2.3
					c-1.4-2.3-2.8-4.4-4-6.6c-0.2-0.4,0.2-1.2,0.3-1.8c0.6,0.2,1.4,0.2,1.8,0.5c0.7,0.6,1,1.6,1.7,2.1c0.7,0.6,1.6,1.3,2.5,1.4
					C258.3,389.8,260.5,387.5,260.7,384.7z M242.9,388.2c-7.4,7.8-14.7,15.4-22,23c-0.2-1.2,0-2.1,0.4-3.1c1-3,2.2-5.9,3.1-9
					c1.8-5.3,3.4-10.7,5.2-16c0.3-1,1-1.9,1.6-2.9C235.2,383.2,239.6,384.8,242.9,388.2z M252.5,416.6c-0.1-2.1-0.2-3.8-0.2-5.5
					c0-0.4,0.7-0.9,1-1.3c0.4,0.4,1,0.7,1.2,1.2c0.3,1.2,0.3,2.4,0.5,3.8c0.8,0.3,1.7,0.8,2.5,0.7c3.1-0.5,6.2-1.2,9.1-1.7
					c0.5-2.7-1.3-5.1,0.5-8.2c0.6,3.1,1.1,5.6,1.7,8.4c0.8,0.2,1.7,0.9,2.6,0.8c3.5-0.5,7-1.1,10.7-1.8c-0.5-3.8-1-7.4-1.6-11.4
					c1,0.4,1.6,0.4,1.8,0.7c1.7,2.6,1.7,5.6,1.2,8.6c3.1,1.6,5.8-0.6,8.7-0.3c1.2,0.1,2.6-0.8,3.9-1.2c-0.4-3.9-0.8-7.5-1.1-11.2
					c1.3-0.1,2.1-0.2,3.3-0.4c0.1,4.9,1.1,9.5,0.5,14.2c-0.2,1.7-1.1,2.2-2.6,2.3c-10,0.6-20,1.2-30,1.8
					C261.7,416.2,257.3,416.4,252.5,416.6z M243.8,379.1c-3.9-2.7-7.1-5.5-9.6-9.1c1.3-3.8,2.6-7.4,4-11.4c5.1,4.1,9.8,8,12.9,13.5
					C248.5,374.5,246.2,376.8,243.8,379.1z M244.7,343.4c5.5,5.8,10.9,11.4,16.4,17.2c-2.1,1.7-4,3.2-6.1,4.9
					c-1.9-2-3.6-3.7-5.3-5.4c-2.9-3-5.7-6-8.8-9.2C241.5,347.5,242.5,345.5,244.7,343.4z M251.2,398.7c0.4,2.5,0.7,4.2,0.9,6
					c0.2,2.3,0,2.4-2,3c-8.3,2.7-16.7,5.4-25,8c-0.7,0.2-1.4,0.3-2.1,0.4c-0.1-0.2-0.1-0.4-0.2-0.6
					C232,410.1,241.2,404.6,251.2,398.7z M251.6,395.1c-3.2,2.7-19.9,11.4-22.9,11.9c3.3-3.6,6.1-6.8,9.2-9.9c3-3.1,6.3-5.9,9.8-9.2
					C249.1,390.6,250.4,392.9,251.6,395.1z M271.4,371.2c1.1-0.9,2.3-1.9,3.6-3c-0.4,0-5.4,0.6-5.7,0.6c2.4-1.1,4.6-2.1,6.8-3
					c-0.1-0.2-0.2-0.4-0.2-0.6c-2.6-0.2-4.7,1.6-7.4,1.7c2-1.8,4.1-3.5,6.4-5.5c2.2,2.7,4.6,5.7,7.1,8.8c-1.5,1.1-3,2.1-4.6,3.1
					c-3.1,2.1-3.4,2-5.5-1.1C271.6,372,271.6,371.6,271.4,371.2z M229,417c2.2-0.8,4.5-1.5,6.7-2.3c2.4-0.8,4.9-1.5,7.3-2.1
					c2.3-0.5,4.4-2,7.2-1.6c0,2,0,3.7,0,5.7C243.1,417.9,236.1,417.2,229,417z M283.4,381.7c1.2,3.2,2.4,6.5,3.7,10
					c-2.5,0.7-4.7,1.4-6.8,2c-0.1-0.2-0.1-0.3-0.2-0.5c1.1-0.9,2.1-1.7,3.2-2.6c-0.1-0.2-0.2-0.3-0.3-0.5c-1.5,0.6-3.1,1.1-4.5,1.7
					c-0.3-0.4-0.5-0.6-0.4-0.7c0.7-2.6,3.8-2.3,5.1-4.5c-2.5-0.7-3.8,2-6.3,1.9c-0.4-1-0.9-2.1-1.3-3.1
					C280.2,382.1,280.2,382.1,283.4,381.7z M278.9,410.8c-2.1,0.3-3.9,0.6-5.7,0.8c-2.5,0.2-2.7,0.1-3.1-2.5c-0.2-1.5-0.4-3-0.6-4.7
					c2.8-0.7,5.6-1.3,8.5-2C279,405.1,279.5,407.7,278.9,410.8z M284.6,400.8c2.7-0.8,4.9-2.1,7.7-1.7c0.3,1.5,0.7,2.9,0.9,4.3
					c0.6,4.5,0.1,5.1-4.6,5.2c-0.8,0-1.6-0.1-2.5-0.1C285.7,405.9,285.2,403.5,284.6,400.8z M268.9,378.7c-2.3,1.2-4.2,2.2-6.4,3.3
					c-1.4-1.7-2.7-3.2-4.3-5c1.6-1.8,3.2-3.5,5-5.4C265.6,373.8,267.6,375.8,268.9,378.7z M273.7,395.3c-2.1,0.7-3.9,1.2-5.6,1.7
					c-1.1,0.3-1.8-0.2-2.1-1.2c-0.5-1.5-1-3-1.6-4.8c2-1.1,3.9-2,6-3.1C271.6,390.5,272.6,392.7,273.7,395.3z M264.4,411.7
					c-2.3,0.3-4.2,0.6-6.1,0.7c-1.1,0.1-1.6-0.7-1.8-1.7c-0.2-1,0-1.9,1.1-2.2c1.9-0.6,3.8-1.4,6-1.3
					C263.8,408.7,264.1,409.9,264.4,411.7z M255.5,396.3c1.4-0.9,2.7-1.7,4.3-2.7c0.9,2.2,1.6,4,2.3,5.8c-4.1,2.6-4.6,2.4-6.2-1.6
					C255.8,397.4,255.7,397,255.5,396.3z M279.9,357.9c2.4-1,4.4-2,6.5-2.8c1.8-0.7,2-0.5,2.5,1.8c-1.5,0.4-2.9,1-4.4,1.3
					C283.1,358.5,281.7,360.2,279.9,357.9z M286.8,366.1c2.1-1.1,3.8-2,5.6-2.9c1-0.5,1.8-0.3,1.9,1
					C291.1,367.4,289,368,286.8,366.1z M297.4,379.1c-2,0.8-3.3,1.4-4.6,1.7c-1.2,0.3-2.5,1.6-3.9,0c2-1.6,4.3-2.2,6.4-2.9
					C295.7,377.8,296.3,378.4,297.4,379.1z M281.9,360.9c3-1.2,5.5-2.2,8-3.1c0.2-0.1,0.7,0.5,1.6,1.2c-3,1.1-5.5,2-8.1,2.9
					C283.1,361.9,282.7,361.5,281.9,360.9z M291.5,387.3c1.9-1.8,4.1-2.8,6.9-3.5c-0.1,0.8-0.1,1.7-0.3,1.8
					C296,386.4,294.1,388.1,291.5,387.3z M257.7,385.6c-1.3,1.1-2.2,1.6-3.1,0.2c-0.7-1-1.5-1.8-2.2-2.7c1.5-1.2,1.5-1.3,2.4-0.5
					C255.8,383.5,256.6,384.5,257.7,385.6z M285.2,364.6c-0.1-0.3-0.2-0.7-0.3-1c2.1-1,4.1-2,6.2-2.8c0.9-0.4,1.8-0.3,2,1
					C290.4,362.7,287.8,363.6,285.2,364.6z M298.8,386.8c0.7,1.5,1.1,2.5-0.6,3c-1.1,0.3-2.1,0.7-3.2,0.9c-0.6,0.1-1.2-0.1-1.8-0.2
					c-0.1-0.2-0.1-0.5-0.2-0.7C294.9,388.8,296.8,387.8,298.8,386.8z M290.3,384.4c2-1.9,4.3-2.9,6.9-3.2c0.1,0,0.3,0.4,0.7,1.1
					C295.2,382.9,293,384.5,290.3,384.4z M294.7,374.1c1,0.9,1.3,1.7,0.3,2.2c-2.1,0.9-4.2,1.5-6.3,2.2c-0.1-0.2-0.2-0.4-0.2-0.6
					C290.5,376.6,292.5,375.4,294.7,374.1z M287.2,353.1c-2.3,0.9-4,1.6-5.7,2.2c0.9-1.8,1.9-3.4,3.8-3.8
					C285.7,351.5,286.2,352.3,287.2,353.1z"/>
				<path class="st0" d="M208.2,407.6c0,2.6,2,4.9,4.3,4.9c2.1,0,4.6-2.5,4.4-4.6c-0.3-3.9-0.8-5.3-3.6-5.3
					C210.4,402.6,207.9,404.4,208.2,407.6z M215.1,406.2c0,1.8-1.2,3-2.6,3c-1.2,0-2.3-1.1-2.2-2.1c0-0.8,2.2-2.5,3.2-2.3
					C214.2,405.1,214.7,405.9,215.1,406.2z"/>
				<path class="st0" d="M216.1,376.7c-0.7-0.5-1.3-1.2-2-1.5c-4.4-1.5-8.8-3-13.3-4.4c-0.2-0.1-0.6,0.4-0.8,0.7
					c0.1,0.3,0.1,0.6,0.3,0.7c0.4,0.3,0.8,0.6,1.3,0.7c4.7,1.5,9.4,2.9,14.1,4.4C215.9,377.1,216,376.9,216.1,376.7z"/>
				<path class="st0" d="M197.7,374.6c1.6,1.6,14.5,5.7,16.7,5.8c0.1-1.2-0.9-1.6-1.7-1.8C207.8,376.9,202.9,375,197.7,374.6z"/>
				<path class="st0" d="M212.7,384.3c-2.1-2.7-12.5-6-15.6-5.3c0.2,0.4,0.3,0.9,0.5,1C202.7,381.5,207.7,382.9,212.7,384.3z"/>
				<path class="st0" d="M196.7,383c-0.3,1.6,0.7,1.7,1.6,1.9c3.1,0.8,6.3,1.6,9.4,2.5c1.3,0.4,2.6,0.8,4.3,1.3
					c-1.5-2.1-2.5-2.7-7.6-3.8C201.9,384.3,199.5,383,196.7,383z"/>
				<path class="st0" d="M241.8,326.3c0.9-2.4,1.8-4.2,2.4-6.1c0.5-1.6,0.8-3.4,0.9-5.1c0-0.7-0.8-1.6-1.5-2c-2-1-4-2-6.1-2.7
					c-5.1-1.7-10.3-3.3-15.4-4.9c-2.1-0.6-2.3-0.5-3.2,1.6c-1.6,3.6-3.1,7.2-4.8,11c2.2,0.8,4.1,1.6,6,2.2c6.2,2,12.4,4,18.6,5.9
					C239.7,326.5,240.9,326.3,241.8,326.3z M239.1,314.6c-3.3,2-6.4,4-9.6,6c-1.2,0.8-2.2,0.3-3.4-0.7c3.3-2,6.3-3.9,9.3-5.7
					C236.7,313.4,237.8,313,239.1,314.6z M242.5,317c-2.8,1.6-5.5,3.3-8.3,4.7c-0.8,0.4-2,0.1-3,0c-0.1-0.2-0.1-0.5-0.2-0.7
					c2.9-1.8,5.8-3.6,8.8-5.4C241,315,242,315.2,242.5,317z M221.7,318.4c3.6-2,6.8-3.9,10.1-5.8c0.9-0.5,2-1.2,3,0.1
					c-3.1,1.9-6.1,3.8-9.1,5.6C224.6,319.1,223.5,319.7,221.7,318.4z M230,311.1c-3.1,3.1-9.8,6.5-11.7,6
					C222.8,315.8,225.3,311.3,230,311.1z M235.6,322.7c2.2-1.3,3.8-2.4,5.5-3.4c0.2,0.2,0.4,0.3,0.5,0.5c-0.7,1.4-1.3,2.9-2,4.4
					C238.2,323.7,237.2,323.3,235.6,322.7z M219.5,314.9c-0.2-0.3-0.4-0.6-0.6-0.9c2.2-1.9,4.4-3.6,7.3-4.3c0.1,0.2,0.3,0.4,0.4,0.6
					C224.2,311.9,221.9,313.4,219.5,314.9z M222.2,308c0.2,0.2,0.4,0.5,0.6,0.7c-0.5,0.4-1,0.7-1.5,1.1c-0.1-0.2-0.3-0.3-0.4-0.5
					C221.3,308.9,221.8,308.5,222.2,308z"/>
				<path class="st0" d="M240.1,330.2c-3.4-1.1-6.6-2.2-9.9-3.3c-4.3-1.5-8.6-3.1-12.9-4.7c-2.6-0.9-2.6-0.8-4.3,1.3
					c-2.4,3-3.6,6.6-4.9,10.1c-0.5,1.4-0.1,2.1,1.2,2.6c4.6,1.7,9.2,3.3,13.8,5c2.8,1,5.6,1.9,8.4,2.8c2.3,0.8,3.8,0.1,5-2.1
					C238.5,338.4,239.8,334.7,240.1,330.2z M211.4,333.4c0.1-2.5,1.2-3.5,2.5-4.4c3.3-2.2,6.7-4,10.7-1.7c0.4,0.3,1,0.3,1.5,0.5
					c4,1.3,7.9,2.6,11.9,3.9c-1,3.6-1.9,7-4.5,10.1c-3.7-1.2-7.4-2.4-11.6-3.7c1.7-1.3,3-2.3,4.2-3.2c-0.1-0.2-0.2-0.4-0.3-0.5
					c-1.5,0.8-3,1.5-4.4,2.4c-1.6,1-2.8,0.8-4.2-0.6c2-1.3,3.8-2.5,5.6-3.7c-2.4,0-4.3,1.2-6.2,2.3c-1.4,0.9-2.6,0.9-3.9-0.4
					c2.3-1.7,4.5-3.2,6.7-4.8c-0.1-0.1-0.2-0.3-0.2-0.4C216.8,330.5,214.3,331.8,211.4,333.4z M218.3,325.4c-1.5,0.6-2.5,1.1-4,1.7
					C215.3,325.3,216,324.4,218.3,325.4z"/>
				<path class="st0" d="M204.2,351.1c4.4,1.6,8.6,3.1,12.8,4.6c3.2,1.2,6.5,2.4,9.7,3.6c2.6,1,3.8,0.6,4.6-2
					c0.7-2.4,1.2-4.9,1.8-7.4c0.3-1.4-0.8-2-1.9-2.4c-2.7-1.1-5.5-2.3-8.2-3.3c-3.9-1.5-7.8-2.9-11.7-4.4c-1.2-0.4-2.2-0.6-2.8,0.8
					C207.1,344,205.7,347.3,204.2,351.1z M218,349.7c0-0.2-0.1-0.4-0.1-0.6c-1.5,0.6-3,1.2-4.4,1.8c-1.4,0.6-2.7,0.9-4.1-0.6
					c2.2-1.3,4.3-2.5,6.4-3.7c-0.1-0.2-0.2-0.4-0.3-0.6c-2.5,1.2-5,2.4-8.1,3.9c1.3-2.6,2.3-4.6,3.3-6.5c0.5-1,1.5-1,2.4-0.6
					c5.4,2.1,10.8,4.2,16.2,6.3c1,0.4,1.5,1.1,1.3,2.1c-0.4,2.2-0.6,4.4-2.4,6.3c-4.6-1.7-9.3-3.3-14.4-5.2
					C215.6,351.3,216.8,350.5,218,349.7z"/>
				<path class="st0" d="M202,358.8c2.5,2.7,5.7,3.8,8.8,5c4.5,1.8,9.2,3.4,13.8,5c1.8,0.7,3.3-0.2,3.4-2.2c0.1-1.5,0-3,0-4.9
					c-0.4-0.3-1.1-0.8-1.8-1.1c-6-2.2-12-4.5-18.1-6.6c-2.7-0.9-2.8-0.8-4.5,1.5c-0.5,0.7-0.9,1.3-1.4,2
					C202.2,358,202.2,358.3,202,358.8z M205.4,358.7c1.3-2.3,2.2-2.7,4.4-1.8c1.9,0.8,3.8,1.6,5.7,2.3c2.8,1,5.6,1.9,8.4,3
					c2,0.8,2.1,1.1,1.4,3.8C218.5,363.8,211.5,362.7,205.4,358.7z"/>
				<path class="st0" d="M270.5,320.5c-0.6,0.4-1.2,0.6-1.6,1c-2.2,1.8-4.4,3.6-6.6,5.4c-1.2,1-1.1,2.2-0.3,3.3
					c1.1,1.7,2.3,3.4,3.6,4.9c2.5,2.9,5.2,5.7,7.9,8.6c0.4,0.5,0.8,0.9,1.3,1.3c2.7,2.1,3.3,2.1,6.2,0.3c1.7-1.1,3.4-2.2,5.1-3.4
					c1.6-1.2,1.7-1.8,0.6-3.5c-2.9-4.4-6.2-8.4-10-11.9c-1.6-1.5-3-3.2-4.5-4.8C271.5,321.1,271,320.9,270.5,320.5z M276.8,330.8
					c2.1,0.9,2.9,2.9,4.3,4.7c-3.4,0.4-6,2.6-9.1,3c-0.1-0.2-0.2-0.4-0.3-0.7c2.2-1.3,4.5-2.5,6.7-3.8c-0.8-0.4-1.3-0.3-1.9-0.1
					c-1.7,0.7-3.3,1.5-5,2.2c-1.2,0.6-2.1,0.4-2.6-1.3c1.1-0.6,2.1-1.2,3.2-1.8c1.6-0.8,3.2-1.6,4.8-2.5c-1,0.1-2,0-2.9,0.3
					c-1.7,0.6-3.3,1.4-5,2.1c-1,0.4-1.9,0.6-2.4-1c2.4-1.1,4.8-2.2,7.2-3.2C275.4,328.4,275.8,328.7,276.8,330.8z M281.8,336.1
					c0.9,1.1,1.6,2.1,2.4,3.1c-4.5,4.2-5.8,4.9-8,3.9c2-1.2,3.9-2.3,5.8-3.4c-0.8-0.3-1.6-0.3-2.3,0c-1.1,0.4-2.2,1-3.3,1.6
					c-1.3,0.7-2.3,0.5-3-1.3C276.1,338.7,278.8,337.5,281.8,336.1z M264.5,329.5c6.7-3.5,7.2-3.6,9.4-2c-3,1-5.7,2-8.4,2.9
					C265.4,330.5,265,330,264.5,329.5z"/>
				<path class="st0" d="M247.9,338.2c1,1.1,1.9,2.5,3.1,3.7c2.9,3,6,5.9,8.8,8.9c1.2,1.2,2.1,2.8,3,4.2c1.2,2,2.3,2.2,4.2,0.8
					c2.3-1.8,4.7-3.6,6.9-5.5c0.5-0.4,0.9-1.1,1.4-1.7c-2.8-3-5.5-5.9-8.3-8.8c-2.5-2.6-5.5-4.8-7.4-8c-0.8-1.3-2.2-1.1-3.3-0.4
					c-1.4,1-2.7,2.2-4,3.3C251,335.7,249.7,336.8,247.9,338.2z M261.6,337.9c4.1,2.9,7.2,6.7,10.6,10.6c-2.5,1.8-4.6,3.3-5.8,4.2
					c-3.2-2.8-6-5.2-8.9-7.7c1.7-0.9,3.3-1.8,5.1-2.7c-2.8-1.1-5.5,3.2-8.1-0.3C256.9,340.5,259.3,339.1,261.6,337.9
					c-1.2,0.2-2.5,0.5-3.7,0.9c-1.1,0.4-2.2,1.1-3.3,1.5c-1.1,0.4-2.2,0.4-2.8-1.3c2.1-0.8,4.2-1.5,6.2-2.4
					C259.7,335.7,260.8,336.2,261.6,337.9z M257.9,334.1c0.1,0.2,0.2,0.5,0.3,0.7c-0.6,0.1-1.2,0.3-1.8,0.4
					c-0.1-0.2-0.1-0.4-0.2-0.5C256.8,334.5,257.3,334.3,257.9,334.1z"/>
			</g>
			<g>
				<path class="st0" d="M22.4,434.2c1.2,8,1.6,16.3,4.2,24.4c3.3-1.5,2.4-5.3,4.8-7.2c1.1,1.8,2.2,3.4,3.2,5
					c1.9-0.3,1.8-1.6,1.8-2.7c0.1-5.3,0.1-10.6,0.2-15.9c0-1.2,0-2.4,0-3.9c1.2-0.1,2.2-0.2,3.2-0.2c11.7-0.1,23.3,0,35-0.3
					c5.8-0.1,11.6-1,17.4-1.5c6.8-0.5,13.7-0.8,20.5-1.2c0.8-0.1,1.6-0.2,2.4-0.4c1.2-0.3,1.9-1,1.9-2.4c0.3-9.9,0.7-19.8,0.9-29.7
					c0.2-7.9,0.1-15.7,0.3-23.6c0.4-15.4,0.5-30.9,0-46.3c-0.4-12.2-0.7-24.3-1-36.5c-0.1-3.4-0.2-3.4-3.4-3.6
					c-13.1-1-26.1-0.1-39.2,0.3c-9.9,0.3-19.8,0.5-29.7,0.7c-11.3,0.3-22.6,1.2-33.9,2.8c-0.1,0-0.2,0-0.3,0
					c-4.6,0.6-5.5,1.8-5.1,6.5c1.2,12.1,2.5,24.2,3.6,36.3c0.7,7.5,1,15.1,1.3,22.6c0.5,11.1,1,22.3,1.3,33.4
					c0.2,8,0.1,15.9,0.3,23.9c0.1,5.4,0.4,10.8,0.7,16.2c0.2,3.1,1.8,4.2,4.7,3.3C19,433.8,20.5,433.6,22.4,434.2z M28.1,304
					c-6.3,4.1-11.2,9.7-17.6,14.7c-0.2-2.6-1.2-4.5,0.8-6.3c6.2-5.5,12.3-11.1,18.4-16.7c0.4-0.3,0.6-0.8,0.9-1.2
					c-7.7,4.5-13.2,11.5-20.6,16.7c-0.6-2.2-0.6-3.7,1.1-5.2c3.1-2.8,5.9-5.9,9-8.8c2-1.9,3.9-3.8,7-3.9c3.3-0.1,6.5-0.6,9.8-0.7
					c15.3-0.4,30.7-0.7,46-1c0.7,0,1.3,0.2,2.3,0.4c0.3,6.9,1,13.8,0.9,20.6c-0.3,17.6,0.4,35.2,0.9,52.8c0,1,0,2,0,3
					c-15.4,1.8-30.5,1.7-46.1,2.4c1.1-1.2,1.7-2,2.6-3c-2.9,0.2-4.2,3.5-7.3,2.9c1.4-1.3,2.6-2.4,3.8-3.6c-0.1-0.2-0.3-0.4-0.4-0.5
					c-1.9,0.8-3.6,2-5.1,3.4c-1.2,1.2-2.6,1.6-4.3,1.1c1-1.9,3.1-2.5,3.7-4.4c-1.6,0.8-2.9,1.8-4.3,2.9c-2.4,1.9-2.4,1.9-4.6,1.4
					c2.1-1.8,4-3.5,6-5.3c-0.1-0.2-0.3-0.3-0.4-0.5c-0.7,0.4-1.4,0.7-2,1.2c-2,1.5-3.9,3-5.8,4.5c-1,0.7-1.8,1.7-3.6,0.9
					c2.6-2.7,5.1-5.4,7.6-8c-0.1-0.1-0.3-0.3-0.4-0.4c-0.6,0.5-1.3,0.9-1.9,1.4c-2.3,2.2-4.6,4.4-6.9,6.6c-0.9,0.9-1.8,1.8-3.4,0.6
					c3.4-5.1,8-9,12.6-13c-5.3,1.6-8.2,6.3-12.1,9.8c-0.9-1.8-0.4-2.9,0.6-3.9c1.9-2,3.8-4,5.8-5.9c0.8-0.8,1.6-1.6,2.5-2.4
					c-3.8,1.3-6.1,4.5-9.4,6.6c0.1-1,0.2-2.1,0.8-2.7c2.3-2.4,4.8-4.7,7.2-7.1c0.3-0.3,0.6-0.8,0.9-1.2c-0.2-0.2-0.3-0.3-0.5-0.5
					c-2.7,2.3-5.5,4.6-8.3,7.1c-0.6-3.1-0.6-3.1,0.9-4.6c1.9-1.8,3.9-3.6,5.9-5.4c0.4-0.4,0.7-1,1.5-1.9c-3.8,1.5-5.5,4.8-8.8,6
					c-0.3-2.6-0.3-2.7,1.1-4c2.1-1.8,4.2-3.6,6.3-5.4c0.4-0.3,0.6-0.8,0.9-1.2c-0.1-0.1-0.2-0.2-0.4-0.3c-2.6,1.9-5.2,3.7-7.9,5.6
					c-1-1.8-0.3-3,0.7-4c2.1-2.1,4.3-4,6.5-6.1c0.4-0.3,0.6-0.8,1-1.2c-0.1-0.1-0.3-0.3-0.4-0.4c-2.8,2.1-5.5,4.3-8.3,6.5
					c-0.8-1.9-0.2-3,1.2-4.1c2.2-1.7,4.3-3.6,6.4-5.5c-0.1-0.2-0.3-0.4-0.4-0.6c-2.4,1.7-4.8,3.5-7.2,5.3c-1-2.3-0.5-3.7,1.1-5
					c2.3-1.9,4.4-3.9,6.6-5.9c0.4-0.3,0.6-0.7,1-1.1c-0.1-0.1-0.3-0.3-0.4-0.4c-2.9,2.2-5.8,4.5-9,7c-0.3-1.9-0.8-3.3,0.5-4.5
					c1.7-1.6,3.4-3.2,5.2-4.7c2.4-2.1,4.8-4.2,7.2-6.3c-5.2,2.1-8.5,6.8-13.3,9.6c-1.2-2.9-0.9-5.2,1.4-7.3
					c4.2-3.9,8.3-7.9,12.5-11.8C26.3,305.8,27.2,304.9,28.1,304z M88.7,401.4c-6.6,0.2-12.7,0.5-18.8,0.7c-6,0.2-12.1,0.2-18.1,0.4
					c-6.1,0.2-12.2,0.5-18.3,0.9c-6.1,0.5-12.1,1.2-18.1,1.8c-0.9-3.4-1.2-27.6-0.4-29.6c23.8-2.6,47.9-2.6,72.2-4.3
					C87.7,381.4,88.2,391.3,88.7,401.4z M15.8,417.9c-1.2-3.4-1.1-3.7,1.2-5.6c1.3-1.1,2.7-2.2,4-3.4c1.6-1.5,3.3-2.2,5.5-2.4
					c5.9-0.4,11.8-1,17.7-1.2c13.2-0.5,26.4-0.9,39.5-1.3c1.6,0,3.2,0.1,5.2,0.2c0.5,8.3,1.1,16.4,1.6,24.8
					c-4.1,0.4-7.9,0.7-12.2,1.1c1.1-1.3,1.8-2.1,2.5-2.9c-3.4,0.7-5.7,4.2-10.1,2.7c1.8-1.5,3.4-2.9,4.9-4.2c-0.7-0.3-1.2-0.3-1.6,0
					c-1.6,1.1-3.2,2.2-4.7,3.4c-1.1,0.9-2.1,1.8-4,0.9c1.1-1.1,2.1-2.1,3.2-3.1c1-0.9,2-1.8,3-2.7c-0.1-0.2-0.3-0.3-0.4-0.5
					c-0.5,0.3-1,0.5-1.4,0.8c-1.8,1.5-3.6,3-5.3,4.6c-1.1,1-2.1,1.8-4.1,0.9c2.3-2.1,4.3-4.1,6.4-6.1c-0.7-0.1-1.1,0.1-1.5,0.3
					c-1.9,1.6-3.8,3.1-5.6,4.8c-1.2,1.1-2.4,1.9-4.3,1c1.3-2.4,4.1-3.5,5.3-5.8c-2.3,1.5-4.5,3.1-6.5,4.9c-1.2,1-2.3,1.9-4.6,1
					c2.9-2.5,5.4-4.8,8-7c-0.1-0.2-0.2-0.3-0.4-0.5c-1.1,0.7-2.3,1.2-3.2,2c-1.9,1.5-3.8,3.1-5.6,4.7c-1.3,1.1-2.6,1.8-4.7,0.8
					c3.5-3,6.8-5.8,10.1-8.6c-1.1,0-1.9,0.4-2.5,0.9c-2.8,2.2-5.6,4.4-8.4,6.6c-1,0.8-1.9,1.9-3.6,1.2c2-3.3,5.3-5,7.5-7.9
					c-1,0.3-1.8,0.7-2.6,1.3c-2,1.7-4.1,3.4-6,5.3c-1.5,1.5-3.2,2-5.7,1.2c3.5-3.9,7.5-6.8,11.3-9.9c-1.3,0.3-2.6,0.7-3.5,1.4
					c-2.9,2.3-5.8,4.6-8.4,7.1c-1.7,1.6-3.5,2.2-6.1,1.3c3.4-4.3,7.8-7.2,11.1-11.1c-1.2,0.5-2.2,1.2-3.1,2c-3,2.6-5.9,5.3-9,7.9
					c-0.8,0.7-1.8,1.5-2.8,1.6c-1.8,0.2-3.6-0.1-5.3-0.1c-1-2.2-0.8-3.8,0.8-5.3c3.9-3.7,7.8-7.5,11.7-11.3c0.4-0.4,1.1-0.5,1.6-0.8
					c-0.3-0.3-0.6-0.6-0.9-0.9c-5.3,3.1-9,8.1-13.5,12.3c-0.2-0.1-0.4-0.2-0.7-0.3c-0.1-1.6-0.2-3.1-0.2-4.1
					c4.9-4.3,9.5-8.3,14.1-12.3C24,409.8,20.4,414.4,15.8,417.9z M114.1,291.8c0.9,25.2,2.2,50.1,1.2,74.8c-4.4,1.2-14.9,1.7-17,0.9
					c0-0.3-0.1-0.6-0.1-0.9c-0.2-15.3-0.4-30.7-0.5-46c0-2.1-0.2-4.3-0.2-6.4c-0.1-7-0.1-14.1-0.1-21.1c0-0.7,0.3-1.3,0.6-2.4
					C103.4,291,108.6,291.4,114.1,291.8z M92.9,428.6c-4-45.8-3.7-91.4-5.8-137.1c2.7,0,4.9,0,7.5,0c0.1,0.8,0.2,1.6,0.2,2.4
					c0,1.9-0.2,3.9-0.1,5.8c0.2,5.9,0.6,11.8,0.7,17.8c0.2,12.4,0.4,24.7,0.5,37.1c0.1,7.9,0,15.7,0.3,23.6
					c0.7,16.6,1.7,33.2,2.7,50C97,429,95.1,428.6,92.9,428.6z M99.9,401.5c-0.9-10.4-1.4-20.3-1.7-30.6c5.9-0.1,11.3-1.2,17.1-0.7
					c0,10.3-0.2,20.3-0.3,30.5C109.8,401,105.1,401.2,99.9,401.5z M101,428.3c0.5-8.4-1.4-16.1-0.9-23.9c3.7-0.8,13.1-1.1,15-0.4
					c0,0.8,0,1.7,0,2.6c-0.2,4.1-0.3,8.2-0.5,12.2c-0.1,2-0.2,4.1-0.4,6.1c-0.1,1.6-1,2.4-2.5,2.5
					C108.2,427.8,104.9,428.1,101,428.3z M28.2,452.3c-0.3,0-0.6-0.1-0.9-0.1c-1.5-5.9-2-11.9-2.6-18.1c3.5,0,6.6,0,9.9,0.1
					c0,5.8,1.1,11.4-0.3,17.5c-0.9-1.3-1.4-2.3-2.2-3.1c-0.9-1.1-1.9-0.8-2.5,0.6C29.2,450.1,28.7,451.2,28.2,452.3z M21.7,294.1
					c-4.2,4-7.9,7.5-11.8,11.2c-0.7-2.3-0.7-2.4,0.2-3.4c1.7-1.8,3.3-3.7,5.2-5.2C16.9,295.5,18.4,293.7,21.7,294.1z M14.6,294.5
					c0.1,0.2,0.3,0.4,0.4,0.6c-1.8,1.6-3.6,3.2-5.6,5c-1.2-3.9-0.9-4.5,2.5-5C12.9,294.9,13.8,294.7,14.6,294.5z M14.9,407.8
					c1.8-0.1,3.2-0.3,4.6-0.4c-1.1,1.8-2.2,3.2-4.3,3.7C15.1,410,15,409.1,14.9,407.8z"/>
				<path class="st0" d="M18,429.8c4.7-4.5,9.3-9,13.9-13.4c-1.4,0-4.5,2.3-7.8,5.7c-2.3,2.4-4.5,4.8-6.8,7.1
					C17.6,429.5,17.8,429.6,18,429.8z"/>
			</g>
			<g>
				<path class="st0" d="M442,203.1c-5.3-12.3-13.8-20.8-25.5-25.9c-4.5-1.9-9.3-3.1-14.3-2.8c-0.6,0-1.2,0-1.8,0
					c-8.6-0.7-16,2.4-22.6,7.6c-2.9,2.2-5.6,4.8-8.1,7.5c-6.7,7.5-10.3,16.3-11,26.3c-0.7,9.4,2.6,17.5,7.6,25.2
					c5.6,8.6,13.5,13.2,23,16c5,1.5,10.1,2.1,15.1,1.3c8.8-1.4,17.1-4.7,23.9-10.8c4.2-3.7,7.5-8.1,10.1-13
					c2.3-4.4,3.2-9.2,3.8-14.1c0.1-1.1,0.3-2.2,0.4-3.5c2.4-0.4,4.6-0.7,6.8-1.1c3-0.5,6-1,9-1.7c2.2-0.4,3.9-1.8,4.2-4
					c0.3-2.5,0.2-5.1-2.6-6.7c-1.8-1-3.6-1.9-5.8-1.7c-2.7,0.2-5.5,0.4-8.2,0.6C444.6,202.7,443.3,203,442,203.1z M433.4,217.8
					c0.1,7.5-2.9,14.4-7.6,19.8c-9.9,11.5-26.7,15.1-41.3,7.8c-6.9-3.5-11.9-9-14.9-16c-4.7-11.1-3.5-21.9,4-31.5
					c8.6-11.1,20.1-15.1,33.9-12.3c9.5,1.9,17,6.5,21.7,15.3C431.8,206.1,433.5,211.5,433.4,217.8z M395.8,178.1
					c18-3.2,38.8,9.3,43.1,30.3c4.3,21.3-8,38.2-24.3,44.3c0.3-1.8,0.9-3,2.5-3.9c4.4-2.5,8.1-5.9,11.6-9.5
					c5.9-6.1,8.2-13.7,8.5-21.8c0.2-5.8-1.7-11.5-3.6-17c-3-8.1-9.7-12.7-17-16.3c-5.8-2.8-12-4.1-18.4-3.6
					C396.4,180.8,395.7,180,395.8,178.1z M376.1,189.4c-1.6,2-3.1,4-4.8,5.9c-5.1,5.6-7.2,12.1-7.4,19.6
					c-0.2,11.8,9.1,27.1,20.3,32.6c0.9,0.4,1.7,1,2.5,1.5c-2,2.6-2,2.6-4.4,1.7c-5.4-1.9-9.4-5.6-12.8-10
					c-7.6-9.7-9.9-20.4-7.2-32.3c1.7-7.4,5.9-13.4,11.1-18.7C374.2,188.8,375.1,188,376.1,189.4z M450.3,205.4
					c2-0.5,3.1-0.4,3.3,1.5c0.2,1.4,0.4,2.8,0.5,4.2c0.1,1.2-0.5,2-1.7,2.1c-1.8,0.2-3.6,0.3-5.4,0.5c-0.9-2.8-1.1-5.4-0.6-7.9
					c1.7-0.6,2.5-0.1,2.9,1.6c0.3,1.1,0.1,2.6,1.8,3.5C450.9,208.9,450.6,207.3,450.3,205.4z M454.7,205.7c3.5,0.2,5.5,1.7,5.4,4
					c0,1.9-1.8,2.8-4.8,2.5C455.1,210,454.9,207.9,454.7,205.7z M442.1,214.3c0-2.6,0-4.8,0.1-7.1c0-0.4,0.7-1,1.2-1.1
					c0.4-0.1,1.3,0.4,1.4,0.7c0.4,2.3,1.3,4.6,0.8,7.3C444.4,214.1,443.5,214.2,442.1,214.3z M399.4,251.9c-0.4,1.3-0.5,2.3-0.9,3.2
					c-0.6,1.3-1.8,1.6-3.1,1.3c-0.8-0.2-1.7-0.8-2-1.5c-0.6-1.3,0.5-2,1.4-2.7C396.1,251,397.6,251.4,399.4,251.9z M392.9,251.2
					c-1.2,2.9-2.1,3.4-5.3,2.5c-0.6-0.2-1.3-0.7-1.4-1.3c-0.1-0.5,0.3-1.3,0.8-1.7c0.7-0.8,1.6-1.2,2.7-0.7
					C390.6,250.4,391.7,250.8,392.9,251.2z M400,255.5c0.2-4,1.5-3.7,6.1-3.3C405.3,255.9,404.4,256.4,400,255.5z M407,254.8
					c0.7-3.8,4-3.2,6.6-4.1C412.3,254.3,411.3,254.9,407,254.8z M382.2,185.2c-4,2.6-4,2.6-5.7,1.3c1-0.8,1.8-1.6,2.8-2.3
					C380.8,183.1,380.8,183.2,382.2,185.2z M394.4,180.7c-4.2,1.8-4.4,1.7-4.9-1.5c1.3-0.3,2.7-0.5,4.2-0.8
					C394,179.3,394.2,179.9,394.4,180.7z M388.2,182.6c-3.2,1.7-3.7,1.7-4.9-0.5C386.7,180,387.1,180,388.2,182.6z"/>
				<path class="st0" d="M410.1,192.7c-2.5-2.5-5.3-3-8.5-2.7c-6.8,0.6-13.2,2.5-19.1,5.9c-5.6,3.2-9.1,8-11.2,14
					c-0.1,0.3,0,0.8,0.1,1.9c3.3-4.6,5.7-9.2,10.1-12c4.2-2.7,8.6-5.1,13.5-6.2C400,192.3,405,192.3,410.1,192.7z"/>
				<path class="st0" d="M378.7,215.5c1.4,0.1,1.6-0.9,1.7-1.8c0.3-2.9,2-4.8,4.2-6.5c3.5-2.8,7.3-5.2,11.8-6.2
					c2.5-0.6,5.2-0.5,7.7-0.7c-1.1-1.2-1.7-1.4-3.8-1.7c-3.4-0.4-6.5,0.9-9.4,2.2c-3.7,1.6-7,3.8-9.5,6.9c-1.6,2-2.3,4.3-2.8,6.7
					C378.4,214.8,378.6,215.2,378.7,215.5z"/>
				<path class="st0" d="M400.3,240.8c0.4,1.9,1.5,2,2.8,2c6.5-0.1,11.8-2.9,16.6-6.9c1.4-1.2,2.6-2.8,3.9-4.2
					c-0.1-0.2-0.3-0.4-0.4-0.6c-0.6,0.4-1.2,0.7-1.8,1.2c-2.2,1.6-4.3,3.4-6.6,4.9c-3.8,2.5-8,3.6-12.5,3.2
					C401.6,240.4,400.9,240.7,400.3,240.8z"/>
				<path class="st0" d="M396.7,235.3c1.7,2,3.2,2.1,4.7,1.7c6.4-1.8,12.1-4.7,16.2-10.3c0.1-0.1,0.1-0.4,0.2-0.9
					c-0.6,0.2-1.3,0.3-1.5,0.6c-2.5,3.5-6.2,5.2-9.9,7c-2.1,1.1-4.3,1.8-6.8,1.5C398.9,234.8,398.1,235.1,396.7,235.3z"/>
				<path class="st0" d="M383.7,219.2c3.1-7.5,9-10.9,17.1-11.9c-3.4-1.5-7.8-0.4-11.8,2.6C385.1,212.9,383.1,216.2,383.7,219.2z"/>
				<path class="st0" d="M396.9,229.8c0.7,0.2,1.4,0.7,2,0.6c1.6-0.3,3.4-0.5,4.6-1.4c3.2-2.2,6.1-4.7,9.1-7.2
					c0.2-0.1,0.2-0.5,0.4-1.2c-0.8,0.3-1.3,0.4-1.7,0.7c-1.5,1.2-3,2.5-4.5,3.7c-2.5,2-5.2,3.5-8.6,3.6c-0.4,0-0.7,0.3-1.1,0.4
					C397,229.2,396.9,229.5,396.9,229.8z"/>
				<path class="st0" d="M398.9,213.7c-3.3-0.7-7.6,2.2-7.8,5.7C393.8,217.4,396.4,215.5,398.9,213.7z"/>
				<path class="st0" d="M404.5,219.5c-1.4,0.9-2.7,2-4.1,2.8c-1.4,0.8-3,1.3-4.7,2.1C398.4,226.2,402.1,224.3,404.5,219.5z"/>
			</g>
			<path class="st0" d="M495.3,429C495.3,429,495.3,429.1,495.3,429c1.4-0.1,1.2-2.2,1.2-3.3c0-1.8-1.3-3.8-3-4.5
				c-5.3-2.1-7.8,3.1-8.5,7.6c-0.3,2,2.2,2.7,3.6,3.4c2.2,1.1,4.4,2.2,6.6,0.7c1.3-0.9-0.6-3-1.3-3.4c-2.5-1.2-5.2-1.8-7.8-0.9
				c0.1-1,0.5-2.1,0.6-2.6c1-3.2,3.6-5.4,7-3.5c1.2,0.7,1.7,2,1.9,3.3C495.7,426.2,495.9,428.9,495.3,429z M491.3,429.8
				c0.5,0.2,1,0.3,1.5,0.5c-0.1,1.9-0.7,2.5-1.8,1.9c-0.9-0.3-1.8-0.9-2.8-1.3c-0.6-0.3-1.2-0.6-1.8-0.9c-0.1-0.1-0.2-0.1-0.2-0.2
				C488,429,489.5,429.2,491.3,429.8z"/>
			<path class="st0" d="M505.5,439.8C505.5,439.8,505.5,439.9,505.5,439.8c1.4-0.1,1.2-2.2,1.2-3.3c0-1.8-1.3-3.8-3-4.5
				c-5.3-2.1-7.8,3.1-8.5,7.6c-0.3,2,2.2,2.7,3.6,3.4c2.2,1.1,4.4,2.2,6.6,0.7c1.3-0.9-0.6-3-1.3-3.4c-2.5-1.2-5.2-1.8-7.8-0.9
				c0.1-1,0.5-2.1,0.6-2.6c1-3.2,3.6-5.4,7-3.5c1.2,0.7,1.7,2,1.9,3.3C505.8,437,506.1,439.6,505.5,439.8z M501.5,440.5
				c0.5,0.2,1,0.3,1.5,0.5c-0.1,1.9-0.7,2.5-1.8,1.9c-0.9-0.3-1.8-0.9-2.8-1.3c-0.6-0.3-1.2-0.6-1.8-0.9c-0.1-0.1-0.2-0.1-0.2-0.2
				C498.2,439.8,499.7,440,501.5,440.5z"/>
			<path class="st0" d="M515.1,454.3C515.1,454.3,515.1,454.4,515.1,454.3c1.1-0.2,0.8-1.9,0.8-2.7c-0.1-1.5-1.3-3-2.7-3.5
				c-4.4-1.4-6.1,2.9-6.4,6.6c-0.1,1.6,1.9,2,3.1,2.5c1.9,0.8,3.6,1.5,5.4,0.2c1-0.8-0.6-2.4-1.3-2.7c-2.1-0.8-4.3-1.2-6.3-0.3
				c0-0.8,0.3-1.7,0.4-2.1c0.6-2.6,2.6-4.6,5.4-3.2c1,0.5,1.5,1.5,1.7,2.5C515.2,452.1,515.6,454.2,515.1,454.3z M511.9,455.1
				c0.4,0.1,0.8,0.2,1.2,0.3c0,1.5-0.4,2.1-1.3,1.6c-0.8-0.2-1.5-0.6-2.3-0.9c-0.5-0.2-1-0.4-1.5-0.6c-0.1,0-0.1-0.1-0.2-0.2
				C509.2,454.7,510.5,454.8,511.9,455.1z"/>
		</g>
	</g>
</g>
</svg>
