<svg xmlns="http://www.w3.org/2000/svg" width="471.774" height="593.864" viewBox="0 0 471.774 593.864">
  <g id="designers-desk" transform="matrix(1, 0.017, -0.017, 1, -198.745, -43.511)">
    <g id="Group_47" data-name="Group 47" transform="translate(201.548 40)">
      <path id="Path_4" data-name="Path 4" d="M610.359,115.821c-3.958-1.391-7.592-2.566-11.15-3.94-4.9-1.891-9.675-4.1-14.611-5.872-9.556-3.432-19.083-7.007-28.815-9.865-9.272-2.723-18.773-4.677-28.2-6.836q-7.552-1.729-15.208-2.988c-6.551-1.082-13.131-2-19.714-2.881-10.973-1.462-21.956-2.846-32.939-4.236-2.18-.277-4.373-.439-6.3-.628-.615-4.866-1.366-10.21-2.051-16.373-.636-5.714-1.624-11.4-1.282-17.2.19-3.218-1.049-4.493-4.357-4.567-9.27-.205-18.543-.465-27.814-.43-9.932.038-19.865.318-29.794.623-7.877.241-15.746.7-23.62,1.022-4.593.186-9.194.214-13.785.431-5.244.248-10.484.613-15.723.958-1.622.106-1.942.544-1.964,2.152a29.079,29.079,0,0,1-.207,3.927,167.442,167.442,0,0,0-1.427,23.877c-.021,3.117-.226,6.232-.36,9.671-2.676.407-5.186.746-7.679,1.178-8.078,1.4-16.2,2.578-24.209,4.315-10.092,2.191-20.115,4.726-30.108,7.341a268.559,268.559,0,0,0-30.75,10.4c-8.237,3.26-16.523,6.4-24.724,9.741-3.487,1.423-6.824,3.217-10.2,4.894a2.464,2.464,0,0,0-1.39,2.388c-.1,5.75-.287,11.5-.413,17.249-.032,1.47.018,2.945.083,4.415.045,1.028.874,1.711,2.285,1.754,1.8.055,3.611.009,5.415-.052,4.343-.145,8.684-.335,13.026-.485,9.017-.314,18.035-.638,27.053-.91,3.939-.118,7.883-.062,11.821-.184,7.215-.223,14.427-.559,21.641-.768,3.274-.095,6.553.021,9.83.01,4.017-.013,8.034-.072,12.05-.084q8.991-.025,17.983-.01c3.528,0,3.528.018,3.764,3.488.073,1.066.166,2.135.321,3.192.65,4.454,3.2,7.148,7.683,7.721a75.562,75.562,0,0,0,9.084.517c10.013.059,20.027.114,30.038-.011q13.9-.174,27.789-.749c5.488-.225,10.955-.892,16.44-1.22,7.291-.436,14.588-.766,21.885-1.084,5.574-.243,11.152-.411,16.729-.578a3.924,3.924,0,0,0,3.549-2.23,13.622,13.622,0,0,0,1.677-6.364c.05-1.525.278-3.045.43-4.613,2.652-.169,5.1-.392,7.545-.468,7.056-.221,14.112-.473,21.17-.547,10.919-.116,21.84-.08,32.76-.138,6.559-.035,13.117-.186,19.675-.177,7.958.01,15.917.193,23.875.188,5.5,0,10.991-.233,16.487-.289,3.2-.032,6.392.124,9.587.111,4.507-.018,9.015-.069,13.519-.2a43.111,43.111,0,0,0,4.583-.637C610.935,131.572,611.48,123.484,610.359,115.821Zm-162.979-68.8c.319,1.52.308,3.007.495,4.467.829,6.51,1.713,13.013,2.579,19.517a28.338,28.338,0,0,1,.043,7.307l-8.487-.645c.9-5.368,1.718-10.451,2.608-15.522C445.5,57.093,446.456,52.058,447.381,47.017Zm-96.911-2.037c5.411-.1,10.819-.335,16.225-.584,8.685-.4,17.363-.935,26.049-1.264,5.985-.227,11.988-.039,17.968-.324a284.912,284.912,0,0,1,33.469.349,9.473,9.473,0,0,1,1.5.333c-2.014,11.377-4,22.589-6.028,34.061-1.75-.119-3.529-.265-5.312-.355q-2.706-.136-5.417-.183c-1.806-.034-3.613-.033-5.419-.024s-3.612.043-5.419.07-3.613.056-5.419.089-3.611.054-5.415.1-3.8.641-5.362.062c-1.8-.667-3.352.674-5.07.113l.887-1.529c-1.991-.09-3.028,2.388-5.171,1.6l.539-1.379c-1.972.682-3.273,2.363-5.332,1.76.119-.442.229-.852.392-1.461-1.821.438-3.053,2.359-5.246,1.392l2.153-2.471-.181-.324-5.15,3.565-.346-.374.762-1.531a17.708,17.708,0,0,0-2.526,1.38,11.859,11.859,0,0,1-2.583.576q-.058-.223-.117-.447l3.812-3.333-.37-.461c-1.729,1.194-3.509,2.32-5.164,3.608a2.988,2.988,0,0,1-3.311.645l2.89-2.868a9.654,9.654,0,0,0-3.369,1.951,4.012,4.012,0,0,1-4.17,1.029l4.14-4.016c-1.075-.263-1.613.446-2.2.955-1.051.921-2.051,1.9-3.081,2.843a3.39,3.39,0,0,1-3.349.79l4.193-4.453a22.526,22.526,0,0,0-4.23,2.639c-1.219.859-1.978,2.669-4.462,2.04l5.615-6.2a5.926,5.926,0,0,0-2.253,1.366c-1.44,1.343-2.886,2.687-4.231,4.123a4.421,4.421,0,0,1-4.2,1.482l3.489-4.943-.434-.3c-1.145,1.383-2.314,2.746-3.427,4.154a3.582,3.582,0,0,1-4.034,1.385c2.085-4.189,5.607-6.974,8.644-10.211a2.911,2.911,0,0,0-1.51.681c-2.148,2.137-4.283,4.288-6.365,6.49-.9.95-1.591,2.1-2.5,3.035-.939.97-2.218.676-2.458-.555-.389-1.995-.615-4.022-.853-5.644l11.32-13.05c-4.408,2.831-7.741,6.8-11.116,11.224-.9-2.425-1.079-4.215.589-5.85q6.3-6.177,12.537-12.416c.051-.051-.064-.269-.181-.706-2.768,1.636-4.777,4.015-7.016,6.1-2.312,2.149-4.528,4.4-6.825,6.647-.716-.875-.384-1.528.213-2.207,2.872-3.274,5.724-6.564,8.587-9.846,1.083-1.242,2.177-2.475,3.266-3.711l-.4-.361c-4.314,3.662-7.914,8.069-11.833,12.238-1.42-2.188-1.5-2.274-.258-3.649,3.8-4.2,7.67-8.337,11.5-12.506a2.8,2.8,0,0,0,.34-.644c-5.01,3.381-8.665,8.126-13.139,12.112a2.286,2.286,0,0,1,.471-2.973c2.3-2.682,4.608-5.364,6.861-8.088A4.648,4.648,0,0,1,350.469,44.981Zm-4.133.724c-2.759,2.5-4.592,5.7-7.7,7.964-.21-1.833.648-3.17,3.969-6.571C343.544,46.134,344.39,44.916,346.336,45.7Zm-4.794.4-3.6,3.652C337.659,47.556,338.935,46.233,341.542,46.11Zm-6.064,4.317c.875,5.112,2.082,10.148,2.6,15.345s1.414,10.352,2.177,15.755l-6.513.866C333.81,73.339,333.12,55.518,335.478,50.427Zm-120.558,67.4c4.758-2.01,9.514-4.036,14.346-5.854,9.9-3.725,19.8-7.447,29.789-10.935a315.261,315.261,0,0,1,37.06-9.93c11.053-2.405,22.142-4.708,33.444-5.78,8-.758,15.959-1.918,23.959-2.669,8.654-.812,17.328-1.447,26-1.989,7.447-.466,14.907-.755,22.366-1.005,6.645-.223,13.3-.428,19.943-.387a261.978,261.978,0,0,1,30.21,1.653c7.084.865,14.206,1.423,21.289,2.293,8.306,1.021,16.61,2.094,24.875,3.4,10.123,1.595,20.25,3.226,30.291,5.262,8.433,1.709,16.762,3.954,25.1,6.1,3.487.9,6.9,2.084,10.316,3.25,3.8,1.3,7.571,2.69,11.336,4.094q12.422,4.629,24.826,9.312c-.026.177-.052.355-.079.532a29.4,29.4,0,0,1-3.04.391c-6.153.172-12.307.356-18.461.429q-16.488.2-32.977.263c-10.917.037-21.833-.064-32.749-.015q-19.824.089-39.647.336c-9.52.111-19.039.351-28.559.472-9.683.122-19.367.15-29.05.252-9.194.1-18.388.234-27.583.356q-14.406.19-28.813.389c-7.223.113-14.444.271-21.666.411-11.407.22-22.814.422-34.22.673-6.483.143-12.964.452-19.448.539-7.95.106-15.9.043-23.855.082-5.085.025-10.171.052-15.255.171-5.332.126-10.661.371-15.992.547q-9.172.3-18.346.576l-.181-.769C211.742,119.449,213.281,118.518,214.92,117.826Zm-10.441,5.61,2.626.166.114.458-2.74,1.623Zm.54,3.809a59.909,59.909,0,0,1,5.749-3.668c1.321-.742,1.47-.629,3.612-.046l-9.61,6.007-.643-.356C204.413,128.521,204.518,127.607,205.019,127.245Zm.7,3.384c3.533-2.369,7.125-4.65,10.673-7,2.077-1.374,4.374-1.421,6.893-1.427-1.64,1.673-17.071,11.261-18.988,11.843C203.509,132.372,204.559,131.409,205.722,130.629Zm254.4,16.75a5.318,5.318,0,0,1-5.2,5.143c-7.214.193-14.42.688-21.629,1.061-5.573.288-11.147.563-16.719.872-6.2.344-12.394.725-18.591,1.069a4.147,4.147,0,0,1-1.1-.247l.844-2.112c-2.372.964-3.859,3.535-6.709,2.108l1.575-1.839c-2.7.642-4.617,3.518-7.91,2.112L387,152.6a11.36,11.36,0,0,0-3.76,2.285c-1.506,1.424-3.176,1.341-5.26,1.012l2.282-2.8c-2.982.658-4.329,3.964-7.57,2.829l1.986-2.516-.324-.4c-1.009.732-2.073,1.4-3.012,2.214a3.9,3.9,0,0,1-4.05.7l2.384-2.978-.412-.42c-1.285.959-2.581,1.9-3.849,2.883a4.156,4.156,0,0,1-4.368.454l3.271-4.112-.409-.4c-.581.5-1.184.974-1.737,1.5a25.1,25.1,0,0,0-2.063,2.114c-1.151,1.395-2.515,1.538-4.2.971.759-1.877,2.959-2.532,3.281-4.56a36.476,36.476,0,0,0-4.205,3.755,2.835,2.835,0,0,1-3.562.721l3.426-3.811a6.878,6.878,0,0,0-1.683.569,11.5,11.5,0,0,0-2.179,1.983c-1.35,1.77-2.985,1.926-5.167,1.21l2.746-3.268-.46-.431-2.931,2.443c-.932.777-1.7,1.962-3.521,1.395l2.714-3.391c-3.008.539-3.984,4.3-7.124,3.286-.236-2.372,2.61-2.672,2.844-4.709a7.833,7.833,0,0,0-2.212,1.42c-.8.707-1.529,1.492-2.311,2.217a1.653,1.653,0,0,1-2.662,0l3.487-4.089c-2.731.229-3.3,2.825-5.192,3.5-2.365-1.492-3.348-5.036-2.746-10.177.763-.047,1.564-.147,2.362-.135,7.055.113,14.11.363,21.164.346,12.806-.031,25.614-.13,38.417-.37,9.351-.175,18.7-.645,28.046-.936,5-.156,10-.188,15.006-.322,8.288-.221,16.575-.484,24.863-.713.7-.019,1.406.091,2.189.147C460.363,143.961,460.272,145.673,460.125,147.379ZM608.2,138.225c0,.061-4.975.345-5.125.332a.588.588,0,0,1-.784-.067,37.7,37.7,0,0,0-4.486-.122.522.522,0,0,1-.392-.151c-3.187-.068-6.374-.134-9.561-.144-3.033-.01-6.067.152-9.1.154-6.318,0-12.635-.039-18.953-.079-7.139-.045-14.278-.177-21.417-.149-10.505.041-21.01.2-31.515.291-7.717.065-15.437,0-23.151.169-8.2.177-16.4.6-24.607.835-9.844.278-19.692.423-29.537.707-12.879.371-25.754.887-38.634,1.218-10.751.276-21.506.509-32.259.513-10.342,0-20.684-.315-31.025-.478-2.271-.035-4.543,0-6.889,0V139.8a10.132,10.132,0,0,1-7.262,1.351l.857-1.67a22.725,22.725,0,0,1-12.421,1.56l2.387-1.81-.263-.435c-1.5.6-3.048,1.11-4.49,1.832a8.6,8.6,0,0,1-5.335.547l3.419-1.976-.248-.554c-1.876.715-3.768,1.4-5.625,2.159a6.3,6.3,0,0,1-4.152.328l4.022-2.236a1.3,1.3,0,0,0-1.279-.2c-1.761.677-3.525,1.35-5.26,2.087a8.5,8.5,0,0,1-5.181.353l2.993-1.839c-4.232.664-8.029,3.5-12.88,2.038.845-.569,1.437-.988,2.049-1.375s1.214-.725,1.822-1.086c-3.866.83-7.035,3.818-11.9,2.813l6.54-3.856-.32-.575c-2.535,1.275-5.165,2.395-7.578,3.869-2.239,1.368-4.467,1.092-6.965.435l6.048-3.857a5.933,5.933,0,0,0-2.285.633c-1.982.983-3.926,2.042-5.914,3.011-1.265.616-2.552,1.322-4.465.667l7.981-4.692c-.078-.17-.155-.34-.232-.51a8.978,8.978,0,0,0-1.679.533c-2.6,1.413-5.2,2.817-7.73,4.342a7.07,7.07,0,0,1-5.884.626l9.3-6.53-.315-.516c-1.069.549-2.186,1.02-3.2,1.662-2.426,1.541-4.861,3.08-7.175,4.779-1.9,1.392-3.835,1.295-6.087.409l14.082-8.9-.258-.469a25.157,25.157,0,0,0-2.839,1.3c-4.129,2.529-8.283,5.026-12.3,7.719a8.567,8.567,0,0,1-6.131,1.262l14.6-10.207a1.267,1.267,0,0,0-1.313,0c-4.612,3-9.317,5.875-13.764,9.106-1.787,1.3-3.413,1.4-5.925,1.2l16.562-11.876c-1.837-.14-3.053,1-4.363,1.88-4.431,2.971-8.856,5.954-13.225,9.017a6.713,6.713,0,0,1-6.423.926c6.915-5.5,14.075-10.161,20.973-15.221a6.029,6.029,0,0,0-2.182.9q-8.277,5.567-16.527,11.175c-1.495,1.012-2.95,2.09-4.494,3.02a4.034,4.034,0,0,1-4.7-.179c7.882-6.235,16.038-11.622,23.821-17.559a11.237,11.237,0,0,0-3.085,1.3c-1.792,1.155-3.513,2.421-5.259,3.647-4.437,3.114-8.867,6.238-13.316,9.334a16.156,16.156,0,0,1-1.953.987v-4.072c5.7-3.851,11.25-7.5,16.688-11.318,3.249-2.279,6.629-3.854,10.7-3.474.489.045.985.011,1.477.01,7.223-.01,14.445.033,21.666-.046,5.737-.064,11.473-.379,17.21-.389,4.426-.008,8.856.46,13.279.409,12.143-.139,24.283-.446,36.425-.674q17.1-.321,34.209-.614c7.8-.126,15.593-.2,23.388-.289,10.005-.115,20.01-.207,30.015-.336q16.369-.209,32.739-.476c5.655-.1,11.306-.377,16.961-.445,6.562-.078,13.126.019,19.69-.018,10.094-.056,20.187-.17,30.281-.244,3.191-.023,6.384.031,9.575,0,8.038-.07,16.074-.217,24.111-.238,7.952-.021,15.9.128,23.857.1q8.742-.027,17.483-.319c6.394-.21,23.3-.774,23.33-.736a3.707,3.707,0,0,1,1.614.324.5.5,0,0,1,.32.5,5.648,5.648,0,0,1-.21,1.145c.443,1.094.411,15.061.42,18.454C609.261,138.364,608.608,138.49,608.2,138.225Z" transform="translate(-201.548 -40)" fill="#333"/>
      <path id="Path_5" data-name="Path 5" d="M263.145,577.216c0,17.8.719,34.44,1.076,51.886.234,11.42.056,22.889,1.608,34.252a23.729,23.729,0,0,0,1.676,6.132c1.3,3,4.209,4.122,7.093,4.837a34.3,34.3,0,0,0,7.551.945c7.98.147,15.962.085,23.943.16,5.175.049,10.352.377,15.521.257,6.572-.152,13.139-.611,19.706-.98,2.948-.166,5.887-.465,8.835-.637.893-.052,1.8.188,2.7.171,7.486-.131,14.975-.225,22.458-.462,6.575-.208,13.141-.685,19.715-.868,9.863-.275,19.729-.424,29.6-.575,4.853-.074,9.708-.01,14.561-.045q20.727-.148,41.454-.336c4.268-.042,8.567.092,12.795-.375,4.506-.5,9-.7,13.516-.846a10.489,10.489,0,0,0,9.817-9.078c.728-5.186.381-10.354.342-15.523a344.642,344.642,0,0,1,1.174-35.758c.592-6.135.714-12.325.831-18.495.2-10.694.492-21.4.269-32.086-.2-9.45-1.005-18.889-1.617-28.328-.319-4.919-1.033-9.823-1.146-14.743-.145-6.313-4.578-8.419-9.2-8.941-3.1-.351-6.23-.409-9.349-.467-9.46-.175-18.935-.678-28.376-.323-11.454.43-22.872-.167-34.306-.251q-18.139-.132-36.276-.389c-8.97-.125-17.938-.542-26.9-.468-13.083.109-25.541-.364-38.879-.062-4.864.11-9.728.234-14.592.336-12.5.261-25,.575-37.5.728a30.594,30.594,0,0,0-9.841,1.729c-2.155.76-4.057,2.294-5.993,3.6a3.318,3.318,0,0,0-1.406,2.822c-.021,1.17-.253,2.338-.254,3.506q-.025,29.338-.012,58.675Zm214.47-55.086c0,1.263,0,2.154,0,3.044.014,4.282-.049,8.566.059,12.844.371,14.81.871,29.617,1.185,44.428.2,9.292.12,18.591.217,27.886.072,6.827.238,13.651.344,20.477.058,3.789,0,3.888-3.809,3.858-6.494-.051-12.988-.266-19.483-.257-8.8.011-17.6.068-26.4.292-8.138.206-16.268.72-24.405.979-6.576.209-13.158.265-19.739.346-9.708.119-19.416.3-29.124.268-9.048-.03-18.1-.353-27.145-.458-8.476-.1-16.953-.074-25.43-.12-.7,0-1.4-.13-2.145-.2-.24-1.688-.521-3.14-.641-4.605-.583-7.127-1.429-13-1.958-20.27-.328-4.515-.587-9.036-.826-13.557-.279-5.274-.621-10.549-.711-15.828-.07-4.182.245-8.37.309-12.556q.15-9.928.186-19.86c.027-7.292-.026-14.584,0-21.876.006-1.8.416-2.227,2.224-2.326,3.513-.193,7.031-.393,10.548-.425,10.993-.1,21.629.486,32.409.336,4.35-.06,8.692-.562,13.042-.694,4.68-.142,9.368-.033,14.051-.132,13.318-.281,26.634-.7,39.954-.9,20.248-.3,40.5-.468,60.746-.686C473.112,522.111,475.157,522.13,477.615,522.13ZM294.882,591.3c.245.747.476,1.073.414,1.326a21.64,21.64,0,0,1-1.043,3.551c-.689,1.567-1.632,3.029-1.4,4.936l2.211-4.013c1,1.97.355,3.454.044,4.991-.307,1.522-1.675,2.768-1.279,5.054l1.91-3c.651,3.137-.819,5.59-.761,8.31l1.18-.706c.092.1.186.15.192.21.813,8.344,1.946,15.224,2.715,23.411.208,2.214.869,2.926,3.069,2.92,1.47,0,2.94-.138,4.41-.147,3.777-.025,7.554.019,11.331-.023,3.948-.043,7.9-.3,11.842-.2,6.244.155,12.482.749,18.722.766,12.507.034,25.015-.15,37.522-.334,10.286-.151,20.57-.429,30.854-.666,1.066-.025,2.129-.194,3.2-.235q6.526-.252,13.054-.463c1.067-.035,2.135-.048,3.2-.049,5.838,0,11.675,0,17.481,0l.429,1.327c2.194-.37,4.166-1.434,6.5-.653l-1.37,1.973c1.473.561,2.358-.1,3.187-.994a3.117,3.117,0,0,1,3.452-.992l-1.287,1.968.309.389a7.162,7.162,0,0,0,2.029-1.055,4.612,4.612,0,0,1,5.092-1.142l-.694,1.78a3.329,3.329,0,0,0,3.881-.994c.671-.75,1.357-1.489,2.67-.95l-.927,1.911a3,3,0,0,0,3.846-1.3c1.4-1.926,2.966-3.735,4.427-5.619a6.733,6.733,0,0,0,.6-1.356l-1.358.319c-.136-1.331,1.409-2.05.972-3.691l-3.406,4.926c-.167-.956-.25-1.335-.3-1.72-.376-3.2.768-5.967,2.416-8.607a5.825,5.825,0,0,0,1.251-2.837c-1.7,1.183-2.016,3.322-3.975,4.334-.2-5.067,2.891-8.838,4.271-13.627-2.227,1.7-2.174,4.409-4.143,5.982-.682-4.774,1.308-8.694,2.975-12.68l-.489-.175-1.89,3.36a13.289,13.289,0,0,1,.839-8.971l-1.353-.1c-.2-6.868-.42-13.607-.569-20.348-.138-6.253-.142-12.509-.3-18.761-.237-9.54-.573-19.077-.822-28.617-.06-2.3.134-4.607.076-6.908-.076-2.946-.8-3.6-3.72-3.591-2.715.011-5.43.089-8.145.1q-17.658.083-35.315.146c-6.58.025-13.158.033-19.738.072-4.358.025-8.717.03-13.072.161-3.2.1-6.39.452-9.59.565s-6.411,0-9.614.1c-8.463.262-16.924.642-25.389.867-10.2.272-19.994-.163-30.4.035a15.582,15.582,0,0,1-1.964-.225l1.906-2.821a13.546,13.546,0,0,0-3.013,2.289,3.607,3.607,0,0,1-3.886.595l2.429-2.875-.4-.385c-1.3,1-2.617,1.965-3.883,3a3.032,3.032,0,0,1-3.412.363l3.282-3.323c-3.317.513-4.676,4.378-8.482,3.637l4.654-4.255-.364-.425c-1.849,1.24-3.785,2.372-5.525,3.751-1.665,1.319-3.348,1.515-5.634.884l8.127-6.8-.319-.4c-.61.375-1.25.708-1.824,1.131q-3.744,2.764-7.454,5.576a2.76,2.76,0,0,1-3.529.189l8.072-7.56-.332-.364c-4.474,3.057-8.109,7.192-12.572,10.441-.725-2.089-.759-2.127.293-3.088,1.98-1.811,4-3.579,6.013-5.355,1.62-1.431,3.252-2.849,4.879-4.272a2.389,2.389,0,0,0-1.671.608c-3.495,2.875-7.073,5.661-10.421,8.7a5.407,5.407,0,0,1-5.5,1.273l11.274-10.4-.332-.41c-.57.414-1.165.8-1.706,1.248-3.608,3-7.279,5.931-10.767,9.065-1.388,1.247-2.725,1.136-4.3,1,.088-.356.072-.574.171-.658,4.664-3.966,9.353-7.9,14-11.892a4.359,4.359,0,0,1,3.022-.958c5.779-.068,11.558-.169,17.336-.249,11.913-.163,23.386.506,35.07.385,7.485-.078,14.971-.089,22.458-.087,7.408,0,14.815.018,22.223.1,9.052.1,18.1.274,27.157.4,8.141.11,16.283.14,24.423.306,6.578.134,13.152.558,19.729.6,13.488.1,26.977.011,40.466.04a20.47,20.47,0,0,1,4.154.435c3.723.783,4.779,2.094,5.07,5.881.265,3.447.579,6.889.867,10.334.377,4.51.922,9.013,1.086,13.531.27,7.483.192,14.979.444,22.463.48,14.251-.27,28.48-.619,42.716-.186,7.57-.517,15.138-.625,22.71q-.2,13.706-.092,27.416a12.128,12.128,0,0,1-1.915,6.973c-1.712,2.641-3.812,4.956-6.987,5.424a99.271,99.271,0,0,1-12.527,1c-13.569.264-27.143.371-40.715.526-14.649.166-29.3.292-43.948.488-5.43.072-10.858.252-16.284.454-8.222.306-16.439.74-24.662,1-10.116.32-20.238.468-30.355.785-8.141.256-16.275.818-24.417.931-5.5.077-11.013-.469-16.523-.589-5.43-.118-10.865-.047-16.3-.066a16.711,16.711,0,0,1-7.853-1.832,7.086,7.086,0,0,1-2.818-2.6,12.09,12.09,0,0,1-1.461-4.667c-.64-7.54-1.346-15.088-1.573-22.646-.293-9.784-.893-18.237-1.186-28.213-.328-11.175.4-22.311.687-33.464a2.863,2.863,0,0,1,.711-1.75c4.8-5.033,9.72-9.951,14.437-15.058,1.726-1.869,3.522-3.02,6.088-2.728a2.309,2.309,0,0,0,2.7-1.735c.756-2.417,2.764-3.629,4.964-5.485.066,2.421-.015,4.405.206,6.353.27,2.373-.253,4.289-2.277,5.7a7.614,7.614,0,0,0-1.249,1.24,35.945,35.945,0,0,0-4.772,6.539c2.925-2.119,4.491-5.7,7.968-7.369a7.3,7.3,0,0,1-2.148,7.237,53.21,53.21,0,0,0-4.258,4.964c-.634.776-1.161,1.638-1.737,2.462l.492.345c1.14-1.291,2.192-2.674,3.443-3.846,1.276-1.194,2.017-3.034,3.974-3.625.521,2.63.106,4.755-1.8,6.584a32.019,32.019,0,0,0-3.18,3.889,3.822,3.822,0,0,0-.377,1.234c1.968-1.333,3.018-3.53,5.225-4.579.317,2.942.3,2.928-1.305,5-.972,1.259-1.9,2.553-2.792,3.87a6.894,6.894,0,0,0-.442,1.718l4.5-5.113c.471,1.729.581,2.846-.173,4.025-.9,1.411-1.673,2.9-2.476,4.375a4.325,4.325,0,0,0-.265.924l.376.2Zm-12.766-56.261c.039,7.552.868,14.781.342,22.027a8.9,8.9,0,0,1-5.371-.311c-.14-3.727-.376-7.371-.385-11.017s-.788-7.3-.141-11.174Zm2.339,22.31c.583-7.52-1.01-14.8-.257-22.04h5.409c0,2.151.069,4.062-.014,5.965-.208,4.754-.5,9.5-.726,14.255a1.885,1.885,0,0,1-2.063,2.006A21.537,21.537,0,0,1,284.456,557.354Zm4.6-32.9a20.431,20.431,0,0,1,.115,8c-3.6,0-7,.01-10.4-.014a5.176,5.176,0,0,1-1.214-.288,1.507,1.507,0,0,1-1.261-1.614c.011-2.135,0-4.27,0-6.507ZM282.6,560.017l-16.019,15.872c-.414-2.085-.27-3.6.948-4.992,1.822-2.083,3.57-4.232,5.315-6.381.822-1.012,1.564-2.088,2.342-3.135l-.4-.321-8.035,8.87c-.745-2.269-.439-3.88,1.033-5.367,1.71-1.726,3.236-3.634,4.878-5.43.7-.763,1.486-1.441,2.362-2.281.78,2.707.781,2.681,3.328,2.781C279.574,559.68,280.786,559.848,282.6,560.017ZM265.84,531.9c-.743-1.787-.577-3.106.915-4.323,2.468-2.013,4.8-4.189,7.219-6.265,4.2-3.606,8.443-7.159,12.617-10.794a6.325,6.325,0,0,1,5.285-1.393c.014.2.057.322.022.351q-8.106,6.551-16.214,13.1c-.34.275-.846.753-.789,1.041.258,1.305-.745,1.823-1.447,2.432-1.962,1.7-4,3.315-6.036,4.934A12.963,12.963,0,0,1,265.84,531.9Zm-.036-5.107c-.6-2.241-.093-3.587,1.254-4.758,4.177-3.631,8.358-7.259,12.437-11,1.947-1.784,4.124-1.615,6.718-1.522Zm8.956-.9a37.168,37.168,0,0,1-.042,4.1,2.843,2.843,0,0,1-.911,1.646c-2.019,1.741-4.106,3.4-6.19,5.067a10.252,10.252,0,0,1-1.421.806c-.847-3.205-.845-3.2,1.393-5.046.451-.371.876-.774,1.306-1.17C270.714,529.626,272.531,527.949,274.76,525.894Zm-.144,11.538a14.652,14.652,0,0,1,.39,2.6,2.357,2.357,0,0,1-.69,1.481c-1.812,1.73-3.686,3.4-5.554,5.069-.71.635-1.464,1.22-2.2,1.828l-.521-.3c.149-1.122-.089-2.549.513-3.312A29.6,29.6,0,0,1,274.616,537.432Zm-8.239,21.058c-.01-1.591-.578-2.883.385-3.9,2.228-2.361,4.547-4.638,6.861-6.917a8.4,8.4,0,0,1,1.554-.922c-.046,1.631.64,3.007-.551,4.119C272.012,553.308,269.374,555.723,266.377,558.49Zm.29,5.484a3.746,3.746,0,0,1,.688-4.41q2.653-2.837,5.368-5.615c.677-.69,1.453-1.283,2.3-2.025.539,3.256.529,3.244-1.435,5.026-.741.673-1.426,1.408-2.129,2.124C269.912,560.654,268.366,562.238,266.667,563.974Zm-.2-20.964c-.685-1.926-.516-3.137.739-4.237,2.009-1.762,3.909-3.649,5.88-5.455a12.61,12.61,0,0,1,1.6-1.032v3.831c-1.482,1.084-2.874,2-4.14,3.058C269.218,540.289,268.012,541.546,266.469,543.01Zm8.2-.641a2.673,2.673,0,0,1-.5,3.568c-2.133,2.1-4.218,4.246-6.347,6.349a10.109,10.109,0,0,1-1.358.958,3.288,3.288,0,0,1,.916-3.793c1.616-1.56,3.087-3.27,4.672-4.863C272.791,543.843,273.656,543.22,274.67,542.37Zm4.184-32.078-12.394,10.4a2.55,2.55,0,0,1,.938-3.17q3.647-3.237,7.368-6.39A4.2,4.2,0,0,1,278.854,510.291Zm16.055,30.8c.634,3.4-.616,5.526-4.072,7.175.148-1.354-.079-2.787.5-3.719C292.129,543.272,293.533,542.373,294.91,541.094ZM291,553.763c-.424-2.976.764-4.9,3.936-6.378C295.663,550.825,294.837,552.164,291,553.763Zm-.177-23.437,3.975-2.409c.837,2.45.432,3.058-3.451,5.069Zm4.114,1.711c.591,2.9-.315,4.239-3.694,6C290.271,534.75,293.406,534.157,294.935,532.037Zm-.517-8.619c1.179,2.905.85,2.294-3.139,4.96C290.631,525.794,291.339,524.675,294.417,523.418Zm.647,13.572c.014,2.5-1.293,4.089-3.9,4.968C291.377,540.026,292.109,539.069,295.064,536.99Zm-22.259-25.836-5.621,4.972C267.481,513.315,269.412,511.629,272.805,511.154Z" transform="translate(-213.575 -132.124)" fill="#333"/>
      <g id="Group_40" data-name="Group 40" transform="translate(266.284 246.97)">
        <path id="Path_6" data-name="Path 6" d="M580.824,433.264c-.158-4.017-.24-7.711-.46-11.4-.484-8.127-1.124-16.246-1.541-24.376-.447-8.706-.65-17.423-1.087-26.129-.152-3.032-.678-6.047-1.053-9.067a3.238,3.238,0,0,0-.331-.921q-2.692-5.811-5.4-11.612c-.3-.645-.691-1.251-1.183-2.132-.6.527-1.115.8-1.35,1.22q-3.037,5.485-5.964,11.031a3.6,3.6,0,0,0-.35,1.84c.357,5.068.828,10.13,1.144,15.2.208,3.346.177,6.707.332,10.057.1,2.133.35,4.26.517,6.391.278,3.525.486,7.057.826,10.576.433,4.49.969,8.97,1.46,13.454.473,4.329.97,8.656,1.406,12.988.236,2.345.708,3.066,3.06,3.413A30.052,30.052,0,0,0,580.824,433.264Zm-1.958-3.963c-.7-.732-1.221-1.047-1.376-1.49a9.6,9.6,0,0,1-.429-2.417c-.359-4.753-.674-9.509-1.028-14.262-.572-7.7-1.179-15.4-1.741-23.106-.329-4.511-.65-9.024-.881-13.54-.184-3.612-.243-7.231-.311-10.847a6.823,6.823,0,0,1,.443-1.663c1.732.988,1.511,2.576,1.684,3.836a121.218,121.218,0,0,1,1.341,21.114,19.708,19.708,0,0,0,.121,2.453c.476,5.4,1.036,10.8,1.422,16.211.258,3.6.237,7.221.406,10.829.175,3.773.435,7.542.639,11.314A9.707,9.707,0,0,1,578.866,429.3Zm-3.22-1.2c-.988.241-1.672.2-1.853-.811-.116-.646-.2-1.3-.26-1.954-.409-4.338-.818-8.676-1.2-13.016-.218-2.452-.447-4.9-.569-7.363-.089-1.778-.007-1.788,2.376-2.047C574.636,411.248,575.135,419.577,575.647,428.1Zm-6.183.847c-.631-6.181-1.219-11.945-1.8-17.645l3.058-1.21c.556,6.225,1.086,12.16,1.636,18.305Zm4-68.911c-3.052.008-5.576.5-8.348-.022.758-1.556,1.305-2.832,1.983-4.035,1.181-2.1,3.414-2.139,4.589-.06A44.755,44.755,0,0,1,573.459,360.036Zm-5.116,19.715c.745,3.162.4,3.772-2.339,3.918-.1-.965-.224-1.937-.288-2.913s-.035-1.966-.1-2.945c-.141-2.1-.037-2.24,2.3-2.712,1.823,2.206-.91,2.707-1.736,4.179Zm2.786-12.207-2.593.144c.076-1.89-.837-3.516-.028-5.337h2.621Zm-6.931-4.759c1.62-.468,2.3-.126,2.487,1.02.176,1.046.4,2.087.52,3.139.174,1.582,0,1.762-2.219,2.578C564.719,367.236,564.462,365.032,564.2,362.785Zm3.188,41.642c-.982-3.032-.373-4.263,2.3-4.836C570.49,403.105,570.474,403.141,567.387,404.427Zm-.133-5.821c-1.189-2.777-.645-3.755,2.308-4.152C570.422,396.734,569.988,398.1,567.254,398.607Zm.373,10.952c-.1-1.255-.182-2.269-.259-3.237L570.3,404.7C570.707,408.443,570.685,408.487,567.627,409.559Zm4.119-8c-.714-3.269-.624-3.5,1.838-4.226.174,1.344.34,2.637.529,4.094Zm1.729-5.419-2.027.353c-.742-3.039-.665-4.233,1.778-4.111C573.3,393.552,573.383,394.746,573.475,396.14Zm-1.637-18.585c1.05,3.253.906,3.589-1.594,4.021C569.362,378.734,569.506,378.337,571.839,377.555Zm.693,4.956c.079,1.3.155,2.558.236,3.876h-2.244C569.952,383.207,569.96,383.194,572.531,382.511Zm-3.742,7.125c1.047,2.875.876,3.172-2.016,3.816C566.1,391.018,566.165,390.895,568.789,389.636Zm.9-13.037c-.894-2.929-.64-3.454,1.81-3.74C572.23,375.851,572.139,376.041,569.694,376.6Zm-3.3,12.261c-.564-2.812-.443-3,2.308-3.859C569.333,387.7,569.187,387.965,566.393,388.861Zm2.807-17.015c-.63-2.7-.558-2.815,1.912-3.259C571.716,371.425,571.678,371.494,569.2,371.846Zm3.428,15.551c.338,3.287.33,3.305-1.589,3.632C570.436,388.155,570.436,388.155,572.628,387.4Zm-6.858-13.633c-.548-2.563-.543-2.574,1.346-3.066C567.872,372.9,567.872,372.9,565.77,373.764Z" transform="translate(-538.826 -347.629)" fill="#333"/>
        <path id="Path_7" data-name="Path 7" d="M547.185,388.9c2.174-1.416,2.207-1.416,2.219-3.719a88.322,88.322,0,0,0-3.147-25.106c-.341-1.185-.609-2.391-.892-3.592-.847-3.592-3.922-4.389-6.6-4.159a8.2,8.2,0,0,0-1.685.36c-2.04.625-3.633,1.459-3.79,4.085a40.592,40.592,0,0,0,.245,8.568c.755,5.023,1.476,10.054,1.767,15.15.464,8.105,1.235,16.194,1.88,24.289.3,3.76.523,7.528.928,11.276.484,4.486,1.143,8.953,1.686,13.433.165,1.362.031,2.777.326,4.1.625,2.8,3.443,4.428,6.469,4,2.9-.41,4.3-3.031,4.3-5.469,0-10.629-1.5-21.121-2.84-31.633C547.561,396.591,547.456,392.645,547.185,388.9Zm-7.128-9.8.137-.023c.033-.734.035-1.472.108-2.2s.04-1.6,1.042-1.691c1.1-.1,1.029.851,1.159,1.533.137.725.189,1.466.267,2.2q1.379,12.949,2.613,25.912c.72,7.516,1.115,15.063,1.669,22.6.072.98.255,1.952.347,2.932.07.741.164,1.609-.884,1.695-.87.071-1-.667-1.083-1.346-.029-.245-.044-.492-.077-.736-.56-4.059-1.113-8.12-1.687-12.176-.39-2.757-.925-5.5-1.192-8.266-.322-3.344-.37-6.716-.643-10.066C541.278,392.672,540.653,385.888,540.057,379.1Zm3.217-22.311c2.741,5.224,5.432,24.487,3.829,28.382a6.014,6.014,0,0,1-.742-1.317c-.8-3.185-1.641-6.365-2.261-9.586-.248-1.29-.647-1.97-2-1.89-.349.02-.7-.039-1.361-.08l2.164-1.705-.279-.453c-1.41.6-2.815,1.2-4.232,1.785-.774.317-1.653.681-2.116-.376-.423-.966.262-1.527,1.026-1.953,1.005-.561,2.022-1.1,3.031-1.657.581-.321,1.155-.656,2.1-1.194-2.729-.542-4.218,1.417-6.4,1.745-.156-.821-.283-1.492-.41-2.16,1.2-.653,2.218-1.191,3.221-1.748.917-.509,2.046-.757,2.858-2.384l-6.754,2.49c.6-3.661,4.31-2.959,5.784-5.059-2.145-.854-3.617,1.413-5.542.855v-2.512Zm.527,75.491c-1.739-.138-1.826-.123-2.079-1.628-.447-2.671-.862-5.352-1.139-8.044-.437-4.244-.716-8.5-1.123-12.752-.39-4.079-.958-8.143-1.266-12.228-.486-6.464-.827-12.939-1.21-19.41-.057-.957-.008-1.92-.008-2.867,1.681-.315,1.825.565,1.9,1.675.375,5.647.744,11.3,1.228,16.933.216,2.524.74,5.022,1.041,7.541.223,1.868.256,3.758.469,5.628.706,6.19,1.52,12.369,2.152,18.566A65.1,65.1,0,0,1,543.8,432.281Zm.434-47.928.539-.145a10.029,10.029,0,0,1,.891,3.919c.224,3.191.373,6.39.7,9.571.692,6.783,1.518,13.552,2.2,20.336.36,3.557.932,7.127.01,10.724-.853-7.4-1.465-14.818-2.155-22.229C545.735,399.133,544.968,391.745,544.235,384.353Zm-3.8-30.289.017.576c-2.142,1.085-2.142,1.085-3.892.145Zm6.708,80.677c-1.045,1.044-1.769.877-2.54.193Z" transform="translate(-533.18 -348.539)" fill="#333"/>
      </g>
      <g id="Group_42" data-name="Group 42" transform="translate(282.588 13.094)">
        <path id="Path_8" data-name="Path 8" d="M682.789,671.122a9.769,9.769,0,0,0-1.276,1.336c-5.754,8.829-11.153,17.871-16.076,27.189a43.382,43.382,0,0,0-1.836,4.761c.575-.117.82-.112.843-.18a62.06,62.06,0,0,1,6.546-12.932c3.645-5.9,7.484-11.687,11.213-17.539a20.952,20.952,0,0,0,1.111-2.3Z" transform="translate(-575.31 -177.516)" fill="#333"/>
        <path id="Path_9" data-name="Path 9" d="M665.763,715.933c1.53-4.122,3.858-7.866,5.877-11.771,3.578-6.921,8.08-13.251,12.18-19.839a14.042,14.042,0,0,0,1.864-4.152C682.028,683.179,665.939,712.114,665.763,715.933Z" transform="translate(-575.732 -179.283)" fill="#333"/>
        <path id="Path_10" data-name="Path 10" d="M673.618,715.169c.314-.315.744-.574.925-.953a150.265,150.265,0,0,1,12.2-20.066c.715-1.035,1.677-2.049,1.449-3.894a15.867,15.867,0,0,0-1.467,1.7c-4.211,6.8-8.743,13.41-12.1,20.707-.379.823-.645,1.7-.963,2.549Z" transform="translate(-577.266 -181.252)" fill="#333"/>
        <path id="Path_11" data-name="Path 11" d="M668.646,685.96a6.965,6.965,0,0,0,1.115-1.277,159.534,159.534,0,0,1,12.1-19.846,23.652,23.652,0,0,0,1.277-2.253l-.55-.409a9.344,9.344,0,0,0-1.352,1.455c-3.731,6.217-7.456,12.44-11.1,18.705a24.133,24.133,0,0,0-1.425,3.687Z" transform="translate(-576.295 -175.769)" fill="#333"/>
        <path id="Path_12" data-name="Path 12" d="M679.773,654.051c-3.4,5.212-6.52,10.606-9.647,15.983-1.01,1.737-1.388,3.843-2.055,5.779l.469.239c.2-.181.535-.338.568-.545.675-4.189,3.095-7.541,5.249-11.018,1.8-2.91,3.646-5.795,5.434-8.713a6.68,6.68,0,0,0,.488-1.48Z" transform="translate(-576.183 -174.183)" fill="#333"/>
        <path id="Path_13" data-name="Path 13" d="M674.82,730.563l13.252-21.945-.229-.291a7.075,7.075,0,0,0-1.186,1.193c-3,4.923-6,9.843-8.913,14.819-1.157,1.98-2.078,4.1-3.106,6.156Z" transform="translate(-577.465 -184.781)" fill="#333"/>
        <path id="Path_14" data-name="Path 14" d="M678.592,647.314c-4.417,5.793-7.18,12.04-10.391,18.02-.142.264.019.69.047,1.191,3.622-6.192,7.127-12.18,10.616-18.177C678.919,648.252,678.792,648.048,678.592,647.314Z" transform="translate(-576.197 -172.867)" fill="#333"/>
        <path id="Path_15" data-name="Path 15" d="M677.606,642.232c-2.792,1.422-8.356,11.8-8.224,15C671.378,651.832,674.961,647.31,677.606,642.232Z" transform="translate(-576.439 -171.875)" fill="#333"/>
        <path id="Path_16" data-name="Path 16" d="M676.148,635.868a5.216,5.216,0,0,0-1.084.88c-2.415,3.4-4.915,6.758-6.409,10.718-.282.747-.638,1.432.5,1.721.147-.109.391-.2.392-.3.025-2.873,1.874-4.912,3.29-7.128.9-1.4,1.984-2.684,2.952-4.043a13.193,13.193,0,0,0,.79-1.451Z" transform="translate(-576.242 -170.632)" fill="#333"/>
        <path id="Path_17" data-name="Path 17" d="M675.74,748.126c2.512-5.372,5.888-10.314,8.014-15.877A68.852,68.852,0,0,0,675.74,748.126Z" transform="translate(-577.681 -189.452)" fill="#333"/>
        <path id="Path_18" data-name="Path 18" d="M708.965,568.5l6.206-10.909c-1.108.3-2.556,2.155-3.893,4.956-.921,1.928-1.784,3.884-2.673,5.827Z" transform="translate(-584.098 -155.01)" fill="#333"/>
        <path id="Path_19" data-name="Path 19" d="M713.559,569.421a27.972,27.972,0,0,0-3.823,9.813l4.35-9.528Z" transform="translate(-584.319 -157.339)" fill="#333"/>
        <path id="Path_20" data-name="Path 20" d="M683.56,747.016a22.322,22.322,0,0,0-2.782,9.566l3.314-9.278Z" transform="translate(-578.664 -192.335)" fill="#333"/>
        <path id="Path_21" data-name="Path 21" d="M673.08,609.062q-.833,3.645-1.667,7.29l.636.153q.9-3.672,1.805-7.346Z" transform="translate(-576.836 -165.143)" fill="#333"/>
        <path id="Path_22" data-name="Path 22" d="M670.072,611.046c.677-2.458,1.341-4.871,2.079-7.547C670.513,604.8,669.714,608.009,670.072,611.046Z" transform="translate(-576.557 -164.048)" fill="#333"/>
        <path id="Path_23" data-name="Path 23" d="M684.4,764.518l1.2-5.407C684.226,760.477,683.815,762.146,684.4,764.518Z" transform="translate(-579.321 -194.697)" fill="#333"/>
        <path id="Path_24" data-name="Path 24" d="M672.906,721.258,669.732,727l.5.252c.808-2.044,2.417-3.7,2.631-6.031Z" transform="translate(-576.507 -187.298)" fill="#333"/>
        <path id="Path_25" data-name="Path 25" d="M668.215,691.794a6.518,6.518,0,0,0-2.089,4.005c1.053-.922,1.307-1.468,2.03-4.065Z" transform="translate(-575.803 -181.541)" fill="#333"/>
        <g id="Group_41" data-name="Group 41">
          <path id="Path_26" data-name="Path 26" d="M740.434,120.665c-.853-4.741-2.352-9.371-3.658-14.023-.585-2.082-8.055-16.552-11.8-21.254-13.94-18.045-33.19-23.56-38.359-24.852a94.522,94.522,0,0,0-12.83-2.184,104.435,104.435,0,0,0-15.266-.9c-8.542.345-54.753.5-58.253.3-3.29-.187-15.157-.622-26.158-1.025-.078-.076-14.883-2.2-18.416,3.433-1.777,2.831-1.547,6.882-1.683,10.056-.227,5.307-.123,10.613.148,15.916.06,1.185,2.092,1.1,2.081-.078-.065-6.948-.01-13.991.554-20.923.7-8.607,14.865-6.539,14.847-6.392,9.911.356,20.629.761,25.307,1.015,8.766.476,45.332.135,54.862.392,3.506.095,7.022.073,10.527-.065a84.532,84.532,0,0,1,17.988,1.376c6.984,1.228,20.516,5.886,27.619,11.081C719.62,80.191,728.792,95.7,732.083,102.2c4.432,8.757,7.146,17.946,7.184,27.867a98.66,98.66,0,0,1-6.615,35.972c-.9,2.338-1.6,4.746-2.469,7.1a124.494,124.494,0,0,1-7.63,16.307,94.518,94.518,0,0,1-10.363,15.316c-2.232,2.692-4.765,5.139-7.193,7.667-1.554,1.618-3.134,3.213-4.751,4.767q-8.3,7.976-16.648,15.91c-3.146,2.983-6.364,5.888-9.52,8.859-.91.857-1.709,1.829-2.572,2.736-4.539,4.776-9.319,9.317-12.912,14.943-2.69,4.212-6.032,8.015-8.648,12.267-5,8.135-9.163,16.672-10.968,26.182-.637,3.358-1.832,6.625-2.284,10-1.481,11.053-1.988,22.146.411,33.144.941,4.31,2.367,8.514,3.577,12.766.137.48.543,1.03.417,1.417-.984,3.01.176,5.96.144,8.936-.006.49-.079.979-.118,1.422a21.887,21.887,0,0,0-10.089,8.062,33.949,33.949,0,0,0-2.73,3.891,31.434,31.434,0,0,0-2.512,6.222,70.9,70.9,0,0,0-1.725,9.345c-.439,3.713-.57,7.463-.857,11.533-.983-.088-1.939-.228-2.9-.251-2.287-.053-4.461.161-6.2,2a5.24,5.24,0,0,0-1.407,5.478c.994,3.44,2.11,6.865,2.78,10.372,1.24,6.488.5,12.949-.727,19.39-.719,3.765-1.255,7.575-1.65,11.388a18.782,18.782,0,0,0,1.968,10.213,19.771,19.771,0,0,0,4.387,5.349c3.228,3.025,6.612,5.888,10.017,8.717a18.407,18.407,0,0,1,5.492,8.2c1.507,4.129,3.032,8.245,6.012,11.7a14.209,14.209,0,0,1,2.379,5.4,37.642,37.642,0,0,1,.933,11.689c-.233,6.255-.453,12.515-.915,18.756s-1.234,12.451-1.835,18.679c-.858,8.885-1.757,17.768-2.5,26.663-.655,7.816-1.344,15.641-1.613,23.475-.258,7.5-.061,15.023.1,22.533.029,1.331.855,2.654,1.383,3.952.073.18.563.19,1.235.391a14.508,14.508,0,0,0,.161-3.265c-1.328-7.035-1.172-14.133-.926-21.221q.321-9.254,1.069-18.491c.661-8.316,1.486-16.619,2.273-24.924q1.085-11.47,2.242-22.933c.249-2.488.576-4.968.884-7.449.05-.4.049-.992.3-1.162,1.593-1.088,1.65-3.024,2.592-4.457,1.185-1.8,2.405-3.577,3.555-5.4a3.146,3.146,0,0,0,.41-1.817c-3.13,2.586-4.431,6.281-6.444,9.739-.055-.769-.173-1.539-.153-2.3.1-4.005.247-8.01.372-12.014a43.279,43.279,0,0,0-1.2-12.913,11.282,11.282,0,0,0-2.782-4.953c-2.331-2.412-3.609-5.348-4.877-8.36a58.741,58.741,0,0,0-4.146-8.519,5.751,5.751,0,0,1-.878-4.9c.1-.385.122-.793.216-1.44-1.507.68-.793,2.235-1.708,3.026-2.517-.9-1.656-3.065-2.038-4.931q-.485,1.157-.97,2.313c-2.942-1.2-3.547-2.28-2.982-5.269a12.891,12.891,0,0,0,.315-3.06c-1.75,1.192-.714,3.238-1.506,4.708-3.525-1.43-3.578-2.8-2.6-5.855a29.646,29.646,0,0,1,2.155-4.237c.216-.422.393-.863.658-1.452-1.471.712-1.811,1.048-2.888,3.207-.664,1.329-1.21,2.717-1.812,4.089-2.083-1.409-1.831-1.454-1.621-3.68.264-2.8,1.86-4.736,3.436-6.775.494-.639.931-1.323,1.524-2.173-2.21.7-3.908,2.993-6.125,8.08-.86-1.473-1.294-2.717-.657-4.408a19.782,19.782,0,0,1,4.257-6.112c.428-.477,1.136-.7,1.539-1.23-1.615-.369-1.861-.19-3.319,1.777-.781,1.054-1.6,2.079-2.591,3.362-1.08-2.721.651-4.241,1.742-5.824a49.652,49.652,0,0,1,3.93-4.493c-1.9.163-1.9.163-5.332,3.854a39.692,39.692,0,0,1,.647-4.466c2.052-7.587,1.766-15.217.4-22.839-.025-.137-.057-.272-.086-.408a12.4,12.4,0,0,0,3.107-.538c.7-.219,3.277-1.026,3.486-1.881a4.525,4.525,0,0,0-.416-3.37c-1.354-2.629-4.885-3.094-7.486-3.255a.357.357,0,0,0-.352.5c-.114-.264-.57.143-.631.2a.331.331,0,0,0-.1.217,3.13,3.13,0,0,1,1.115-2.787,5.93,5.93,0,0,1,5.7-.879,6.72,6.72,0,0,1,4.153,3.375,21.566,21.566,0,0,1,2.587,8.826c.279,3.826.4,7.664.7,11.488.251,3.157.656,6.3,1.023,9.449.109.945.574,1.544,1.9,1.257,1.024-4.872,3.409-9.486,3.195-14.72a6.852,6.852,0,0,1,1.147-4.185c1.08-1.686,1.49-3.8,2.375-6.242-2.05,1.372-2.11,3.4-3.5,5.324l-.873-7.721c2.446-1.751,2.539-4.683,4.581-6.93-1.781.614-1.781.614-4.283,4.719a5.734,5.734,0,0,1-.339-.984,105.761,105.761,0,0,1-1.045-19.728,27.671,27.671,0,0,1,2.842-11.84c1.135-2.118,2.645-2.913,4.915-2.538,1.846.306,2.928,1.146,3.234,2.9a6.078,6.078,0,0,0-.7-.244,7.047,7.047,0,0,0-5.027.157c-2.052.951-4.265,5.983-1.276,6.955a12.163,12.163,0,0,0,6.127-.124,7.949,7.949,0,0,0,1.252-.349c-.011.306-.013.613-.037.917a109.524,109.524,0,0,0,.566,20.229c.286,2.74.558,5.483.888,8.218a15.241,15.241,0,0,0,.684,3.683,16.128,16.128,0,0,1,1.209,7.313c-.009.1.183.217.451.512a13.088,13.088,0,0,0,1.523-5.085,16.978,16.978,0,0,1,.454-3.648c1.575-5.708,3.16-11.415,4.886-17.079q2.949-9.681,6.18-19.275a5.349,5.349,0,0,1,3.123-3.707c2.449-.87,5.98.565,6.908,3.04a16.66,16.66,0,0,1,.814,4.141c.175,1.727.25,1.915,1.8,2.043,4.178.345,6.15,2.4,6.261,6.525a4.2,4.2,0,0,1,.021.75,5.436,5.436,0,0,0,2.6,6.074,9,9,0,0,1,3.429,7.261q.194,10.768.155,21.539c-.013,3.823-.4,7.648-.331,11.469.048,2.907.657,5.8.809,8.711a68.731,68.731,0,0,1-1.756,18.887,103.511,103.511,0,0,0-2.652,19.571,67.636,67.636,0,0,0,2.027,17.35c1.7,7.487,3.561,14.94,5.162,22.449,3.191,14.96,7.575,29.6,11.9,44.249,2.763,9.364,5.545,18.723,8.451,28.042,1.961,6.29,4.186,12.5,6.231,18.761.847,2.595,1.53,5.242,2.288,7.865,2.129.068,2.48-.234,2.046-1.813-1.612-5.857-3.122-11.744-4.884-17.555-1.888-6.228-4.041-12.375-6.034-18.571-2.578-8.021-5.113-16.055-7.664-24.085-1.869-5.885-3.955-11.713-5.545-17.672q-3.548-13.3-6.492-26.761c-1.683-7.737-3.011-15.552-4.365-23.356a55.97,55.97,0,0,1-.122-16.971c.943-7.113,2.256-14.177,3.195-21.29a58.043,58.043,0,0,0,.287-8.989c-.138-5.589-.622-11.175-.647-16.763-.033-7.591.229-15.184.367-22.777a15.1,15.1,0,0,0-2.236-8.846,7.394,7.394,0,0,1-.945-4.034c-.3-7.673-1.765-15-7.887-20.4a33.594,33.594,0,0,0-11.637-6.728,113.042,113.042,0,0,0-16.421-4.529,11.431,11.431,0,0,1-1.736-.607c-.18-2.169-.43-4.316-.51-6.468a2.377,2.377,0,0,0-1.713-2.458c-1.949-.652-2.745-2.21-3.5-3.974-2.9-6.791-3.8-13.966-4.358-21.226a112.9,112.9,0,0,1,.387-20.748,36.6,36.6,0,0,1,.833-5.189c1.536-5.98,2.892-12.009,5.216-17.768a111.078,111.078,0,0,1,12.415-22.241c6.659-9.484,14.631-17.8,22.962-25.783,7.6-7.285,15.387-14.374,22.941-21.7a168.147,168.147,0,0,0,11.854-12.584,98.743,98.743,0,0,0,8.224-11.649c6.6-10.718,11.221-22.362,15-34.3A75.718,75.718,0,0,0,740.9,141.4C741.349,134.476,741.666,127.515,740.434,120.665ZM621.556,417.21a12.96,12.96,0,0,1-2.7.977q-.588.137-1.183.23-.678-1.5.853-1.454a14.38,14.38,0,0,1,3.551-.071A4.69,4.69,0,0,1,621.556,417.21Zm-6.43-5.48a.325.325,0,0,0,.347-.373c.036.218.639-.25.677-.287.006-.006.006-.014.012-.021a12.533,12.533,0,0,1,4.713,1.262,4.628,4.628,0,0,1,1.916,2.1,1.775,1.775,0,0,1,.105,1.554c-1.8.1-4.882-.511-6.432.808-.372-1.071-.785-2.134-1.129-3.21a12.662,12.662,0,0,1-.455-1.763ZM632.62,430.68a25.06,25.06,0,0,1-.769,3l-.661-.083a13.111,13.111,0,0,1-.4-1.914c-.186-2.909-.365-5.82-.463-8.733a37.9,37.9,0,0,0-1.988-12.031,5.413,5.413,0,0,1-.194-2.443c.623-5.126,1.305-10.245,1.988-15.364a4.752,4.752,0,0,1,.4-1.038,2.661,2.661,0,0,1,.451,1.478c.523,7.895.962,15.8,1.595,23.683A62.674,62.674,0,0,1,632.62,430.68Zm9.988-44.817c-.584.118-1.177.187-1.769.251a11.161,11.161,0,0,1-2.221-.028,1.989,1.989,0,0,1-.847-.212,6.759,6.759,0,0,1,6-.789C644.665,385.381,642.555,385.874,642.608,385.862Zm-1.458-2.14a7.294,7.294,0,0,0-4.14,1.5,2.7,2.7,0,0,1-.189-.255,6.93,6.93,0,0,1,.266-1.185c.871-3.122,3.167-3.791,6.1-3.078,1.2.29.6.815.954,1.57a2.768,2.768,0,0,0,.386.551q.059.781.087,1.562A6.594,6.594,0,0,0,641.15,383.722Zm5.137,18.244c-.019-4.654.006-9.151-.069-13.647-.053-3.161-.168-6.325-.4-9.478a4.567,4.567,0,0,0-3.054-3.958c-.524-.225-1.049-.447-1.574-.671,4.368-1.928,8.346,0,12.367.547,1.015,3.762-2.044,23.262-4.379,28.063Zm2.495,14.671-.63.017a62.363,62.363,0,0,1-1.27-11.989l4.82,1.553C650.691,409.824,649.735,413.23,648.781,416.637Zm3.469-13.07-1.046-.244c1.262-9.269,4.459-18.215,4.782-28.052l4.958,2.016C657.455,386.046,655.625,395.07,652.25,403.567Zm-7.336-43.555c.241,1.625.377,3.267.55,4.851-2.055.772-2.315.711-2.533-.92s-.232-3.264-.353-5.173C644.708,359.217,644.8,359.2,644.914,360.011Zm3.832,8.5c6.517,1.492,13.038,2.928,19.187,5.622,4.963,2.175,9.507,4.935,12.375,9.762,1.03,1.734,2.2,3.449,2.075,6.047-2.528-2.518-4.365-5.421-8.115-5.459a25.691,25.691,0,0,0-.9-3.762,7.723,7.723,0,0,0-1.9-3.111,11.234,11.234,0,0,0-5.967-2.358,34.937,34.937,0,0,1-5.339-1.1c-2-.557-3.928-1.384-5.932-1.933s-4.084-.871-6.114-1.356c-5.137-1.227-9.532.1-12.7,4.267a31.3,31.3,0,0,0-5.827,12.352c-.847,3.98-1.189,8.067-1.737,12.109-.356,2.616-.681,5.237-1.034,7.969-2.078-.771-2.184-2.162-1.976-3.743.632-4.782,1.2-9.574,1.861-14.353a27.922,27.922,0,0,1,7.9-16.106,22.377,22.377,0,0,1,4.479-3.587A12.674,12.674,0,0,1,648.746,368.51Z" transform="translate(-553.887 -56.271)" fill="#333"/>
          <path id="Path_27" data-name="Path 27" d="M694.617,488.543c-1.057-1.527-.04-2.962.208-4.6l2.383-.113-2.066-2.582-1.919.387c1.127,1.758.75,3.369.018,5.121a10.655,10.655,0,0,0-1.43-.2,14.8,14.8,0,0,0-1.8.25l2.4,1.883c-.4,1.153-.818,2.373-1.3,3.769l-3.137-1.386c.233,1.76,1.643,2.125,2.487,3.313-.669,2.945-1.331,6.115-2.147,9.245-.159.612-.877,1.108-1.4,1.584a19.978,19.978,0,0,1-1.843,1.291c2.227.8,3.9,1.515,4.534,3.657.587,1.991-.986,3.662-.5,6.011a6.12,6.12,0,0,0,.838-1.309,12.066,12.066,0,0,0,.066-7.122c-.391-1.138.023-2.609.259-3.895q.633-3.446,1.518-6.843a15.25,15.25,0,0,1,1.328-2.633C692.515,492.513,692.4,490.312,694.617,488.543Z" transform="translate(-579.501 -140.008)" fill="#333"/>
          <path id="Path_28" data-name="Path 28" d="M707.71,505.239c-1.572-2.175-1.392-3.415.338-5.214-.981-.837-.953-1.886-.686-3.1a28.956,28.956,0,0,0,.635-5.842c-1.809,4.156-2.387,8.685-4.058,13.373.662,1.273.11,3.044-.558,4.771-.5,1.3-.227,2.065,1.516,2.407a30.422,30.422,0,0,0,.76-3.055C705.866,507.14,706.028,505.738,707.71,505.239Z" transform="translate(-583.034 -141.924)" fill="#333"/>
          <path id="Path_29" data-name="Path 29" d="M709.405,559.29l6.01-9.141c-1.188.19-1.2.18-3.645,4.083-.983,1.572-1.877,3.2-2.813,4.8Z" transform="translate(-584.167 -153.543)" fill="#333"/>
          <path id="Path_30" data-name="Path 30" d="M703.334,525.346c1.366-1.347,1.471-2.343.727-5.228A7.68,7.68,0,0,0,703.334,525.346Z" transform="translate(-583.042 -147.622)" fill="#333"/>
          <path id="Path_31" data-name="Path 31" d="M656.339,504.192l2.491-5.091C656.861,499.717,656.035,501.155,656.339,504.192Z" transform="translate(-573.88 -143.483)" fill="#333"/>
          <path id="Path_32" data-name="Path 32" d="M712.307,547.414c-2.38,1.33-2.84,3.8-3.465,6.17q1.709-3.106,3.419-6.213Z" transform="translate(-584.144 -152.991)" fill="#333"/>
          <path id="Path_33" data-name="Path 33" d="M712.92,537.506l-2.839,5.479a11.588,11.588,0,0,0,3.459-5.25Z" transform="translate(-584.386 -151.047)" fill="#333"/>
          <path id="Path_34" data-name="Path 34" d="M713.091,546.552l2.533-3.076-.417-.3c-1.076.875-2.067,1.808-2.071,3.414Z" transform="translate(-584.974 -152.162)" fill="#333"/>
          <path id="Path_35" data-name="Path 35" d="M657.449,488.827l-1.418,1.928.484.377,1.507-1.862Z" transform="translate(-573.832 -141.456)" fill="#333"/>
        </g>
        <path id="Path_36" data-name="Path 36" d="M673.337,739.077l-.578,1,.249.151.624-1.021Z" transform="translate(-577.098 -190.785)" fill="#333"/>
      </g>
      <g id="Group_43" data-name="Group 43" transform="translate(3.612 139.385)">
        <path id="Path_37" data-name="Path 37" d="M206.811,221.23c-1.245,3.441-.654,6.646-.5,9.829q.144,2.953.285,5.9.4,8.5.806,17.006c.289,5.918.563,11.837.9,17.753.289,5.088.65,10.17.993,15.255.083,1.229.232,2.453.33,3.681.136,1.712.588,2.2,2.272,2.2,1.564,0,3.131-.037,4.688-.162,8.547-.684,17.093-.324,25.648-.171,7.561.136,15.131-.2,22.7-.374,4.443-.1,8.883-.292,13.325-.457,11.014-.409,22.029-.8,33.042-1.25q12.822-.529,25.637-1.2c9.525-.513,19.042-1.167,28.567-1.673,5.912-.314,11.834-.477,17.751-.691,10.277-.371,20.554-.793,30.834-1.071,8.041-.217,16.087-.2,24.129-.379,5.337-.12,10.67-.4,16-.633a6.209,6.209,0,0,0,1.286-.365,38.343,38.343,0,0,0,.159-7.8c-.285-3.194-.46-6.406-.5-9.613-.129-10.051-.943-20.053-1.993-30.04-.662-6.3-1.41-12.583-2.1-18.876a17.386,17.386,0,0,1-.034-2.441c.055-1.667-.273-2.1-1.966-2.032-2.875.112-5.743.4-8.617.492-7.728.244-15.458.409-23.187.631q-15.42.443-30.838.932c-8.88.29-17.76.631-26.638.958q-15.166.56-30.332,1.134c-9.208.337-18.418.616-27.625.992-10.933.445-21.866.911-32.795,1.471-9.2.472-18.4.751-27.623.623-10.524-.146-21.053.1-31.58.192C208.862,221.052,207.889,221.16,206.811,221.23ZM420.144,280.7c-1.808-.521-2.993.407-4.178,1.223a6.316,6.316,0,0,1-5.418,1.152c.384-.555.719-1.039,1.053-1.523a4.917,4.917,0,0,0-2.839.773,6.82,6.82,0,0,1-3.672,1.173c-9.366.364-18.729.8-28.093,1.206-8.792.383-17.587.7-26.375,1.159-7.062.366-14.115.913-21.174,1.35-5.665.35-11.33.694-17,.968-4.516.218-9.038.335-13.557.476-3.444.108-6.891.159-10.335.278-6.245.219-12.487.5-18.732.7q-7.764.25-15.531.372c-4.274.066-8.55.043-12.825.055q-12.706.035-25.411.063c-.987,0-1.974-.04-2.961-.072a1.375,1.375,0,0,1-1.462-1.353c-.359-2.935-.883-5.859-1.056-8.8-.6-10.26-1.1-20.527-1.614-30.792-.321-6.4-.592-12.811-.924-19.216a2.437,2.437,0,0,1,1.123-2.52,33.57,33.57,0,0,0,4.1-2.73c1.341-1.127,2.727-1.127,4.452-.446L211,228.368c0,1.506-.049,3.225.008,4.941.258,7.727.416,15.461.858,23.179.5,8.7,1.284,17.38,1.9,26.072.205,2.9.982,4.112,3.383,4.238,4.512.235,9.034.429,13.55.4,5.754-.034,11.506-.356,17.26-.454,5.257-.09,10.52.08,15.773-.089,11.1-.355,22.188-.839,33.281-1.3,6.656-.278,13.307-.68,19.964-.908,5.586-.192,11.179-.163,16.767-.319,6.491-.182,12.98-.443,19.467-.711a37.872,37.872,0,0,0,4.159-.455c2.789-.427,3.553-1.214,3.893-4a16.774,16.774,0,0,0,.082-2.69c-.332-8.3-.767-16.595-1-24.9-.22-7.728.169-15.472-.691-23.185-.282-2.524-.855-3.145-3.386-3.077-3.7.1-7.4.267-11.1.362-6.578.169-13.157.29-19.735.46-6,.156-12,.385-18.006.521-7.812.178-15.626.277-23.439.447-9.707.212-19.412.464-29.118.686a18.164,18.164,0,0,1-1.918-.161c2.091-3.506,3.743-4.485,6.246-3.711l-1.972,3.015c.872-.268,1.377-.28,1.654-.537.656-.61,1.165-1.374,1.8-2.007,1.263-1.259,1.336-1.251,3.342-.706-.022.969-1.581,1.451-.871,2.893,1.9-1.684,3.062-4.547,6.419-3.274-.167.3-.332.55-.447.819a9.222,9.222,0,0,0-.276.932c1.424.039,1.728-1.126,2.474-1.638a3.9,3.9,0,0,1,3.18-.44l-1.609,2.591c2.31-.545,3.1-3.72,5.975-2.666-.027,1.463-2.429,1.866-1.481,4.072,1.005-1.18,1.807-2.17,2.66-3.114,1.313-1.453,2.143-1.644,4.064-.962l-2.62,3.12c.806-.059,1.239.043,1.444-.129a13.585,13.585,0,0,0,2.121-2.052c1.412-1.841,3.241-1.81,5.686-1.45-.861.81-1.466,1.326-2.008,1.9-.481.513-1.3.918-.884,2.084,1.193-1.044,2.241-1.948,3.274-2.869,1.011-.9,1.963-1.939,3.761-1.371l-2.782,3.412a1.6,1.6,0,0,0,1.446-.271,30.749,30.749,0,0,0,2.329-2.2,3.9,3.9,0,0,1,4.288-1.1l-1.631,2.486c1.985-.3,2.613-1.749,3.745-2.382a6.174,6.174,0,0,1,4.15-.557c-.026,1.391-1.935,1.524-1.51,3.128,2.549-1.355,4.308-4.481,7.816-3.183-.072.377-.145.76-.219,1.144a2.184,2.184,0,0,0,.5.127.747.747,0,0,0,.466-.113c2.022-1.763,4.48-1.776,6.967-1.846,8.138-.23,16.274-.519,24.411-.8q11.091-.383,22.179-.8c11.917-.437,23.833-.908,35.751-1.311,8.714-.3,17.431-.488,26.145-.759,6.242-.194,12.481-.446,18.721-.658a9.178,9.178,0,0,1,1.355.179c1.439,12.816,2.3,25.585,3.4,38.325l-3.616,1.705c-.191-1.816-.412-3.34-.5-4.871-.558-9.436-1.074-18.874-1.637-28.311-.138-2.314-1.176-3.23-3.455-3.16q-6.043.185-12.084.431-18,.727-36,1.478c-.629.027-1.257.109-1.875.164.552,16.846,4.548,53.015,6.346,57.439l34.733-.5a42.593,42.593,0,0,1-4.27,3.016,4.225,4.225,0,0,1-3.737.616c.663-1.093,2.121-1.151,2.611-2.965a28.144,28.144,0,0,0-2.749,1.3,10.563,10.563,0,0,1-8.848,1.56Zm11.815-4.426c-3.024.761-5.881.511-8.719.469-1.006-.015-1.336-.759-1.491-1.646-.324-1.852-.736-3.688-1.023-5.545a9.544,9.544,0,0,1-.038-4.359h9.947A65.73,65.73,0,0,1,431.959,276.278Zm-31.034,1.685L399.361,266.1l8.833-.648c.521,3.987,1,7.675,1.531,11.725Zm10.691-1.243c-.337-3.838-1.212-7.535-1.176-11.562h8.252c.653,3.835,1.468,7.552,1.294,11.562ZM223.989,261.483c-3.3-.056-6.55.857-10.009.36a37.427,37.427,0,0,1-.356-8.978c3.161-.322,6.074-.647,8.994-.9.88-.076,1.362.489,1.367,1.374C224,255.87,223.989,258.4,223.989,261.483Zm79.4-1.877a46.888,46.888,0,0,1,.369,8.644,76.953,76.953,0,0,1-10.723.472c.136-3.143-.521-5.974.084-9.115Zm137.209,5.574a31,31,0,0,1,.665,11.008h-7.971a62.657,62.657,0,0,1-.379-11.008ZM213.644,250.81c-.231-3.421-.686-6.33-.047-9.189l9.264-1.255c.773,2.446.991,7.651.4,9.6Zm1.538,22.156c-.76-3.133-1.371-5.9-1-9.037,3.408-.23,6.724-.983,10.327-.614v8.952Zm213.574-29.972a48.243,48.243,0,0,1,.685,8.9H419.094c-.238-2.726-.475-5.435-.73-8.349Zm.917,11.168c.226,3.038,1.055,5.8.551,8.937h-9.674a21.244,21.244,0,0,1-.711-8.937ZM302.428,246.5a23.2,23.2,0,0,1-9.675.422c-.066-1.947-.183-3.975-.192-6-.009-2.124.188-2.306,2.406-2.478,1.633-.126,3.27-.2,4.906-.252.86-.026,1.724.056,2.511.086A20.6,20.6,0,0,1,302.428,246.5Zm-9.519,2.7,10.055-.525a58.947,58.947,0,0,1,.208,8.535l-10.263.5Zm20.18,9.577c1.9-.112,3.436-.221,4.977-.288,1.519-.067,3.048-.657,4.525-.036a21.292,21.292,0,0,1,.607,8.489l-9.671.534C313.371,264.386,313.234,261.656,313.089,258.777Zm104.635-27.212c-.269-2.969-.5-5.534-.75-8.293,3.612-.15,6.941-.281,10.186-.195.792,2.694,1.063,6.232.6,7.916Zm-204.249,7.273v-8.662H222.2a16.906,16.906,0,0,1,.624,8.225A40.811,40.811,0,0,1,213.475,238.838Zm11.79,13.077,8.8-.8c.171,3.316.2,6.361.249,9.622l-8.653.458C225.527,257.968,225.4,255.066,225.265,251.915ZM313.09,256.6a29.322,29.322,0,0,1,0-8.772l8.573-.447a39.828,39.828,0,0,1,.876,8.647Zm115.675-15.494-10.567.4c-.225-2.653-.421-4.969-.637-7.533,3.8-.111,7.239-.614,10.84-.34C428.524,236.167,428.635,238.439,428.766,241.108ZM234.1,249.173c-3.147.164-5.925.891-9.022.365v-9.02a56.714,56.714,0,0,1,8.62-.174C233.835,243.378,233.96,246.131,234.1,249.173Zm11.174,2.009c3.721-.775,6.608-.8,8.335-.056-.163,2.832-.329,5.732-.506,8.8l-8.54.624C244.815,257.208,245.041,254.238,245.273,251.182ZM243.8,248.7a35.577,35.577,0,0,1-8.136.42,29.4,29.4,0,0,1-.09-9.029H243.8Zm188.7,14.258c-.231-3.151-1.106-6-.655-9l7.932-.637a55.437,55.437,0,0,1,.818,9.637Zm-25.273-18.695,8.979-.656a29.66,29.66,0,0,1,.734,8.651c-1.579,0-2.961-.027-4.341.008-1.447.037-2.893.134-4.613.218C407.734,249.752,407.5,247.258,407.226,244.261Zm2.549,18.9c-.431-2.876-.852-5.679-1.31-8.732h8.73c.993,3.926,1.2,6.754.567,8.732Zm-185.5-33.231c2.729,0,5.326-.006,7.923,0a1.21,1.21,0,0,1,1.342,1.158c.11,2.326.5,4.664.05,7.153h-8.835A29.718,29.718,0,0,1,224.275,229.928Zm29.138,40.687-8.81.4v-8.343l8.44-.87A44.333,44.333,0,0,1,253.413,270.615Zm30.007-1.135v-8.863c1.484-.155,2.767-.343,4.056-.409,1.259-.064,3.019-.5,3.656.136.7.7.443,2.43.494,3.715.064,1.6.015,3.2.015,5Zm49.12-11.574,7.824-.385c.645,2.93,2.213,5.395,1.589,8.47a39.148,39.148,0,0,1-8.978.429C332.828,263.556,332.692,260.893,332.54,257.906Zm73.191-34.011c2.685-.149,5.045-.338,7.406-.363a1.851,1.851,0,0,1,1.464.914,20.461,20.461,0,0,1,.838,7,34.639,34.639,0,0,1-9.216.514C406.053,229.175,405.9,226.741,405.731,223.894ZM262.945,259.486c-3.006.065-5.56.632-8.312-.057.148-2.972.29-5.8.445-8.9h7.867Zm-19.064-8.4c-.234,3.226-.451,6.212-.681,9.377h-7.417v-9.377Zm28.93,18.775c-2.9-.111-5.681.512-8.389.051v-8.278a33.471,33.471,0,0,1,8.389-.385Zm-38.622-7.2v8.66a25.9,25.9,0,0,1-8.05.595v-8.836Zm11.022-14.126c.027-2.966-.341-5.78.638-8.609a49.382,49.382,0,0,1,7.6.1v8.512Zm161.18-14.105a41.284,41.284,0,0,1,9.185-.315c.188,2.575.358,4.906.55,7.52l-9.11.617Zm32.81,8.6c-.091,2.817.847,5.335.4,7.958a20.646,20.646,0,0,1-8.217.536c-.147-2.462-.339-4.883-.393-7.307-.009-.415.555-1.2.877-1.21C434.2,242.925,436.546,242.419,439.2,243.037Zm-175.03,16.456c.56-3.311-.264-6.255.631-9.223h7.617V259Zm143.564,3.93-8.288.544c-.969-2.892-.853-5.553-.765-8.505l7.637-.929C406.808,257.6,407.25,260.378,407.735,263.423Zm-152.73-15.193c.122-2.764-.381-5.506.245-8.259,2.348-.13,4.395-.264,6.444-.348.88-.036,1.768.176,1.744,1.267-.052,2.427.219,4.9-.566,7.338-2.255.126-4.382.264-6.511.348A5.537,5.537,0,0,1,255.005,248.229Zm7.741,21.853a27.567,27.567,0,0,1-7.9.265c.066-3-.563-5.749.027-8.665h7.869Zm-8.435-40.465c3.1.1,5.9-.457,8.917.064v7.594a25.612,25.612,0,0,1-8.252.38C254.752,234.954,254.546,232.453,254.311,229.617Zm-19.075.426c2.6,0,4.967-.006,7.334,0,.9,0,1.668.245,1.672,1.335.009,2.1-.027,4.2-.047,6.551-3.121.062-5.917.584-8.96.01Zm67.388,5.9c-3.559-.211-6.59.624-10.007.152.147-2.508.283-4.823.43-7.311h8.94C302.194,231.113,302.387,233.287,302.624,235.945Zm-20.859,3.51a23.506,23.506,0,0,1-.237,8.412,26.007,26.007,0,0,1-7.674-.006c0-2.449-.007-4.735,0-7.021a1.24,1.24,0,0,1,1.371-1.382C277.35,239.447,279.473,239.455,281.765,239.455Zm50.854,16.154v-8.533h7.523a58,58,0,0,1,.493,8.533Zm-41.14-5.937c-.093,2.787.3,5.38-.286,8.1l-7.911.549a29.691,29.691,0,0,1-.07-7.522,1.369,1.369,0,0,1,.926-.939C286.477,249.757,288.807,248.971,291.479,249.672Zm-.309-10.594c.093,2.472.233,4.9.229,7.334a1.535,1.535,0,0,1-.971,1.14c-2.327.113-4.671.55-6.839.18v-8.653Zm-9.658,19.339c-2.163.2-4.257.415-6.355.585-.822.067-1.212-.482-1.234-1.21-.069-2.2-.147-4.41-.056-6.608a1.733,1.733,0,0,1,1.2-1.188c2.081-.127,4.175-.056,6.447-.056Zm32.272,17.3c-.085-1.424-.23-2.8-.233-4.17,0-1.526.255-1.805,1.873-1.966,2.2-.219,4.4-.357,6.607-.478a10.452,10.452,0,0,1,1.832.253c.2,2.082.393,4.065.615,6.361Zm-69.724,4.045c0-1.1-.01-2.071,0-3.043.049-4.128.051-4.125,4.048-4.148.984-.006,1.968-.048,2.952-.04.778.006,1.556.064,2.276.1v7.133Zm59.786-3.2-10.478.829v-6.209c3.512-.306,6.876-.886,10.478-.633Zm17.783-31.1a52.491,52.491,0,0,1-8.5.281,21.053,21.053,0,0,1,.128-7.576h7.89C321.316,240.691,321.465,242.958,321.629,245.467ZM272.3,248.159H264.8c0-2.618-.049-5.06.051-7.5a1.555,1.555,0,0,1,1.086-1.057c2.1-.106,4.2-.05,6.368-.05Zm124.931-4.872a22.924,22.924,0,0,1-.4-8.624h7.251c.247,2.54.489,5.024.762,7.828Zm-66.59-7.747a26.178,26.178,0,0,1-8.207-.08c-.2-2.461-.39-4.773-.592-7.268h8.4C330.377,230.575,330.5,232.828,330.645,235.54ZM324.37,256.1c-.967-3.62-1.151-6.834-.546-8.692h6.963v8.365Zm72.054-23.963c-.247-2.811-.48-5.454-.717-8.159h7.96v8.159Zm-122,29.03,7.246-.586v8.834h-7.246Zm-31.5,9.709c-2.547.39-4.772.923-7.065.277v-8.5a31.966,31.966,0,0,1,7.065.2Zm40.127-41.545c2.712-.56,6.876-.564,8.129-.122v7.232l-7.75.366C283.289,234.126,283.171,231.781,283.047,229.328ZM272.9,271.522c0,2.359.062,4.227-.049,6.085a1.544,1.544,0,0,1-1.04,1.082c-2.505.1-5.016.05-7.662.05v-6.705ZM282,237c-2.969-.214-5.454.592-8.1-.01a35.531,35.531,0,0,1,.053-7.789H281.5C281.663,231.759,281.817,234.168,282,237Zm30.228,30.335a12.493,12.493,0,0,1-6.9.3c-.216-2.692-.744-5.4-.331-8.261,2.21-.156,4.23-.994,6.641-.314C311.827,261.788,312.023,264.52,312.225,267.336Zm45.216-39.751A57.377,57.377,0,0,1,358,234.7l-8.272.392c-.219-2.564-.418-4.887-.641-7.506Zm-7.451,27.526c-2.275.177-4.057.319-5.84.455-1.222.093-1.807-.469-1.844-1.706-.051-1.713-.212-3.424-.224-5.137a8.054,8.054,0,0,1,.486-1.911H349.2C349.46,249.569,349.712,252.207,349.99,255.111Zm7.9-18.851v8.292H351.04a13.33,13.33,0,0,1-.254-7Zm71.594-13.3c2.306-.072,4.261-.153,6.217-.185.779-.013,1.524.2,1.67,1.116a21.02,21.02,0,0,1,.221,6.7l-7.134.377C430.123,228.209,429.829,225.787,429.485,222.961Zm-71.5,23.558V254.5a13.347,13.347,0,0,1-6.512.444c-.193-2.792-.381-5.505-.583-8.425Zm47.974,6.06-7.842.484c-.237-2.592-.444-4.846-.661-7.219,2.623-.627,5-1.428,7.679-.983Zm-72.444,22.789v-6.616l8.594-.591v7.025a10.543,10.543,0,0,1-1.277.174C338.542,275.376,336.247,275.368,333.519,275.368Zm9.061-17.75c2.186-.122,4.047-.3,5.907-.275a1.837,1.837,0,0,1,1.381,1.03,15.6,15.6,0,0,1,.34,7.375l-6.8.3C343.126,263.13,342.864,260.488,342.581,257.618Zm-126.9,23.724c-.11-2.262-.2-4.162-.3-6.19l9.381-1.121v6.815Zm95.674-43.19v7.81l-7.089.505v-8.315Zm141.364,36.385c1.007,3.966.926,4.189-1.994,6.118-.616.406-1.24.8-1.841,1.234a4.086,4.086,0,0,1-3.769.651c1.4-2.077,4.085-2.372,5.4-4.4a4.99,4.99,0,0,0-2.3.581c-1.94,1.065-3.867,2.161-5.748,3.325a3.857,3.857,0,0,1-3.88.537c1.416-1.567,3.842-1.57,5.067-3.831a8.392,8.392,0,0,0-1.663.386c-1.97,1.008-3.933,2.03-5.86,3.115a4.118,4.118,0,0,1-3.835.289,21.755,21.755,0,0,0,3.247-2.472,4.168,4.168,0,0,1,3.266-1.255c2.368-.142,4.74-.351,7.083-.709a8.756,8.756,0,0,0,2.627-1.168C449.917,276.186,451.279,275.367,452.724,274.537ZM311.318,256.612l-6.691.533v-8.772c2.246.024,4.354-.777,6.691-.286Zm127.7-16.308-8.277.649v-7.445c1.984-.171,3.846-.357,5.712-.483a1.6,1.6,0,0,1,1.936,1.442C438.619,236.307,438.789,238.156,439.017,240.3ZM265,237.344v-7.869c2.043-.122,3.831-.233,5.62-.335.97-.055,1.564.338,1.609,1.379.077,1.8.163,3.592.246,5.388.041.89-.369,1.418-1.271,1.429C269.184,237.361,267.161,237.344,265,237.344Zm-19.18-7.2,6.514-.3c.743,2.673,1.351,5.1.905,7.865h-7.419ZM325,266.415c-.208-2.795-.785-5.422-.56-8.173,2.355.032,4.45-.812,6.594.167.187,2.72.369,5.369.563,8.2C329.253,266.629,327.257,267.373,325,266.415Zm7.377-21.4v-6.935h7.059c.273,1.229.587,2.323.744,3.439.153,1.094.143,2.209.216,3.5Zm-20.734-16.3V235.6a32.041,32.041,0,0,1-7.6.017c-.12-2.355-.23-4.523-.352-6.9Zm-77.421,51.925h-7.7v-6.621a34.776,34.776,0,0,1,7.7-.652Zm96.685-35.4h-7.69c-.25-2.413-.768-4.692-.253-7.139a27.177,27.177,0,0,1,7.536.286C330.63,240.625,330.754,242.72,330.9,245.237Zm8.356-17.171v7.449a30.515,30.515,0,0,1-7.32-.1c.27-2.5-.431-4.886.038-7.346Zm11.225,39.4c.15,2.372.324,4.309.374,6.249a1.388,1.388,0,0,1-1.446,1.617c-1.773,0-3.546-.03-5.586-.05-.124-2.543-.233-4.783-.355-7.317Zm-87.962,4.606a16.526,16.526,0,0,1-.328,7.225H255.2v-6.838Zm58.4-36.5h-7.587a13.134,13.134,0,0,1,.6-6.958c1.53-.147,2.988-.311,4.45-.422,1.139-.087,1.916.357,2.028,1.6C320.574,231.652,320.739,233.515,320.92,235.565Zm30.954,30.125v-8.257h6.379c.126,2.561.244,4.98.374,7.635Zm-77.4,12.722v-6.79H281.9V278C279.541,278.575,277.123,278.35,274.478,278.412Zm17.133-1.306a17.251,17.251,0,0,1-8.049.473v-6.242h8.049Zm56.854-39.739c.287,2.34.59,4.334.725,6.337a1.51,1.51,0,0,1-.967,1.123,19.337,19.337,0,0,1-6.148.023c-.037-2.359-.7-4.556-.351-6.915Zm3.816,30.267c1.268-.151,2.236-.313,3.211-.369,1.022-.058,2.05-.013,3.221-.013.176,2.687.333,5.086.509,7.758h-6.94ZM341.4,235.325v-7.372l6.073-.482c.3,2.743.577,5.2.871,7.854Zm-98.861,37.814v7.046h-6.7v-7.046Zm204.606-8.422c.209,3.276.446,6.2.535,9.123a1.928,1.928,0,0,1-.938,1.49,16.56,16.56,0,0,1-3.121.674c-.869-3.8-.624-7.284-.74-10.975Zm-.8-12.543c.15,3.732.814,7,.608,10.6l-4.239.192c-.28-3.507-.637-6.712-.572-10.029ZM312.071,269.8v6.256a22.132,22.132,0,0,1-6.559.3V270.24Zm19.934,5.5c-2.277.318-4.091.875-6.088,0-.171-1.98-.344-3.973-.517-5.967,2.177-.936,4.13-.418,6.275-.171C331.785,271.232,331.889,273.155,332,275.307Zm-7.725,6.415c-3,.151-5.919.287-8.841.448a1.167,1.167,0,0,1-1.359-1.1,29.131,29.131,0,0,1-.025-3l10.225-.422Zm-21.061,1.226h-9.667a1.843,1.843,0,0,1-.355-.567c-.516-2.514-.1-3.119,2.4-3.348,2.125-.194,4.257-.312,6.387-.422a8.282,8.282,0,0,1,1.531.231C303.421,280.167,303.334,281.368,303.219,282.949Zm141-60.072a35.257,35.257,0,0,1,.459,7.9c-1.355,0-2.412.037-3.464-.013-.7-.033-1.295-.344-1.3-1.168-.018-2.174-.006-4.347-.006-6.718Zm1.458,19.224c.177,2.789.349,5.493.536,8.43l-4.3.4c-.247-2.97-.949-5.638-.58-8.447Zm-103.3,39.048h-8.537c-.113-1.148-.226-2.3-.373-3.782h8.91Zm98.123-47.7,4.517-.385c.209,2.374.4,4.524.6,6.85-1.2.134-2.082.225-2.961.333-1.238.153-1.833-.381-1.878-1.632C440.726,236.991,440.611,235.369,440.5,233.45ZM272.6,284.129h-8.59v-2.862l8.814-.782C272.738,281.821,272.679,282.775,272.6,284.129Zm18.872-4.718c.138,1.46.233,2.474.351,3.723-2.889.221-5.492.579-8.269.1.115-1.2.212-2.211.324-3.388Zm13.26,2.888c.336-1.456.6-2.594.872-3.777l6.608-.352c.122,1.519.216,2.711.33,4.129Zm-62.82-58.6-3.172,4.127a34.459,34.459,0,0,1-7.027-.472C234.653,224.309,237.582,222.342,241.907,223.7Zm39.839,56.247v3.771a63.383,63.383,0,0,1-7.4.094,8.5,8.5,0,0,1,.043-2.186c.139-.459.634-1.09,1.036-1.142C277.442,280.219,279.479,280.12,281.746,279.946Zm50.576,1.535h-6.188v-3.9h5.8C332.066,278.892,332.182,280.064,332.322,281.481Zm-79.426.594c.132.745.256,1.444.422,2.382h-9.5c.15-.814.28-1.512.442-2.382Zm91.367-4.776a18.563,18.563,0,0,1,6.5.1c0,.936.022,1.659-.006,2.38a1.13,1.13,0,0,1-1.244,1.206c-1.6.006-3.2-.013-4.955-.023C344.449,279.6,344.366,278.583,344.263,277.3Zm8.213.028c1.366-.078,2.49-.161,3.615-.2,2.69-.1,2.69-.092,3.618,2.863l-6.977,1.189C352.635,279.728,352.564,278.645,352.476,277.327ZM224.04,227.381c3.351-3.826,6.519-5.09,9.731-3.55C229.017,227.841,228.875,227.895,224.04,227.381Zm-8.329-.081c3.884-3.874,5.436-4.4,9.995-3.368C221.3,227.773,220.287,228.113,215.711,227.3Zm35.427.362c-1.7.021-3.295.509-4.947-.034,1.931-3.8,3.876-5.034,7.559-3.7Zm10.78,53.664v2.981a41.776,41.776,0,0,1-6.675-.025V281.81Zm-14.634-57.643-2.945,4.051h-4.264a30.283,30.283,0,0,0,2.089-2.549C243.385,223.271,245.067,223.058,247.284,223.683Zm-4.741,60.937H235.7c.082-.788.146-1.4.227-2.163l6.053-.45C242.173,282.907,242.322,283.6,242.543,284.621Zm-26.416-.653.078-.61a32.548,32.548,0,0,1,7.665-.454c.332.016.639.561.958.861-.373.33-.748.945-1.118.942-2.195-.011-4.39-.147-6.581-.29A3.24,3.24,0,0,1,216.127,283.968Zm17.209-1.341.4.44c-.462.575-.863,1.57-1.4,1.65a11.05,11.05,0,0,1-5.5-.134c.25-1.755.244-1.866,1.36-1.931C229.9,282.555,231.619,282.627,233.335,282.627ZM452.182,256.5c.665,2.839.145,3.627-2.83,4.5C448.547,258.139,448.949,257.465,452.182,256.5Zm-1.872,17.558c-.894-2.776-.307-3.807,2.482-4.37C453.355,272.821,453.184,273.122,450.31,274.055Zm2.115-12.817c.5,2.3.022,2.935-2.729,3.785C449.264,262.7,449.345,262.578,452.425,261.238ZM207.376,223.713c1.53-.179,2.83-.418,4.387.35l-3.9,2.7C207.662,225.5,207.528,224.661,207.376,223.713Zm242.7,45.32c-.366-2.228-.161-2.512,2.327-3.464C453.034,267.377,453.034,267.377,450.078,269.034Zm1.894,13.311-.205-.657,1.287-.515.24.535Z" transform="translate(-206.036 -213.612)" fill="#333"/>
        <path id="Path_38" data-name="Path 38" d="M414.333,226.059c-4.608.181-8.465.313-12.321.494-1.421.067-1.717.365-1.6,1.845.563,7.437.225,14.927,1.45,22.327.649,3.92.544,3.853,4.546,3.574,4.335-.3,8.683-.414,13.024-.633,2.458-.125,4.913-.3,7.368-.455,1.866-.122,2.32-.464,2.462-2.347a35.035,35.035,0,0,0-.009-4.915q-.4-6.265-.954-12.519a36.122,36.122,0,0,0-.708-4.869c-.535-2.355-.744-2.476-3.164-2.494C420.81,226.04,417.2,226.059,414.333,226.059Zm-11.7,2.707,8.352-.464v6.836h-8.059C402.837,233.174,402.747,231.223,402.634,228.766Zm.165,8.269c2.726,0,5-.064,7.26.052a1.779,1.779,0,0,1,1.284,1.118c.249,1.576.637,3.2-.107,5l-7.77.7C403.24,241.576,403.046,239.577,402.8,237.036Zm1.67,14.855c-.415-2.162-1.387-3.951-.622-6,2.653-.209,5.178-1.059,8-.447v6.1Zm22.678-1.152a13.4,13.4,0,0,1-6.216.027c.056-.966.109-1.838.158-2.71.061-1.1-.3-2.7.279-3.182.782-.654,2.275-.509,3.471-.6a15.463,15.463,0,0,1,2.308.184Zm-8.16-16.029h-5.8c-.175-2.082-.35-4.15-.536-6.353h6.338ZM419.6,251c-2.267.439-4.08.966-6.083.128-.085-2.056-.645-4.107-.077-6.184h5.892C419.429,247.031,419.513,248.941,419.6,251Zm-6.412-8.143c-.222-2.219-.509-4.047.123-5.981l5.851-.487v6.065Zm13.59-.757h-5.8c-.108-1.991-.591-3.881.171-6.133l5.624.577Zm-6.11-13.691c1.3-.1,2.585-.23,3.874-.272a1.318,1.318,0,0,1,1.538,1.239c.137,1.513.234,3.031.368,4.81h-5.78Z" transform="translate(-243.985 -216.041)" fill="#333"/>
        <path id="Path_39" data-name="Path 39" d="M423.617,279.594c0-1.725.055-3.112-.015-4.493s-.352-2.767-.381-4.153a2.316,2.316,0,0,0-2.236-2.465c-3.259-.5-6.506-.174-10.058-.015v11.54l-8.323.571c-.245,2.7-.48,5.14-.676,7.577a5.566,5.566,0,0,0,.112,1.472c.491,2.572,1.036,2.956,3.619,2.786q11.925-.786,23.852-1.532c2.262-.142,2.654-.776,2.154-2.968-.455-1.99-.683-4.034-.966-6.061-.266-1.894-.592-2.228-2.5-2.256C426.815,279.578,425.434,279.594,423.617,279.594Zm-2.476-9.149c.167,3.153.32,6.069.488,9.23a40.035,40.035,0,0,1-8.58.325v-9.555Zm.4,12.03c0,1.8.068,3.495-.048,5.175a1.6,1.6,0,0,1-1.023,1.135c-2.151.323-4.325.49-6.62.724a19.821,19.821,0,0,1-.509-7.034Zm-10.757.159c.278,2.443.522,4.582.789,6.923-2.179.16-4.117.308-6.056.443-.983.068-1.585-.351-1.577-1.391.01-1.389.032-2.78.1-4.166.04-.785.337-1.482,1.259-1.541C407.069,282.788,408.837,282.726,410.783,282.635Zm19.723,5.8h-6.67v-6.289l5.617-.332C429.807,284.036,430.146,286.174,430.506,288.433Z" transform="translate(-244.284 -224.274)" fill="#333"/>
      </g>
      <path id="Path_40" data-name="Path 40" d="M420.378,68.376c7.9-.377,14.06-.724,20.081-2.172a39.269,39.269,0,0,0,5.582-1.911,8.723,8.723,0,0,0,4.442-4.437,5.945,5.945,0,0,0-2.717-7.425,23.48,23.48,0,0,0-6.55-1.972c-9.022-1.366-17.857-.192-26.548,2.362a14.986,14.986,0,0,0-2.062.813c-4.871,2.259-6.386,5.97-4.47,10.933a3.876,3.876,0,0,0,2.837,2.153C414.6,67.849,418.276,68.672,420.378,68.376Zm-8.739-3.929a4,4,0,0,1,1.982-3.173c1.687-1.184,3.65-1.365,5.582-1.767a61.578,61.578,0,0,1,23.744-.617c1.381.25,2.994.117,4.076,1.575-.409.369-.744.719-1.125,1.007-2.1,1.588-4.635,2.122-7.108,2.664a110.714,110.714,0,0,1-18.367,1.949A17.885,17.885,0,0,1,411.639,64.447Zm9.646-7.877c1.86-3.624,2.506-4.05,5.373-3.495C425.161,54.731,424.482,57.317,421.285,56.57Zm9.393-.956c1.305-3.428,2.487-4.106,4.655-2.774C434.515,54.854,433.449,56.477,430.678,55.614Zm.146-3.159c-1.7,3.54-2.047,3.807-4.47,3.4C427.478,52.629,428.13,52.133,430.825,52.456Zm8.7.432c-1.351,3.219-1.577,3.357-4.124,2.516C436.808,52.334,437.119,52.144,439.523,52.888Zm-23.1,4.343c1.07-2.083,2.318-3.513,4.894-3.29C420.347,56.028,419.293,57.69,416.423,57.231Zm30.6-2.58c-1.746,2.055-1.746,2.055-3.847,1.258C444.325,53.47,444.552,53.389,447.018,54.651Zm-31.158.59c-1.437,3.122-2.215,3.893-4.658,4.624C412.733,58.27,413.005,55.817,415.861,55.241Zm23.935.388c1.159-2.863,1.242-2.919,3.25-2.31C441.837,55.852,441.825,55.86,439.8,55.629Zm8.595-.122v3.085l-1.817-1.729Zm-38.767,4.951c-.02-1.762-.014-1.758,1.445-2.353Z" transform="translate(-242.099 -41.93)" fill="#333"/>
      <path id="Path_41" data-name="Path 41" d="M377.767,84.917c2.445-1.407,3.691-3.961,5.578-5.9,1.867-1.923,3.672-3.906,5.521-5.881C385.834,74.414,378.542,81.9,377.767,84.917Z" transform="translate(-236.25 -46.469)" fill="#333"/>
      <path id="Path_42" data-name="Path 42" d="M395.118,80.941l1.709-1.363c-1.33-.184-1.543.559-2.025.966Z" transform="translate(-239.599 -47.722)" fill="#333"/>
      <path id="Path_43" data-name="Path 43" d="M557.148,521.321c-3.167.274-6.345.554-9.527.818-1.311.109-2.631.126-3.934.29a2.792,2.792,0,0,0-2.591,2.709c.065,9.712,1.067,19.356,2.056,29,.008.082.017.163.027.245.609,4.745.778,4.984,5.69,4.995a46.194,46.194,0,0,0,7.314-.637c2.143-.342,2.619-1.084,2.628-3.184.02-5.092.185-10.19-.012-15.274-.235-6.066-.785-12.121-1.209-18.18C557.579,521.959,557.436,521.822,557.148,521.321Zm-7.5,15.045c.354,6.914,1.2,13.625,1.5,20.78l-5.257-.315c-1.24-3.144-2.573-18.528-1.828-20.837Zm-6.324-11.281L555.886,524c.186,3.169.356,6.074.538,9.18a32.192,32.192,0,0,1-13.1.237Zm13.139,10.91a7.689,7.689,0,0,1,.238,1.178c.108,5.569.242,11.138.28,16.708.017,2.6-.833,3.147-3.7,2.532-.282-6.705-1.9-13.35-1.744-20.418Z" transform="translate(-268.423 -134.822)" fill="#333"/>
      <path id="Path_44" data-name="Path 44" d="M405.56,690.207l-2.788-5.691c-1,2.095.018,4.96,2.741,7.528l3.343-3.736,4.379,4.153c2.214-1.225,2.994-3.437,4.033-5.428.592-1.136.53-1.169.1-2.865-2.046,1.274-1.715,4.107-3.868,5.478-.956-.99-1.928-2.059-2.968-3.056-1.135-1.089-1.6-1-2.519.286C407.322,687.842,406.605,688.79,405.56,690.207Z" transform="translate(-241.103 -166.969)" fill="#333"/>
      <path id="Path_45" data-name="Path 45" d="M267.877,596.813c.59-.12.9-.087,1.044-.226,6.842-6.73,13.668-13.475,20.4-20.417a3.8,3.8,0,0,0-1,.482c-3.687,3.415-7.334,6.873-11.035,10.273-2.4,2.207-4.882,4.33-7.316,6.5a12.5,12.5,0,0,0-1.771,1.773C267.944,595.555,268,596.144,267.877,596.813Z" transform="translate(-214.499 -145.598)" fill="#333"/>
      <path id="Path_46" data-name="Path 46" d="M537.263,670.6l1.843-.262c.09-.6.185-1.136.241-1.675.014-.133-.095-.278-.255-.7Z" transform="translate(-267.649 -163.804)" fill="#333"/>
      <g id="Group_44" data-name="Group 44" transform="translate(151.87 239.774)">
        <path id="Path_47" data-name="Path 47" d="M481.81,431.762a39.681,39.681,0,0,0,.264-7.976c-.2-2.183-.81-4.4.252-6.631.34-.112.718-.267,1.111-.362,3.39-.817,3.982-1.776,3.41-5.223a66.122,66.122,0,0,0-4.374-15.486c.278-.295.542-.583.814-.863,1.956-2.025,1.778-2.582.528-5.125-2.285-4.649-5.829-8.344-8.829-12.45-.287-.394-.554-.8-.837-1.215.344-.535.633-1.032.97-1.494.718-.987.492-1.786-.023-2.9-2.269-4.913-5.64-9.066-8.975-13.214a87.781,87.781,0,0,0-7.359-7.594c-1.181-1.152-1.786-1.076-3.2.151-3.484,3.014-6.919,6.084-10.394,9.107-1.971,1.714-3.983,3.382-5.972,5.067-.249-.288-.447-.429-.424-.5,1.178-3.839,2.386-7.668,3.564-11.507a5.609,5.609,0,0,0,.306-3.816,3.552,3.552,0,0,0-2.226-2.4c-7.405-2.717-14.785-5.5-22.213-8.155-2.46-.879-2.585-.76-3.614,1.733-2.1,5.089-4.114,10.216-6.176,15.322-.831,2.056-1.873,4.045-2.519,6.155-3.608,11.8-7.081,23.632-10.69,35.427a129.287,129.287,0,0,0-4.416,22.736,2.84,2.84,0,0,0,1.422,3.1c6.053,3.8,11.819,8.064,18.2,11.335a1.311,1.311,0,0,1,.222.1c3.509,2.763,7.571,1.9,11.518,1.738,1.059-.044,2.11-.322,3.168-.344,3.781-.077,7.569.038,11.343-.162,4.178-.221,8.337-.783,12.513-1.06,5.406-.359,10.825-.536,16.232-.879,3.69-.234,7.387-.5,11.048-.987A34.127,34.127,0,0,0,481.81,431.762Zm-10.942-24.611-.944-1.518.48-.187c.136.588.271,1.177.4,1.774l.77,2.737a13.275,13.275,0,0,1,1.9,2.713,3.264,3.264,0,0,0,2.248,2.3l7.474-1.907a48.611,48.611,0,0,0-.933-5.183c-.725-2.526-1.729-4.972-2.52-7.481-.268-.851-.942-1.754-.2-2.846,1.173.324,1.539,1.253,1.9,2.142a51.3,51.3,0,0,1,3.149,12.151c.271,1.9.06,2.221-1.872,2.846-1.953.632-3.959,1.1-5.936,1.659q-14.827,4.2-29.653,8.413c-.747.211-1.526.309-2.382.478-.407-2.025-.756-3.763-1.16-5.768,1.664.95,1.434,2.585,2.207,3.975.624,0,1.522.279,2.007-.05,1.841-1.25,4.53-.919,5.82-3.141,1.856.9,2.967-.971,4.533-1.239a41.067,41.067,0,0,0,4.684-1.359,38.214,38.214,0,0,1-1.972-3.975c-.434-1.2-1.669-2.207-1.107-4.228,1.968,2.852,1.958,6.449,5.006,8.153l8.352-2.965c-.516-1.632-1.007-3.185-1.489-4.746ZM399.19,391.028c1.591.517,3.073.929,4.5,1.477,6.271,2.407,12.52,4.868,18.791,7.276,2.216.851,1.976,1.683,1.436,3.414-2.965,9.492-6.027,18.951-9.753,28.179-.292.724-.686,1.407-1.044,2.131a144.744,144.744,0,0,1-20.384-12.741C393.049,413.824,395.9,400.575,399.19,391.028Zm.227-1.633c2.927-9.03,4.918-17.928,8.344-26.39,2.524-6.235,4.881-12.538,7.322-18.807a9.21,9.21,0,0,1,.757-1.543,1.911,1.911,0,0,1,2.527-.876c5.4,1.971,10.821,3.872,16.2,5.892,1.888.709,3.676,1.686,5.435,2.505-1.48,8.467-13.064,45.294-15.228,48.311C416.545,395.226,408.307,391.808,399.417,389.4Zm53.646-.642c-.793-.808-1.354-1.385-1.921-1.957-3.414-3.448-6.819-6.907-10.249-10.339-1.47-1.47-3-2.884-4.758-4.573,1.054-1.09,2.23-2.437,3.541-3.636,3.518-3.217,7.087-6.378,10.651-9.545,1.659-1.474,3.35-2.912,5.027-4.366.922-.8,1.785-1.016,2.8-.028,1.529,1.491,3.4,2.689,4.7,4.35,3.065,3.938,5.909,8.052,8.772,12.143,1.23,1.756,1.144,1.976-.389,3.541-1.667,1.7-3.379,3.357-5.033,5.071-3.138,3.254-6.229,6.554-9.376,9.8s-6.314,6.473-9.534,9.646a23.268,23.268,0,0,1-2.93,2.083,4.587,4.587,0,0,1-.7,1.581c-1.768,1.948-3.649,3.794-5.464,5.7a1.835,1.835,0,0,1-2.64.238q-1.645-1.089-3.314-2.145c-1.987-1.267-3.979-2.528-6.08-3.862l1.292-3.373c3.3,2.269,5.5,5.586,9.177,6.749a95.67,95.67,0,0,0,8.256-8.124c-2.824-3.031-5.463-5.938-8.191-8.76-1.2-1.238-2.566-2.31-3.872-3.441-.823-.714-.834-1.346.254-2.059a20.259,20.259,0,0,1,1.856,1.522c1.49,1.529,2.908,3.126,4.384,4.668,1.85,1.934,3.365,4.275,6.267,5.253Zm-3.5,19.186a6.634,6.634,0,0,0,4.9-1.517,19.558,19.558,0,0,1,3.089-1.5c.489-.234.972-.48,1.675-.827a21.815,21.815,0,0,0-1.368-2.192c-1.291-1.6-2.66-3.134-3.964-4.723a7.082,7.082,0,0,1-.653-1.3c1.271-.2,1.671.608,2.144,1.214,1.011,1.3,1.976,2.626,2.953,3.947.778,1.052,2.072,1.73,2.907,1.227,2.78-1.675,5.484-3.475,8.354-5.314-.53-.629-.891-1.051-1.244-1.479-1.882-2.281-3.781-4.548-5.622-6.86a3.907,3.907,0,0,1-.4-1.367l.51-.258c.372.471.723.959,1.117,1.411,2.048,2.348,3.987,4.808,6.2,6.988,1.606,1.58,2.448,1.414,4.333.133.678-.461,1.4-.855,2.1-1.289,3.387-2.108,3.515-2.765,1.1-5.9-2.267-2.939-4.554-5.863-6.981-8.984l1.642-1.52c3.555,5.191,8.491,9.122,10.153,15.425-.814.587-1.574,1.2-2.4,1.716-3.278,2.035-6.558,4.069-9.874,6.041-2.187,1.3-4.468,2.447-6.652,3.753-2.127,1.272-4.472,2.081-6.555,3.5-2.908,1.976-6.049,3.611-9.127,5.329-1.2.67-2.495,1.167-3.958,1.84-1.144-1.823-2.27-3.518-3.262-5.289-.192-.341.144-.977.237-1.477a3.851,3.851,0,0,1,1.465.429c.549.469.837,1.247,1.389,1.709a4.115,4.115,0,0,0,2.043,1.091C447.637,412.03,449.416,410.17,449.558,407.939Zm-14.3,2.945L417.7,429.54a4.659,4.659,0,0,1,.269-2.473c.819-2.41,1.706-4.8,2.486-7.22,1.385-4.3,2.688-8.632,4.081-12.932a15.935,15.935,0,0,1,1.235-2.364C429.022,406.866,432.582,408.1,435.263,410.884ZM443.1,433.65c-.084-1.686-.211-3.064-.178-4.439.008-.35.526-.688.81-1.031.324.306.841.563.934.926a26.772,26.772,0,0,1,.433,3.044c.682.2,1.4.657,2.034.558,2.487-.4,4.945-.965,7.325-1.452.419-2.151-1.059-4.133.355-6.62.513,2.525.919,4.516,1.372,6.745.607.194,1.4.721,2.1.625,2.814-.383,5.6-.959,8.62-1.5-.452-3.085-.871-5.945-1.343-9.166.774.292,1.274.319,1.438.568,1.387,2.1,1.358,4.465.98,6.885,2.479,1.3,4.7-.549,7.031-.318,1,.1,2.079-.652,3.11-1.012-.345-3.175-.652-5.994-.979-9l2.651-.318c.138,3.956.9,7.654.484,11.442-.151,1.366-.867,1.785-2.108,1.864-8.041.513-16.079,1.07-24.12,1.588C450.528,433.267,447,433.435,443.1,433.65Zm-7.181-30.142a27.843,27.843,0,0,1-7.76-7.29c1.034-3.039,2.03-5.968,3.139-9.225,4.114,3.27,7.907,6.36,10.455,10.789Zm.588-28.715,13.256,13.721-4.87,3.97c-1.564-1.581-2.944-2.961-4.308-4.357-2.326-2.379-4.642-4.768-7.128-7.324A9.486,9.486,0,0,1,436.5,374.792Zm5.471,44.44c.314,1.983.613,3.4.748,4.838.171,1.836.051,1.912-1.6,2.453q-10.044,3.288-20.086,6.585a15.365,15.365,0,0,1-1.691.357q-.078-.231-.158-.462Zm.307-2.879c-2.591,2.159-15.956,9.3-18.369,9.664,2.625-2.883,4.894-5.525,7.326-8s5.037-4.807,7.8-7.426Zm15.839-19.306,2.907-2.424-4.6.546,5.423-2.467-.2-.495c-2.108-.18-3.814,1.31-5.978,1.419l5.118-4.469L466.5,396.2c-1.242.853-2.44,1.695-3.657,2.508-2.508,1.678-2.742,1.63-4.468-.872A3.291,3.291,0,0,1,458.122,397.048Zm-33.936,37.036c1.8-.618,3.591-1.269,5.406-1.844,1.951-.619,3.9-1.263,5.895-1.719,1.858-.426,3.57-1.6,5.772-1.309v4.577C435.58,434.711,429.926,434.206,424.186,434.084Zm43.6-28.629,2.988,8.035-5.441,1.624q-.08-.2-.158-.4l2.579-2.095-.231-.409-3.629,1.359c-.2-.31-.393-.471-.365-.575.539-2.063,3.077-1.906,4.118-3.612-2.035-.583-3.072,1.6-5.054,1.562l-1.06-2.473C465.246,405.748,465.252,405.744,467.782,405.455Zm-3.473,23.407c-1.671.245-3.118.513-4.577.655-2.049.2-2.133.116-2.5-2-.205-1.19-.331-2.394-.516-3.769l6.833-1.663A11.905,11.905,0,0,1,464.309,428.862Zm4.575-8.064c2.151-.685,3.943-1.729,6.216-1.432.271,1.2.612,2.3.757,3.423.47,3.654.076,4.083-3.682,4.222-.634.023-1.271-.056-1.975-.09Zm-12.746-17.725L451,405.789l-3.452-4.033,4-4.4C453.438,399.179,455.07,400.722,456.138,403.073Zm3.964,13.38c-1.725.549-3.109,1.008-4.5,1.427a1.288,1.288,0,0,1-1.722-.945c-.429-1.216-.816-2.447-1.271-3.827l4.818-2.562Zm-7.411,13.218c-1.89.237-3.406.474-4.931.6-.881.074-1.3-.55-1.478-1.344-.184-.81-.043-1.5.843-1.764a15.168,15.168,0,0,1,4.85-1.092C452.2,427.219,452.4,428.225,452.691,429.67Zm-7.257-12.379L448.9,415.1l1.886,4.633c-3.312,2.106-3.712,1.991-4.977-1.225C445.686,418.209,445.614,417.888,445.434,417.292Zm19.434-31.018c1.906-.837,3.523-1.6,5.179-2.26,1.453-.583,1.609-.441,2.054,1.406-1.168.363-2.318.793-3.5,1.068C467.486,386.745,466.345,388.111,464.868,386.274Zm5.579,6.58c1.664-.871,3.088-1.638,4.531-2.363.832-.418,1.413-.217,1.561.781C473.9,393.841,472.241,394.368,470.448,392.853Zm8.65,10.391c-1.63.619-2.651,1.11-3.728,1.384-.961.245-1.978,1.311-3.135.039a15.579,15.579,0,0,1,5.167-2.357C477.7,402.213,478.191,402.725,479.1,403.244Zm-12.626-14.532c2.393-.955,4.393-1.782,6.424-2.521.192-.07.581.4,1.294.92-2.421.888-4.453,1.651-6.5,2.35C467.5,389.522,467.178,389.162,466.471,388.712Zm7.9,21.153a11.557,11.557,0,0,1,5.517-2.843c-.1.637-.042,1.333-.237,1.412C477.965,409.119,476.448,410.5,474.375,409.865ZM447.158,408.7c-1.066.881-1.754,1.309-2.521.2-.532-.769-1.189-1.452-1.787-2.171,1.184-1,1.224-1.047,1.943-.41C445.57,407,446.265,407.788,447.158,408.7Zm22-17.082-.266-.823c1.665-.778,3.314-1.594,5-2.317.727-.311,1.426-.229,1.607.8Zm11.068,17.814c.548,1.219.888,2.01-.476,2.377-.868.234-1.712.579-2.59.752a5.235,5.235,0,0,1-1.474-.132l-.138-.595Zm-6.891-1.857a9.285,9.285,0,0,1,5.544-2.594c.1-.012.25.36.571.851C477.277,406.3,475.541,407.628,473.338,407.57Zm3.52-8.328c.8.731,1.077,1.387.228,1.746-1.653.7-3.382,1.219-5.079,1.813l-.2-.468ZM470.712,382.4l-4.561,1.815c.735-1.49,1.52-2.777,3.074-3.044C469.513,381.119,469.911,381.713,470.712,382.4Z" transform="translate(-390.748 -338.679)" fill="#333"/>
        <path id="Path_48" data-name="Path 48" d="M411.471,447a3.752,3.752,0,0,0,3.511,3.905c1.706-.036,3.707-2,3.551-3.739-.285-3.166-.67-4.222-2.917-4.217C413.226,442.952,411.182,444.437,411.471,447ZM417,445.869a2.177,2.177,0,0,1-2.041,2.408,1.85,1.85,0,0,1-1.808-1.644c.031-.668,1.73-2.037,2.584-1.832C416.293,444.935,416.722,445.621,417,445.869Z" transform="translate(-394.789 -359.039)" fill="#333"/>
        <path id="Path_49" data-name="Path 49" d="M416.055,415.9a7.19,7.19,0,0,0-1.645-1.16c-3.551-1.22-7.126-2.368-10.708-3.494-.152-.048-.449.361-.651.535.106.266.123.475.233.551a4.074,4.074,0,0,0,1.056.6c3.79,1.173,7.588,2.321,11.383,3.476Z" transform="translate(-393.151 -352.849)" fill="#333"/>
        <path id="Path_50" data-name="Path 50" d="M400.749,415.062c1.292,1.258,11.675,4.527,13.484,4.546.075-.976-.7-1.246-1.354-1.461C408.9,416.849,404.961,415.369,400.749,415.062Z" transform="translate(-392.701 -353.594)" fill="#333"/>
        <path id="Path_51" data-name="Path 51" d="M412.79,423.635c-1.684-2.2-10.117-4.766-12.57-4.168.142.3.217.759.408.813C404.674,421.426,408.733,422.526,412.79,423.635Z" transform="translate(-392.598 -354.437)" fill="#333"/>
        <path id="Path_52" data-name="Path 52" d="M399.832,423.48c-.249,1.327.605,1.338,1.3,1.514,2.535.646,5.073,1.28,7.6,1.943,1.072.281,2.126.624,3.485,1.028-1.2-1.694-2.028-2.162-6.1-3.048C404.029,424.462,402.038,423.427,399.832,423.48Z" transform="translate(-392.513 -355.237)" fill="#333"/>
        <path id="Path_53" data-name="Path 53" d="M439.175,362.382c.742-1.9,1.436-3.39,1.9-4.947a15.769,15.769,0,0,0,.678-4.087c.01-.526-.669-1.275-1.221-1.564a33.34,33.34,0,0,0-4.941-2.182q-6.18-2.041-12.441-3.839c-1.719-.5-1.876-.353-2.6,1.295-1.275,2.908-2.485,5.846-3.78,8.907,1.814.655,3.323,1.259,4.868,1.747,5,1.58,10,3.15,15.02,4.638A9.025,9.025,0,0,0,439.175,362.382Zm-2.273-9.424c-2.608,1.646-5.137,3.258-7.683,4.844-.979.61-1.771.221-2.71-.522,2.641-1.643,5.056-3.156,7.483-4.651C434.938,352.048,435.894,351.708,436.9,352.959Zm2.784,1.963c-2.266,1.319-4.4,2.663-6.631,3.8-.647.328-1.6.05-2.413.05-.048-.186-.1-.372-.144-.558,2.338-1.456,4.663-2.931,7.019-4.355C438.458,353.285,439.237,353.442,439.686,354.922Zm-16.758,1.189c2.858-1.661,5.455-3.208,8.093-4.68.726-.4,1.595-1.007,2.413.1-2.477,1.552-4.9,3.084-7.333,4.585A2.436,2.436,0,0,1,422.928,356.11Zm6.675-5.922c-2.5,2.537-7.833,5.3-9.373,4.916C423.8,353.983,425.807,350.409,429.6,350.188Zm4.535,9.348,4.387-2.738.429.362-1.6,3.584Zm-13.005-6.193-.488-.751a13.318,13.318,0,0,1,5.877-3.468l.324.521Zm2.149-5.576.454.541-1.177.855-.316-.364Z" transform="translate(-395.829 -340.013)" fill="#333"/>
        <path id="Path_54" data-name="Path 54" d="M436.656,368.715c-2.706-.886-5.349-1.716-7.968-2.617q-5.228-1.8-10.425-3.692c-2.061-.748-2.135-.649-3.439,1.031-1.906,2.456-2.847,5.315-3.877,8.17-.418,1.161-.06,1.718.945,2.077,3.7,1.323,7.4,2.65,11.117,3.936,2.246.777,4.515,1.49,6.779,2.219,1.883.605,3.092.069,4.036-1.679A22.793,22.793,0,0,0,436.656,368.715Zm-23.081,2.746a4.039,4.039,0,0,1,1.994-3.537c2.634-1.809,5.36-3.264,8.615-1.391a6.021,6.021,0,0,0,1.177.358q4.8,1.535,9.6,3.08c-.785,2.9-1.5,5.665-3.556,8.182l-9.378-2.938,3.363-2.609-.25-.427c-1.188.638-2.423,1.2-3.55,1.935-1.244.808-2.253.644-3.414-.494l4.5-2.974a9.819,9.819,0,0,0-4.948,1.9,2.189,2.189,0,0,1-3.132-.315l5.393-3.9-.193-.334ZM419.045,365l-3.249,1.423C416.619,364.911,417.24,364.15,419.045,365Z" transform="translate(-394.659 -343.225)" fill="#333"/>
        <path id="Path_55" data-name="Path 55" d="M407.089,389.207c3.583,1.261,6.972,2.441,10.351,3.649,2.619.937,5.235,1.886,7.835,2.875,2.092.794,3.069.459,3.711-1.667.587-1.952.967-3.968,1.378-5.969.24-1.164-.656-1.573-1.506-1.92-2.2-.9-4.4-1.8-6.619-2.637-3.136-1.188-6.294-2.317-9.437-3.485-.939-.349-1.774-.439-2.239.689C409.444,383.456,408.333,386.174,407.089,389.207Zm11.162-1.181-.118-.456c-1.181.494-2.38.947-3.536,1.493a2.46,2.46,0,0,1-3.267-.463l5.128-3.009-.266-.51-6.531,3.155c1.059-2.115,1.809-3.715,2.656-5.262.425-.777,1.2-.774,1.956-.488,4.362,1.662,8.718,3.339,13.08,5a1.445,1.445,0,0,1,1.057,1.709c-.29,1.757-.485,3.559-1.9,5.1L414.931,390.2Z" transform="translate(-393.939 -346.712)" fill="#333"/>
        <path id="Path_56" data-name="Path 56" d="M404.993,398.226c2.013,2.159,4.618,3.026,7.108,4,3.657,1.427,7.391,2.653,11.1,3.95a1.878,1.878,0,0,0,2.738-1.749c.08-1.214.016-2.438.016-3.924a7.418,7.418,0,0,0-1.432-.871c-4.846-1.763-9.692-3.527-14.571-5.2-2.182-.748-2.22-.656-3.615,1.26-.385.529-.748,1.075-1.086,1.635A4.244,4.244,0,0,0,404.993,398.226Zm2.7-.092c1.012-1.882,1.752-2.154,3.57-1.432,1.523.606,3.031,1.258,4.569,1.822,2.235.818,4.507,1.539,6.735,2.373,1.64.614,1.7.855,1.119,3.069C418.3,402.157,412.614,401.257,407.69,398.134Z" transform="translate(-393.53 -349.48)" fill="#333"/>
        <path id="Path_57" data-name="Path 57" d="M471.406,360.484a12.579,12.579,0,0,0-1.309.815c-1.784,1.453-3.538,2.942-5.323,4.395a1.74,1.74,0,0,0-.232,2.62,40.24,40.24,0,0,0,2.945,3.949c2.063,2.34,4.23,4.589,6.36,6.871a9.724,9.724,0,0,0,1.065,1.027c2.149,1.686,2.657,1.707,4.961.188,1.372-.905,2.747-1.811,4.078-2.774s1.351-1.461.431-2.835a53.634,53.634,0,0,0-8.118-9.562c-1.3-1.205-2.435-2.59-3.677-3.862A7.838,7.838,0,0,0,471.406,360.484Zm5.173,8.255c1.673.714,2.331,2.3,3.46,3.8-2.755.352-4.827,2.1-7.33,2.458-.078-.178-.155-.356-.233-.533l5.356-3.082a1.7,1.7,0,0,0-1.5-.091c-1.35.578-2.682,1.2-4.016,1.819-1,.463-1.71.308-2.105-1.011.863-.492,1.693-.991,2.548-1.444,1.285-.682,2.588-1.33,3.886-2a10.063,10.063,0,0,0-2.336.251c-1.374.479-2.685,1.142-4.021,1.73-.8.353-1.532.509-1.94-.756,1.95-.88,3.828-1.807,5.77-2.574C475.432,366.788,475.776,367.068,476.579,368.739Zm4.07,4.262,1.927,2.454c-3.633,3.434-4.68,3.971-6.423,3.138l4.617-2.8a2.659,2.659,0,0,0-1.823-.019,24.98,24.98,0,0,0-2.645,1.288c-1.056.563-1.849.449-2.46-1ZM466.676,367.8c5.338-2.818,5.75-2.92,7.558-1.626-2.4.853-4.562,1.634-6.742,2.356C467.353,368.572,467.059,368.148,466.676,367.8Z" transform="translate(-405.063 -342.937)" fill="#333"/>
        <path id="Path_58" data-name="Path 58" d="M450.732,376.885c.77.919,1.579,2.021,2.526,2.986,2.357,2.4,4.828,4.694,7.148,7.13a21.325,21.325,0,0,1,2.415,3.386c.993,1.569,1.9,1.783,3.374.621,1.869-1.469,3.73-2.949,5.559-4.467a8.577,8.577,0,0,0,1.084-1.383c-2.3-2.4-4.488-4.711-6.694-7.005-2.037-2.117-4.476-3.84-6.025-6.44-.614-1.03-1.745-.913-2.626-.3-1.137.8-2.158,1.759-3.238,2.64C453.22,374.9,452.173,375.729,450.732,376.885Zm11.027-.342c3.323,2.29,5.8,5.394,8.555,8.453l-4.667,3.37-7.217-6.119,4.064-2.207c-2.3-.877-4.373,2.607-6.491-.218l5.816-3.338c-1.024.255-2.075.439-3.067.786-.922.323-1.765.867-2.677,1.229a1.473,1.473,0,0,1-2.256-1.042c1.65-.653,3.34-1.232,4.948-1.988A1.96,1.96,0,0,1,461.759,376.543Zm-3.013-3.017.228.6-1.435.37-.13-.427Z" transform="translate(-402.461 -344.98)" fill="#333"/>
      </g>
      <g id="Group_45" data-name="Group 45" transform="translate(5.237 231.77)">
        <path id="Path_59" data-name="Path 59" d="M222.346,447.044c.969,6.46,1.392,13.087,3.473,19.6,2.627-1.2,1.891-4.278,3.862-5.826l2.6,4.008c1.506-.287,1.437-1.276,1.444-2.162.032-4.275.035-8.55.048-12.824,0-.971,0-1.942,0-3.118.987-.084,1.784-.2,2.582-.211,9.376-.126,18.756-.113,28.126-.4,4.673-.144,9.325-.9,13.994-1.263,5.491-.43,10.991-.73,16.486-1.1a10.019,10.019,0,0,0,1.943-.31,1.853,1.853,0,0,0,1.53-1.939c.167-7.973.427-15.944.559-23.918.1-6.332-.022-12.668.113-19,.263-12.422.258-24.837-.226-37.255-.381-9.779-.644-19.563-.948-29.346-.084-2.7-.15-2.7-2.766-2.886-10.53-.751-21.036.032-31.55.406-7.973.284-15.948.482-23.921.731a242.525,242.525,0,0,0-27.259,2.391c-.082.011-.164.018-.245.03-3.7.521-4.443,1.469-4.045,5.24,1.026,9.731,2.158,19.452,3.071,29.194.568,6.057.878,12.14,1.187,18.218.455,8.956.877,17.914,1.178,26.876.216,6.408.16,12.825.324,19.236.111,4.357.351,8.712.613,13.063.149,2.468,1.439,3.39,3.8,2.649A5.9,5.9,0,0,1,222.346,447.044Zm3.975-104.873c-5.018,3.313-9,7.873-14.064,11.892-.21-2.111-.961-3.621.614-5.052,4.933-4.482,9.809-9.025,14.7-13.557a6.692,6.692,0,0,0,.745-1c-6.182,3.623-10.579,9.331-16.512,13.534-.511-1.736-.486-2.941.837-4.153,2.484-2.276,4.754-4.783,7.177-7.129,1.587-1.537,3.15-3.1,5.642-3.184,2.621-.084,5.232-.506,7.853-.589q18.5-.587,37-1.05a11.122,11.122,0,0,1,1.889.313c.307,5.586.909,11.083.851,16.574-.151,14.165.53,28.3,1,42.448.026.785,0,1.572,0,2.389-12.38,1.556-24.51,1.5-37.094,2.122l2.042-2.453c-2.37.208-3.333,2.85-5.893,2.38l3.062-2.883-.324-.43a14.227,14.227,0,0,0-4.12,2.792,3.376,3.376,0,0,1-3.481.943c.808-1.52,2.444-2.03,2.931-3.549a21.841,21.841,0,0,0-3.442,2.32c-1.927,1.5-1.923,1.511-3.7,1.115l4.769-4.273-.315-.373a15.366,15.366,0,0,0-1.627.947c-1.58,1.184-3.134,2.4-4.686,3.624-.768.6-1.477,1.341-2.922.758l6.1-6.444-.348-.334a16.264,16.264,0,0,0-1.52,1.154q-2.768,2.636-5.485,5.327c-.719.708-1.4,1.453-2.754.47,2.739-4.122,6.431-7.293,10.04-10.548-4.3,1.3-6.551,5.125-9.728,7.947a2.381,2.381,0,0,1,.447-3.155c1.552-1.588,3.072-3.208,4.618-4.8.636-.656,1.307-1.278,1.962-1.915-3.068,1.066-4.876,3.688-7.54,5.34a3.59,3.59,0,0,1,.653-2.175c1.859-1.97,3.837-3.828,5.755-5.743a7.23,7.23,0,0,0,.691-.946l-.412-.4-6.638,5.714c-.528-2.462-.532-2.52.732-3.715,1.554-1.47,3.145-2.9,4.7-4.371a14.754,14.754,0,0,0,1.162-1.515c-3.028,1.21-4.371,3.93-7.017,4.879-.256-2.1-.3-2.146.854-3.193,1.642-1.5,3.354-2.913,5.018-4.386a6.6,6.6,0,0,0,.748-.95l-.3-.279-6.3,4.569a2.384,2.384,0,0,1,.57-3.254c1.7-1.671,3.468-3.274,5.194-4.92a8.746,8.746,0,0,0,.76-.956l-.345-.349-6.658,5.241a2.472,2.472,0,0,1,.952-3.324c1.774-1.384,3.417-2.938,5.115-4.42l-.333-.444-5.793,4.285c-.8-1.848-.4-2.961.87-4,1.842-1.511,3.554-3.181,5.307-4.8a8.84,8.84,0,0,0,.76-.91l-.34-.337-7.237,5.638c-.225-1.545-.651-2.662.4-3.625,1.393-1.274,2.755-2.582,4.16-3.843,1.9-1.705,3.822-3.381,5.735-5.071-4.161,1.735-6.786,5.518-10.686,7.775-1.016-2.352-.783-4.183,1.064-5.885,3.386-3.123,6.659-6.369,9.969-9.575C224.9,343.685,225.6,342.917,226.321,342.171Zm49.256,78.1c-5.316.231-10.225.48-15.137.647-4.845.164-9.7.182-14.541.378-4.923.2-9.848.445-14.757.843-4.879.4-9.741,1.005-14.559,1.515-.714-2.7-1.1-22.168-.479-23.843,19.163-2.219,38.53-2.352,58.076-3.839C274.654,404.211,275.111,412.144,275.578,420.266Zm-58.624,13.676c-.971-2.75-.9-3,.974-4.536,1.08-.885,2.157-1.781,3.163-2.747a6.767,6.767,0,0,1,4.395-1.944c4.754-.329,9.5-.836,14.258-1.054,10.6-.487,21.2-.85,31.8-1.235,1.294-.047,2.594.082,4.152.139.475,6.709.934,13.2,1.412,19.942l-9.815.983,2.017-2.375c-2.729.591-4.562,3.422-8.118,2.261l3.921-3.386a1.344,1.344,0,0,0-1.267.01c-1.274.887-2.542,1.788-3.744,2.768-.887.723-1.69,1.49-3.205.712.92-.911,1.705-1.721,2.525-2.493.793-.747,1.622-1.456,2.435-2.182l-.338-.42a7.032,7.032,0,0,0-1.153.666c-1.436,1.228-2.866,2.465-4.248,3.752-.861.8-1.7,1.439-3.258.732L258,438.619a1.4,1.4,0,0,0-1.19.283c-1.511,1.265-3.044,2.512-4.485,3.854-.958.892-1.886,1.533-3.425.841,1.05-1.977,3.254-2.809,4.272-4.717a40.462,40.462,0,0,0-5.232,3.969,3.1,3.1,0,0,1-3.685.81l6.418-5.681-.3-.4a26.182,26.182,0,0,0-2.606,1.637c-1.543,1.227-3.016,2.542-4.5,3.839a3.106,3.106,0,0,1-3.785.674l8.077-6.934a3.323,3.323,0,0,0-2.042.74c-2.267,1.769-4.509,3.57-6.749,5.373-.808.65-1.526,1.509-2.925.961,1.58-2.654,4.271-4.065,6.032-6.415a5.439,5.439,0,0,0-2.06,1.038c-1.625,1.383-3.252,2.774-4.765,4.276a4.209,4.209,0,0,1-4.606,1.031,81.209,81.209,0,0,1,9.011-8.01,6.66,6.66,0,0,0-2.848,1.166c-2.311,1.843-4.622,3.706-6.756,5.746a4.367,4.367,0,0,1-4.9,1.109c2.751-3.438,6.233-5.836,8.9-9.016a9.645,9.645,0,0,0-2.509,1.6c-2.408,2.116-4.758,4.3-7.184,6.4a4.817,4.817,0,0,1-2.27,1.294,27.127,27.127,0,0,1-4.254-.093c-.8-1.774-.634-3.05.628-4.253,3.151-3.006,6.226-6.091,9.362-9.114a4.775,4.775,0,0,1,1.285-.633l-.693-.736c-4.231,2.545-7.226,6.568-10.774,9.931l-.53-.24c-.073-1.258-.146-2.515-.194-3.336l11.27-9.992C223.542,427.365,220.629,431.114,216.954,433.942ZM295.461,331.93c.824,20.307,2.042,40.288,1.333,60.224-3.55,1.012-11.947,1.459-13.647.793a4.97,4.97,0,0,1-.113-.715q-.333-18.507-.659-37.014c-.032-1.726-.163-3.451-.186-5.177q-.115-8.505-.165-17.011a9.23,9.23,0,0,1,.475-1.918Zm-16.414,110.2c-3.406-36.822-3.432-73.506-5.348-110.333h6.023c.062.652.171,1.281.171,1.911,0,1.563-.119,3.128-.06,4.688.182,4.769.507,9.533.627,14.3.25,9.95.409,19.9.6,29.853.12,6.328.055,12.665.378,18.982.685,13.367,1.569,26.723,2.379,40.192C282.365,442.487,280.84,442.181,279.047,442.126Zm5.534-21.845c-.785-8.4-1.193-16.335-1.529-24.6,4.724-.072,9.122-.994,13.784-.614.029,8.3-.031,16.307-.1,24.548Zm.993,21.62c.329-6.728-1.193-12.942-.856-19.194,2.977-.7,10.54-.952,12.065-.372,0,.649.023,1.379,0,2.107-.118,3.286-.239,6.572-.381,9.856-.072,1.64-.18,3.279-.3,4.916a1.977,1.977,0,0,1-2.031,2.037C291.376,441.451,288.682,441.663,285.574,441.9Zm-58.453,19.61-.76-.081a98.78,98.78,0,0,1-2.178-14.591h7.99c.008,4.64.909,9.155-.172,14.062a28.17,28.17,0,0,0-1.746-2.478c-.762-.854-1.564-.633-2.017.456C227.872,459.759,227.494,460.634,227.121,461.511ZM221.1,334.263l-9.452,9.086c-.563-1.863-.595-1.893.168-2.7a42.487,42.487,0,0,1,4.166-4.2C217.261,335.429,218.438,333.938,221.1,334.263Zm-5.665.4q.171.226.342.452l-4.481,4.02c-1.006-3.144-.722-3.627,2.018-4.066C214.028,334.955,214.732,334.8,215.439,334.662Zm.769,91.1,3.68-.325a5.291,5.291,0,0,1-3.42,3C216.383,427.576,216.316,426.882,216.207,425.763Z" transform="translate(-208.056 -328.771)" fill="#333"/>
        <path id="Path_60" data-name="Path 60" d="M221.245,468.71,232.4,457.847c-1.111.035-3.592,1.864-6.231,4.647-1.818,1.918-3.621,3.849-5.431,5.775Z" transform="translate(-210.533 -353.974)" fill="#333"/>
      </g>
      <g id="Group_46" data-name="Group 46" transform="translate(288.267 139.353)">
        <path id="Path_61" data-name="Path 61" d="M627.759,236.51A38.453,38.453,0,0,0,607.1,215.8a25.044,25.044,0,0,0-11.547-2.182,10.828,10.828,0,0,1-1.481.007c-6.938-.511-12.87,2.044-18.184,6.188a49.891,49.891,0,0,0-6.47,6.06,34.348,34.348,0,0,0-8.717,21.256c-.507,7.6,2.158,14.06,6.238,20.266,4.513,6.861,10.932,10.592,18.6,12.791a27.793,27.793,0,0,0,12.168,1,37.45,37.45,0,0,0,19.218-8.769A36.736,36.736,0,0,0,625,261.91c1.863-3.541,2.529-7.449,2.967-11.389.1-.885.2-1.77.319-2.812,1.9-.306,3.668-.568,5.43-.883,2.425-.433,4.85-.873,7.262-1.373a3.866,3.866,0,0,0,3.353-3.2c.213-1.982.141-4.1-2.113-5.364a8.136,8.136,0,0,0-4.636-1.378q-3.3.235-6.591.552C629.868,236.174,628.751,236.371,627.759,236.51Zm-6.9,11.836a23.8,23.8,0,0,1-5.994,15.933,27.435,27.435,0,0,1-33.179,6.514,24.836,24.836,0,0,1-12.078-12.813c-3.829-8.949-2.9-17.641,3.027-25.349,6.87-8.94,16.111-12.214,27.238-10.043,7.658,1.494,13.752,5.132,17.5,12.238A26.962,26.962,0,0,1,620.858,248.346Zm-30.381-31.72c14.46-2.689,31.286,7.288,34.842,24.17,3.6,17.1-6.218,30.8-19.319,35.734a3.931,3.931,0,0,1,2.009-3.174,40.749,40.749,0,0,0,9.27-7.678c4.713-4.932,6.493-11.088,6.7-17.569.151-4.663-1.388-9.269-3.017-13.662-2.427-6.543-7.86-10.186-13.8-13.021a28.07,28.07,0,0,0-14.856-2.787C590.938,218.767,590.328,218.166,590.477,216.626ZM574.643,225.8c-1.289,1.6-2.5,3.235-3.851,4.743a23.128,23.128,0,0,0-5.836,15.8c-.128,9.5,7.475,21.755,16.494,26.17.7.341,1.352.767,2.059,1.172-1.614,2.088-1.611,2.079-3.57,1.4-4.354-1.521-7.557-4.453-10.381-8.021a29.639,29.639,0,0,1-5.953-25.951c1.309-6,4.659-10.808,8.861-15.11C573.112,225.343,573.81,224.63,574.643,225.8Zm59.772,12.535c1.609-.451,2.491-.3,2.681,1.171.145,1.128.359,2.25.455,3.382a1.441,1.441,0,0,1-1.363,1.707c-1.431.17-2.87.274-4.356.411a12.757,12.757,0,0,1-.506-6.381c1.4-.492,2.037-.087,2.363,1.3.209.89.109,2.083,1.476,2.829C634.891,241.147,634.667,239.826,634.414,238.338Zm3.569.175c2.851.125,4.419,1.321,4.387,3.153-.027,1.494-1.4,2.267-3.876,2.035Q638.246,241.169,637.983,238.513Zm-10.076,6.962c0-2.061-.046-3.9.043-5.737.015-.319.576-.81.931-.855s1.07.3,1.125.581c.373,1.871,1.047,3.734.654,5.854Zm-34.226,30.478a23.688,23.688,0,0,1-.732,2.558,1.964,1.964,0,0,1-2.462,1.092,2.674,2.674,0,0,1-1.616-1.218c-.5-1.008.392-1.64,1.078-2.208C591.037,275.277,592.231,275.605,593.681,275.953Zm-5.187-.5c-.982,2.367-1.709,2.707-4.255,2a1.827,1.827,0,0,1-1.166-1.013,1.942,1.942,0,0,1,.608-1.4,1.742,1.742,0,0,1,2.165-.565C586.644,274.839,587.495,275.087,588.494,275.45Zm5.73,3.382c.163-3.187,1.222-2.95,4.857-2.71C598.476,279.175,597.723,279.595,594.223,278.832Zm5.565-.564c.568-3.08,3.2-2.584,5.3-3.346C604.115,277.831,603.264,278.348,599.788,278.268Zm-20.253-55.924c-3.213,2.127-3.213,2.127-4.567,1.072.765-.644,1.463-1.31,2.24-1.869C578.375,220.709,578.4,220.742,579.535,222.344Zm9.819-3.643c-3.4,1.469-3.567,1.416-3.956-1.187l3.34-.666C588.967,217.537,589.137,218.047,589.355,218.7Zm-5.043,1.523c-2.589,1.4-3,1.358-3.984-.367C583.116,218.166,583.46,218.2,584.311,220.225Z" transform="translate(-560.644 -213.563)" fill="#333"/>
        <path id="Path_62" data-name="Path 62" d="M604.484,231.3a7.946,7.946,0,0,0-6.856-2.163,37.3,37.3,0,0,0-15.354,4.849,19.707,19.707,0,0,0-8.937,11.315,5.839,5.839,0,0,0,.092,1.493c2.637-3.7,4.54-7.392,8.052-9.7a34.638,34.638,0,0,1,10.859-5.071A40.63,40.63,0,0,1,604.484,231.3Z" transform="translate(-563.116 -216.592)" fill="#333"/>
        <path id="Path_63" data-name="Path 63" d="M580.766,251.524c1.14.042,1.313-.753,1.379-1.469.213-2.331,1.594-3.86,3.314-5.236a23.7,23.7,0,0,1,9.45-5.051,48.338,48.338,0,0,1,6.18-.635c-.9-.958-1.4-1.152-3.083-1.323-2.738-.278-5.195.722-7.58,1.79a19.853,19.853,0,0,0-7.648,5.627,11.747,11.747,0,0,0-2.187,5.408A2.5,2.5,0,0,0,580.766,251.524Z" transform="translate(-564.537 -218.288)" fill="#333"/>
        <path id="Path_64" data-name="Path 64" d="M602.5,278.113c.319,1.511,1.252,1.614,2.289,1.593,5.193-.1,9.469-2.409,13.308-5.648a33.568,33.568,0,0,0,3.087-3.39l-.345-.443c-.485.311-.992.591-1.452.935-1.768,1.325-3.457,2.765-5.294,3.984a15.636,15.636,0,0,1-10.035,2.637A5.919,5.919,0,0,0,602.5,278.113Z" transform="translate(-568.817 -224.627)" fill="#333"/>
        <path id="Path_65" data-name="Path 65" d="M598.942,272.642c1.347,1.577,2.6,1.689,3.766,1.354,5.148-1.484,9.751-3.875,12.983-8.36.085-.118.064-.311.144-.754-.505.188-1.026.212-1.214.476-2,2.8-5,4.189-7.928,5.665a9.9,9.9,0,0,1-5.444,1.251A11.255,11.255,0,0,0,598.942,272.642Z" transform="translate(-568.122 -223.583)" fill="#333"/>
        <path id="Path_66" data-name="Path 66" d="M585.794,256c2.438-6.048,7.192-8.847,13.666-9.644-2.754-1.206-6.276-.309-9.49,2.165C586.848,250.925,585.26,253.611,585.794,256Z" transform="translate(-565.535 -219.862)" fill="#333"/>
        <path id="Path_67" data-name="Path 67" d="M599.038,267.189c.54.161,1.12.537,1.611.443a9.769,9.769,0,0,0,3.721-1.12c2.545-1.785,4.9-3.846,7.306-5.817.149-.122.148-.425.312-.946a5.932,5.932,0,0,0-1.4.542c-1.227.958-2.382,2.009-3.611,2.966-2.035,1.583-4.206,2.875-6.9,2.953a3.042,3.042,0,0,0-.893.324Z" transform="translate(-568.141 -222.581)" fill="#333"/>
        <path id="Path_68" data-name="Path 68" d="M599.505,252.88c-2.693-.508-6.1,1.818-6.267,4.6Z" transform="translate(-567.009 -221.226)" fill="#333"/>
        <path id="Path_69" data-name="Path 69" d="M604.85,258.727c-1.093.765-2.136,1.622-3.294,2.27s-2.436,1.092-3.807,1.689C600.028,264.1,603.014,262.539,604.85,258.727Z" transform="translate(-567.89 -222.381)" fill="#333"/>
      </g>
      <path id="Path_70" data-name="Path 70" d="M696.689,466.057a.038.038,0,0,0,.013.074c1.129-.177.917-1.874.914-2.715a4.17,4.17,0,0,0-2.466-3.61c-4.309-1.633-6.283,2.553-6.789,6.143-.229,1.627,1.784,2.137,2.905,2.7,1.793.905,3.514,1.724,5.332.5,1.03-.693-.459-2.434-1.1-2.726-2.031-.926-4.166-1.461-6.287-.658a9.879,9.879,0,0,1,.484-2.074c.77-2.593,2.871-4.4,5.594-2.889a3.648,3.648,0,0,1,1.581,2.637C696.937,463.812,697.15,465.932,696.689,466.057Zm-3.222.6q.589.183,1.171.391-.11,2.3-1.432,1.531a21.821,21.821,0,0,1-2.22-1.061q-.713-.344-1.42-.7a.564.564,0,0,1-.177-.177A5.939,5.939,0,0,1,693.467,466.658Z" transform="translate(-297.553 -122.596)" fill="#333"/>
      <path id="Path_71" data-name="Path 71" d="M706.947,476.76a.038.038,0,0,0,.012.075c1.129-.178.917-1.875.914-2.716a4.168,4.168,0,0,0-2.466-3.61c-4.309-1.633-6.282,2.553-6.789,6.144-.229,1.626,1.784,2.136,2.906,2.7,1.793.905,3.513,1.724,5.332.5,1.029-.692-.46-2.434-1.1-2.726-2.031-.925-4.166-1.461-6.287-.657a9.858,9.858,0,0,1,.484-2.074c.77-2.594,2.872-4.4,5.594-2.89a3.648,3.648,0,0,1,1.581,2.638C707.194,474.515,707.408,476.635,706.947,476.76Zm-3.223.6q.59.182,1.171.39-.11,2.3-1.432,1.531a21.9,21.9,0,0,1-2.22-1.061q-.713-.343-1.419-.7a.558.558,0,0,1-.178-.177A5.934,5.934,0,0,1,703.724,477.362Z" transform="translate(-299.556 -124.704)" fill="#333"/>
      <path id="Path_72" data-name="Path 72" d="M717.025,491.575a.031.031,0,0,0,.014.06c.9-.205.635-1.56.586-2.236a3.362,3.362,0,0,0-2.183-2.77c-3.559-1.077-4.917,2.4-5.126,5.32-.1,1.322,1.554,1.622,2.488,2.015,1.493.63,2.924,1.193,4.32.109.79-.614-.5-1.933-1.038-2.133a6.472,6.472,0,0,0-5.1-.182,7.914,7.914,0,0,1,.276-1.7c.476-2.13,2.069-3.7,4.342-2.635a2.941,2.941,0,0,1,1.418,2.036C717.1,489.755,717.39,491.45,717.025,491.575Zm-2.561.662q.485.115.964.25.039,1.858-1.068,1.312a17.626,17.626,0,0,1-1.845-.732q-.594-.237-1.181-.488a.449.449,0,0,1-.153-.133A4.79,4.79,0,0,1,714.464,492.237Z" transform="translate(-301.843 -127.908)" fill="#333"/>
    </g>
  </g>
</svg>
