<svg xmlns="http://www.w3.org/2000/svg" width="151.47" height="32.062" viewBox="0 0 151.47 32.062">
  <path id="ductdemy_logo" data-name="ductdemy logo" d="M-75.548,0V-.714l.68-.238a1.568,1.568,0,0,0,1.088-1.7q.034-1.938.034-3.961v-9.265q0-1.972-.034-3.944a1.594,1.594,0,0,0-1.054-1.734l-.714-.2v-.714h8.942a13.326,13.326,0,0,1,6.154,1.326,9.325,9.325,0,0,1,3.978,3.825,12.214,12.214,0,0,1,1.394,6.035,11.67,11.67,0,0,1-1.513,6.12,9.846,9.846,0,0,1-4.25,3.842A14.462,14.462,0,0,1-67.218,0Zm6.7-.986h1.734a7.275,7.275,0,0,0,3.927-.952,5.592,5.592,0,0,0,2.227-3.213,20.948,20.948,0,0,0,.714-6.1,20.769,20.769,0,0,0-.714-6.086,5.652,5.652,0,0,0-2.193-3.2,6.957,6.957,0,0,0-3.825-.952h-1.87q-.034,2.346-.034,4.743V-5.8Q-68.884-3.366-68.85-.986ZM-47.566.476A5.782,5.782,0,0,1-49.98-.017,3.673,3.673,0,0,1-51.7-1.649a5.984,5.984,0,0,1-.595-3.009l.1-8.534a1.935,1.935,0,0,0-.238-1.088,1.344,1.344,0,0,0-.85-.476l-.408-.136V-15.5l5.814-1.122.374.374-.17,4.794V-3.74a2.076,2.076,0,0,0,.629,1.683,2.378,2.378,0,0,0,1.581.527,5.219,5.219,0,0,0,1.785-.289,7.49,7.49,0,0,0,1.649-.867l.1-10.472a1.95,1.95,0,0,0-.221-1.088,1.486,1.486,0,0,0-.833-.476l-.374-.1v-.612l5.678-1.19.374.374-.1,4.794V-2.55a2.874,2.874,0,0,0,.187,1.139,1.246,1.246,0,0,0,.833.629l.442.136V0l-5.746.34L-41.99-1.8A11.4,11.4,0,0,1-44.506-.17,7.044,7.044,0,0,1-47.566.476Zm21.182,0a8.706,8.706,0,0,1-4.182-1,7.233,7.233,0,0,1-2.941-2.924,9.472,9.472,0,0,1-1.071-4.675,8.8,8.8,0,0,1,1.19-4.692,8.024,8.024,0,0,1,3.179-2.975A9.307,9.307,0,0,1-25.84-16.83a7.64,7.64,0,0,1,3.3.646,5.222,5.222,0,0,1,2.074,1.649,3.6,3.6,0,0,1,.714,2.125,1.875,1.875,0,0,1-.561,1.462,2.065,2.065,0,0,1-1.445.51,1.959,1.959,0,0,1-1.547-.68,3,3,0,0,1-.7-1.734,7.548,7.548,0,0,1,.017-1.156A3.538,3.538,0,0,0-24-14.926a1.2,1.2,0,0,0-.459-.782,1.684,1.684,0,0,0-.9-.2,3.7,3.7,0,0,0-3.281,1.717q-1.139,1.717-1.139,5.559A8.664,8.664,0,0,0-28.526-3.57,4.472,4.472,0,0,0-24.616-1.8a5.069,5.069,0,0,0,2.584-.6,6.454,6.454,0,0,0,1.87-1.717l.544.408A6.425,6.425,0,0,1-22.219-.6,7.827,7.827,0,0,1-26.384.476Zm14.586,0A4.922,4.922,0,0,1-15.113-.561,4.239,4.239,0,0,1-16.32-3.944q0-.816.017-1.547t.017-1.717v-8.058H-18.7v-.748l.918-.136a4.558,4.558,0,0,0,1.683-.612,4.8,4.8,0,0,0,1.275-1.224l2.21-3.06h1.02l-.1,4.726H-7.82v1.054h-3.91V-3.672A2.751,2.751,0,0,0-11.2-1.836a1.659,1.659,0,0,0,1.309.612A2.352,2.352,0,0,0-8.67-1.547a5.607,5.607,0,0,0,1.088-.867l.442.51a4.541,4.541,0,0,1-1.8,1.751A5.913,5.913,0,0,1-11.8.476Zm12.852,0a7.209,7.209,0,0,1-3.6-.9,6.094,6.094,0,0,1-2.5-2.788,11.18,11.18,0,0,1-.9-4.811A10.475,10.475,0,0,1-4.93-12.9a7.072,7.072,0,0,1,2.72-2.941,7.321,7.321,0,0,1,3.74-.986,9.369,9.369,0,0,1,2.346.289,6.244,6.244,0,0,1,1.972.867v-4.42a1.88,1.88,0,0,0-.221-1.037,1.5,1.5,0,0,0-.9-.493l-.68-.136v-.646l5.916-1.462.442.306-.136,4.794V-2.414a2.171,2.171,0,0,0,.238,1.071,1.317,1.317,0,0,0,.85.6l.374.1V0L6.086.374,5.78-1.054A7.212,7.212,0,0,1,3.672.068,8.028,8.028,0,0,1,1.054.476Zm1.87-1.564A4.561,4.561,0,0,0,5.678-2.04V-14.688a5.058,5.058,0,0,0-2.72-.782A3.423,3.423,0,0,0,.1-13.719q-1.19,1.751-1.19,5.627T.034-2.652A3.416,3.416,0,0,0,2.924-1.088ZM21.76-16.83a7.221,7.221,0,0,1,3.672.884,6.1,6.1,0,0,1,2.363,2.431,7.377,7.377,0,0,1,.833,3.553q0,.442-.034.833a3.636,3.636,0,0,1-.136.731H18.224q.034,3.5,1.309,5.032a4.57,4.57,0,0,0,3.723,1.53A5.856,5.856,0,0,0,26.01-2.4a6.8,6.8,0,0,0,1.938-1.581l.544.51A7.443,7.443,0,0,1,25.721-.561,8.027,8.027,0,0,1,21.556.476a8.607,8.607,0,0,1-4.25-1.02,7.186,7.186,0,0,1-2.873-2.941A9.571,9.571,0,0,1,13.4-8.092,8.77,8.77,0,0,1,14.6-12.818a8.28,8.28,0,0,1,3.128-2.975A8.366,8.366,0,0,1,21.76-16.83Zm-.17.986a2.739,2.739,0,0,0-1.717.561,3.8,3.8,0,0,0-1.156,1.972,15.862,15.862,0,0,0-.493,3.961H24.31a10.779,10.779,0,0,0-.272-4.964A2.419,2.419,0,0,0,21.59-15.844ZM30.362,0V-.68l.748-.2a1.138,1.138,0,0,0,.714-.493,2.168,2.168,0,0,0,.2-.867V-10.88q0-.782-.034-1.836a1.961,1.961,0,0,0-.17-.9,1.061,1.061,0,0,0-.748-.459l-.714-.17v-.612L35.87-16.83l.408.374.238,2.278a12.992,12.992,0,0,1,2.652-1.87,6.274,6.274,0,0,1,2.992-.782,4.5,4.5,0,0,1,2.652.68,4.247,4.247,0,0,1,1.462,2.074A10.033,10.033,0,0,1,49.13-16.1a7.263,7.263,0,0,1,3.094-.731,4.71,4.71,0,0,1,3.468,1.156,4.97,4.97,0,0,1,1.156,3.638V-2.21A1.259,1.259,0,0,0,57.8-.85l.646.17V0H50.8V-.68l.612-.17a1.312,1.312,0,0,0,.918-1.394v-9.962a2.828,2.828,0,0,0-.527-1.989,2.359,2.359,0,0,0-1.717-.527,4.113,4.113,0,0,0-1.734.374,9.074,9.074,0,0,0-1.8,1.156,12.053,12.053,0,0,1,.2,2.346V-2.21a2.056,2.056,0,0,0,.221.9A1.1,1.1,0,0,0,47.7-.85l.578.17V0H40.6V-.68l.714-.2a1.216,1.216,0,0,0,.731-.493,1.727,1.727,0,0,0,.187-.867v-9.928a2.985,2.985,0,0,0-.51-1.972,2.219,2.219,0,0,0-1.734-.578,5.436,5.436,0,0,0-3.366,1.5V-2.21A1.229,1.229,0,0,0,37.57-.85l.578.17V0Zm31.45,8.194a3.265,3.265,0,0,1-2.142-.646,2.1,2.1,0,0,1-.782-1.7,1.88,1.88,0,0,1,.663-1.513,2.233,2.233,0,0,1,1.479-.561,2.822,2.822,0,0,1,1.394.306,2.925,2.925,0,0,1,.952.884l.2.272q.782.952,1.462-.034a8.942,8.942,0,0,0,.867-1.428,22.341,22.341,0,0,0,.935-2.244l-6.46-15.436a3.289,3.289,0,0,0-.544-1,2.264,2.264,0,0,0-.918-.6l-.578-.2v-.612h8.4v.612l-.714.2q-.748.238-.8.731A3.1,3.1,0,0,0,65.45-13.5l3.468,9.044,3.332-9.112a2.732,2.732,0,0,0,.2-1.258q-.068-.51-.85-.68l-.748-.2v-.612h5.066v.612l-.748.238a2.05,2.05,0,0,0-1.071.6,3.9,3.9,0,0,0-.6,1.139L68.068.884A20.434,20.434,0,0,1,65.3,6.409,4.287,4.287,0,0,1,61.812,8.194Z" transform="translate(75.548 23.868)"/>
</svg>
