<svg xmlns="http://www.w3.org/2000/svg" width="160" height="49" viewBox="0 0 160 49">
  <g id="Lupark_Logo" data-name="Lupark Logo" transform="translate(-144.275 -103.025)">
    <g id="Group_7" data-name="Group 7" transform="translate(144.275 103.025)">
      <circle id="Ellipse_2" data-name="Ellipse 2" cx="24.5" cy="24.5" r="24.5" transform="translate(0 0)" fill="#00bbf4"/>
      <g id="Group_6" data-name="Group 6" transform="translate(9.209 22.609)">
        <path id="Path_8" data-name="Path 8" d="M79.92,128.1a16.061,16.061,0,0,1-8.881,5.785,14.228,14.228,0,0,1-1.483.316q-.726.113-1.459.2a16.688,16.688,0,0,1-11.467-2.656l.05-.013a12.853,12.853,0,0,1-5.434-7.1,15.105,15.105,0,0,0,30.188,1.015A13.9,13.9,0,0,1,79.92,128.1Z" transform="translate(-51.244 -124.633)" fill="#fff"/>
      </g>
    </g>
    <g id="Group_8" data-name="Group 8" transform="translate(202.776 115.891)">
      <path id="Path_9" data-name="Path 9" d="M337.167,82.931V86.29h-14.3V59.716h3.392V82.931h10.909Z" transform="translate(-322.866 -59.663)"/>
      <path id="Path_10" data-name="Path 10" d="M435.8,100.718v19.19h-3.293v-.865a7.381,7.381,0,0,1-4.457,1.43q-.333,0-.582-.017t-.516-.05q-3.958-.532-5.421-3.293a13.3,13.3,0,0,1-1.164-6.053V100.718h3.392v10.377a14.913,14.913,0,0,0,.233,2.361,8.55,8.55,0,0,0,.532,1.829,3.426,3.426,0,0,0,3.426,1.9,3.832,3.832,0,0,0,1.663-.416,8.875,8.875,0,0,0,1.7-1.081,4.527,4.527,0,0,0,1.2-1.7v-13.27H435.8Z" transform="translate(-402.672 -93.224)"/>
      <path id="Path_11" data-name="Path 11" d="M540.75,108.664v.416a1.531,1.531,0,0,1-.067.416l.033-.066a10.487,10.487,0,0,1-3.359,7.084,9.069,9.069,0,0,1-6.319,2.162q-.666,0-1.546-.05t-1.946-.15v7.43H524.22V99.152q2.727-.232,4.407-.366t2.311-.133a2.908,2.908,0,0,1,.466-.033h.532a8.176,8.176,0,0,1,5.72,2v-.033a9.5,9.5,0,0,1,3.093,6.951Zm-3.359,0c.022-.244.033-.427.033-.549v-.283a7.1,7.1,0,0,0-1.9-4.473,5.2,5.2,0,0,0-4.124-1.447c-.311,0-.6.006-.865.017l-.831.033q-.433.017-.948.066l-1.214.116v13.071q1.5.1,2.494.15t1.364.05a5.358,5.358,0,0,0,3.891-1.5,8.1,8.1,0,0,0,2.029-4.623q.033-.166.05-.333t.017-.233Z" transform="translate(-487.68 -91.507)"/>
      <path id="Path_12" data-name="Path 12" d="M634.362,98.818q1.264.033,2.91.133t3.841.366v18.991H637.82v-1.5l-.133.066a8.76,8.76,0,0,1-2.528,1.53,7.808,7.808,0,0,1-2.86.532,7.319,7.319,0,0,1-6.053-3.06,10.232,10.232,0,0,1-2.1-6.419,9.1,9.1,0,0,1,.05-.964q.05-.465.117-.931a10.63,10.63,0,0,1,3.525-6.619v.033A8.4,8.4,0,0,1,634.362,98.818Zm3.459,3.459q-1.53-.1-2.511-.15t-1.347-.05a5.6,5.6,0,0,0-4.091,1.463v-.033a6.719,6.719,0,0,0-1.73,2.727,7.169,7.169,0,0,0-.465,1.613,10.386,10.386,0,0,0-.133,1.68,7.328,7.328,0,0,0,.233,1.879,8.316,8.316,0,0,0,.6,1.613A6.61,6.61,0,0,0,630.1,114.9a3.506,3.506,0,0,0,2.062.682,5.476,5.476,0,0,0,3.559-1.463v.033a6.406,6.406,0,0,0,2.1-4.956Z" transform="translate(-569.476 -91.647)"/>
      <path id="Path_13" data-name="Path 13" d="M739.958,100.7a11.634,11.634,0,0,1,4.557-2.128v3.392a7.119,7.119,0,0,0-2.494,1.3,7.235,7.235,0,0,0-2.228,4.556q-.1.566-.133.848t-.033.349v9.113H736.3V98.9h3.326v2.129A1.171,1.171,0,0,1,739.958,100.7Z" transform="translate(-661.272 -91.466)"/>
      <path id="Path_14" data-name="Path 14" d="M800.581,59.422V86.1h3.267V77.6c1.27,1.286,2.488,2.642,3.707,4.049s2.455,2.815,3.674,4.448h4.157a92.755,92.755,0,0,0-9.179-10.8l8.647-8.437H810.1c-1,.907-2.039,2-3.092,3.041s-2.07,2.066-3.159,3.108V59.422Z" transform="translate(-713.888 -59.422)"/>
    </g>
  </g>
</svg>
