<?xml version="1.0" encoding="utf-8"?>
<!-- Generator: Adobe Illustrator 22.1.0, SVG Export Plug-In . SVG Version: 6.00 Build 0)  -->
<svg version="1.1" id="Capa_1" xmlns="http://www.w3.org/2000/svg" xmlns:xlink="http://www.w3.org/1999/xlink" x="0px" y="0px"
	 viewBox="0 0 1559.6 1774.7" style="enable-background:new 0 0 1559.6 1774.7;" xml:space="preserve">
<style type="text/css">
	.st0{fill:#FFFFFF;stroke:#000000;stroke-width:7.447;stroke-linecap:round;stroke-linejoin:round;stroke-miterlimit:10;}
</style>
<g>
	<g>
		<g>
			<g>
				<path d="M675.2,973.2c-1.7,0.3,0.6,0-0.8,0.1c1,0.5,2.1,1,3.1,1.4c-1.2-1.2-2.4-2.1-4-2.2c-0.7-0.1,0.3,0.1,0.5,0.1
					c-0.9-0.3,1.6,1.1,1.4,1c0.4,0.4,0.8,1.2,0.9,1.8c0,0,0,1.4,0.1,0.8c0.1-0.7-0.1,0.5-0.1,0.5c0.1,0,0.2-0.6,0.3-0.7
					c0.1-0.5,0.3-1.1,0.3-1.6c0.1-0.1,0.1-0.8,0-0.1c-0.1,0.7,0-0.1,0.1-0.2c0.1-0.2,0.1-0.4,0.1-0.7c0.3-1.2,0.4-2.4,0.5-3.7
					c0.2-2.3-2.5-4-4.4-2.8c-3.3,1.9-6.7,4.5-7.1,8.7c-0.2,2.2,0.5,4.3,2.2,5.8c2.6,2.2,6.4,2.4,8.8-0.2c-0.6,0.3-1.4,0.7-2,1
					c0.7-0.1,1.3-0.3,2-0.4c2.2-0.6,3.8-2.8,3.3-5.1C679.8,974.1,677.5,973,675.2,973.2L675.2,973.2z"/>
			</g>
		</g>
		<g>
			<g>
				<path d="M702.8,870.6c7.3-1.6,4.9-12.9-2.4-11.3C693.1,860.8,695.5,872.1,702.8,870.6L702.8,870.6z"/>
			</g>
		</g>
		<g>
			<g>
				<path d="M496.5,926.2c0-0.2,0-0.3,0-0.5c0-0.1-0.1-0.3,0-0.4c0-0.1,0-0.2,0-0.3l0-0.1c-0.2,0.6-0.5,1.2-0.6,1.9
					c0.2-0.2,0.3-0.5,0.4-0.7c0.2-0.4,0.3-0.8,0.4-1.2c0.1-0.7,0.2-1.5-0.1-2.2c-0.2-0.8-0.5-1.4-0.9-2.2c-0.8-1.9-3.4-3-5.3-2.5
					c-0.9,0.2-1.6,0.6-2.2,1.2c-0.9,0.7-1.6,2.2-1.5,3.3c0,0.7-0.1,1.6,0.1,2.3c0.1,0.5,0.2,1.1,0.5,1.5c0.3,0.3,0.5,0.7,0.7,1.1
					c0.3,0.3,0.7,0.7,1,0.9c0,0.4-1.4-1.9-1.2-1.3c0,0.1,0,0.2,0.1,0.3c0,0.2,0.2,0.3,0.2,0.5c0,0.2,0.2,0.3,0.2,0.5
					c0.3,0.9,1.3,1.6,2,1.9c0.8,0.4,1.9,0.6,2.8,0.3c0.8-0.2,1.4-0.5,2-1C495.8,928.6,496.5,927.2,496.5,926.2L496.5,926.2z"/>
			</g>
		</g>
		<g>
			<g>
				<path d="M482.1,1014.7c-1.5,0.4-3.7,0.8-4.9,2.1c-0.8,0.9-1.3,1.9-1.1,3.2s1.1,2,2.3,2.5c1.5,0.7,3.6,0.1,5.3-0.1
					c2-0.2,3.5-2.7,3-4.6C486.2,1015.8,484.2,1014,482.1,1014.7L482.1,1014.7z"/>
			</g>
		</g>
		<g>
			<g>
				<path d="M324.2,1015.1c-0.3-1.3-0.6-2.5-0.9-3.8c-0.2-1.2-1.2-1.8-2.3-2c-0.3,0-1,0.1-1.3,0.3c-1,0.6-1.5,1.5-1.3,2.7
					c0.3,1.3,0.4,2.6,0.7,3.8c0.3,1.4,1.7,2.4,3.1,2C323.5,1017.9,324.5,1016.6,324.2,1015.1L324.2,1015.1z"/>
			</g>
		</g>
		<g>
			<g>
				<path d="M406.1,844.4c-0.2,0-0.3,0-0.5,0c1.6,1.4,3.3,2.8,4.9,4.2c0-0.1-0.1-0.3-0.2-0.4c-0.2-1.1-0.6-2-1.3-2.8
					c-0.5-0.9-1.2-1.6-2.1-2.1c-1.9-1-3.8-1.4-5.9-1.1c-0.1,0-0.1,0-0.2,0c0.7,0,1.4-0.1,2-0.1c-0.1,0-0.1,0-0.2-0.1
					c0.6,0.2,1.3,0.2,1.9,0.4c0,0-0.1,0-0.1-0.1c0.6,0.3,1.1,0.6,1.7,0.9c0,0-0.1,0-0.1-0.1c0.5,0.4,1,0.8,1.5,1.2l-0.1-0.1
					c0.3,0.5,0.7,1.1,1.1,1.6c0-0.1,0-0.1,0-0.2c0.2,0.6,0.5,1.2,0.7,1.8c0-0.1,0-0.2-0.1-0.3c0,0.6,0.1,1.3,0.1,1.9
					c-0.1-0.3,0-0.6,0-0.8c-0.1,0.5-0.2,1.2-0.4,1.7c0.2-1.3,0.5-2.5,0.2-3.7c-0.6-2.6-3.1-5.1-6-5.2c-2.8,0-5.8,1.5-7.2,3.9
					c-1,1.5-1.4,3.2-1.2,5c0.1,1.1,0.2,2.1,0.9,3.1c0.3,0.6,0.8,1.4,1.3,1.9c2,1.9,4.5,2.9,7.3,2.3c2.4-0.5,5.2-2.5,5.8-5.1
					c0-0.3,0.2-0.6,0.2-0.9c-0.8,1-1.7,2-2.5,3c0.2,0,0.3-0.2,0.5-0.2c1.9-1,3.2-3.4,2.6-5.6C410.2,846.3,408.4,844.6,406.1,844.4
					L406.1,844.4z"/>
			</g>
		</g>
		<g>
			<g>
				<path d="M403.2,1069.7c-0.5,0.1-1,0.2-1.5,0.3c2.7,1.8,5.3,3.5,8.1,5.2c0-0.1,0-0.1,0-0.2c-0.5-1.8-1.3-3.3-2.8-4.5
					c-1.4-1.1-3.1-2-4.8-2c-1.5,0-2.9,0.3-4.3,0.9c-2,0.9-3.3,2.8-4.1,4.8l0,0c0.3-0.7,0.7-1.3,0.9-1.9c0,0,0,0-0.1,0.1
					c0.4-0.5,0.9-1,1.3-1.5c0,0,0,0-0.1,0c0.5-0.4,1.1-0.7,1.6-1.2c0,0,0,0-0.1,0c0.6-0.2,1.2-0.5,1.8-0.7c-0.1,0-0.1,0-0.2,0
					c1.1,0.1,2.3,0.1,3.4,0.2c0,0,0,0-0.1,0c0.5,0.2,1,0.5,1.5,0.7C403.6,1069.9,403.4,1069.7,403.2,1069.7c0.5,0.3,0.9,0.6,1.2,1
					c-0.1-0.1-0.1-0.2-0.2-0.2c-0.7-0.8-1.5-1.3-2.5-1.6c-1-0.3-2-0.4-3-0.2c-2.2,0.5-3.5,2-4.3,3.9c-0.2,0.2-0.2,0.6-0.3,0.8
					c0.2-0.5,0.5-1,0.7-1.5c0,0,0,0-0.1,0.1c0.9-0.8,1.6-1.5,2.5-2.3c-1.3,0.9-1.9,1.3-2.8,2.5c-1.3,1.9-1.3,4-1,6.2
					c0.2,1.9,2,4.3,3.6,5.3c1.6,1,3.3,1.4,5.2,1.3c4.1-0.3,7.3-3.5,7.7-7.7c0-0.1,0-0.1,0.1-0.2c-1.8,2.1-3.6,4.1-5.4,6.3
					c0.5-0.1,1-0.2,1.5-0.3c1.7-0.4,3.4-1.5,4.3-3c0.9-1.4,1.4-3.5,1-5.1C410.3,1071.4,406.9,1068.9,403.2,1069.7L403.2,1069.7z"/>
			</g>
		</g>
		<g>
			<g>
				<path d="M211.5,897.6c-0.6,0-1.2,0.1-1.9,0c1.8,2.7,3.6,5.4,5.4,8c0.7-1.6,0.5-3.2,0.3-4.9c0,0.6,0.1,1.2,0.2,1.8
					c-0.1-1-0.1-1.9-0.1-2.9c0-0.9-0.2-1.8-0.6-2.6c-0.4-0.7-1-1.4-1.7-1.9c-0.7-0.5-1.6-0.7-2.4-0.8c-0.9,0-1.8,0.2-2.6,0.6
					c-1,0.4-2.3,0.8-3.2,1.4c-1.1,0.5-2,1.5-2.7,2.5c-0.3,0.6-0.6,1.1-0.9,1.7c-0.9,2.2-0.2,4.7,1,6.4c2.5,3.6,7.7,4.3,10.9,1.3
					c0.1,0,0.1-0.1,0.2-0.1c-0.4,0.3-0.9,0.6-1.3,0.9c0.6-0.2,1.1-0.4,1.8-0.7c2.1-1,3.6-3.9,3-6.3
					C216.2,899.8,214.1,897.6,211.5,897.6L211.5,897.6z"/>
			</g>
		</g>
		<g>
			<g>
				<path d="M850.3,485.7c0,1,0,1.9,0,3c0.1-0.5,0.2-1.1,0.3-1.6l0,0.1c0.2-0.5,0.5-0.9,0.7-1.5c-0.1,0.1-0.1,0.3-0.2,0.5
					c-1.3,2.4-1.5,5.1,0.1,7.4c1.5,2,4.3,3.4,6.8,2.7c2.2-0.6,4.2-2.2,5-4.4c1-3-0.3-6-2.7-7.7c-0.1-0.1-0.3-0.3-0.4-0.3
					c0.4,0.3,0.9,0.6,1.2,1.1l0-0.1c0.3,0.4,0.6,0.9,0.9,1.3c-0.4-0.9-0.8-1.8-1.2-2.7c-1-2.1-3.9-3.5-6.1-2.9
					C852.5,481.1,850.2,483.2,850.3,485.7L850.3,485.7z"/>
			</g>
		</g>
		<g>
			<g>
				<path d="M962.7,639.6c9-1.9,6.1-16-3-14.1C950.6,627.5,953.6,641.5,962.7,639.6L962.7,639.6z"/>
			</g>
		</g>
		<g>
			<g>
				<path d="M1083.1,547c7.7-1.6,5.2-13.6-2.5-11.9S1075.4,548.7,1083.1,547L1083.1,547z"/>
			</g>
		</g>
		<g>
			<g>
				<path d="M1067.7,416.6c5.4-1.1,3.6-9.5-1.8-8.3S1062.4,417.7,1067.7,416.6L1067.7,416.6z"/>
			</g>
		</g>
		<g>
			<g>
				<path d="M983.6,525c5.3-1.1,3.5-9.3-1.7-8.2C976.6,517.9,978.4,526.1,983.6,525L983.6,525z"/>
			</g>
		</g>
		<g>
			<g>
				<path d="M933,1042.3c-0.5,0.6-1,1.2-1.4,1.8c-2.3,3.7,0,8.8,4.5,9.1c1.5,0.1,2.7-0.4,3.9-1.1c1.6-1.1,3.3-1.9,4.2-3.9
					c0.2-0.5,0.5-1,0.7-1.6c-0.4,1.3-0.4,0.9-0.2,0.6c0.5-0.9,0.7-1.8,0.7-2.8c-0.2-2.7-2.5-3.9-4.8-4.3c-1.6-0.3-3-0.3-4.5,0.5
					c-0.7,0.4-1.4,0.9-2.1,1.5c-0.4,0.4-0.8,0.8-1.2,1.1c0.4-0.3,0.8-0.6,1.2-0.9c0,0,0,0-0.1,0c1-0.2,2-0.4,3-0.6l0,0
					c1.4,0.6,2.6,1.3,4,1.9l0,0c0.5,0.9,0.9,1.8,1.4,2.7l0,0c0,0.5,0.1,1,0.1,1.5l0,0c-0.1,0.5-0.2,1-0.3,1.5c0-0.1,0.1-0.2,0.2-0.2
					c-0.2,0.5-0.4,0.9-0.6,1.4c0.3-0.6,0.7-1.3,0.9-1.8c0.7-1.3,1.1-2.7,0.8-4.1c-0.3-1.4-1.2-2.8-2.4-3.5c-1.3-0.7-2.8-1.1-4.1-0.8
					C935,1040.4,934,1041.1,933,1042.3L933,1042.3z"/>
			</g>
		</g>
		<g>
			<g>
				<path d="M830.6,987.4c-1.7,0.4-3.7,0.7-5.2,1.5c-2.4,1.3-4,4.2-3.3,6.9s3,4.8,5.9,5c1.8,0.1,3.7-0.5,5.4-0.7
					c3.3-0.6,5.8-4.4,5-7.7C837.4,989.1,834.1,986.6,830.6,987.4L830.6,987.4z"/>
			</g>
		</g>
		<g>
			<g>
				<path d="M759.5,450.3c-0.5,0-1,0-1.6-0.1c-0.6-0.1-1.9-0.4,0.3,0.1c1.1,0.7,2.1,1.4,3.2,2.1c0-0.1-0.1-0.1-0.1-0.2
					c0.7,1.2,1.2,2.4,1.9,3.6C762.8,453.6,761.5,451.6,759.5,450.3c-0.7-0.3-1.3-0.5-1.9-0.8c1.5,0.5,2.7,1.4,3.5,2.7
					c0.9,1.2,1.4,3,1.3,4.1c0.1-1.1-0.2,1.3-0.2,1.3c0.1-1.8,0.7-2.7,0.3-4.6c-0.4-2.4-1.6-4.2-3.5-5.5c1,2.8,2,5.6,2.9,8.4
					c0.8-2.9,1.2-5.5,0-8.3c-0.7-1.6-2.7-2.9-4.4-2.8c-3.8,0-6.3,2.1-8.6,5c2.8-1,5.6-2,8.4-2.9c-5.9-1.5-10.9,2.9-11.2,8.8
					c-0.3,5.5,3.6,9.4,8.8,10.1c3,0.5,5.7-1.5,7.4-3.7c0.4-0.5,0.1-0.1-1,1.2c-1.2,0.6-2.3,1.2-3.5,1.8c1.6-0.2,3.2-0.9,4.7-1.5
					C768.6,460.7,766.2,450.3,759.5,450.3L759.5,450.3z"/>
			</g>
		</g>
		<g>
			<g>
				<path d="M864.2,350.5c1.7-0.4,3.4-0.7,4.9-1.6c1.1-0.7,1.9-1.4,2.5-2.7c0.6-1.1,0.8-2.4,0.4-3.7c-0.2-1-0.7-1.9-1.4-2.7
					c-1-1.2-2.5-1.6-4-1.9c-1.7-0.4-3.5,0.1-5.1,0.5c-3.2,0.6-5.7,4.2-4.8,7.4C857.6,349,860.8,351.4,864.2,350.5L864.2,350.5z"/>
			</g>
		</g>
		<g>
			<g>
				<path d="M672.8,322.2c-1.4,0.4-2.6,0.9-3.9,1.5c-4.7,2.9-0.7,10.6,4,7.6c1.4-0.9,2.3-1.5,3.3-2.9c0.9-1.2,0.5-3.1-0.8-3.8
					c-1.4-0.8-2.6-1.1-4.2-1.4c-5.5-0.8-6,7.8-0.5,8.6c1.5,0.2,2.7,0,4.2-0.2C681,331,678.8,320.4,672.8,322.2L672.8,322.2z"/>
			</g>
		</g>
		<g>
			<g>
				<path d="M423.3,950.9c7.7-1.6,5.2-13.6-2.5-11.9C413,940.6,415.5,952.6,423.3,950.9L423.3,950.9z"/>
			</g>
		</g>
		<g>
			<g>
				<path d="M315,906.6c-0.2,0-0.4,0.1-0.6,0c1.4,1.2,2.8,2.4,4.1,3.6c0-0.8-0.1-1.5-0.2-2.3c0,0.5,0.1,1,0.1,1.5c0-0.5,0-1,0-1.5
					c0-0.3,0-0.6,0-0.9c0-0.9-0.3-1.7-0.5-2.5c-0.3-1-1.7-1.9-2.8-1.8c-1,0.1-1.8,0.2-2.8,0.6c-0.4,0.2-0.6,0.3-1,0.5
					c-0.9,0.4-1.6,1-2.4,1.5c-1.2,0.9-1.7,2.5-1.9,4c-0.2,1.9,0.8,3.6,2,4.8c1.2,1.1,2.6,1.5,4.2,1.4c1.7-0.2,3.7-1,4.5-2.6
					c0.2-0.2,0.2-0.5,0.3-0.8c-0.7,0.5-1.4,1-2.2,1.5c0.2,0,0.4-0.1,0.6-0.2c1.7-0.6,3.1-2.1,2.6-4
					C318.5,907.3,316.9,906.4,315,906.6L315,906.6z"/>
			</g>
		</g>
		<g>
			<g>
				<path d="M281.6,536.3c0.7-1.9,1.8-4,1.8-6.1c-0.1-2.4-2.2-3.8-4.5-2.9c-2,0.8-3.3,2.6-4.9,4.1c-2.1,2.1-2,5.7,0.6,7.3
					C277.1,540.5,280.5,539.2,281.6,536.3L281.6,536.3z"/>
			</g>
		</g>
		<g>
			<g>
				<path d="M1088.8,593.6c0,0.1,0.1,0.3,0.1,0.4c-2.7-2.3-6.8,0.8-6.5,3.8c0.3,3.6,4.4,4.9,7,2.8c0.7-0.6,1.3-1.1,2-1.7
					c1.6-1.5,1-4.2-1-4.9c-0.9-0.2-1.6-0.5-2.5-0.7c-3.2-0.8-6.5,2-5.3,5.4c1,2.9,6,4.1,7.5,0.9c0,0.1,0.1,0.3,0.1,0.4
					C1094.6,599.1,1093.3,593.1,1088.8,593.6L1088.8,593.6z"/>
			</g>
		</g>
		<g>
			<g>
				<path d="M1265.4,532.6c7.2-1.5,4.8-12.8-2.4-11.2C1255.8,522.9,1258.1,534.1,1265.4,532.6L1265.4,532.6z"/>
			</g>
		</g>
		<g>
			<g>
				<path d="M1209,422.1c-2.1,0.7-4.1,1.6-5.3,3.6c-1.1,1.7-1.3,3.8-0.9,5.7c0.2,1.1,0.8,2.2,1.6,3c0.4,0.5,0.9,0.8,1.5,1.1
					c0.7,0.3,0.8,0.3,0.3,0.1c-0.4-0.4,0.3,0.3,0.5,0.4c1.8,1.2,3.5,1.7,5.6,1.4c1.2-0.2,2.1-1.6,1.8-2.7c-0.2-1-0.5-1.7-1-2.6
					c-0.2-0.3-0.3-0.5-0.4-0.9c0.2,0.6-0.1-0.5-0.1-0.6c0,0.8-0.1,1.6-0.1,2.4c0.3-1,0.3-1.8,0.2-2.8c-0.2-1.2,0-0.3-0.1,0.3
					c-0.1,0.8-0.7,1.2-1.2,1.7c-0.3,0.3-0.3,0.3,0,0c-0.8,0.3-0.8,0.3-0.2,0.1c2.8-0.5,4.8-3.6,4.1-6.3
					C1214.5,423.6,1211.8,421.2,1209,422.1L1209,422.1z"/>
			</g>
		</g>
		<g>
			<g>
				<path d="M1293.3,640.3c-0.6-2-1-4.2-3-5.5c0.6,1.2,1.2,2.3,1.8,3.5c0-0.4,0.2-0.5-0.2,0.6c0.1-0.4-0.5,0.9-0.3,0.6
					c0.2-0.4-0.8,0.8-0.3,0.4c0.1-0.1,0.2-0.1,0.3-0.3c0.4-0.4-0.2,0.1-0.3,0.2c0.2,0,0.3-0.3,0.5-0.3c0.5-0.3,1-0.7,1.4-1.1
					c1.2-1.4,0.8-3.2-0.9-4c-2.5-1.2-5.9-0.6-7.5,1.7c0.5-0.4,0.9-0.9,1.5-1.3c-1.6,0.5-2.8,2.7-2.8,4.5c0,1,0.1,2.1,0.3,3.2
					c0.2,1.2,1.1,2.4,2.1,3c0.9,0.6,2.5,1,3.6,0.7C1291.8,645.4,1294,642.9,1293.3,640.3L1293.3,640.3z"/>
			</g>
		</g>
		<g>
			<g>
				<path d="M1368.1,609.5c-0.2,0.8-0.5,1.6-0.6,2.4c2.5,0.9,5.1,1.7,7.6,2.6c0.2-0.9,0.5-1.8,0.5-2.7c-0.1-2.6-2.3-4-4.7-3.1
					c-0.9,0.3-1.5,0.9-2.2,1.5c-4,3.3,1.4,9.2,5.4,5.9c0.6-0.5,1.3-1.1,1.9-1.5C1382.1,609.5,1370.3,601.8,1368.1,609.5
					L1368.1,609.5z"/>
			</g>
		</g>
		<g>
			<g>
				<path d="M1335.2,376.2c5.4-1.1,3.6-9.5-1.8-8.3C1328,369,1329.8,377.3,1335.2,376.2L1335.2,376.2z"/>
			</g>
		</g>
		<g>
			<g>
				<path d="M1192.5,300.7c-1.3-0.7-2.6-1.7-4-2.2c-1.7-0.6-3.7-0.5-5.1,0.8c-1.2,1.2-1.7,2.8-1.2,4.4c0.4,1.5,1.1,3.1,2.6,4
					c1.4,0.8,3,0.5,4-0.9c0.7-1,0.8-2,0.9-3.1c0-0.1,0.1-0.2,0-0.4c0-0.5-0.2,1-0.1,0.5c0.1-0.4-0.5,0.9-0.3,0.7
					c-0.5,0.9-1.3,1.4-2.4,1.4c-0.7,0.2-1.3,0.3-1.8,0c0.4,0.1-1-0.6-0.7-0.3c0.1,0.1,0.2,0.2,0.2,0.2c0.2,0.2,0.5,0.3,0.7,0.6
					c0.8,0.5,1.7,1.2,2.4,1.7c1.8,1.4,4.9,0.7,6.1-1.3C1194.9,304.8,1194.6,302,1192.5,300.7L1192.5,300.7z"/>
			</g>
		</g>
		<g>
			<g>
				<path d="M914.9,1368.6c0.3-0.3,0.6-0.5,0.9-0.8c0.3-0.3,0.5-0.5,0.8-0.8c1.2-1.2,1.9-2.7,1.5-4.3c-0.4-1.7-1.6-2.7-3.2-3.3
					c-0.3-0.1-0.7-0.3-1-0.4c-0.3-0.1-0.8-0.2-1.1-0.4c-4.2-1.6-8.6,2.5-7.6,6.8C906.1,1369.8,911.7,1371.8,914.9,1368.6
					L914.9,1368.6z"/>
			</g>
		</g>
		<g>
			<g>
				<path d="M397.3,1214.8c-0.9,1.4-1.6,2.9-2.4,4.4c3.1,2,6.3,4.1,9.4,6.1c1.3-2.5,3.1-5,2.5-8c-0.5-2.4-3.1-4.2-5.6-3.6
					c-2.9,0.6-4.5,3.3-6.3,5.5c-4.4,5.6,4.9,11.7,9.4,6.1c1-1.3,2.1-2.6,3-4C411.7,1214.9,401.4,1208.2,397.3,1214.8L397.3,1214.8z"
					/>
			</g>
		</g>
		<g>
			<g>
				<path d="M788.3,1445.5c0.3,1,0.6,2.1,1,3.1c0.9,1.8,2.5,2.7,4.5,2.9c-0.9-0.4-1.8-0.8-2.7-1.3c0.3,0.4,0.7,1,1.2,1.2
					c-0.6-0.8-1-1.5-1.6-2.3l0,0c0.4,1.9,2.4,3.3,4.3,2.8c1.9-0.5,3.2-2.3,2.8-4.3l0,0c-0.2,1-0.3,1.8-0.5,2.8
					c0.3-0.4,0.5-1,0.6-1.6c-0.7,0.8-1.3,1.5-2,2.3c1.6-1,2.7-2.6,2.9-4.5c0.1-1-0.3-2.2-0.4-3.2c-0.2-1.3-1.3-2.6-2.2-3.2
					c-1.1-0.7-2.7-1.1-3.8-0.7C789.8,1440.1,787.5,1442.9,788.3,1445.5L788.3,1445.5z"/>
			</g>
		</g>
		<g>
			<g>
				<path d="M943.6,1469.7c-1,1.6-2.1,3.3-2.8,5.2c-0.8,2,0.2,4.7,2.1,5.8c1.9,1,4.5,1.2,6.1-0.5c1.3-1.4,2.4-3.1,3.6-4.7
					c1.7-2.3,0.9-5.9-1.6-7.3C948.6,1466.8,945.1,1467.2,943.6,1469.7L943.6,1469.7z"/>
			</g>
		</g>
		<g>
			<g>
				<path d="M696.1,1526.8c-1,0.2-2.2,0.4-3,0.8c-1.2,0.7-2.7,2-3,3.4c1.5-1,3.1-2.1,4.6-3.1c-0.2,0,1.2,0.3,1.4,0.4
					c0.6,0.2,0.9,0.5,1.2,1.1c0.6,0.9,0.9,1.1,0.7,0.8c0.2,0.4,0.3,0.8,0.4,1.1c-0.1-0.6,0.1,1.3,0.1,0.9c0.1-0.2,0.1-0.6-0.1,0.2
					c-0.2,1,0.1-0.2,0.2-0.6c0.1-0.4,0.2-0.9,0.3-1.3c0.3-1.1,0.1-1.9-0.2-2.9c-0.4-1.4-1.6-2.2-3.1-2c-0.5,0.1-1,0.1-1.5,0.3
					c-0.8,0.3-1.4,0.8-2,1.3c-0.7,0.7-1.3,1.3-1.8,1.9c-1.6,2.2-1.2,5.8,1.3,7.1c-0.7-1-1.3-2-2.1-2.9c0.2,1.9,2.1,3.5,3.9,4.1
					c1.5,0.4,3,0.2,4.5-0.1c2.8-0.5,4.9-3.7,4.2-6.4C701.9,1528.2,699.2,1526,696.1,1526.8L696.1,1526.8z"/>
			</g>
		</g>
		<g>
			<g>
				<path d="M612.1,1492.9c2.2-0.5,4.4-2.4,3.9-4.9c-0.5-1.9-1.9-2.9-3.5-3.6c-1.7-0.8-3.6-1.6-5.5-1.5c-1.4,0-3,0.8-3.4,2.4
					c-0.4,1.4,0.1,3.2,1.3,3.9c0.6,0.4,1.3,0.7,2,1c0.8,0.2,1.4,0.4,2.2,0.7c0.3,0.1,0.7,0.3,1,0.4c0.6,0.2-0.9-0.5-0.3-0.1
					c0.1,0.1,0.2,0.2,0.4,0.2c0.5,0.3-0.7-0.7-0.4-0.3c-0.2-0.3-0.5-0.7-0.6-1.1c-0.2-0.4-0.3-0.9-0.2-1.3c0.2-0.6,0.4-1.1,0.6-1.7
					c0.3-0.5,0.8-0.8,1.2-1.1c-0.1,0-0.1,0-0.2,0c-0.4,0.2,1-0.3,0.6-0.2c-0.1,0-0.2,0-0.3,0.1c-1.9,0.4-3.3,2.3-2.8,4.3
					C608.2,1492,610,1493.4,612.1,1492.9L612.1,1492.9z"/>
			</g>
		</g>
		<g>
			<g>
				<path d="M527.8,1099.3c-0.7,1.2-1.4,2.4-2,3.6c-0.4,1-0.8,1.9-0.8,3.1c0,0.7,0,1.4,0.4,2.1c0.1-1.1,0.1-2.3,0.2-3.4l0,0
					c-1,1.5-0.6,3.8,1,4.7c1.6,0.9,3.7,0.5,4.7-1l0,0c-1,0.5-2,1-3,1.6c0.7,0.1,1.4-0.2,2.1-0.4c1.1-0.3,1.7-1.1,2.5-1.9
					c1-1,1.7-2.2,2.5-3.4c1.3-1.9,0.7-5-1.3-6.2C532,1096.8,529.1,1097.1,527.8,1099.3L527.8,1099.3z"/>
			</g>
		</g>
		<g>
			<g>
				<path d="M929.6,1135.3c-0.6,1-1.3,2-1.9,3.2c-0.9,1.7-1.2,3.3,0.1,5.1c0.7,1,2.1,1.2,3.2,1c-0.7,0-0.9,0.1-0.6,0
					c0.3,0,0.6,0,0.8-0.1c0.1,0,0.2,0,0.3-0.1c0.4-0.1,0.9-0.3,1.2-0.5c1-0.5,1.9-1.1,2.2-2.2c0.5-1.6-1.1-2.5-2.5-2.7
					c-0.1,0-0.2-0.1-0.2-0.1c-0.3,0-0.2-0.1,0.2,0.1c-0.1-0.1-0.2-0.1-0.3,0s-0.2-0.1-0.3,0c-0.2-0.2-0.1-0.1,0.5,0.2
					c-0.2-0.2-0.1,0,0.5,0.4c0.1,1.2,0.2,2.5,0.3,3.7c0.4-0.9,0.3-0.8,0.5-1.8c0.1-0.3-0.2,1.1-0.1,0.5c0.1-0.1,0.3-0.7,0,0
					s0,0,0.1-0.1c0.5-0.9,1.2-1.9,1.9-2.7c1-1.5,0.6-3.8-1-4.8C932.8,1133.4,930.6,1133.6,929.6,1135.3L929.6,1135.3z"/>
			</g>
		</g>
		<g>
			<g>
				<path d="M1215.6,1175.9c1,3.7,3.5,6.2,7.4,6.8c2.8,0.4,7-0.1,9.1-2c2.6-2.5,1.6-6.7-1.7-7.9c-1.3-0.5-2.6-0.4-4-0.1
					c-0.4,0.1-0.7,0.1-1.1,0.1c-1.3,0.2,0.9,0.1-0.3,0c-0.2,0-1.2,0-0.4,0c0.9,0-0.4,0-0.3-0.1c0.1-0.4,1.5,1.2,1.4,1.2
					c-0.5-0.9,0.2,1.1,0-0.2c-0.7-2.6-3.3-4.6-6-3.9C1217.1,1170.5,1214.8,1173.1,1215.6,1175.9L1215.6,1175.9z"/>
			</g>
		</g>
		<g>
			<g>
				<path d="M1093.6,1352.5c-0.5,0.1-1,0.3-1.6,0.3c1,0.1,2,0.1,3,0.2l-0.1-0.1c1.1,2.2,2.2,4.3,3.3,6.5c0.9-2.1,0.3-5.4-1.5-6.9
					c-1.3-1.3-3.7-1.8-5.2-0.2c-0.1,0.1-0.2,0.1-0.3,0.3c-0.3,0.3-1.3,1.5-0.6,0.7c0.6-0.6-0.1,0-0.3,0.2c0.3-0.3,0.7-0.5,1.1-0.7
					c-0.6,0.4-1.3,0.8-1.8,1.3c0.3-0.3,0.7-0.5,1.1-0.7c-0.1,0-0.2,0-0.2,0c-1.1,0.4-2,1.6-2.5,2.6c-0.5,1.1-0.8,2.4-0.5,3.6
					c0.2,1,0.7,1.9,1.4,2.7c0.8,1,2.6,1.9,3.9,1.8c1,0,2-0.1,3.1-0.4c3-0.5,5.2-3.9,4.4-6.8
					C1099.6,1354,1096.7,1351.8,1093.6,1352.5L1093.6,1352.5z"/>
			</g>
		</g>
		<g>
			<g>
				<path d="M1214.8,1108.6c-1.3,0.3-2.5,0.6-3.7,0.9c-2.7,0.7-4.9,3.5-4.2,6.4c0.7,2.9,3.4,4.7,6.4,4.2c1.3-0.3,2.6-0.4,3.7-0.7
					c2.9-0.5,4.9-3.7,4.2-6.5C1220.6,1110,1217.8,1108,1214.8,1108.6L1214.8,1108.6z"/>
			</g>
		</g>
		<g>
			<g>
				<path d="M1038.1,1110.8c0.3-0.1,0.2-0.6-0.1-0.5C1037.8,1110.5,1037.8,1110.8,1038.1,1110.8L1038.1,1110.8z"/>
			</g>
		</g>
		<g>
			<g>
				<path d="M1338.8,1013.8c0.2,0,0.1-0.3-0.1-0.3C1338.6,1013.6,1338.6,1013.9,1338.8,1013.8L1338.8,1013.8z"/>
			</g>
		</g>
		<g>
			<g>
				<path d="M1298.2,1306.9c0.3-0.1,0.2-0.6-0.1-0.5C1297.8,1306.5,1297.9,1307,1298.2,1306.9L1298.2,1306.9z"/>
			</g>
		</g>
		<g>
			<g>
				<path d="M1081.1,1196.4c0.3-0.1,0.2-0.6-0.1-0.5C1080.7,1196.1,1080.8,1196.5,1081.1,1196.4L1081.1,1196.4z"/>
			</g>
		</g>
		<g>
			<g>
				<path d="M1377.6,963.5c-1.2,0.2-2.4,0.3-3.6,0.6c-11.5,2.1-7.7,19.9,3.8,17.7c1.2-0.2,2.4-0.4,3.5-0.7
					c11.6-2.2,7.7-20.6-3.8-17.9c-1.2,0.2-2.3,0.6-3.5,0.8c-11.3,2.7-7.6,20.4,3.8,17.7c1.2-0.2,2.3-0.6,3.5-0.9
					C1392.1,977.5,1388.9,962.1,1377.6,963.5L1377.6,963.5z"/>
			</g>
		</g>
		<g>
			<g>
				<path d="M1112,1104.3c0.5-0.8,1-1.5,1.6-2.4c1.4-1.8,0.7-5.2-1.3-6.3c-0.8-0.4-1.6-1-2.5-1.5c-2.4-1.6-5.7-1.4-8.1,0.2
					c-2.3,1.6-3.7,4.7-3,7.5c0.6,2.4,2.4,4.6,4.8,5.4C1106.6,1108.2,1110.3,1107,1112,1104.3L1112,1104.3z"/>
			</g>
		</g>
		<g>
			<g>
				<path d="M1142.8,1257.2c-0.2-0.5-0.3-1.1-0.5-1.5c-0.5-1.2-0.7-2.4-1.5-3.5c-0.7-1-1.3-1.8-2.3-2.4c-3.2-1.9-7-1.1-9.1,1.9
					c-0.5,0.7-0.8,1.5-1.1,2.3c-0.2,0.6-0.3,1.3-0.3,1.9c-0.1,0.6,0.1,1.4,0.1,2c0,0.2,0,0.5,0,0.7c0,0.5,0.1,1.1,0.1,1.6
					c0.2,1.7,1.8,3.7,3.2,4.6c1.5,1,3.8,1.4,5.5,1.1c1.8-0.5,3.7-1.5,4.6-3.2C1142.6,1261.3,1143.4,1259,1142.8,1257.2
					L1142.8,1257.2z"/>
			</g>
		</g>
		<g>
			<g>
				<path d="M503.1,354.7c-8.8,2.3-16.7,7.7-24.2,12.8c-8.3,5.7-17.7,13.2-27.4,15.9c-6.4,1.8-4.4,11.4,2.1,10.1
					c20-3.9,40.2-3.6,60.2,0.1c7,1.3,7.6-8.9,2.2-11.4c-18.3-8.5-36.5-17-54.8-25.5c-5.1-2.4-8.9,4.1-7.1,8.4
					c8.4,19.2,19.9,36.7,28.1,55.9c2.4,5.6,11.2,3.3,11.5-2.5c0.5-11.4,2.7-22.8,4.7-33.9c1-5,2.1-10,2.8-15.1
					c0.5-3.4,0.6-6.8-1.8-9.4c0.3,1.4,0.6,2.8,0.9,4.2c0,0,0-0.1,0.1-0.1c1.1-5.3-6.9-8-8-2.7c0,0,0,0.1-0.1,0.1
					c0.6-0.9,1.4-1.6,2-2.5c-3.3,1.5-4.4,4.8-5.2,8.1c-1.3,5.3-2.2,10.8-3.1,16.1c-2,11.4-4.1,23-4.5,34.5c3.8-0.8,7.6-1.6,11.5-2.5
					c-8.4-19.1-20.1-36.6-28.5-55.7c-2.4,2.8-4.7,5.6-7.1,8.4c18.2,8.4,36.6,16.9,54.9,25.3c0.7-3.8,1.5-7.6,2.2-11.4
					c-20.9-3.2-42.3-2.9-63.1,1.5c1.2,3.2,2.3,6.5,3.5,9.6c9-5.6,18.2-10.6,26.9-16.8c7.9-5.7,15.8-11.3,23.3-17.4
					C507.1,357.3,505.4,354.1,503.1,354.7L503.1,354.7z"/>
			</g>
		</g>
		<g>
			<g>
				<path d="M1241.2,116.1c-19.8-2.9-39.2,8.7-59.1,6.3c-5.7-0.7-7.7,8.9-2,10c20.1,4.2,38.2,12.3,55.5,23.4
					c5.6,3.5,12.1-3.9,7.5-8.9c-13.5-14.9-27-29.9-40.5-44.9c-3.2-3.6-10.4-1.6-10.3,3.6c0.3,20.9,4,41.6,4.2,62.4
					c0,7.3,8.9,8.4,11.8,2.3c4.7-9.9,11.2-19.3,17.3-28.4c2.7-4.2,5.6-8.1,8.2-12.4c1.8-2.8,3.7-6,2.6-9.4c-0.2,1.1-0.4,2.1-0.6,3.2
					l0.1-0.1c3.1-4.5-4-9.2-7.1-4.6l-0.1,0.1c1.3-0.7,2.6-1.3,3.8-1.9c-8.2,0.2-13.7,12.8-17.7,18.9c-6.5,10-13,20.1-18.1,30.9
					c4,0.8,7.9,1.5,11.8,2.3c-0.3-20.9-4.2-41.5-4.5-62.4c-3.4,1.2-6.9,2.4-10.3,3.6c13.6,14.9,27.1,29.8,40.6,44.7
					c2.5-3,5-5.9,7.5-8.9c-18.2-11.6-38.7-19.6-59.9-23.6c0.2,3.4,0.5,6.8,0.7,10.2c10.4-1.7,20.6-2.6,30.9-4.9
					c9.3-2.1,18.6-4.3,27.7-6.8C1244.3,120.1,1243.9,116.5,1241.2,116.1L1241.2,116.1z"/>
			</g>
		</g>
		<g>
			<g>
				<path d="M1035.9,1145.5c-14.5,0.7-26.5,11.4-40.9,12.5c-4.1,0.4-3.5,7.2,0.5,7.3c14.5,0.2,28.5,3.2,41.9,8.9
					c4.6,1.9,7.2-4.8,3.5-7.4c-11.4-8.6-22.9-17.1-34.3-25.7c-3-2.2-7.1,1-6.4,4.4c3,14.5,8.4,28.4,11.4,42.9c0.9,4,7.2,4.7,8.4,0.5
					c2-7.8,5.2-15.4,8.3-22.8c1.3-3.4,2.8-6.6,4.1-10c0.5-1.1,1-2.4,1.2-3.6c0-0.8-0.2-1.2-0.3-1.9c-0.1-1,0.1-0.1-0.2,0.8
					c1.6-3.6-4.2-5.4-5.7-1.9c0.8-1.7,1.4-2.1-0.3-0.6c-1.2,1.1-1.7,2.2-2.4,3.6c-1.6,3.4-3,6.9-4.4,10.4
					c-3.1,7.7-6.3,15.5-8.3,23.4c2.8,0.1,5.6,0.3,8.4,0.5c-3.1-14.5-8.5-28.4-11.6-42.8c-2.1,1.5-4.3,3-6.4,4.4
					c11.4,8.5,22.9,17.1,34.4,25.7c1.2-2.5,2.4-4.9,3.5-7.4c-14.3-5-28.9-8.3-44-8.2c0.5,2.3,1,4.6,1.5,6.9
					c13.4-4.9,26.5-9.5,39.1-16.1C1038,1148,1037.6,1145.4,1035.9,1145.5L1035.9,1145.5z"/>
			</g>
		</g>
		<g>
			<g>
				<path d="M176.2,768.5c-14.5,0.7-26.5,11.4-40.9,12.5c-4.1,0.4-3.5,7.2,0.5,7.3c14.5,0.2,28.5,3.2,41.8,8.8
					c4.6,1.9,7.2-4.8,3.5-7.4c-11.4-8.6-22.9-17.1-34.3-25.7c-3-2.2-7.1,1-6.4,4.4c3,14.5,8.4,28.4,11.4,42.9c0.9,4,7.2,4.7,8.4,0.5
					c2-7.8,5.2-15.4,8.3-22.8c1.3-3.4,2.8-6.6,4.1-10c0.5-1.1,1-2.4,1.2-3.6c0-0.8-0.2-1.2-0.3-1.9c-0.1-1,0.1-0.1-0.2,0.8
					c1.6-3.6-4.2-5.4-5.7-1.9c0.8-1.7,1.4-2.1-0.3-0.6c-1.2,1.1-1.7,2.2-2.4,3.6c-1.6,3.4-3,6.9-4.4,10.4
					c-3.1,7.7-6.3,15.5-8.3,23.4c2.8,0.1,5.6,0.3,8.4,0.5c-3.1-14.5-8.5-28.4-11.6-42.8c-2.1,1.5-4.3,3-6.4,4.4
					c11.4,8.5,22.9,17.1,34.4,25.7c1.2-2.5,2.4-4.9,3.5-7.4c-14.3-5-28.9-8.3-44-8.2c0.5,2.3,1,4.6,1.5,6.9
					c13.4-4.9,26.5-9.5,39.1-16.1C178.4,770.9,178,768.3,176.2,768.5L176.2,768.5z"/>
			</g>
		</g>
		<g>
			<g>
				<path d="M266.2,1117.9c-5.9,0.4-10.9,4.4-16.8,5.1c-1.7,0.3-1.5,3,0.2,3c6,0.2,11.9,1.2,17.3,3.7c1.9,0.8,3-2,1.5-3.1
					c-4.8-3.6-9.5-7.1-14.2-10.7c-1.2-1-3,0.4-2.7,1.8c1.3,6.1,3.4,11.8,4.7,17.8c0.4,1.7,3,1.9,3.4,0.2c1-3.5,2.4-7,3.8-10.3
					c0.6-1.2,1.3-2.6,1.6-3.9c0.1-0.5,0.2-0.9,0.2-1.4c0-0.2-0.1-0.4-0.1-0.5c-0.2-0.6-0.2-0.5-0.1,0.4c0.6-1.5-1.7-2.3-2.4-0.8
					c0.4-0.7,0.8-1.3,0-0.4c-0.3,0.4-0.6,0.6-0.9,1c-0.8,1.1-1.2,2.6-1.7,3.9c-1.4,3.5-2.9,7.1-3.9,10.7c1.1,0.1,2.3,0.1,3.4,0.2
					c-1.3-6.1-3.5-11.8-4.8-17.8c-0.9,0.6-1.8,1.2-2.7,1.8c4.8,3.6,9.5,7.1,14.2,10.7c0.5-1,1-2.1,1.5-3.1c-6-2-11.9-3.4-18.3-3.5
					c0.1,1,0.1,2,0.2,3c5.7-1.8,11.3-4.1,16.6-6.8C267.5,1118.8,266.9,1117.9,266.2,1117.9L266.2,1117.9z"/>
			</g>
		</g>
		<g>
			<g>
				<path d="M1360.4,872c-12.3,0.7-22.6,9.6-34.8,10.6c-3.5,0.3-3,6.1,0.5,6.1c12.2,0.2,24.3,2.7,35.6,7.6c3.8,1.6,6.1-4.1,3-6.4
					c-9.7-7.3-19.5-14.6-29.2-21.9c-2.6-1.9-6,0.9-5.4,3.7c2.5,12.3,7.1,24.2,9.6,36.5c0.7,3.4,6.2,4,7.1,0.4
					c1.9-7,4.7-13.9,7.5-20.5c1.2-2.7,2.4-5.4,3.4-8.2c0.4-1.3,0.6-2.2,0.5-3.6c0-0.2-0.1-0.4-0.1-0.7c-0.5-1.7,0.3-0.1-0.2,1
					c1.3-3-3.5-4.7-4.8-1.6l0,0c0.6-0.5,1.3-1.1,1.9-1.7c-4.5,1-6,8.1-7.5,11.8c-2.8,6.9-5.7,13.9-7.6,21.1c2.4,0.1,4.7,0.2,7.1,0.4
					c-2.6-12.3-7.3-24.1-9.9-36.4c-1.8,1.2-3.7,2.5-5.4,3.7c9.7,7.2,19.6,14.6,29.3,21.9c1-2.1,2.1-4.2,3-6.4
					c-12.2-4.3-24.5-7.1-37.5-7.1c0.4,2,0.8,3.9,1.2,5.9c11.4-4.1,22.5-8.1,33.3-13.7C1362.2,874,1361.8,871.9,1360.4,872
					L1360.4,872z"/>
			</g>
		</g>
		<g>
			<g>
				<path d="M773.8,333c-12.3,0.7-22.6,9.6-34.8,10.6c-3.5,0.3-3,6.1,0.5,6.1c12.2,0.2,24.3,2.7,35.6,7.6c3.8,1.6,6.1-4.1,3-6.4
					c-9.7-7.3-19.5-14.6-29.2-21.9c-2.6-1.9-6,0.9-5.4,3.7c2.5,12.3,7.1,24.2,9.6,36.5c0.7,3.4,6.2,4,7.1,0.4
					c1.9-7,4.7-13.8,7.6-20.5c1.2-2.7,2.4-5.4,3.4-8.2c0.4-1.3,0.6-2.2,0.5-3.6c0-0.2-0.1-0.5-0.1-0.7c-0.5-1.7,0.3-0.1-0.2,1
					c1.3-3-3.5-4.7-4.8-1.6l0,0c0.6-0.5,1.3-1.1,1.9-1.7c-4.5,1-6,8.1-7.5,11.8c-2.8,6.9-5.7,13.9-7.6,21.1c2.4,0.1,4.7,0.2,7.1,0.4
					c-2.6-12.3-7.3-24.1-9.9-36.4c-1.8,1.2-3.7,2.5-5.4,3.7c9.7,7.2,19.5,14.6,29.3,21.9c1-2.1,2.1-4.2,3-6.4
					c-12.3-4.2-24.5-7.1-37.5-7.1c0.4,2,0.8,3.9,1.2,5.9c11.4-4.1,22.5-8.1,33.3-13.6C775.6,335.2,775.4,333,773.8,333L773.8,333z"
					/>
			</g>
		</g>
		<g>
			<g>
				<path d="M1414.1,507.5c-12.3,0.7-22.6,9.6-34.9,10.6c-3.5,0.3-3,6.1,0.5,6.1c12.3,0.1,24.3,2.7,35.6,7.6c3.8,1.6,6.1-4.1,3-6.4
					c-9.7-7.3-19.5-14.6-29.2-21.9c-2.6-1.9-6,0.9-5.4,3.7c2.5,12.3,7.1,24.2,9.7,36.5c0.7,3.4,6.2,4,7.1,0.4
					c1.9-7,4.7-13.8,7.5-20.5c1.2-2.7,2.4-5.4,3.4-8.2c0.4-1.3,0.6-2.2,0.5-3.6c0-0.2-0.1-0.5-0.1-0.7c-0.5-1.7,0.3-0.1-0.2,1
					c1.3-3-3.5-4.7-4.8-1.6l0,0c0.6-0.5,1.3-1.1,1.9-1.7c-4.5,1.1-6,8.1-7.5,11.8c-2.8,6.9-5.7,13.9-7.6,21.1
					c2.4,0.1,4.7,0.2,7.1,0.4c-2.6-12.3-7.3-24.1-9.9-36.4c-1.8,1.2-3.7,2.5-5.4,3.7c9.7,7.2,19.6,14.6,29.3,21.9
					c1-2.1,2.1-4.2,3-6.4c-12.2-4.3-24.5-7.1-37.5-7.1c0.4,2,0.8,3.9,1.2,5.9c11.4-4.1,22.5-8.1,33.3-13.6
					C1415.9,509.6,1415.6,507.4,1414.1,507.5L1414.1,507.5z"/>
			</g>
		</g>
		<g>
			<g>
				<path d="M519,773.1c-12.3,0.7-22.6,9.6-34.8,10.6c-3.5,0.3-3,6.1,0.5,6.1c12.2,0.3,24.3,2.7,35.6,7.6c3.8,1.6,6.1-4.1,3-6.4
					c-9.7-7.3-19.5-14.6-29.2-21.9c-2.6-1.9-6,0.9-5.4,3.7c2.5,12.3,7.1,24.2,9.7,36.5c0.7,3.4,6.2,4,7.1,0.4
					c1.9-7,4.7-13.9,7.5-20.5c1.2-2.7,2.4-5.4,3.4-8.2c0.4-1.3,0.6-2.2,0.5-3.6c0-0.2-0.1-0.5-0.1-0.7c-0.5-1.7,0.3-0.1-0.2,1
					c1.3-3-3.5-4.7-4.8-1.6l0,0c0.6-0.5,1.3-1.1,1.9-1.7c-4.5,1.1-6,8.1-7.5,11.8c-2.8,6.9-5.7,13.9-7.6,21.1
					c2.4,0.1,4.7,0.2,7.1,0.4c-2.6-12.3-7.3-24.1-9.9-36.4c-1.8,1.2-3.7,2.5-5.4,3.7c9.7,7.2,19.5,14.6,29.3,21.9
					c1-2.1,2.1-4.2,3-6.4c-12.3-4.2-24.5-7.1-37.5-7.1c0.4,2,0.8,3.9,1.2,5.9c11.4-4.1,22.5-8.1,33.3-13.6
					C520.8,775.2,520.4,773,519,773.1L519,773.1z"/>
			</g>
		</g>
		<g>
			<g>
				<path d="M268.5,348.1c-12.3,0.7-22.6,9.6-34.8,10.6c-3.5,0.3-3,6.1,0.5,6.1c12.3,0.1,24.3,2.7,35.6,7.6c3.8,1.6,6.1-4.1,3-6.4
					c-9.7-7.3-19.5-14.6-29.2-21.9c-2.6-1.9-6,0.9-5.4,3.7c2.5,12.3,7.1,24.2,9.7,36.5c0.7,3.4,6.2,4,7.1,0.4
					c1.9-7,4.7-13.9,7.5-20.5c1.2-2.7,2.4-5.4,3.4-8.2c0.4-1.3,0.6-2.2,0.5-3.6c0-0.2-0.1-0.5-0.1-0.7c-0.5-1.7,0.3-0.1-0.2,1
					c1.3-3-3.5-4.7-4.8-1.6l0,0c0.6-0.5,1.3-1.1,1.9-1.7c-4.5,1.1-6,8.1-7.5,11.8c-2.8,6.9-5.7,13.9-7.6,21.1
					c2.4,0.1,4.7,0.2,7.1,0.4c-2.6-12.3-7.3-24.1-9.9-36.4c-1.8,1.2-3.7,2.5-5.4,3.7c9.7,7.2,19.6,14.6,29.3,21.9
					c1-2.1,2.1-4.2,3-6.4c-12.2-4.3-24.5-7.1-37.5-7.1c0.4,2,0.8,3.9,1.2,5.9c11.4-4.1,22.5-8.1,33.3-13.6
					C270.3,350.3,270,348.1,268.5,348.1L268.5,348.1z"/>
			</g>
		</g>
		<g>
			<g>
				<path d="M363.9,1467.3c-10.9,0.6-20.1,8.3-30.9,9.4c-3.1,0.4-2.6,5.4,0.4,5.4c10.9,0.2,21.6,2.4,31.6,6.7
					c3.5,1.5,5.4-3.6,2.7-5.6c-8.6-6.4-17.3-13-25.9-19.4c-2.3-1.7-5.4,0.7-4.8,3.3c2.3,11,6.3,21.5,8.5,32.4c0.6,3,5.5,3.5,6.3,0.3
					c1.7-6.3,4.2-12.3,6.7-18.4c1-2.4,2.2-4.8,3-7.3c0.4-1.1,0.4-1.9,0.4-3c0-0.2-0.1-0.4-0.1-0.6c-0.3-1.7,0.1,0.5-0.1,0.8
					c1.2-2.7-3.1-4.1-4.3-1.4l0,0c0.6-0.5,1.1-1.1,1.7-1.5c-3.9,0.8-5.3,7.2-6.6,10.3c-2.6,6.2-5.1,12.4-6.8,18.9
					c2.1,0.1,4.2,0.2,6.3,0.3c-2.3-11-6.4-21.4-8.7-32.4c-1.6,1.1-3.2,2.2-4.8,3.3c8.6,6.4,17.3,12.9,26,19.4
					c0.9-1.8,1.8-3.7,2.7-5.6c-10.8-3.7-21.7-6.2-33.2-6.2c0.2,1.8,0.3,3.6,0.4,5.4c10.4-3.5,20.5-7.3,30.3-12.4
					C365.5,1469.2,365.2,1467.3,363.9,1467.3L363.9,1467.3z"/>
			</g>
		</g>
		<g>
			<g>
				<path d="M1393.1,1341.2c-10.9,0.6-20.1,8.3-30.9,9.4c-3.1,0.4-2.6,5.4,0.4,5.4c10.9,0.1,21.6,2.4,31.6,6.7
					c3.5,1.5,5.4-3.6,2.7-5.6c-8.6-6.4-17.3-13-25.9-19.4c-2.3-1.7-5.4,0.7-4.8,3.3c2.3,11,6.3,21.5,8.5,32.4c0.6,3,5.5,3.5,6.3,0.3
					c1.7-6.3,4.2-12.3,6.7-18.4c1-2.4,2.2-4.8,3-7.3c0.4-1.1,0.4-1.9,0.4-3c0-0.2-0.1-0.4-0.1-0.6c-0.3-1.7,0.1,0.5-0.1,0.8
					c1.2-2.7-3.1-4.1-4.3-1.4l0,0c0.6-0.5,1.1-1.1,1.7-1.5c-3.9,0.8-5.3,7.2-6.6,10.3c-2.6,6.2-5.1,12.4-6.8,18.9
					c2.1,0.1,4.2,0.2,6.3,0.3c-2.3-11-6.4-21.4-8.7-32.4c-1.6,1.1-3.2,2.2-4.8,3.3c8.6,6.4,17.3,12.9,26,19.4
					c0.9-1.8,1.8-3.7,2.7-5.6c-10.8-3.7-21.7-6.2-33.2-6.2c0.2,1.8,0.3,3.6,0.4,5.4c10.4-3.5,20.5-7.3,30.3-12.4
					C1394.6,1343.1,1394.4,1341.2,1393.1,1341.2L1393.1,1341.2z"/>
			</g>
		</g>
		<g>
			<g>
				<path d="M636,640c3.3-0.7,2.2-5.8-1.1-5.1C631.7,635.6,632.7,640.7,636,640L636,640z"/>
			</g>
		</g>
		<g>
			<g>
				<path d="M383.1,706.9c-0.5,0-1,0-1.6-0.1c0.3,0,0.6,0.2,1,0.2c-0.1,0-0.2-0.1-0.3,0c0.3,0.1,0.6,0.3,0.9,0.4c0,0,0,0-0.1-0.1
					c0.3,0.3,0.5,0.4,0.8,0.7c0,0,0,0,0-0.1c0.2,0.3,0.4,0.5,0.6,0.9l0,0c0.1,0.4,0.2,0.7,0.3,1.1c0,0,0,0,0-0.1
					c0.1,0.4,0,0.7,0.1,1.1l0-0.1c-0.8,1.2-1.5,2.3-2.2,3.4l0,0c-0.7,0.1-1.5,0.3-2.2,0.5l0,0c2.7,0.3,4.9-2.5,4.4-5
					C384.7,708.5,384.1,707.5,383.1,706.9c0.6,0.8,1.2,1.6,1.8,2.5c-0.1-0.3-0.1-0.6-0.1-0.9c0.1,0.3,0,0.6,0.1,0.9
					c0-0.7-0.2-1.3-0.2-2c-0.2-1.2-1.5-2-2.6-1.7c-1,0.2-2,0.4-2.9,1c0.7-0.1,1.4-0.3,2.1-0.4l0,0c-1.5-0.3-2.9,0.8-3.7,1.9l0,0
					c-0.8,1-0.8,2.5-0.4,3.7c0.4,1.1,1.3,2.3,2.6,2.6l0,0c-0.3-0.1-0.7-0.3-0.9-0.4l0,0c-0.6-0.9-1.2-1.7-1.8-2.6
					c0.4,1.3,1,2.3,2.4,3c0.9,0.4,1.9,0.6,2.8,0.3c0.9-0.2,1.7-0.6,2.5-1.1c1.4-0.7,2.2-2.4,1.8-3.9
					C386,708.3,384.8,707,383.1,706.9L383.1,706.9z"/>
			</g>
		</g>
		<g>
			<g>
				<path d="M571.7,493.4c6.7-1.4,4.5-11.7-2.2-10.3C562.8,484.5,565,494.8,571.7,493.4L571.7,493.4z"/>
			</g>
		</g>
		<g>
			<g>
				<path d="M573,671.1c0,0.4-0.1,0.8-0.1,1.3c0.1-0.5,0.2-1,0.3-1.5C573.1,671,573.1,671,573,671.1c1.5-1.3,2.9-2.7,4.3-3.9
					c-1.5,0.3-2.2,0.8-3.3,1.6c-0.1,0-0.1,0.1-0.2,0.1c0.4-0.3,1-0.6,1.4-1c-0.1,0-0.1,0-0.2,0.1c0.6-0.2,1.1-0.4,1.7-0.6
					c-0.3,0.1-0.5,0.1-0.8,0.2c0.6,0,1.2-0.1,1.8-0.2c-0.1,0-0.3,0.1-0.4,0c1.6,0.8,3.2,1.5,4.7,2.3c-0.3-0.3-0.6-0.7-1-0.9
					c-0.7-0.7-1.6-1.2-2.5-1.5c-0.6-0.2-1.3-0.2-1.9-0.4c-1-0.1-2,0-3.1,0.5c-1,0.2-1.9,0.7-2.6,1.5c-0.4,0.5-0.8,1-1.2,1.5
					c-0.5,0.8-1,1.7-1,2.8c-0.3,1-0.3,2-0.1,3c0.2,0.7,0.5,1.3,0.7,1.9c0.4,0.9,1.1,1.7,1.9,2.3c0.7,0.7,1.6,1.2,2.5,1.5
					c0.6,0.2,1.3,0.2,1.9,0.4c1,0.1,2,0,3.1-0.5c1-0.2,1.9-0.7,2.6-1.5c1-1,1.9-2.2,2.2-3.6c-1.1,1.4-2.3,2.6-3.3,4
					c0.8-0.4,1.8-0.9,2.4-1.5c0.5-0.4,1-1,1.3-1.5c0.7-1.1,1-2.1,1.1-3.4c0-0.6-0.1-1.2-0.2-1.8c-0.2-0.9-0.6-1.7-1.1-2.3
					c-0.3-0.5-0.6-0.9-1.1-1.3c-0.6-0.6-1.3-1-2.1-1.3c-0.1,0-0.1-0.1-0.2-0.1c1.1,0.9,2.2,1.9,3.3,2.8c-0.2-0.4-0.5-0.8-0.7-1.2
					c-0.6-1-1.3-1.8-2.4-2.2c-1-0.5-2.2-0.8-3.4-0.4c-0.9,0.2-1.7,0.7-2.5,1.2C573.7,668.4,573.2,669.7,573,671.1L573,671.1z"/>
			</g>
		</g>
		<g>
			<g>
				<path d="M446.7,588c0,0.5-0.1,0.9-0.1,1.5c0.8-1.3,1.7-2.6,2.5-3.9c-1,0.5-1.8,1.2-2.5,2.2c-0.9,1.2-1.1,3-0.8,4.4
					c0.3,1.5,1.3,2.9,2.5,3.7c1.2,0.8,3,1.2,4.4,0.8c1.4-0.4,2.9-1.2,3.7-2.5c0.7-1.3,1.2-2.9,0.8-4.4c-0.4-1.3-0.9-2.4-2-3.2
					c-1.1-1-2.3-1.3-3.7-1.5c1.3,0.8,2.6,1.7,3.9,2.5c-0.2-0.5-0.5-0.8-0.7-1.3c-0.8-1.6-2.8-2.7-4.7-2.2
					C448.2,584.6,446.8,586.1,446.7,588L446.7,588z"/>
			</g>
		</g>
		<g>
			<g>
				<path d="M181.7,699.9c2.2-0.7,4.9-1.1,5.6-3.8c-0.7,0.8-1.3,1.5-2,2.4c0.4-0.3,1-0.6,1.4-1c1.1-0.9,2.1-2.2,1.8-3.7
					c-0.4-1.5-1.5-2.4-3.1-2.7c-0.5-0.1-1.2-0.2-1.7-0.4c0.9,0.4,1.8,0.8,2.7,1.4c-1.7-2-4.4-1.3-6.7-1.1c-2.4,0.3-4,3.1-3.5,5.3
					C176.9,698.5,179.3,700.7,181.7,699.9L181.7,699.9z"/>
			</g>
		</g>
		<g>
			<g>
				<path d="M592.7,1063.1c0.9,1.1,1.6,2.1,2.7,2.9c-0.5-0.6-1.1-1.2-1.7-1.8l0,0.1c1.1,2.4,4.7,3.6,7,2.3c1.6-1,2.7-2.5,2.8-4.5
					c0-0.5-0.1-1.2-0.2-1.8c-0.2-0.9-0.6-1.8-1-2.7c-0.3-0.3-0.5-0.7-0.7-1.1c-0.4-0.5-0.9-0.8-1.6-1.1c-0.9-0.4-2.1-0.7-3.2-0.5
					c-0.9,0.2-1.6,0.6-2.3,1.2c-0.9,0.7-1.7,2.3-1.6,3.4c0,0.6,0.2,1.2,0,1.7c0.1-0.4,0.2-0.9,0.2-1.3c0,0,0,0.1-0.1,0.1
					c0.2-0.5,0.3-0.8,0.6-1.2c-0.7,1.3-1.1,2.6-0.8,4c0.1,0.7,0.5,1.3,0.9,1.9c1.2,1.6,0.2,0.4,0.4,0.5c-0.3-0.3-0.5-0.7-0.7-1.1
					l0,0c-0.2-0.5-0.3-0.9-0.5-1.3l0,0c0-0.4-0.1-0.9-0.1-1.3l0,0c0.1-0.4,0.1-0.8,0.2-1.3l0,0c0.2-0.4,0.3-0.8,0.6-1.1l0,0
					c1.1-0.7,2-1.5,3.1-2.1c0,0,0,0-0.1,0c0.4,0,0.9-0.1,1.3-0.1c-0.3,0.1-0.5-0.1-0.8-0.1c0.4,0.1,0.7,0.1,1.2,0.3
					c-0.6-0.2-1.3-0.2-1.9-0.4c-0.9-0.2-1.7-0.3-2.5,0c-0.8,0.3-1.6,0.7-1.9,1.5c-0.4,0.6-0.6,1.2-0.6,1.9
					C591.5,1061.4,592,1062.3,592.7,1063.1L592.7,1063.1z"/>
			</g>
		</g>
		<g>
			<g>
				<path d="M603.9,1189.9c0.2-0.4,0.5-0.7,0.7-1.1c-6.7,10.3,14.3,12.4,10.9,2c0-0.2-0.1-0.4-0.2-0.6c-2.4-7.3-12.4-5.1-11.6,2.5
					c0,0.2,0.1,0.4,0,0.6c1.2,10.8,19.5,0.4,9.2-6.2c0.4,0.2,0.7,0.5,1.1,0.7C612.3,1182.9,603.5,1184.8,603.9,1189.9L603.9,1189.9z
					"/>
			</g>
		</g>
		<g>
			<g>
				<path d="M250.8,1323.8c-0.7,0-1.4,0.2-2.1,0.2c0.6,0.1,1.2,0,1.8,0.1c0,0,0,0-0.1,0c0.6,0.6,1.4,1.1,2,1.7
					c-0.2-0.7-0.9-1.2-1.5-1.6c-0.8-0.5-2.1-0.8-3-0.6c-2.1,0.4-3.6,2.6-3.1,4.7c0.5,2,2.6,3.6,4.7,3.1c1.6-0.5,3.3-1.9,3.2-3.8
					c-0.3,0.8-0.8,1.6-1.1,2.4c0,0,0,0,0.1,0c-0.5,0.3-1.1,0.5-1.6,0.8c0.7-0.2,1.3-0.4,2-0.6c0.9-0.3,1.6-0.6,2-1.5
					c0.5-0.7,0.7-1.7,0.5-2.5C254.2,1324.5,252.6,1323.6,250.8,1323.8L250.8,1323.8z"/>
			</g>
		</g>
		<g>
			<g>
				<path d="M97.8,994c5.6-1.2,3.8-9.9-1.9-8.7C90.3,986.4,92.1,995.2,97.8,994L97.8,994z"/>
			</g>
		</g>
		<g>
			<g>
				<path d="M120.4,458.1c0.5-0.3,1.1-0.7,1.6-1.1c0.6-0.4,1.1-0.9,1.5-1.5c0.3-0.7,0.5-1.4,0.2-2.2c-0.1-0.6-0.4-1.1-0.8-1.6
					c-0.6-0.7-1.4-0.9-2.3-1.1c-0.6-0.1-1.3-0.2-1.9-0.3c-1.4-0.2-3,0.7-3.7,1.9c-0.5,0.9-0.8,2-0.6,3.1c0.2,1.1,0.9,2,1.8,2.6
					C117.4,458.7,119.2,458.9,120.4,458.1L120.4,458.1z"/>
			</g>
		</g>
		<g>
			<g>
				<path d="M1271.4,847.1c-1.5,0.2-3,0.6-4.1,1.9c-1,1.1-1.3,2.8-0.5,4.2c0.6,1,1.5,1.6,2.6,2c1,0.3,2.1,0.5,3.3,0.4
					c0.5,0,1-0.1,1.4-0.1c0.7,0,1.3-0.4,1.9-0.8c0.3-0.3,0.6-0.4,0.9-0.7c1.2-1.3,0.8-3-0.8-3.7c-0.3-0.1,0.5,0.2,0.2,0.2
					c0-0.1-0.1-0.1-0.2-0.1c-0.1-0.1-0.2-0.2-0.4-0.2c-0.4-0.2-0.6-0.4-1-0.5c-0.3-0.1-0.6-0.2-1-0.2c0.1,0,0.9,0.2,0.4,0.1
					c-0.7-0.1-1.4-0.4-2.1-0.7c0.2,0.2,0.6,0.3,0.8,0.3c-0.2-0.2-0.5-0.2-0.6-0.4c0.2,0.2,0.5,0.4,0.7,0.6c-0.1-0.1-0.1-0.2-0.3-0.3
					c0.2,0.3,0.3,0.5,0.6,0.8c-0.5-0.7-0.7-1-1.3-1.5c0.2,0.2,0.5,0.4,0.7,0.6c0,0,0,0,0-0.1c0.2,0.3,0.3,0.5,0.6,0.7c0,0,0,0,0-0.1
					c0.1,0.3,0.2,0.6,0.3,0.9l0-0.1c0.1,0.3,0,0.6,0.1,0.9l0,0c0,0.3-0.1,0.6-0.1,0.8l0,0c-0.2,0.2-0.3,0.6-0.3,0.8l0.1-0.1
					c-0.2,0.2-0.4,0.5-0.6,0.6c0.1-0.1,0.2-0.1,0.2-0.1c-0.3,0.2-0.4,0.3-0.7,0.5c0.3-0.2,0.6-0.3,0.9-0.4c-0.3,0.1-0.6,0.2-0.9,0.3
					c0.3-0.1,0.6-0.2,0.9-0.3c0.9-0.3,1.6-0.6,2-1.5c0.5-0.7,0.7-1.7,0.5-2.5C1274.8,847.8,1273.2,846.8,1271.4,847.1L1271.4,847.1z
					"/>
			</g>
		</g>
		<g>
			<g>
				<path d="M1549.8,827.3c0,0.1,0,0.2,0.1,0.3c0-0.4-0.1-0.8-0.1-1.3c0,0.4,0,0.8,0,1.2c0.1-0.4,0.1-0.8,0.2-1.3
					c0,0.3-0.2,0.6-0.3,1c0.2-0.4,0.3-0.8,0.6-1.1c-0.1,0.1-0.1,0.3-0.3,0.5c0.2-0.4,0.6-0.6,0.8-1c-0.1,0.1-0.2,0.1-0.3,0.3
					c0.3-0.3,0.7-0.5,1.1-0.7c-0.1,0-0.1,0-0.2,0.1c0.4-0.2,0.9-0.3,1.2-0.5l-0.1,0c0.4,0,0.9-0.1,1.3-0.1l-0.1,0
					c0.4,0.1,0.8,0.1,1.3,0.2c0,0-0.1,0-0.1-0.1c0.4,0.2,0.8,0.3,1.1,0.6c-0.1,0-0.1-0.1-0.2-0.2c0.4,0.2,0.6,0.6,1,0.8
					c-0.1-0.1-0.1-0.2-0.1-0.2c0.4,1.7,0.7,3.3,1.1,5l0,0c-0.2,0.4-0.3,0.8-0.6,1.1c0.6-0.7,0.8-1.7,0.9-2.6c0-0.5-0.1-0.9-0.1-1.4
					c-0.2-0.5-0.3-0.9-0.5-1.3c-0.4-0.7-1-1.5-1.8-2c-1.8-1.2-4.1-1.1-5.8,0.1c-1.5,1-2.4,2.8-2.2,4.7c0.1,1,0.4,1.8,1,2.6
					c0.6,0.9,1.6,1.7,2.6,2c0.9,0.2,1.3,0.2,2.1,0.2c0.7,0,1.4-0.3,2-0.5c-0.9,0.2-1.8,0.4-2.6,0.6c0,0,0,0,0.1,0
					c-1.1-0.6-2.3-1.1-3.4-1.6c1.4,1.4,3.3,2.3,5.5,1.8c1.6-0.3,3-1.4,3.7-2.7c0.7-1.2,1-2.2,1.1-3.6c0.1-0.9,0-1.9-0.2-2.9
					c-0.4-1.3-1-2.2-2.1-2.9c-0.9-0.6-2.4-0.9-3.5-0.7c-1.2,0.3-2.3,1-2.9,2.1C1549.8,824.9,1549.6,825.9,1549.8,827.3L1549.8,827.3
					z"/>
			</g>
		</g>
		<g>
			<g>
				<path d="M1528.4,541.6c0.1,0.3,0.1,0.6,0.2,0.9c0,0.2,0.1,0.5,0.1,0.7c0,0.1,0.1,0.3,0.1,0.4c0.3,1,0.5,1.2,1,1.9
					c0.7,1.1,2.4,1.4,3.7,1.2c1.2-0.2,2.6-1.3,2.9-2.6c0.2-1,0.2-1.3,0.2-2.2c0-0.1-0.1-0.3-0.1-0.4c0-0.2-0.1-0.5-0.1-0.7
					c-0.1-0.3-0.1-0.6-0.2-0.9c-0.3-2.1-2.7-3.6-4.7-3.1C1529.5,537.4,1527.8,539.5,1528.4,541.6L1528.4,541.6z"/>
			</g>
		</g>
		<g>
			<g>
				<path d="M1449.7,479.3c0.8-0.7,1.4-1.4,2.1-2.2c0.9-1.1,0.5-3.2-0.8-3.9c-0.9-0.5-1.9-0.8-2.8-1.1c-3.1-1.1-6.3,1.8-5.6,5
					C1443.2,480.1,1447.3,481.6,1449.7,479.3L1449.7,479.3z"/>
			</g>
		</g>
		<g>
			<g>
				<path d="M633.5,108C633.9,107.9,633.9,107.9,633.5,108c0.3,0,0.2,0-0.2-0.2c0.1,0.1,0.3,0,0.4,0.1
					C633.3,107.8,633.1,107.8,633.5,108c0.6,0.4,1.4,0.7,2,0.9c0.9,0.2,1.7,0.4,2.6,0.2c1.5-0.2,2.7-1.7,2.4-3.3
					c-0.1-0.7-0.6-1.4-1.2-1.8c-0.2-0.2-0.6-0.3-0.9-0.4c0.3,0.1,0.4,0.2,0.1,0c-0.6-0.4,0.4,0.5,0,0c-0.4-0.3-0.8-0.7-1.1-0.9
					c-1.7-1.1-3.4-1.5-5.3-1.2c-1.8,0.3-3,2.3-2.6,3.9C630,107.2,631.6,108.4,633.5,108L633.5,108z"/>
			</g>
		</g>
		<g>
			<g>
				<path d="M869.7,49.5c-0.5,0-0.9,0.1-1.4,0.1c1.8,0.8,3.6,1.7,5.3,2.5c-1-1.9-3-3-5.1-3.1c-0.3,0-0.6-0.1-0.9,0
					c1.4,0.6,2.6,1.3,4,1.9c-1.2-1.5-3.2-2.4-5.1-2.4c-0.6,0-1.1,0-1.7,0.1c-1.5,0.1-0.8,0-2.7,0.7l-0.1,0c-0.1,0-0.2,0-0.2,0
					c-0.1,0-0.1,0-0.2,0c-0.8,0.4-1.4,0.9-2,1.7c-0.6,0.6-1,1.3-1.3,2.2c-0.5,1.5-0.4,3.7,0.4,5.1c0.8,1.5,2.1,2.8,3.9,3.3
					c0.5,0.1,1.2,0.2,1.7,0.4c1.2,0,2.4-0.2,3.4-0.7c0.1,0,0.3-0.1,0.4-0.2c1.3-0.5,2.6-1.5,3.3-2.7c0.7-1.4,1.3-3,0.8-4.7
					c-0.2-0.5-0.3-1.1-0.5-1.5c-0.5-0.9-1.2-1.8-2.1-2.3c-1.1-0.9-2.6-1.3-4.1-1.2c-0.1,0-0.3,0.1-0.4,0c-0.9-0.1-1.8,0.1-2.7,0.5
					c-0.9,0.2-1.6,0.6-2.3,1.3c-1.2,1.1-2.1,2.9-2.2,4.6c0,1.7,0.5,3.6,1.7,4.8c0.4,0.3,0.9,0.7,1.2,1.1c0.9,0.6,2.1,1,3.2,1.1
					c0.1,0,0.1,0,0.2,0s0.2,0,0.2,0c0.1,0,0.1,0,0.2,0c0.6,0,1.2-0.1,1.8-0.2c0.3-0.1,0.6-0.1,1-0.3c0.5-0.2,1-0.4,1.5-0.6
					c1.8-0.8,3.2-2.3,3.8-4.3c-1,1.1-1.9,2.2-2.9,3.4c0.3-0.2,0.5-0.3,0.8-0.4c2-0.9,3.3-2.7,3.4-4.9c-1.3,1.5-2.6,3-3.8,4.5
					c0.5-0.2,0.9-0.3,1.3-0.5c0.7-0.1,1.3-0.4,1.7-0.8c0.5-0.3,1-0.7,1.3-1.3c0.6-0.9,0.9-2.4,0.7-3.5c-0.3-1.2-1-2.3-2.1-2.9
					c-0.3-0.1-0.7-0.4-1.1-0.5C871.4,49.4,870.6,49.3,869.7,49.5L869.7,49.5z"/>
			</g>
		</g>
		<g>
			<g>
				<path d="M875.2,231.1c8.1-1.7,5.4-14.3-2.7-12.6C864.4,220.2,867.1,232.9,875.2,231.1L875.2,231.1z"/>
			</g>
		</g>
		<g>
			<g>
				<path d="M1070.6,130.7c-0.2,0.6-0.4,1.1-0.6,1.6c-3.3,9.3,13.7,10.5,11.5,0.6c0-0.2-0.1-0.4-0.1-0.6c-1.7-7.5-13.1-5.1-11.6,2.5
					c0,0.2,0.1,0.4,0.1,0.6c2,9.8,17.2,2,10.2-5.2c-0.4-0.4-0.8-0.9-1.2-1.2C1076.3,126.2,1071.9,127.2,1070.6,130.7L1070.6,130.7z"
					/>
			</g>
		</g>
		<g>
			<g>
				<path d="M1131.8,8.6c5.5-1.2,3.7-9.7-1.8-8.5C1124.5,1.3,1126.3,9.8,1131.8,8.6L1131.8,8.6z"/>
			</g>
		</g>
		<g>
			<g>
				<path d="M1332.2,190.9c-0.1-0.3-0.1-0.5-0.2-0.8c-0.5-1.9-2.5-3.6-4.6-3c-1.9,0.5-3.6,2.5-3,4.6c0.2,1.1,0.6,2.2,0.8,3.3
					c0.5,1.9,2.5,3.5,4.5,2.9c2-0.5,3.3-2.4,2.9-4.5c-0.2-1.1-0.4-2.3-0.6-3.3c-0.3-2-2.7-3.5-4.6-3c-2.1,0.6-3.4,2.5-3,4.6
					c0.1,0.3,0.1,0.5,0.2,0.8c0.3,2.1,2.7,3.5,4.6,3C1331.2,195.2,1332.7,193.1,1332.2,190.9L1332.2,190.9z"/>
			</g>
		</g>
		<g>
			<g>
				<path d="M509.7,203.9c0.6-0.6,1.4-1.3,1.8-2c0.9-1.4,0.5-3.4-0.9-4.4c-0.7-0.5-1.7-0.8-2.5-1.1c-1.5-0.6-3.3-0.1-4.4,0.9
					c-1.2,1.1-1.7,2.7-1.3,4.3c0.3,1.6,1.5,2.8,3,3.4C506.7,205.3,508.6,205.1,509.7,203.9L509.7,203.9z"/>
			</g>
		</g>
		<g>
			<g>
				<path d="M712.9,570.6c-0.1-0.2-0.4-0.4-0.5-0.6c0.3,0.9,0.6,1.8,1,2.7c0.1-0.2,0-0.3,0.1-0.5c0.3-2.5-2.8-4.4-4.9-3.2
					c-0.2,0.1-0.3,0.2-0.4,0.3c0.9-0.1,1.9-0.2,2.8-0.2c-1.3-0.5-2.8-0.8-4.3-0.5c-1.7,0.4-3.4,1.4-4.3,3c-0.3,0.6-0.5,1-0.8,1.6
					c-0.3,0.9-0.4,1.7-0.3,2.6c0,0.9,0.2,1.8,0.7,2.6c0.4,0.8,0.9,1.4,1.7,2c0.6,0.6,1.3,1,2.2,1.3c0.5,0.1,1.2,0.3,1.7,0.4
					c0.9,0.1,1.8-0.1,2.7-0.5c0.9-0.2,1.6-0.6,2.3-1.3c1.2-1.2,2.2-2.8,2.2-4.6C714.7,573.7,714.2,571.9,712.9,570.6L712.9,570.6z"
					/>
			</g>
		</g>
		<g>
			<g>
				<path d="M625.8,923.1c8.8-1.9,6-15.7-2.9-13.8C614,911.2,616.9,925,625.8,923.1L625.8,923.1z"/>
			</g>
		</g>
		<g>
			<g>
				<path d="M1161,963.6c-0.3,0.4-0.7,0.8-1.1,1.2c1.2-0.5,2.5-0.8,3.7-1.3c-1.4,0.1-2.5,0.1-3.8,0.8c-9.5,5,4,18.2,8.5,7.3
					c0.3-0.8,0.4-1.7,0.5-2.7c0.1-4.2-4.2-7.1-8.1-5.2c-0.8,0.4-1.7,0.9-2.2,1.5c-8.1,8.6,9.4,15.6,10.1,4.8
					c0.1-1.5-0.3-2.5-0.8-3.8c0.1,1.3,0.2,2.6,0.3,3.9c0.2-0.5,0.4-0.9,0.6-1.5C1170.7,964.3,1164.3,960.2,1161,963.6L1161,963.6z"
					/>
			</g>
		</g>
		<g>
			<g>
				<path d="M1082.5,933.1c-0.3,0.3-1.9,1.5-0.6,0.7c1.4-0.9-2.8,1.2-3.1,1.5c-1,0.9-2.3,2.7-2.5,4c-1.3,5.9,4.7,13.5,11.1,9.4
					c4.8-3.1,6.1-8.3,3.9-13.3c-1.6-3.6-5.9-4.2-9.1-2.9c-1.8,0.7-3.1,1.8-4.2,3.4c-0.6,0.7-2.5,4.7-0.7,1.5
					c4.8,0.8,9.5,1.8,14.3,2.6c0.7,2.3,0.5,1.5,0-0.8c-0.4-1.7-1.3-3-2.3-4.2c0.5,1.4,1,2.9,1.5,4.3c0-0.3,0.1-0.5,0.2-0.9
					C1092.4,933.8,1086.2,929.3,1082.5,933.1L1082.5,933.1z"/>
			</g>
		</g>
		<g>
			<g>
				<path d="M1092.7,721.7c9-1.9,6.1-16-3-14.1C1080.7,709.6,1083.7,723.6,1092.7,721.7L1092.7,721.7z"/>
			</g>
		</g>
		<g>
			<g>
				<path d="M1197.9,690c-1.1,0-2.2,0.2-3.3,0.3c-6.5,0.7-4.4,11.8,2.2,10.2c1.6-0.3,2.6-1.1,4-2.1c2.6-2,1.6-7-1.7-7.8
					c-1.6-0.4-2.8-0.6-4.5-0.3c-6.7,1.2-4,12.3,2.2,10.2c1.1-0.3,2.1-0.8,3.1-1.1C1204.4,697.6,1202.6,689.6,1197.9,690L1197.9,690z
					"/>
			</g>
		</g>
		<g>
			<g>
				<path d="M1200.1,798.1c5.2-1.1,3.5-9.2-1.7-8.1C1193.2,791,1195,799.2,1200.1,798.1L1200.1,798.1z"/>
			</g>
		</g>
		<g>
			<g>
				<path d="M1159.1,581.5c0.5,1.7,0.9,3.5,2.7,4.3c0.9,0.4,1.7,0.4,2.7,0.3c0.5-0.1,1-0.2,1.3-0.4c0.9-0.5,1.2-1.2,1.6-2
					c0.4-0.7,0.1-2-0.5-2.4c-0.5-0.4-0.9-0.8-1.5-1c-0.7-0.3-1.4-0.1-2.1-0.1c0.3-0.1,0.5,0,0.8-0.1c-0.1,0-0.3,0-0.4,0
					c-0.3,0-0.6-0.3,0.5,0.1c-0.1-0.1-0.3-0.1,0.2,0.2c0.3,0.1,0.5,0.2,0.3,0.1c-0.2-0.2-0.1,0,0.5,0.4c-0.1-0.1-0.3-0.3,0.1,0.2
					c0.4,0.5,0.1,0.2,0.1,0c0.1,0.3,0.2,0.6,0.3,0.8c-0.2-0.6-0.2-1.2-0.4-1.8c-0.3-1.7-2.3-2.9-3.8-2.5
					C1160,578,1158.6,579.7,1159.1,581.5L1159.1,581.5z"/>
			</g>
		</g>
		<g>
			<g>
				<path d="M1380.1,824.8c-0.2,0.5-0.5,0.8-0.7,1.3c-0.2,0.4-0.4,0.7-0.6,1c-0.3,0.5-0.7,1.1-0.8,1.5c-0.1,0.6-0.3,1.2-0.1,1.8
					c0.2,0.8,0.6,1.4,1.1,1.8c0.5,0.4,0.9,0.6,1.6,0.7c0.6,0.2,1.6,0.1,2.2-0.3c0.6-0.4,1-0.8,1.5-1.3c0.1-0.1,0.2-0.2,0.3-0.4
					c0.2-0.4,0.5-0.6,0.7-1c0.3-0.4,0.6-0.9,0.9-1.2c1.1-1.6,0.6-4-1-4.9C1383.5,822.8,1381.2,823.1,1380.1,824.8L1380.1,824.8z"/>
			</g>
		</g>
		<g>
			<g>
				<path d="M1334.6,721c0.2,0.8,0.4,1.5,0.6,2.3c0.5,1.9,2.5,3.5,4.5,2.9c2-0.5,3.3-2.4,2.9-4.5c-0.2-0.8-0.2-1.6-0.4-2.4
					c-0.3-2-2.6-3.5-4.6-3C1335.6,716.9,1334,718.9,1334.6,721L1334.6,721z"/>
			</g>
		</g>
		<g>
			<g>
				<path d="M1295.8,1403.8c3.7-0.8,2.5-6.7-1.2-5.9S1292.1,1404.6,1295.8,1403.8L1295.8,1403.8z"/>
			</g>
		</g>
		<g>
			<g>
				<path d="M1277.7,1212.1L1277.7,1212.1c-0.1,0.2-0.1,0.5-0.1,0.7l0,0c-0.3,0.5-0.6,0.9-0.9,1.4c0.7-0.6,1.4-1.1,1.9-1.8
					c0.5-0.8,0.3-2.1-0.6-2.6c-0.7-0.5-1.7-0.7-2.4-0.9c0.5,0.3,0.9,0.6,1.4,0.9l0,0c0.2,0.3,0.3,0.4,0.5,0.7
					c-0.2-0.5-0.7-1.1-1.2-1.3c-1.7-1.1-4-0.5-4.9,1.4c-0.8,1.8,0,4.1,2,4.7C1275.2,1215.8,1277.8,1214.3,1277.7,1212.1
					L1277.7,1212.1z"/>
			</g>
		</g>
		<g>
			<g>
				<path d="M1488.3,1165.4c5.6-1.2,3.7-9.8-1.8-8.6C1480.9,1158,1482.7,1166.6,1488.3,1165.4L1488.3,1165.4z"/>
			</g>
		</g>
		<g>
			<g>
				<path d="M1490.7,1020.6c4.9-1,3.3-8.7-1.6-7.6C1484.2,1014.1,1485.8,1021.7,1490.7,1020.6L1490.7,1020.6z"/>
			</g>
		</g>
		<g>
			<g>
				<path d="M1391.8,1231.2c-0.3,0.5-0.5,0.9-0.8,1.4c-0.2,0.4-0.5,0.7-0.6,1c-0.3,0.5-0.7,1.1-0.8,1.6c-0.1,0.8-0.2,1.5,0.1,2.3
					c0.3,0.8,0.7,1.4,1.4,1.8c0.6,0.3,1.1,0.5,1.8,0.5c1,0.1,1.9-0.4,2.7-1c0.4-0.3,0.8-1,1.1-1.4c0.2-0.4,0.5-0.7,0.7-1
					c0.3-0.5,0.6-0.9,0.9-1.3c1.1-1.6,0.7-4.1-1.1-5.2C1395.2,1229.1,1392.8,1229.4,1391.8,1231.2L1391.8,1231.2z"/>
			</g>
		</g>
		<g>
			<g>
				<path d="M1203.1,1396.9c1-0.2,1.9-0.5,2.9-0.9c1.7-1,2.7-2.9,2.2-4.9c-0.3-1.4-1.3-3-2.7-3.4c-1.7-0.7-3.4,0.5-3.8,2.1
					c-0.1,0.2-0.2,0.6-0.2,0.8c0.2-0.2,0.3-0.6,0.4-0.8c-0.1,0.1-0.1,0.1-0.2,0.2c0.2-0.2,0.4-0.5,0.6-0.7c-0.1,0-0.1,0.1-0.2,0.1
					c0.3-0.2,0.5-0.4,0.8-0.6l-0.1,0c0.3-0.1,0.7-0.2,1-0.3c-0.5,0.2-0.9,0.4-1.4,0.5c0.3-0.1,0.7-0.2,1-0.3
					c-0.6,0.2-1.2,0.2-1.8,0.4c-2.1,0.3-3.6,2.7-3.1,4.7C1198.9,1395.9,1201,1397.5,1203.1,1396.9L1203.1,1396.9z"/>
			</g>
		</g>
		<g>
			<g>
				<path d="M1342.5,1172.4c-1,0.6-2.3,1.1-2.8,2.1c-0.5,0.9-0.3,1.9,0.5,2.5c1,0.7,2.3,0.6,3.4,0.8c1.9,0.2,3.4-1.7,3-3.5
					C1346.3,1172.7,1344.1,1171.5,1342.5,1172.4L1342.5,1172.4z"/>
			</g>
		</g>
	</g>
	<g>
		<g>
			<g>
				<g>
					<polygon class="st0" points="1171.3,340.3 1014.2,513.1 857.6,370.7 881.1,344.9 1068,383.9 					"/>
					<polygon class="st0" points="843.3,386.5 991.5,538.2 1014.2,513.1 857.6,370.7 					"/>
					<polygon class="st0" points="1273.3,432.9 1116.2,605.7 1272.8,748.1 1296.3,722.3 1239.6,539.9 					"/>
					<polygon class="st0" points="1258.6,763.8 1093.4,630.8 1116.2,605.7 1272.8,748.1 					"/>
					<polygon class="st0" points="1068,383.9 1171.3,340.3 1135,380.3 1056.5,396.5 881.1,344.9 					"/>
					<polygon class="st0" points="1239.6,539.9 1296.3,722.3 1228.1,552.6 1236.9,472.9 1273.3,432.9 					"/>
				</g>
				<path class="st0" d="M1068,383.9l-87.2-18.2c40.3-41,99.7-95.7,161.6-132.9c8.8-5.2,19.2,4.1,14.8,13.4
					c-21.7,46.3-56.5,96.2-88.8,137.5L1068,383.9z"/>
				<path class="st0" d="M1239.6,539.9l0.2-0.6c38-36,84.4-75.4,128.4-101.5c8.8-5.2,19.2,4.2,14.8,13.4
					c-31.1,65.2-80,129.6-116.9,173.5L1239.6,539.9z"/>
				<path class="st0" d="M1319.4,159.1c36-19.2,122.1-32.9,132-23.8c10,9.1,8.9,93.4-11.5,133.7c-20.5,40.3-32.3,49.3-32.3,49.3
					l-134.4-122.6C1273.3,195.7,1286.3,176.8,1319.4,159.1z"/>
				<polygon class="st0" points="952.3,623.9 1011.8,677.9 991.3,730.1 902.3,649.2 				"/>
				<path class="st0" d="M1407.6,318.3L1088,636.6l-68.8,48.2L944.7,617l41.4-73l287.2-348.3L1407.6,318.3z"/>
				<g>
					<path class="st0" d="M1318.1,281.2c24.6,22.4,26.5,60.5,4.1,85.1c-22.4,24.6-60.5,26.5-85.1,4.1c-24.6-22.4-26.5-60.5-4.1-85.1
						C1255.3,260.6,1293.5,258.8,1318.1,281.2z M1249.2,356.9c17.2,15.7,43.9,14.4,59.5-2.8s14.4-43.9-2.8-59.5
						c-17.2-15.7-43.9-14.4-59.5,2.8C1230.7,314.6,1232,341.3,1249.2,356.9z"/>
					<path class="st0" d="M1246.4,297.4c-15.7,17.2-14.4,43.9,2.8,59.5c17.2,15.7,43.9,14.4,59.5-2.8c15.7-17.2,14.4-43.9-2.8-59.5
						C1288.6,278.9,1262,280.2,1246.4,297.4z"/>
					<path class="st0" d="M1282.9,367.5l-33.8-73c6-5.5,13.3-9,20.9-10.4l34.3,74C1298.1,363.4,1290.6,366.5,1282.9,367.5z"/>
				</g>
				<g>
					<path class="st0" d="M972,712.6l-52.1-47.3c-96.6,50.9-88.2,143.1-88.2,143.1C938.5,812.5,972,712.6,972,712.6z"/>
					<path class="st0" d="M928.2,672.8l35.7,32.5c-15.7,22.4-46.4,56.2-92.9,62.8C871,768,875.5,717.1,928.2,672.8z"/>
					<path class="st0" d="M908.4,728.4c0,0,4.2-23.3,26.7-49.2l21.7,19.6C945,711,928.6,723.6,908.4,728.4z"/>
				</g>
			</g>
			<g>
				<g>
					<path d="M984.1,742c-37.8,35.3-73,73.3-105.2,113.8c-31.1,39-59.4,80.1-84.8,123.1c-25.2,42.8-47.5,87.3-67,132.9
						c-19.8,46.2-36.7,93.7-51.3,141.9c-15.1,49.9-28.1,100.5-37.7,151.8c-1.2,6.5-1.4,13.1-1.8,19.7c-0.2,2.8,3.9,3.6,4.8,0.9
						c8.5-24.9,13.5-50.8,19.8-76.4c6.2-25.1,12.7-50.1,19.8-75.1c13.8-48,29.9-95.4,48.7-141.7c37-91.2,84.7-177.9,143.7-256.8
						c34.7-46.3,73.4-89.7,114.7-130.2C990.2,743.6,986.6,739.5,984.1,742L984.1,742z"/>
				</g>
			</g>
			<g>
				<g>
					<path d="M887.2,657.6c-35.9,9.8-70.6,23.8-104.6,38.7c-33.4,14.7-65.9,31.3-97.5,49.6c-61.3,35.4-118.6,77.3-170.9,125
						c-52,47.6-98.8,100.8-139.5,158.4c-41.2,58.2-75.9,120.9-104.3,186.4c-29.6,68.4-53.7,140.6-67.7,214
						c-1.8,9.3-3.2,18.4-3.7,27.8c-0.2,4.7,6.6,6.2,8.2,1.5c6.2-18.2,9.7-37.1,14.2-55.8c4.4-17.9,9.2-35.8,14.3-53.5
						c10.2-35.3,22-70,35.5-104.2c26.4-65.8,59.1-129.2,98.5-188.5c38.5-58,83.2-111.8,133.1-160.3c50.4-48.7,106-92,165.4-129.2
						c61.6-38.6,127.2-69.6,194.8-96.1c8.6-3.4,17.1-6.6,25.6-10C890.6,660.4,889.3,657,887.2,657.6L887.2,657.6z"/>
				</g>
			</g>
			<g>
				<g>
					<path d="M785.3,865.9c-64.1,55-118.3,120.2-163.1,191.7c-44.7,71.2-79.5,149.1-102.9,229.9c-13.1,45.1-23.5,91.6-27.6,138.5
						c-0.1,1.8,2.8,2.4,3.1,0.6c8.1-40.8,16.6-81.4,28.1-121.4c11.4-40.1,25.3-79.5,41.6-117.8c32.6-76.7,75.4-149.5,127.1-215
						c29.2-37.1,61.1-72.2,95.4-104.7C787.9,866.7,786.4,864.9,785.3,865.9L785.3,865.9z"/>
				</g>
			</g>
			<g>
				<g>
					<path d="M766.5,799.8c-42.4,29.4-81.6,64-117.6,100.9c-38.6,39.5-75.1,82-103.4,129.5c-13.7,23-26.3,47.8-31.9,74.2
						c-0.4,2.2,2.6,3.3,3.4,1.1c19.1-46.7,45.3-89.1,76.3-128.9c33.7-43.4,72.1-83.3,112.3-120.7c20.3-18.7,40.9-37,61.9-54.9
						C768.3,800.6,767.4,799.2,766.5,799.8L766.5,799.8z"/>
				</g>
			</g>
			<g>
				<g>
					<path d="M474.9,1062.2c-49.5,87.7-87.3,183.5-110.7,281.5c-6.4,26.6-13.8,54.5-14.4,82c-0.1,3,4.3,4,5.3,1
						c7.4-23.2,11.3-47.6,17.1-71.2c5.9-24.2,12.4-48.1,19.6-71.9c14.6-48.6,31.7-96.5,51.2-143.4c10.7-25.8,22.3-51.1,34.8-76.1
						C478.7,1062.2,476.1,1060.3,474.9,1062.2L474.9,1062.2z"/>
				</g>
			</g>
		</g>
		<g>
			<g>
				<path d="M770.5,1680c5.4-3,10.4-4.8,15-9.1c4.2-4,7.7-8.6,10.6-13.5c6.3-10.5,9.9-22.6,12.1-34.7c4.2-24,2.3-49.6-4.7-72.8
					c-14.9-49.1-53.1-89.7-104.1-101c-28.8-6.3-58.7-3.9-85.2,9.2c-5.3,2.6-2.3,11.6,3.5,9.9c22.3-6.5,46.1-10.2,69.3-7
					c21.8,3.1,42.4,12.6,59.5,26.4c35.6,28.8,53.4,76.7,51.2,121.8c-0.6,12.5-2.8,24.9-7.6,36.5c-2.4,5.7-5.4,11-9.1,15.9
					c-1.7,2.4-3.8,4.5-5.7,6.7c-2.3,2.6-4.1,5.5-7,7.4C766,1677.4,767.9,1681.4,770.5,1680L770.5,1680z"/>
			</g>
		</g>
		<g>
			<g>
				<path d="M646,1562.1c1.2-5.9,2.1-11.1,2-17.2c-0.2-6.5-1-13-2.3-19.4c-2.6-13.6-7.2-26.7-13.4-39.1
					c-11.6-23.1-29.9-44.9-55.4-52.6c-13.8-4.3-32.8-5.2-45.5,2.6c-4.3,2.5-1.9,8.5,2.8,8c6.5-0.7,12.7-2.7,19.2-3
					c5.8-0.3,11.7,0.3,17.2,1.8c11.1,3,20.9,9,29.2,16.9c17.9,17.2,29.1,40.1,35.9,63.7c1.9,6.4,3.2,13,4.5,19.6
					c1.2,6.1,2.6,12.3,3.3,18.4C643.7,1563.1,645.7,1563.3,646,1562.1L646,1562.1z"/>
			</g>
		</g>
		<g>
			<g>
				<path d="M666,1452.4c-1.7-13.7-13.7-24.8-24.6-32.1c-11.3-7.6-25-13.6-38.9-12.6c-3.9,0.3-3,6.2,0.5,6.6
					c24.5,3.2,47.4,17.8,60,39.1C664,1455,666.2,1454.1,666,1452.4L666,1452.4z"/>
			</g>
		</g>
		<g>
			<g>
				<path d="M545.7,1483.3c2.2-5.1,3.2-9.7,2.2-15.2c-0.9-5.2-3.7-10-6.7-14.1c-6.9-9.5-17.1-15.8-27.7-20.4
					c-23-9.9-51.5-12.3-75-3.3c-9.7,3.7-25.3,12.9-23.1,25.5c0.2,1.4,2,2.1,3.2,1.6c4-2.1,7.2-5.7,10.7-8.5
					c3.5-2.8,7.1-5.1,11.2-6.9c9.3-4.2,20.1-5.6,30.2-5.5c20.7,0.2,44.5,5.8,60,20.3c7.2,6.8,12,16.8,13.2,26.5
					C544,1484.2,545.4,1484.1,545.7,1483.3L545.7,1483.3z"/>
			</g>
		</g>
		<g>
			<g>
				<path d="M386.5,1537.2c-3.5-4.3-6.8-8.7-11-12.3c-4.8-4.1-9.8-7.6-15.3-10.8c-11.2-6.3-23.6-11-36-14.3c-18-4.8-37.1-2-54.4,4.3
					c-36.5,13.5-67.6,43.8-84.2,78.6c-4.7,9.8-8.1,19.8-9.8,30.5c-1.5,9-2.6,21.3,2.5,29.3c1.3,2.1,4.8,2.3,5.5-0.5
					c2.2-7.4,1.8-15.8,3.1-23.6c1.3-8.2,3.9-16.3,7-24c6.6-16.4,17-31.6,29.1-44.5c22.9-24.5,56.4-45.4,91.3-41.4
					c12.2,1.4,24.5,6.5,35.6,11.5c6,2.8,12.1,5.7,17.8,9c5.5,3.1,11.4,6.2,16.2,10.3C385.6,1540.9,387.9,1538.9,386.5,1537.2
					L386.5,1537.2z"/>
			</g>
		</g>
		<g>
			<g>
				<path d="M265.6,1517c1.6-4.4,2.9-8.8,2-13.5c-0.9-4.9-3.6-9.8-6.4-14c-6.7-10-16.1-17.9-26.3-24.3
					c-19.1-11.8-45.5-21.1-67.4-12.3c-11.3,4.5-20.1,15.8-18.3,28.3c0.3,2.3,3.5,2.7,4.7,0.8c4.6-7.3,8.5-14.6,16.5-18.4
					c8-3.7,17.4-3.3,25.9-1.9c20.1,3.3,40.5,14.3,53.9,29.6c3.2,3.7,6,7.7,7.9,12.2c1.7,3.9,4,8.3,4.1,12.7
					C262.4,1518.2,264.9,1518.8,265.6,1517L265.6,1517z"/>
			</g>
		</g>
		<g>
			<g>
				<path d="M97.6,1470.3c4-2.1,9.9-2.3,14.3-2.5c3.9-0.2,7.9,0.4,11.7,1.5c9.1,2.9,16.8,9.1,23,16.1c7.1,7.7,12.5,16.7,16.6,26.3
					c1.9,4.4,3.2,8.8,4.2,13.5c1,4.7,2.4,8.9,3.9,13.4c0.7,2.1,3.5,2.3,4.3,0.2c2.2-5.4,2.6-9.9,1.5-15.6c-1.1-5.5-2.9-10.8-5.1-16
					c-4.7-11.2-11.5-21.8-20-30.5c-7.6-7.8-16.9-14.7-27.6-17.4c-5-1.2-10.3-1.7-15.3-0.5c-5.8,1.3-9,5.1-13.4,8.6
					C94,1468.7,95.8,1471.3,97.6,1470.3L97.6,1470.3z"/>
			</g>
		</g>
		<g>
			<g>
				<path d="M804.3,1586.1c6.5,0.6,13.1-2.5,19.6-2.6c6-0.2,11.7,0.8,17.2,3.3c11.8,5.5,20.6,16.5,27.4,27.2
					c17.2,27.5,26.2,60.7,30.3,92.6c1.7,13.3,2.4,26.8,1.3,40.2c-0.3,3.5,4.8,4.3,6,1.2c4.5-11.6,3.3-25.7,2.1-37.7
					c-1.7-17.1-5.1-34.2-10-50.7c-4.9-16.8-11.2-33.5-20.2-48.6c-7.5-12.6-17.3-25.1-30.6-31.8c-6.8-3.6-14.5-5.7-22.2-5.2
					c-7.5,0.5-18,3.2-21.9,10.3C802.9,1585,803.3,1586,804.3,1586.1L804.3,1586.1z"/>
			</g>
		</g>
		<g>
			<g>
				<path d="M476.4,1542.1c-9.9-21.7-39.5-21.7-59.3-17.3c-24.4,5.3-49.5,18.1-65,38c-7.6,9.7-12.3,22.3-8.1,34.3
					c1.3,3.6,7.2,4,7.3-0.5c0.9-19.9,15.1-35.2,31.2-45.3c18.3-11.5,41.4-19.4,63.2-17.4c9.7,0.9,19.6,4.2,26.9,11.1
					C474.5,1546.6,477.6,1544.6,476.4,1542.1L476.4,1542.1z"/>
			</g>
		</g>
		<g>
			<g>
				<path d="M699.6,1655.2c21.3,1.1,41.8,11.9,57.6,25.6c16.9,14.6,30.9,34.4,35.2,56.6c1.1,5.9,1.5,11.8,0.9,17.8s-2.8,11.8-3,17.8
					c0,1.4,1.7,2.4,2.8,1.3c8-7.4,8.5-22.2,7.7-32.3c-0.9-12.1-4.8-23.8-10.4-34.5c-11.7-22.6-30.8-41.4-53.8-52.2
					c-11.9-5.6-24.4-8.1-37.5-5.7C696,1650,696.4,1655,699.6,1655.2L699.6,1655.2z"/>
			</g>
		</g>
		<g>
			<g>
				<path d="M233.7,1657.6c-6.8-9.5-14.7-16.4-25.9-20.5c-10.1-3.6-21.2-4-31.7-2.4c-22.4,3.4-42.7,18.3-56.4,35.8
					c-4,5.1-7.3,10.7-10.2,16.6c-2.8,5.7-6.1,11.9-3.1,18.2c0.6,1.2,2.3,1.8,3.4,1.1c4.6-2.9,5.9-7.3,8.1-11.9
					c2.1-4.5,4.7-8.9,7.5-12.9c5.9-8.5,13.2-16,21.6-22.1c15-10.8,34.8-17.5,53.4-13.9c11,2.2,22.2,7.8,30.9,14.8
					C233.1,1661.8,234.9,1659.2,233.7,1657.6L233.7,1657.6z"/>
			</g>
		</g>
		<g>
			<g>
				<path d="M2.5,1459.5c8-3.8,15.4-7.6,24.3-8.4c7.4-0.7,14.9-0.9,22.2,0.6c15.5,3.3,29.3,12.8,40.4,23.9
					c25.4,25.4,42,61.1,47.6,96.3c2.7,17.1,2.4,34.9-1.9,51.7c-0.6,2.2,2.4,3.9,3.7,1.8c9-14,9.6-31.8,7.9-47.9
					c-2-19.4-7.7-38.3-15.7-56.1c-14.4-32.1-39.6-67.6-75.4-77.4c-8.7-2.3-18.9-3.7-27.7-1.2c-9.5,2.6-19.7,7.2-27.1,13.7
					C-1,1458,0.7,1460.4,2.5,1459.5L2.5,1459.5z"/>
			</g>
		</g>
	</g>
</g>
</svg>
